<svg width="94" height="30" viewBox="0 0 94 30" fill="none" xmlns="http://www.w3.org/2000/svg">
<rect width="94" height="30" fill="#FFF0F1"/>
<g clip-path="url(#clip0_1059_4495)">
<path d="M29.7157 10.5182C29.6657 10.4648 29.6126 10.4114 29.5595 10.3611C29.5063 10.3108 29.4563 10.2542 29.4032 10.2039C29.3501 10.1536 29.3001 10.0971 29.247 10.0468C29.1938 9.9965 29.1438 9.93993 29.0907 9.88964C29.0376 9.83936 28.9876 9.78278 28.9345 9.7325C28.8813 9.68221 28.8313 9.62564 28.7782 9.57536C28.7251 9.52507 28.6751 9.4685 28.622 9.41821C30.172 10.9503 31.06 13.0345 31.0938 15.2199C31.0938 20.4276 25.8376 24.6642 19.3751 24.6642C15.7563 24.6642 12.5188 23.3348 10.3657 21.2511L10.522 21.4082L10.6782 21.5654L10.8345 21.7225L10.9907 21.8796L11.147 22.0368L11.3032 22.1939L11.4595 22.3511C13.6095 24.5228 16.9188 25.9214 20.6251 25.9214C27.0876 25.9214 32.3438 21.6848 32.3438 16.4928C32.3438 14.2739 31.3938 12.1714 29.7157 10.5182Z" fill="black"/>
<path d="M30.3125 15.22C30.3125 20.0003 25.4156 23.8754 19.375 23.8754C13.3344 23.8754 8.4375 20.0003 8.4375 15.22C8.4375 12.2563 10.3125 9.6383 13.1937 8.08573C16.075 6.53316 17.8687 4.94287 19.375 4.94287C20.8813 4.94287 22.1687 6.24087 25.5562 8.08573C28.4375 9.6383 30.3125 12.2563 30.3125 15.22Z" fill="#FBF0DF"/>
<path d="M30.3124 15.2201C30.3109 14.606 30.2268 13.995 30.0624 13.4036C29.2093 23.8693 16.5155 24.3721 11.5249 21.2418C13.7683 22.9907 16.5368 23.9195 19.3749 23.8756C25.4062 23.8756 30.3124 19.9941 30.3124 15.2201Z" fill="#F6DECE"/>
<path d="M15.1656 7.51059C16.5625 6.6683 18.4187 5.08744 20.2437 5.0843C19.963 4.99303 19.67 4.94534 19.375 4.94287C18.6187 4.94287 17.8125 5.33573 16.7969 5.92659C16.4438 6.13401 16.0781 6.36344 15.6906 6.6023C14.9625 7.05487 14.1281 7.56716 13.1906 8.07944C10.2156 9.69801 8.4375 12.3663 8.4375 15.22C8.4375 15.3457 8.4375 15.4714 8.4375 15.594C10.3312 8.86516 13.7719 8.35287 15.1656 7.51059Z" fill="#FFFEFC"/>
<path fill-rule="evenodd" clip-rule="evenodd" d="M18.4749 5.73803C18.4793 6.48013 18.3244 7.21444 18.0207 7.89081C17.7171 8.56718 17.2719 9.16968 16.7155 9.65718C16.628 9.73575 16.6968 9.88661 16.8093 9.84261C17.8624 9.43089 19.2843 8.19889 18.6843 5.71289C18.6593 5.57146 18.4749 5.60918 18.4749 5.73803ZM19.1843 5.73803C19.5666 6.36548 19.8096 7.06867 19.8964 7.79938C19.9833 8.5301 19.912 9.27106 19.6874 9.97146C19.6499 10.0815 19.7843 10.1757 19.8593 10.0846C20.5437 9.20461 21.1405 7.45718 19.353 5.57146C19.2624 5.48975 19.1218 5.61546 19.1843 5.72546V5.73803ZM20.0468 5.6846C20.6456 6.11095 21.1465 6.66148 21.5158 7.29906C21.885 7.93664 22.1141 8.64645 22.1874 9.38061C22.1842 9.40706 22.1913 9.43373 22.2072 9.45507C22.223 9.47642 22.2465 9.49081 22.2726 9.49525C22.2987 9.4997 22.3255 9.49386 22.3475 9.47895C22.3694 9.46404 22.3849 9.44121 22.3905 9.41518C22.678 8.31832 22.5155 6.44832 20.1499 5.47718C20.0249 5.42689 19.9437 5.5966 20.0468 5.67203V5.6846ZM14.278 8.95318C14.9903 8.73917 15.6498 8.37669 16.2135 7.88934C16.7772 7.40199 17.2326 6.80069 17.5499 6.1246C17.6062 6.01146 17.7843 6.05546 17.7562 6.18118C17.2155 8.69546 15.4062 9.22032 14.2812 9.15118C14.1624 9.15432 14.1655 8.98775 14.278 8.95318Z" fill="#CCBEA7"/>
<path d="M19.375 24.6644C12.9125 24.6644 7.65625 20.4278 7.65625 15.2201C7.65625 12.0772 9.5875 9.14494 12.8219 7.38808C13.7594 6.88523 14.5625 6.37923 15.2781 5.93608C15.6719 5.69094 16.0437 5.46151 16.4031 5.2478C17.5 4.59408 18.4375 4.15723 19.375 4.15723C20.3125 4.15723 21.1313 4.53437 22.1563 5.14408C22.4688 5.32323 22.7813 5.51808 23.1156 5.7318C23.8938 6.2158 24.7719 6.76266 25.9281 7.38808C29.1625 9.14494 31.0938 12.0741 31.0938 15.2201C31.0938 20.4278 25.8375 24.6644 19.375 24.6644ZM19.375 4.94294C18.6187 4.94294 17.8125 5.3358 16.7969 5.92666C16.4438 6.13408 16.0781 6.36351 15.6906 6.60237C14.9625 7.05494 14.1281 7.56723 13.1906 8.07951C10.2156 9.69808 8.4375 12.3664 8.4375 15.2201C8.4375 19.9941 13.3438 23.8787 19.375 23.8787C25.4062 23.8787 30.3125 19.9941 30.3125 15.2201C30.3125 12.3664 28.5344 9.69808 25.5562 8.0858C24.375 7.45723 23.4531 6.86637 22.7062 6.40123C22.3656 6.19066 22.0531 5.9958 21.7687 5.82294C20.8219 5.25723 20.1313 4.94294 19.375 4.94294Z" fill="black"/>
<path d="M21.5782 17.5143C21.4379 18.0925 21.1183 18.6109 20.6657 18.9945C20.326 19.3258 19.8861 19.5337 19.4157 19.5854C18.9312 19.5419 18.4759 19.3335 18.1251 18.9945C17.6772 18.6091 17.3621 18.0909 17.2251 17.5143C17.2206 17.48 17.2239 17.4452 17.2348 17.4125C17.2457 17.3797 17.2639 17.3499 17.2881 17.3253C17.3122 17.3008 17.3416 17.2821 17.374 17.2707C17.4064 17.2593 17.441 17.2555 17.4751 17.2597H21.3314C21.3652 17.2561 21.3994 17.2602 21.4315 17.2718C21.4635 17.2834 21.4925 17.3022 21.5162 17.3267C21.54 17.3512 21.5579 17.3808 21.5687 17.4133C21.5794 17.4458 21.5827 17.4803 21.5782 17.5143Z" fill="#B71422"/>
<path d="M18.1251 19.0198C18.4753 19.3589 18.9289 19.5693 19.4126 19.6169C19.8953 19.5686 20.3477 19.3583 20.697 19.0198C20.8088 18.9151 20.9132 18.8027 21.0095 18.6835C20.817 18.4639 20.5819 18.2862 20.3185 18.1613C20.0552 18.0365 19.7692 17.9671 19.4783 17.9575C19.1669 17.9649 18.862 18.0483 18.5899 18.2005C18.3177 18.3527 18.0863 18.5692 17.9158 18.8312C17.9876 18.8972 18.0501 18.9601 18.1251 19.0198Z" fill="#FF6164"/>
<path d="M18.175 18.7714C18.33 18.57 18.5283 18.4066 18.7551 18.2933C18.9819 18.1801 19.2312 18.1201 19.4844 18.1177C19.9524 18.1316 20.3983 18.3211 20.7344 18.6489C20.8063 18.5703 20.875 18.4886 20.9407 18.4069C20.5431 18.0261 20.0177 17.8096 19.4688 17.8003C19.1754 17.8028 18.8863 17.8707 18.6221 17.9989C18.3579 18.1271 18.1252 18.3126 17.9407 18.542C18.0146 18.6227 18.0928 18.6993 18.175 18.7714Z" fill="black"/>
<path d="M19.4032 19.774C18.8825 19.7281 18.3924 19.5066 18.0126 19.1454C17.5289 18.734 17.1884 18.1779 17.0407 17.5583C17.0301 17.5031 17.0319 17.4463 17.046 17.3919C17.0601 17.3375 17.086 17.287 17.122 17.244C17.1648 17.192 17.2189 17.1505 17.2801 17.1227C17.3413 17.0949 17.408 17.0816 17.4751 17.0837H21.3314C21.3984 17.0823 21.4649 17.0959 21.526 17.1237C21.587 17.1514 21.6412 17.1925 21.6845 17.244C21.7201 17.2871 21.7456 17.3378 21.7591 17.3922C21.7727 17.4466 21.7738 17.5034 21.7626 17.5583C21.615 18.1779 21.2745 18.734 20.7907 19.1454C20.4117 19.506 19.9229 19.7274 19.4032 19.774ZM17.4751 17.4483C17.4251 17.4483 17.4126 17.4703 17.4095 17.4766C17.5416 18.0139 17.8404 18.4949 18.2626 18.85C18.5713 19.1559 18.9728 19.3495 19.4032 19.4C19.8326 19.35 20.2336 19.1589 20.5439 18.8563C20.9648 18.5006 21.2624 18.0197 21.3939 17.4829C21.387 17.4728 21.3776 17.4648 21.3666 17.4599C21.3555 17.4549 21.3434 17.453 21.3314 17.4546L17.4751 17.4483Z" fill="black"/>
<path d="M24.1313 17.7092C25.141 17.7092 25.9595 17.2251 25.9595 16.628C25.9595 16.0309 25.141 15.5469 24.1313 15.5469C23.1217 15.5469 22.3032 16.0309 22.3032 16.628C22.3032 17.2251 23.1217 17.7092 24.1313 17.7092Z" fill="#FEBBD0"/>
<path d="M14.6719 17.7092C15.6815 17.7092 16.5 17.2251 16.5 16.628C16.5 16.0309 15.6815 15.5469 14.6719 15.5469C13.6622 15.5469 12.8438 16.0309 12.8438 16.628C12.8438 17.2251 13.6622 17.7092 14.6719 17.7092Z" fill="#FEBBD0"/>
<path fill-rule="evenodd" clip-rule="evenodd" d="M15.5312 16.1944C15.8719 16.195 16.2052 16.094 16.4887 15.9041C16.7723 15.7142 16.9935 15.4439 17.1243 15.1275C17.2551 14.8112 17.2896 14.4629 17.2235 14.1268C17.1575 13.7906 16.9937 13.4818 16.753 13.2393C16.5123 12.9968 16.2055 12.8315 15.8714 12.7645C15.5374 12.6974 15.191 12.7315 14.8762 12.8625C14.5614 12.9935 14.2922 13.2154 14.1029 13.5003C13.9136 13.7851 13.8125 14.12 13.8125 14.4627C13.8125 14.9214 13.9935 15.3614 14.3157 15.6861C14.638 16.0107 15.0751 16.1936 15.5312 16.1944ZM23.2719 16.1944C23.613 16.1969 23.9471 16.0974 24.2319 15.9087C24.5167 15.7199 24.7393 15.4503 24.8716 15.1341C25.0038 14.8179 25.0397 14.4693 24.9747 14.1326C24.9097 13.7959 24.7467 13.4861 24.5064 13.2427C24.266 12.9992 23.9593 12.8331 23.6249 12.7652C23.2906 12.6974 22.9437 12.7309 22.6284 12.8616C22.313 12.9923 22.0433 13.2142 21.8536 13.4993C21.6638 13.7843 21.5625 14.1196 21.5625 14.4627C21.5617 14.92 21.7411 15.3591 22.0615 15.6837C22.3819 16.0082 22.8171 16.1919 23.2719 16.1944Z" fill="black"/>
<path fill-rule="evenodd" clip-rule="evenodd" d="M15 14.5726C15.128 14.5732 15.2534 14.5356 15.3602 14.4645C15.467 14.3934 15.5504 14.292 15.5998 14.1732C15.6492 14.0544 15.6625 13.9235 15.6379 13.7971C15.6133 13.6707 15.5519 13.5544 15.4616 13.4631C15.3713 13.3718 15.256 13.3096 15.1304 13.2842C15.0049 13.2589 14.8746 13.2716 14.7563 13.3207C14.6379 13.3699 14.5367 13.4532 14.4654 13.5603C14.3942 13.6673 14.3562 13.7932 14.3562 13.922C14.3562 14.094 14.4239 14.259 14.5446 14.381C14.6652 14.5029 14.8289 14.5718 15 14.5726ZM22.7406 14.5726C22.8686 14.5732 22.994 14.5356 23.1008 14.4645C23.2076 14.3934 23.291 14.292 23.3404 14.1732C23.3899 14.0544 23.4031 13.9235 23.3785 13.7971C23.3539 13.6707 23.2926 13.5544 23.2022 13.4631C23.1119 13.3718 22.9966 13.3096 22.8711 13.2842C22.7455 13.2589 22.6153 13.2716 22.4969 13.3207C22.3785 13.3699 22.2773 13.4532 22.2061 13.5603C22.1348 13.6673 22.0968 13.7932 22.0968 13.922C22.0968 14.093 22.1637 14.257 22.283 14.3788C22.4023 14.5005 22.5644 14.5701 22.7343 14.5726H22.7406Z" fill="white"/>
</g>
<path d="M38.06 19.5C37.9573 19.5 37.878 19.4673 37.822 19.402C37.7753 19.3367 37.7613 19.2573 37.78 19.164L39.726 10.05C39.7447 9.94733 39.7913 9.86333 39.866 9.798C39.9407 9.73267 40.0293 9.7 40.132 9.7H44.08C44.7707 9.7 45.34 9.81667 45.788 10.05C46.2453 10.274 46.5673 10.5867 46.754 10.988C46.9407 11.3893 46.978 11.856 46.866 12.388C46.782 12.7707 46.6467 13.0927 46.46 13.354C46.2827 13.6153 46.0867 13.83 45.872 13.998C45.6573 14.1567 45.452 14.278 45.256 14.362C45.5827 14.5487 45.844 14.8333 46.04 15.216C46.2453 15.5987 46.292 16.0607 46.18 16.602C46.0587 17.162 45.844 17.6613 45.536 18.1C45.228 18.5387 44.8127 18.884 44.29 19.136C43.7673 19.3787 43.1233 19.5 42.358 19.5H38.06ZM39.964 18.016H42.302C42.7873 18.016 43.198 17.8807 43.534 17.61C43.87 17.33 44.08 16.994 44.164 16.602C44.248 16.1913 44.2013 15.8507 44.024 15.58C43.8467 15.3093 43.478 15.174 42.918 15.174H40.58L39.964 18.016ZM40.888 13.718H43.044C43.52 13.718 43.9167 13.6013 44.234 13.368C44.5513 13.1253 44.7567 12.8127 44.85 12.43C44.934 12.038 44.8873 11.7347 44.71 11.52C44.5327 11.296 44.2013 11.184 43.716 11.184H41.434L40.888 13.718ZM51.5207 19.64C50.9233 19.64 50.3867 19.5653 49.9107 19.416C49.4347 19.2573 49.0427 19.0193 48.7347 18.702C48.436 18.3847 48.2353 17.9833 48.1327 17.498C48.0393 17.0033 48.0627 16.42 48.2027 15.748L49.4067 10.05C49.4253 9.94733 49.472 9.86333 49.5467 9.798C49.6307 9.73267 49.7193 9.7 49.8127 9.7H51.0867C51.1893 9.7 51.264 9.73267 51.3107 9.798C51.3573 9.86333 51.3713 9.94733 51.3527 10.05L50.1347 15.748C49.976 16.5133 50.0133 17.0827 50.2467 17.456C50.48 17.82 50.9467 18.002 51.6467 18.002C52.3187 18.002 52.874 17.82 53.3127 17.456C53.7513 17.0827 54.05 16.5133 54.2087 15.748L55.4267 10.05C55.4453 9.94733 55.4967 9.86333 55.5807 9.798C55.6647 9.73267 55.7533 9.7 55.8467 9.7H57.1067C57.2093 9.7 57.284 9.73267 57.3307 9.798C57.3773 9.86333 57.3913 9.94733 57.3727 10.05L56.1687 15.748C55.8793 17.092 55.3613 18.0767 54.6147 18.702C53.868 19.3273 52.8367 19.64 51.5207 19.64ZM57.9591 19.5C57.8565 19.5 57.7771 19.4673 57.7211 19.402C57.6745 19.3367 57.6605 19.2573 57.6791 19.164L59.6251 10.05C59.6438 9.94733 59.6905 9.86333 59.7651 9.798C59.8398 9.73267 59.9238 9.7 60.0171 9.7H61.0811C61.2118 9.7 61.3005 9.728 61.3471 9.784C61.4031 9.84 61.4358 9.88667 61.4451 9.924L64.1611 16.252L65.4771 10.05C65.4958 9.94733 65.5425 9.86333 65.6171 9.798C65.7011 9.73267 65.7945 9.7 65.8971 9.7H67.0731C67.1758 9.7 67.2505 9.73267 67.2971 9.798C67.3438 9.86333 67.3578 9.94733 67.3391 10.05L65.4071 19.15C65.3885 19.2527 65.3418 19.3367 65.2671 19.402C65.1925 19.4673 65.1038 19.5 65.0011 19.5H63.9371C63.8065 19.5 63.7178 19.472 63.6711 19.416C63.6245 19.36 63.5918 19.3133 63.5731 19.276L60.8431 13.088L59.5551 19.164C59.5365 19.2573 59.4898 19.3367 59.4151 19.402C59.3405 19.4673 59.2518 19.5 59.1491 19.5H57.9591ZM70.9653 19.64C70.5173 19.64 70.0739 19.5793 69.6353 19.458C69.1966 19.3273 68.8046 19.1313 68.4593 18.87C68.1233 18.6087 67.8713 18.2867 67.7033 17.904C67.5353 17.5213 67.4886 17.0687 67.5633 16.546C67.5819 16.462 67.6193 16.392 67.6753 16.336C67.7406 16.2707 67.8199 16.238 67.9133 16.238H69.2573C69.3786 16.238 69.4626 16.2707 69.5093 16.336C69.5653 16.4013 69.5979 16.49 69.6073 16.602C69.5699 17.106 69.6819 17.47 69.9433 17.694C70.2046 17.918 70.5826 18.03 71.0773 18.03C71.7306 18.03 72.2439 17.8387 72.6173 17.456C72.9999 17.0733 73.2613 16.5413 73.4013 15.86L74.3673 11.352H69.6073C69.5139 11.352 69.4393 11.3193 69.3833 11.254C69.3366 11.1887 69.3226 11.1093 69.3413 11.016L69.5653 10.036C69.5839 9.94267 69.6306 9.86333 69.7053 9.798C69.7799 9.73267 69.8639 9.7 69.9573 9.7H76.3693C76.4719 9.7 76.5466 9.73267 76.5933 9.798C76.6399 9.86333 76.6539 9.94733 76.6353 10.05L75.3893 15.916C75.2306 16.6907 74.9693 17.358 74.6053 17.918C74.2506 18.478 73.7746 18.9073 73.1773 19.206C72.5799 19.4953 71.8426 19.64 70.9653 19.64ZM80.4074 19.64C79.5394 19.64 78.83 19.514 78.2794 19.262C77.7287 19.01 77.3274 18.6787 77.0754 18.268C76.8327 17.848 76.7487 17.4047 76.8234 16.938C76.8327 16.854 76.8654 16.784 76.9214 16.728C76.9867 16.672 77.0614 16.644 77.1454 16.644H78.4334C78.5454 16.644 78.6247 16.672 78.6714 16.728C78.7274 16.7747 78.7694 16.8353 78.7974 16.91C78.8254 17.0873 78.9 17.2647 79.0214 17.442C79.1427 17.61 79.3247 17.75 79.5674 17.862C79.8194 17.974 80.1414 18.03 80.5334 18.03C81.2054 18.03 81.7374 17.918 82.1294 17.694C82.5214 17.47 82.7594 17.1667 82.8434 16.784C82.8994 16.5133 82.8574 16.2987 82.7174 16.14C82.5774 15.972 82.3347 15.8227 81.9894 15.692C81.644 15.552 81.1867 15.4073 80.6174 15.258C79.964 15.09 79.4274 14.8753 79.0074 14.614C78.5874 14.3527 78.298 14.026 78.1394 13.634C77.99 13.242 77.976 12.7707 78.0974 12.22C78.2654 11.408 78.6947 10.764 79.3854 10.288C80.0854 9.80267 81 9.56 82.1294 9.56C82.7174 9.56 83.2307 9.644 83.6694 9.812C84.108 9.97067 84.472 10.1853 84.7614 10.456C85.0507 10.7173 85.256 11.002 85.3774 11.31C85.4987 11.6087 85.536 11.9027 85.4894 12.192C85.48 12.2667 85.4474 12.3367 85.3914 12.402C85.3354 12.458 85.2607 12.486 85.1674 12.486H83.8374C83.7534 12.486 83.6787 12.4673 83.6134 12.43C83.548 12.3927 83.5014 12.3227 83.4734 12.22C83.4827 11.9307 83.352 11.6833 83.0814 11.478C82.82 11.2727 82.4654 11.17 82.0174 11.17C81.5134 11.17 81.0794 11.2633 80.7154 11.45C80.3607 11.6367 80.1367 11.926 80.0434 12.318C79.9967 12.5793 80.0294 12.7987 80.1414 12.976C80.2534 13.144 80.4634 13.2933 80.7714 13.424C81.0794 13.5547 81.504 13.6947 82.0454 13.844C82.8107 14.0213 83.4127 14.2407 83.8514 14.502C84.2994 14.754 84.6027 15.0713 84.7614 15.454C84.92 15.8367 84.9387 16.3033 84.8174 16.854C84.6307 17.7687 84.1594 18.464 83.4034 18.94C82.6474 19.4067 81.6487 19.64 80.4074 19.64Z" fill="black" fill-opacity="0.9"/>
<defs>
<clipPath id="clip0_1059_4495">
<rect width="25" height="22" fill="white" transform="translate(7.5 4)"/>
</clipPath>
</defs>
</svg>
