<svg width="131" height="30" viewBox="0 0 131 30" fill="none" xmlns="http://www.w3.org/2000/svg">
<rect width="131" height="30" fill="white"/>
<g clip-path="url(#clip0_1059_4945)">
<path d="M10.3969 20.4094C10.6032 20.4094 10.7907 20.4563 10.8938 20.55C10.9125 20.7 10.7719 20.9438 10.6875 20.9438C10.5844 20.9063 10.4907 20.8875 10.3688 20.8875C9.8813 20.8875 9.63755 21.3938 9.63755 21.8907C9.63755 22.2 9.74067 22.3875 9.9938 22.3875C10.2563 22.3875 10.5188 22.2094 10.6688 22.0782C10.7063 22.1063 10.7532 22.1907 10.7532 22.2844C10.7532 22.3875 10.725 22.4907 10.6219 22.5938C10.4532 22.7625 10.1625 22.9125 9.74067 22.9125C9.26255 22.9125 8.92505 22.6407 8.92505 22.0032C8.9438 21.1594 9.48755 20.4094 10.3969 20.4094Z" fill="#373535"/>
<path d="M11.9719 22.3594C12.2344 22.3594 12.7125 21.9 12.8438 21.0188C12.8531 20.9625 12.8531 20.9532 12.8625 20.8969C12.8063 20.8782 12.7219 20.8594 12.6469 20.8594C12.45 20.8594 12.2438 20.9157 12.0656 21.1688C11.8781 21.4313 11.7937 21.7594 11.7937 22.0219C11.7937 22.2375 11.8594 22.3594 11.9719 22.3594ZM11.1094 22.1157C11.1094 21.7969 11.2125 21.2532 11.6156 20.85C11.9625 20.4938 12.375 20.4094 12.7594 20.4094C13.0125 20.4094 13.35 20.4938 13.5656 20.5313C13.5094 20.7657 13.3875 21.6563 13.3219 22.1719C13.2938 22.3875 13.2844 22.6969 13.2938 22.8094C13.1156 22.8844 12.7875 22.9032 12.6938 22.9032C12.6469 22.9032 12.6375 22.6875 12.6469 22.4719C12.6563 22.4063 12.6656 22.3032 12.6656 22.2563C12.4594 22.6032 12.0469 22.8938 11.6156 22.8938C11.3062 22.9032 11.1094 22.6407 11.1094 22.1157Z" fill="#373535"/>
<path d="M14.8969 20.4094C15.1125 20.4094 15.3282 20.4938 15.4219 20.5875C15.4125 20.7375 15.3 20.9907 15.1125 20.9157C15.0282 20.8875 14.9532 20.8688 14.8407 20.8688C14.7 20.8688 14.5688 20.9344 14.5688 21.0657C14.5688 21.1688 14.6438 21.2438 15 21.4969C15.2532 21.6844 15.3563 21.8532 15.3563 22.0875C15.3563 22.4813 14.9907 22.9032 14.3438 22.9032C14.0813 22.9032 13.8469 22.8 13.7813 22.6969C13.6875 22.5375 13.7625 22.2188 13.8657 22.275C14.0063 22.3407 14.2313 22.4157 14.4188 22.4157C14.5969 22.4157 14.7094 22.3313 14.7094 22.2282C14.7094 22.1344 14.625 22.0594 14.3063 21.825C14.0344 21.6188 13.95 21.4313 13.95 21.225C13.95 20.775 14.3344 20.4094 14.8969 20.4094Z" fill="#373535"/>
<path d="M16.7438 20.4094C16.9595 20.4094 17.1751 20.4938 17.2688 20.5875C17.2595 20.7375 17.147 20.9907 16.9595 20.9157C16.8751 20.8875 16.8001 20.8688 16.6876 20.8688C16.547 20.8688 16.4157 20.9344 16.4157 21.0657C16.4157 21.1688 16.4907 21.2438 16.847 21.4969C17.1001 21.6844 17.2032 21.8532 17.2032 22.0875C17.2032 22.4813 16.8376 22.9032 16.1907 22.9032C15.9282 22.9032 15.7032 22.8 15.6282 22.6969C15.5345 22.5375 15.6095 22.2188 15.7126 22.275C15.8532 22.3407 16.0782 22.4157 16.2657 22.4157C16.4438 22.4157 16.5563 22.3313 16.5563 22.2282C16.5563 22.1344 16.472 22.0594 16.1532 21.825C15.8813 21.6188 15.797 21.4313 15.797 21.225C15.797 20.775 16.1813 20.4094 16.7438 20.4094Z" fill="#373535"/>
<path d="M18.4218 22.3594C18.6843 22.3594 19.1625 21.9 19.2937 21.0188C19.3031 20.9625 19.3031 20.9532 19.3125 20.8969C19.2562 20.8782 19.1718 20.8594 19.0968 20.8594C18.9 20.8594 18.6937 20.9157 18.5156 21.1688C18.3281 21.4313 18.2437 21.7594 18.2437 22.0219C18.2531 22.2375 18.3093 22.3594 18.4218 22.3594ZM17.5593 22.1157C17.5593 21.7969 17.6625 21.2532 18.0656 20.85C18.4125 20.4938 18.825 20.4094 19.2093 20.4094C19.4625 20.4094 19.8 20.4938 20.0156 20.5313C19.9593 20.7657 19.8375 21.6563 19.7718 22.1719C19.7437 22.3875 19.7343 22.6969 19.7437 22.8094C19.5656 22.8844 19.2375 22.9032 19.1437 22.9032C19.0968 22.9032 19.0875 22.6875 19.0968 22.4719C19.1062 22.4063 19.1156 22.3032 19.1156 22.2563C18.9093 22.6032 18.4968 22.8938 18.0656 22.8938C17.7656 22.9032 17.5593 22.6407 17.5593 22.1157Z" fill="#373535"/>
<path d="M21.225 21.1031C21.4688 20.7094 21.7875 20.4094 22.2375 20.4094C22.6219 20.4094 22.7438 20.7656 22.6688 21.2625C22.6313 21.4969 22.5657 21.8344 22.5282 22.1438C22.4907 22.4063 22.4625 22.6406 22.4719 22.8C22.3313 22.8656 21.9282 22.8938 21.8344 22.8938C21.7969 22.8938 21.7875 22.6031 21.8438 22.2938C21.8907 22.0406 21.975 21.5719 22.0219 21.3C22.05 21.1406 22.0407 20.9531 21.8907 20.9531C21.6938 20.9531 21.225 21.2719 20.9907 22.5656C20.9719 22.6688 20.9344 22.7344 20.8688 22.7719C20.7844 22.8188 20.6157 22.8656 20.2688 22.8656C20.3344 22.5375 20.4375 21.8719 20.5125 21.375C20.5782 20.925 20.6063 20.6344 20.5969 20.5219C20.6907 20.4937 21.1688 20.3906 21.2157 20.3906C21.2719 20.3906 21.2813 20.5594 21.2344 20.9531C21.225 20.9906 21.225 21.0469 21.2157 21.0844H21.225V21.1031Z" fill="#373535"/>
<path d="M23.9437 22.3501C24.1781 22.3501 24.6562 21.9095 24.7875 21.1313C24.7968 21.0845 24.8062 21.0095 24.8156 20.9626C24.75 20.897 24.6562 20.8595 24.5062 20.8595C23.9625 20.8595 23.7281 21.5063 23.7281 21.9751C23.7375 22.2188 23.8218 22.3501 23.9437 22.3501ZM23.5968 22.9032C23.25 22.9032 23.0437 22.5938 23.0437 22.0782C23.0437 21.2157 23.5875 20.4188 24.4968 20.4188C24.6562 20.4188 24.8062 20.4657 24.8906 20.5126C24.9375 20.2688 25.05 19.5095 25.0593 19.2845C25.2093 19.2563 25.5281 19.2095 25.6781 19.2095C25.7343 19.2095 25.7531 19.2657 25.7343 19.4063C25.6031 20.2126 25.3781 21.7501 25.3312 22.0876C25.3031 22.3782 25.2937 22.6595 25.3031 22.8188C25.1343 22.8938 24.7875 22.9126 24.6937 22.9126C24.6562 22.9126 24.6375 22.6688 24.6468 22.4438C24.6562 22.3782 24.6656 22.2751 24.6656 22.2563C24.375 22.6876 24.0093 22.9032 23.5968 22.9032Z" fill="#373535"/>
<path d="M26.7281 21.1783C27.0094 20.5501 27.3469 20.4095 27.5719 20.4095C27.6375 20.4095 27.75 20.4564 27.7969 20.5033C27.8156 20.6814 27.675 21.0283 27.5531 21.1689C27.4875 21.1408 27.4125 21.1033 27.3187 21.1033C27.1406 21.1033 26.775 21.3845 26.55 22.6033C26.5312 22.7064 26.5031 22.7439 26.4469 22.772C26.3531 22.8283 25.9969 22.8658 25.8281 22.8751C25.9125 22.4345 26.0437 21.5439 26.1 21.0189C26.1187 20.8876 26.1188 20.6345 26.1094 20.5408C26.2125 20.4939 26.6156 20.4001 26.7 20.4001C26.7469 20.4001 26.7844 20.6908 26.7094 21.1689H26.7281V21.1783Z" fill="#373535"/>
<path d="M28.6125 22.3594C28.875 22.3594 29.3531 21.9 29.4844 21.0188C29.4938 20.9625 29.4937 20.9532 29.5031 20.8969C29.4469 20.8782 29.3625 20.8594 29.2875 20.8594C29.0906 20.8594 28.8844 20.9157 28.7062 21.1688C28.5187 21.4313 28.4344 21.7594 28.4344 22.0219C28.4438 22.2375 28.5 22.3594 28.6125 22.3594ZM27.75 22.1157C27.75 21.7969 27.8531 21.2532 28.2562 20.85C28.6031 20.4938 29.0156 20.4094 29.4 20.4094C29.6531 20.4094 29.9906 20.4938 30.2062 20.5313C30.15 20.7657 30.0281 21.6563 29.9625 22.1719C29.9344 22.3875 29.925 22.6969 29.9344 22.8094C29.7563 22.8844 29.4281 22.9032 29.3344 22.9032C29.2875 22.9032 29.2781 22.6875 29.2875 22.4719C29.2969 22.4063 29.3063 22.3032 29.3063 22.2563C29.1 22.6032 28.6875 22.8938 28.2562 22.8938C27.9562 22.9032 27.75 22.6407 27.75 22.1157Z" fill="#373535"/>
<path d="M26.7658 11.3438C26.9439 13.3969 23.7096 15.3563 19.5377 15.7125C15.3658 16.0688 11.8502 14.6906 11.6721 12.6375C11.4939 10.5844 14.7283 8.62502 18.9002 8.26877C23.0627 7.91252 26.5877 9.28127 26.7658 11.3438Z" fill="#BBE6FB"/>
<path d="M19.0127 8.5031C17.4189 8.47497 15.5627 9.11247 14.1752 9.7031C14.0346 10.1156 13.9502 10.5562 13.9502 11.0156C13.9502 13.4531 16.1533 15.4312 18.8721 15.4312C21.5908 15.4312 23.8033 13.4625 23.8033 11.0156C23.8033 10.2468 23.5783 9.5156 23.1939 8.88747C22.0877 8.71872 20.5596 8.53122 19.0127 8.5031Z" fill="white"/>
<path d="M18.8814 8.50322C18.0001 8.44697 16.4814 8.90635 15.2158 9.36572C15.0189 9.81572 14.9158 10.3126 14.9158 10.8376C14.9158 12.9751 16.8564 14.7095 18.9001 14.7095C20.9345 14.7095 22.7345 12.9751 22.8845 10.8376C22.9314 10.1438 22.697 9.4876 22.3595 8.9251C21.0564 8.7001 19.6689 8.55947 18.8814 8.50322Z" fill="white"/>
<path d="M16.622 10.5656C16.7345 10.3219 16.8938 10.2094 17.0532 10.0125C17.0345 9.96564 16.997 9.80627 16.997 9.75939C16.997 9.51564 17.1938 9.32814 17.4282 9.32814C17.4845 9.32814 17.5407 9.33752 17.5876 9.35627C18.3095 8.80314 19.2563 8.56877 20.2126 8.78439C20.297 8.80314 20.3813 8.83127 20.4657 8.85002C19.5282 8.71877 18.4595 9.05627 17.7376 9.63752C17.7563 9.69377 17.822 9.83439 17.822 9.90002C17.822 10.1438 17.6626 10.2 17.4282 10.2C17.372 10.2 17.3251 10.1906 17.2688 10.1719C17.1095 10.3875 16.9032 10.8094 16.8095 11.0719C17.2126 11.4281 17.5688 11.5594 18.0376 11.7375C18.0376 11.7188 18.0563 11.6906 18.0563 11.6719C18.0563 10.95 18.6938 10.3594 19.4157 10.3594C20.0626 10.3594 20.6063 10.8281 20.7095 11.4469C21.0376 11.2406 21.347 11.0813 21.5813 10.7813C21.5251 10.7156 21.4688 10.5188 21.4688 10.425C21.4688 10.2094 21.647 10.0313 21.8626 10.0313C21.8907 10.0313 21.9188 10.0313 21.9563 10.0406C22.0782 9.78752 22.172 9.52502 22.2282 9.25314C21.0938 8.40939 18.9001 8.53127 18.9001 8.53127C18.9001 8.53127 17.1563 8.43752 15.9751 9.01877C16.0595 9.56252 16.2845 10.1063 16.622 10.5656Z" fill="#373535"/>
<path d="M22.0408 10.2375C22.1252 10.3125 22.1627 10.3687 22.2002 10.4344C22.3033 10.6219 22.0971 10.8 21.8721 10.8C21.8533 10.8 21.8252 10.8 21.8064 10.7906C21.5627 11.175 21.1314 11.6625 20.7471 11.9156C21.3377 12.0094 21.8908 12.2437 22.3221 12.6094C22.6408 12.0375 22.8846 11.2031 22.8846 10.5C22.8846 9.96563 22.6502 9.57187 22.2939 9.28125C22.2846 9.57187 22.1252 9.975 22.0408 10.2375Z" fill="#373535"/>
<path d="M17.2782 13.875C17.475 13.3312 17.9532 12.9187 18.4125 12.5531C18.3469 12.4593 18.2438 12.2343 18.2063 12.1312C17.6532 11.9625 17.1657 11.6437 16.7813 11.2312C16.7813 11.2406 16.7719 11.2593 16.7719 11.2687C16.6969 11.5875 16.6875 11.9156 16.725 12.225C16.9875 12.2718 17.1938 12.5062 17.1938 12.7875C17.1938 12.9562 17.0438 13.1906 16.9313 13.3031C17.0438 13.5468 17.1282 13.6781 17.2782 13.875Z" fill="#373535"/>
<path d="M17.2408 14.3251C17.0064 14.0908 16.847 13.6314 16.697 13.3408C16.6689 13.3408 16.6408 13.3501 16.6126 13.3501C16.2939 13.3501 15.9658 13.0876 16.0408 12.7783C16.0783 12.6095 16.2001 12.497 16.3876 12.4033C16.3408 12.047 16.3314 11.5501 16.4158 11.1845C16.4345 11.0814 16.4908 11.0345 16.5189 10.9314C16.172 10.4251 15.947 9.75015 15.947 9.08452V9.00952C15.3564 9.30952 14.9158 9.7689 14.9158 10.5001C14.9158 12.122 15.8533 13.7158 17.2408 14.3345V14.3251Z" fill="#373535"/>
<path d="M20.6625 12.0845C20.4844 12.5907 19.9969 12.9657 19.425 12.9657C19.1156 12.9657 18.8344 12.8626 18.6187 12.6845C18.1594 13.0407 17.7375 13.6688 17.5312 14.222C17.625 14.3251 17.6906 14.4095 17.8031 14.5032C18.1219 14.5876 18.5719 14.5032 18.9188 14.5032C20.3156 14.5032 21.5625 13.8845 22.275 12.7876C21.7875 12.4501 21.225 12.1313 20.6625 12.0845Z" fill="#373535"/>
<path d="M16.5844 10.7532C16.6969 10.5094 16.8282 10.2938 16.9875 10.0876C16.9688 10.0407 16.9594 9.98444 16.9594 9.93757C16.9594 9.69382 17.1563 9.50632 17.3907 9.50632C17.4469 9.50632 17.5032 9.51569 17.55 9.53444C18.2719 8.98132 19.2188 8.74694 20.175 8.96257C20.2594 8.98132 20.3438 9.00944 20.4282 9.02819C19.4907 8.89694 18.5157 9.18757 17.7938 9.76882C17.8125 9.82507 17.8313 9.88132 17.8313 9.93757C17.8313 10.1813 17.6344 10.3688 17.4 10.3688C17.3438 10.3688 17.2969 10.3594 17.2407 10.3407C17.0813 10.5563 16.9407 10.8001 16.8469 11.0626C17.1938 11.4282 17.6157 11.7282 18.0844 11.8969V11.8313C18.0844 11.1094 18.675 10.5188 19.3969 10.5188C20.0438 10.5188 20.5875 10.9876 20.6907 11.6063C21.0188 11.4001 21.3 11.1376 21.5438 10.8282C21.4875 10.7626 21.45 10.6782 21.45 10.5844C21.45 10.3688 21.6282 10.1907 21.8438 10.1907C21.8719 10.1907 21.9 10.1907 21.9375 10.2001C22.0594 9.94694 22.1532 9.68444 22.2094 9.41257C21.075 8.56882 18.8813 8.69069 18.8813 8.69069C18.8813 8.69069 17.1375 8.59694 15.9563 9.17819C16.0219 9.75007 16.2469 10.2938 16.5844 10.7532Z" fill="#1287B1"/>
<path d="M22.0969 10.3031C22.1812 10.3781 22.2281 10.4812 22.2281 10.5938C22.2281 10.8094 22.05 10.9875 21.8344 10.9875C21.8156 10.9875 21.7875 10.9875 21.7687 10.9781C21.525 11.3625 21.1969 11.6906 20.8125 11.9344C21.375 12.0187 21.9094 12.2625 22.35 12.6281C22.6687 12.0563 22.8563 11.3906 22.8563 10.6875C22.8563 10.1531 22.6219 9.75937 22.2656 9.46875C22.2469 9.75937 22.1906 10.0406 22.0969 10.3031Z" fill="#1287B1"/>
<path d="M17.3346 13.9969C17.5314 13.4532 17.8689 12.975 18.3283 12.6094C18.2627 12.5157 18.2064 12.4219 18.1689 12.3094C17.6158 12.1407 17.1283 11.8219 16.7439 11.4094C16.7439 11.4188 16.7346 11.4375 16.7346 11.4469C16.6596 11.7657 16.6502 12.0938 16.6877 12.4032C16.9502 12.45 17.1564 12.6844 17.1564 12.9657C17.1564 13.1344 17.0814 13.2844 16.9689 13.3875C17.0627 13.6032 17.1939 13.8094 17.3346 13.9969Z" fill="#1287B1"/>
<path d="M17.2407 14.3158C17.0063 14.0814 16.8094 13.8189 16.6594 13.5283C16.6313 13.5283 16.6032 13.5376 16.575 13.5376C16.2563 13.5376 16.0032 13.2845 16.0032 12.9658C16.0032 12.7408 16.1344 12.5439 16.3219 12.4501C16.275 12.0939 16.2938 11.7376 16.3782 11.372C16.3969 11.2689 16.4344 11.1658 16.4625 11.0626C16.1157 10.5564 15.9094 9.93765 15.9094 9.27202V9.19702C15.3188 9.49702 14.8782 9.9564 14.8782 10.6876C14.8782 12.3095 15.8438 13.7064 17.2313 14.3251C17.2407 14.3251 17.2407 14.3251 17.2407 14.3158Z" fill="#1287B1"/>
<path d="M20.6252 12.272C20.4471 12.7782 19.9596 13.1532 19.3877 13.1532C19.0783 13.1532 18.7971 13.0501 18.5814 12.872C18.1221 13.2282 17.7752 13.7157 17.5596 14.2688C17.6533 14.372 17.7564 14.4657 17.8596 14.5595C18.1783 14.6438 18.5158 14.6907 18.8627 14.6907C20.2596 14.6907 21.4971 13.9688 22.2096 12.872C21.7408 12.5345 21.1877 12.3188 20.6252 12.272Z" fill="#1287B1"/>
<path d="M20.6719 11.9343L21.8813 11.6437L20.6625 11.5781L21.6563 10.8281L20.5313 11.2312L21.2907 10.1718L20.2313 10.875L20.5969 9.63745L19.875 10.6593L19.8563 9.36558L19.3782 10.5187L18.9844 9.3562L19.0032 10.725L18.3188 9.49683L18.6938 10.8L17.5782 9.9937L18.45 11.0906L17.0625 10.5843L18.15 11.3906L16.7532 11.4375L18.1875 11.8031L16.7532 12.1125L18.1688 12.2156L16.9782 12.975L18.2063 12.5343L17.3532 13.6125L18.4313 12.7406L18.0469 14.1843L18.8813 13.0031L18.7688 14.3906L19.2375 13.125L19.6407 14.4468L19.7344 13.1156L20.3344 14.25L19.9782 12.9562L21.0657 13.8L20.3625 12.7218L21.5625 13.1906L20.6438 12.2906L21.8719 12.3843L20.6719 11.9343Z" fill="white"/>
<path d="M7.7627 14.25C11.5221 10.4906 14.5221 9.32812 17.2502 8.80312C17.6064 8.7375 17.6814 7.94062 17.6814 7.94062C17.6814 7.94062 17.7283 8.52188 17.9814 8.59688C18.2346 8.67188 18.5627 7.6875 18.5627 7.6875C18.5627 7.6875 18.2627 8.56875 18.5627 8.625C18.8627 8.67188 19.4252 7.7625 19.4252 7.7625C19.4252 7.7625 19.2002 8.54063 19.3502 8.59688C19.5002 8.64375 20.2596 7.4625 20.2596 7.4625C20.2596 7.4625 19.8096 8.24063 20.2314 8.325C20.6627 8.4 21.2908 7.79062 21.2908 7.79062C21.2908 7.79062 20.8033 8.34375 21.0189 8.42812C21.9564 8.75625 22.7064 7.54688 22.7064 7.54688C22.7064 7.54688 22.5283 8.08125 22.0783 8.6625C23.0627 8.91562 23.7939 7.43437 23.7939 7.43437L23.0627 8.91563C23.4377 9.10313 24.9471 7.35938 24.9471 7.35938C24.9471 7.35938 24.1689 8.71875 23.7096 9C23.9627 9.20625 24.8721 8.39062 24.8721 8.39062C24.8721 8.39062 24.1408 9.3 24.4221 9.34688C24.8252 9.675 26.3158 7.65937 26.3158 7.65937C26.3158 7.65937 25.7346 8.85 24.8814 9.77812C25.5939 10.1437 27.3752 7.84687 27.3752 7.84687C27.3752 7.84687 27.3283 8.57812 26.0346 9.74062C26.9908 9.61875 28.2283 7.8 28.2283 7.8C28.2283 7.8 27.7783 9.15937 26.6908 10.125C27.6283 10.0312 29.1377 7.70625 29.1377 7.70625C29.1377 7.70625 28.5564 9.31875 27.3752 10.2563C28.6877 10.5469 30.5814 8.5875 30.5814 8.5875C30.5814 8.5875 29.8408 9.975 28.8658 10.5469C29.9533 10.9594 31.4439 9.24375 31.4439 9.24375C31.4439 9.24375 29.9533 11.5406 27.5814 11.4375C26.8033 11.4 24.4502 9.075 19.4064 9.2625C12.7314 9.50625 11.3252 12.3375 7.7627 14.25Z" fill="#373535" fill-opacity="0.35"/>
<path d="M7.9126 13.9688C11.672 10.2094 14.672 9.04692 17.4001 8.52192C17.7563 8.4563 17.8313 7.65942 17.8313 7.65942C17.8313 7.65942 17.8782 8.24067 18.1313 8.31567C18.3845 8.39067 18.7126 7.4063 18.7126 7.4063C18.7126 7.4063 18.4126 8.28755 18.7126 8.3438C19.0126 8.39067 19.5751 7.4813 19.5751 7.4813C19.5751 7.4813 19.3501 8.25942 19.5001 8.31567C19.6501 8.36255 20.4095 7.1813 20.4095 7.1813C20.4095 7.1813 19.9595 7.95942 20.3813 8.0438C20.8126 8.1188 21.4407 7.50942 21.4407 7.50942C21.4407 7.50942 20.9532 8.06255 21.1688 8.14692C22.1063 8.47505 22.8563 7.26567 22.8563 7.26567C22.8563 7.26567 22.6782 7.80005 22.2282 8.3813C23.2126 8.63442 23.9438 7.15317 23.9438 7.15317L23.2126 8.63442C23.5876 8.84067 25.1063 7.09692 25.1063 7.09692C25.1063 7.09692 24.3282 8.4563 23.8688 8.73755C24.122 8.91567 25.0313 8.10942 25.0313 8.10942C25.0313 8.10942 24.3001 9.0188 24.5813 9.06567C24.9845 9.3938 26.4751 7.37817 26.4751 7.37817C26.4751 7.37817 25.8845 8.5688 25.0313 9.49692C25.7438 9.85317 27.5345 7.5563 27.5345 7.5563C27.5345 7.5563 27.4876 8.28755 26.1938 9.45005C27.1501 9.32817 28.3876 7.50942 28.3876 7.50942C28.3876 7.50942 27.9376 8.8688 26.8501 9.83442C27.7876 9.74067 29.297 7.41567 29.297 7.41567C29.297 7.41567 28.7157 9.02817 27.5345 9.96567C28.847 10.2563 30.7407 8.29692 30.7407 8.29692C30.7407 8.29692 30.0001 9.68442 29.0251 10.2563C30.1126 10.6688 31.6032 8.95317 31.6032 8.95317C31.6032 8.95317 30.1126 11.25 27.7407 11.1469C26.9626 11.1094 24.6095 8.78442 19.5657 8.97192C12.8907 9.22505 11.4751 12.0469 7.9126 13.9688Z" fill="#373535"/>
<path d="M7.66895 14.6626C9.65645 15.6563 11.4752 14.5126 13.7627 15.1595C15.5064 15.647 17.6252 16.2563 20.5033 15.8345C23.3814 15.422 25.8377 14.1657 27.0189 11.9345C27.3846 10.9407 28.8752 12.1595 28.8752 12.1595C28.8752 12.1595 27.7877 11.7095 27.8158 11.9157C27.8439 12.1313 29.4471 12.872 29.4471 12.872C29.4471 12.872 27.9939 12.422 28.0877 12.7595C28.1721 13.097 29.9064 14.4657 29.9064 14.4657C29.9064 14.4657 27.9283 12.9845 27.7689 13.1907C27.6002 13.397 28.6033 14.2126 28.6033 14.2126C28.6033 14.2126 26.9533 13.1907 26.3721 13.4907C25.9502 13.7063 28.0877 15.1032 28.0877 15.1032C28.0877 15.1032 26.7002 14.0438 26.3721 14.3251C26.0439 14.6063 27.9377 16.8751 27.9377 16.8751C27.9377 16.8751 25.7814 14.5501 25.5658 14.6626C25.3502 14.7751 26.1564 15.8907 26.1564 15.8907C26.1564 15.8907 25.1064 14.7282 24.8158 14.9251C24.5252 15.1313 26.3346 18.1407 26.3346 18.1407C26.3346 18.1407 24.3752 15.0563 23.5596 15.572C24.8252 18.3563 24.3564 18.7501 24.3564 18.7501C24.3564 18.7501 24.1971 15.9095 22.6127 15.9845C21.8158 16.022 22.9877 18.1032 22.9877 18.1032C22.9877 18.1032 21.9096 16.2001 21.1877 16.2376C22.5096 18.7501 22.0408 19.7626 22.0408 19.7626C22.0408 19.7626 22.2564 17.6157 20.4658 16.4251C21.1502 17.0345 20.0346 19.7626 20.0346 19.7626C20.0346 19.7626 21.0096 15.7407 19.3127 16.5095C19.0408 16.6313 19.2939 18.5157 19.2939 18.5157C19.2939 18.5157 18.9564 16.3595 18.4408 16.472C18.1408 16.5376 16.5471 19.4626 16.5471 19.4626C16.5471 19.4626 17.8502 16.3032 17.4564 16.4345C17.1658 16.5282 16.6221 17.8313 16.6221 17.8313C16.6221 17.8313 16.8846 16.547 16.6221 16.472C16.3596 16.397 14.8783 17.8313 14.8783 17.8313C14.8783 17.8313 15.9752 16.547 15.7877 16.2751C15.4971 15.872 15.1689 15.8532 14.7658 16.0126C14.1846 16.2376 13.4064 17.297 13.4064 17.297C13.4064 17.297 14.1846 16.2188 14.0533 15.8251C13.8377 15.1782 11.5971 17.072 11.5971 17.072C11.5971 17.072 12.9189 15.8251 12.6189 15.5532C12.3189 15.2907 10.6689 15.3657 10.1627 15.3657C8.65332 15.3845 8.12832 15.0282 7.66895 14.6626Z" fill="#373535" fill-opacity="0.35"/>
<path d="M7.58447 14.4375C9.57197 15.4312 11.3907 14.2875 13.6782 14.9344C15.422 15.4219 17.5407 16.0312 20.4188 15.6094C23.297 15.1969 25.7532 13.9406 26.9345 11.7094C27.3001 10.7156 28.7907 11.9344 28.7907 11.9344C28.7907 11.9344 27.7032 11.4844 27.7313 11.6906C27.7595 11.9062 29.3626 12.6469 29.3626 12.6469C29.3626 12.6469 27.9095 12.1969 28.0032 12.5344C28.0876 12.8719 29.822 14.2406 29.822 14.2406C29.822 14.2406 27.8626 12.75 27.7032 12.9562C27.5438 13.1625 28.5376 13.9781 28.5376 13.9781C28.5376 13.9781 26.8876 12.9562 26.3063 13.2562C25.8845 13.4719 28.022 14.8687 28.022 14.8687C28.022 14.8687 26.6345 13.8094 26.3063 14.0906C25.9782 14.3719 27.872 16.6406 27.872 16.6406C27.872 16.6406 25.7251 14.3156 25.5095 14.4281C25.2938 14.5406 26.1001 15.6562 26.1001 15.6562C26.1001 15.6562 25.0313 14.5031 24.7407 14.7C24.4501 14.9062 26.2501 17.9156 26.2501 17.9156C26.2501 17.9156 24.2907 14.8219 23.4845 15.3375C24.7595 18.1312 24.2813 18.525 24.2813 18.525C24.2813 18.525 24.122 15.6844 22.5376 15.7594C21.7407 15.7969 22.9126 17.8781 22.9126 17.8781C22.9126 17.8781 21.8438 15.9844 21.122 16.0219C22.4438 18.5344 21.9751 19.5469 21.9751 19.5469C21.9751 19.5469 22.1907 17.4 20.4001 16.2094C21.0845 16.8187 19.9688 19.5469 19.9688 19.5469C19.9688 19.5469 20.9438 15.525 19.247 16.2937C18.9751 16.4156 19.2282 18.3 19.2282 18.3C19.2282 18.3 18.8907 16.1437 18.3751 16.2562C18.0751 16.3219 16.4813 19.2469 16.4813 19.2469C16.4813 19.2469 17.7845 16.0875 17.3907 16.2187C17.1001 16.3125 16.5563 17.6156 16.5563 17.6156C16.5563 17.6156 16.8188 16.3312 16.5563 16.2562C16.2938 16.1812 14.8126 17.6156 14.8126 17.6156C14.8126 17.6156 15.9095 16.3312 15.722 16.0594C15.4313 15.6562 15.1032 15.6375 14.7001 15.7969C14.1188 16.0219 13.3407 17.0812 13.3407 17.0812C13.3407 17.0812 14.1188 16.0031 13.9876 15.6094C13.772 14.9625 11.5313 16.8562 11.5313 16.8562C11.5313 16.8562 12.8532 15.6094 12.5532 15.3375C12.2532 15.075 10.6032 15.15 10.097 15.15C8.56885 15.1594 8.04385 14.8031 7.58447 14.4375Z" fill="#373535"/>
</g>
<path d="M40.644 19.64C40.0093 19.64 39.4493 19.556 38.964 19.388C38.488 19.22 38.096 18.9727 37.788 18.646C37.4893 18.31 37.284 17.9087 37.172 17.442C37.06 16.9753 37.0553 16.4433 37.158 15.846C37.2233 15.4633 37.3027 15.0527 37.396 14.614C37.4987 14.1753 37.5967 13.7553 37.69 13.354C37.8953 12.57 38.1987 11.8933 38.6 11.324C39.0107 10.7547 39.5333 10.3207 40.168 10.022C40.8027 9.714 41.5587 9.56 42.436 9.56C43.0613 9.56 43.6167 9.63933 44.102 9.798C44.5873 9.95667 44.9887 10.1853 45.306 10.484C45.6327 10.7827 45.8613 11.128 45.992 11.52C46.1227 11.912 46.1413 12.3413 46.048 12.808C46.0387 12.892 46.006 12.962 45.95 13.018C45.894 13.074 45.824 13.102 45.74 13.102H44.396C44.284 13.102 44.1953 13.0787 44.13 13.032C44.074 12.976 44.046 12.8873 44.046 12.766C44.074 12.1687 43.9247 11.7533 43.598 11.52C43.2807 11.2867 42.8513 11.17 42.31 11.17C41.6847 11.17 41.1387 11.3473 40.672 11.702C40.2053 12.0473 39.874 12.6213 39.678 13.424C39.482 14.1893 39.314 14.9733 39.174 15.776C39.034 16.5787 39.104 17.1573 39.384 17.512C39.6733 17.8573 40.1307 18.03 40.756 18.03C41.2973 18.03 41.778 17.918 42.198 17.694C42.6273 17.4607 42.9773 17.0407 43.248 16.434C43.3133 16.3033 43.3787 16.2147 43.444 16.168C43.5093 16.1213 43.5933 16.098 43.696 16.098H45.054C45.138 16.098 45.2033 16.126 45.25 16.182C45.2967 16.238 45.3107 16.308 45.292 16.392C45.1707 16.84 44.984 17.2647 44.732 17.666C44.4893 18.058 44.172 18.4033 43.78 18.702C43.3973 18.9913 42.9447 19.22 42.422 19.388C41.9087 19.556 41.316 19.64 40.644 19.64ZM45.7233 19.5C45.6019 19.5 45.5226 19.4533 45.4853 19.36C45.4386 19.2667 45.4433 19.1733 45.4993 19.08L50.7913 10.05C50.8473 9.95667 50.9173 9.87733 51.0013 9.812C51.0946 9.73733 51.2113 9.7 51.3513 9.7H52.9753C53.1153 9.7 53.2179 9.73733 53.2833 9.812C53.3486 9.87733 53.3859 9.95667 53.3953 10.05L54.8513 19.08C54.8699 19.2107 54.8466 19.3133 54.7813 19.388C54.7253 19.4627 54.6459 19.5 54.5433 19.5H53.3533C53.2226 19.5 53.1293 19.472 53.0733 19.416C53.0173 19.3507 52.9799 19.2713 52.9613 19.178L52.6533 17.526H48.4953L47.4733 19.234C47.4266 19.2993 47.3659 19.36 47.2913 19.416C47.2166 19.472 47.1233 19.5 47.0113 19.5H45.7233ZM49.3213 15.916H52.5133L51.8413 11.59L49.3213 15.916ZM59.5219 19.64C58.6539 19.64 57.9446 19.514 57.3939 19.262C56.8432 19.01 56.4419 18.6787 56.1899 18.268C55.9472 17.848 55.8632 17.4047 55.9379 16.938C55.9472 16.854 55.9799 16.784 56.0359 16.728C56.1012 16.672 56.1759 16.644 56.2599 16.644H57.5479C57.6599 16.644 57.7392 16.672 57.7859 16.728C57.8419 16.7747 57.8839 16.8353 57.9119 16.91C57.9399 17.0873 58.0146 17.2647 58.1359 17.442C58.2572 17.61 58.4392 17.75 58.6819 17.862C58.9339 17.974 59.2559 18.03 59.6479 18.03C60.3199 18.03 60.8519 17.918 61.2439 17.694C61.6359 17.47 61.8739 17.1667 61.9579 16.784C62.0139 16.5133 61.9719 16.2987 61.8319 16.14C61.6919 15.972 61.4492 15.8227 61.1039 15.692C60.7586 15.552 60.3012 15.4073 59.7319 15.258C59.0786 15.09 58.5419 14.8753 58.1219 14.614C57.7019 14.3527 57.4126 14.026 57.2539 13.634C57.1046 13.242 57.0906 12.7707 57.2119 12.22C57.3799 11.408 57.8092 10.764 58.4999 10.288C59.1999 9.80267 60.1146 9.56 61.2439 9.56C61.8319 9.56 62.3452 9.644 62.7839 9.812C63.2226 9.97067 63.5866 10.1853 63.8759 10.456C64.1652 10.7173 64.3706 11.002 64.4919 11.31C64.6132 11.6087 64.6506 11.9027 64.6039 12.192C64.5946 12.2667 64.5619 12.3367 64.5059 12.402C64.4499 12.458 64.3752 12.486 64.2819 12.486H62.9519C62.8679 12.486 62.7932 12.4673 62.7279 12.43C62.6626 12.3927 62.6159 12.3227 62.5879 12.22C62.5972 11.9307 62.4666 11.6833 62.1959 11.478C61.9346 11.2727 61.5799 11.17 61.1319 11.17C60.6279 11.17 60.1939 11.2633 59.8299 11.45C59.4752 11.6367 59.2512 11.926 59.1579 12.318C59.1112 12.5793 59.1439 12.7987 59.2559 12.976C59.3679 13.144 59.5779 13.2933 59.8859 13.424C60.1939 13.5547 60.6186 13.6947 61.1599 13.844C61.9252 14.0213 62.5272 14.2407 62.9659 14.502C63.4139 14.754 63.7172 15.0713 63.8759 15.454C64.0346 15.8367 64.0532 16.3033 63.9319 16.854C63.7452 17.7687 63.2739 18.464 62.5179 18.94C61.7619 19.4067 60.7632 19.64 59.5219 19.64ZM68.6307 19.64C67.7627 19.64 67.0533 19.514 66.5027 19.262C65.952 19.01 65.5507 18.6787 65.2987 18.268C65.056 17.848 64.972 17.4047 65.0467 16.938C65.056 16.854 65.0887 16.784 65.1447 16.728C65.21 16.672 65.2847 16.644 65.3687 16.644H66.6567C66.7687 16.644 66.848 16.672 66.8947 16.728C66.9507 16.7747 66.9927 16.8353 67.0207 16.91C67.0487 17.0873 67.1233 17.2647 67.2447 17.442C67.366 17.61 67.548 17.75 67.7907 17.862C68.0427 17.974 68.3647 18.03 68.7567 18.03C69.4287 18.03 69.9607 17.918 70.3527 17.694C70.7447 17.47 70.9827 17.1667 71.0667 16.784C71.1227 16.5133 71.0807 16.2987 70.9407 16.14C70.8007 15.972 70.558 15.8227 70.2127 15.692C69.8673 15.552 69.41 15.4073 68.8407 15.258C68.1873 15.09 67.6507 14.8753 67.2307 14.614C66.8107 14.3527 66.5213 14.026 66.3627 13.634C66.2133 13.242 66.1993 12.7707 66.3207 12.22C66.4887 11.408 66.918 10.764 67.6087 10.288C68.3087 9.80267 69.2233 9.56 70.3527 9.56C70.9407 9.56 71.454 9.644 71.8927 9.812C72.3313 9.97067 72.6953 10.1853 72.9847 10.456C73.274 10.7173 73.4793 11.002 73.6007 11.31C73.722 11.6087 73.7593 11.9027 73.7127 12.192C73.7033 12.2667 73.6707 12.3367 73.6147 12.402C73.5587 12.458 73.484 12.486 73.3907 12.486H72.0607C71.9767 12.486 71.902 12.4673 71.8367 12.43C71.7713 12.3927 71.7247 12.3227 71.6967 12.22C71.706 11.9307 71.5753 11.6833 71.3047 11.478C71.0433 11.2727 70.6887 11.17 70.2407 11.17C69.7367 11.17 69.3027 11.2633 68.9387 11.45C68.584 11.6367 68.36 11.926 68.2667 12.318C68.22 12.5793 68.2527 12.7987 68.3647 12.976C68.4767 13.144 68.6867 13.2933 68.9947 13.424C69.3027 13.5547 69.7273 13.6947 70.2687 13.844C71.034 14.0213 71.636 14.2407 72.0747 14.502C72.5227 14.754 72.826 15.0713 72.9847 15.454C73.1433 15.8367 73.162 16.3033 73.0407 16.854C72.854 17.7687 72.3827 18.464 71.6267 18.94C70.8707 19.4067 69.872 19.64 68.6307 19.64ZM73.5007 19.5C73.3794 19.5 73.3 19.4533 73.2627 19.36C73.216 19.2667 73.2207 19.1733 73.2767 19.08L78.5687 10.05C78.6247 9.95667 78.6947 9.87733 78.7787 9.812C78.872 9.73733 78.9887 9.7 79.1287 9.7H80.7527C80.8927 9.7 80.9954 9.73733 81.0607 9.812C81.126 9.87733 81.1634 9.95667 81.1727 10.05L82.6287 19.08C82.6474 19.2107 82.624 19.3133 82.5587 19.388C82.5027 19.4627 82.4234 19.5 82.3207 19.5H81.1307C81 19.5 80.9067 19.472 80.8507 19.416C80.7947 19.3507 80.7574 19.2713 80.7387 19.178L80.4307 17.526H76.2727L75.2507 19.234C75.204 19.2993 75.1434 19.36 75.0687 19.416C74.994 19.472 74.9007 19.5 74.7887 19.5H73.5007ZM77.0987 15.916H80.2907L79.6187 11.59L77.0987 15.916ZM84.3264 19.5C84.2237 19.5 84.1444 19.4673 84.0884 19.402C84.0417 19.3367 84.0277 19.2573 84.0464 19.164L85.9924 10.05C86.0111 9.94733 86.0577 9.86333 86.1324 9.798C86.2071 9.73267 86.2911 9.7 86.3844 9.7H87.4484C87.5791 9.7 87.6677 9.728 87.7144 9.784C87.7704 9.84 87.8031 9.88667 87.8124 9.924L90.5284 16.252L91.8444 10.05C91.8631 9.94733 91.9097 9.86333 91.9844 9.798C92.0684 9.73267 92.1617 9.7 92.2644 9.7H93.4404C93.5431 9.7 93.6177 9.73267 93.6644 9.798C93.7111 9.86333 93.7251 9.94733 93.7064 10.05L91.7744 19.15C91.7557 19.2527 91.7091 19.3367 91.6344 19.402C91.5597 19.4673 91.4711 19.5 91.3684 19.5H90.3044C90.1737 19.5 90.0851 19.472 90.0384 19.416C89.9917 19.36 89.9591 19.3133 89.9404 19.276L87.2104 13.088L85.9224 19.164C85.9037 19.2573 85.8571 19.3367 85.7824 19.402C85.7077 19.4673 85.6191 19.5 85.5164 19.5H84.3264ZM94.3785 19.5C94.2758 19.5 94.1965 19.4673 94.1405 19.402C94.0938 19.3367 94.0798 19.2573 94.0985 19.164L96.0445 10.05C96.0632 9.94733 96.1098 9.86333 96.1845 9.798C96.2592 9.73267 96.3478 9.7 96.4505 9.7H99.6565C100.273 9.7 100.828 9.784 101.323 9.952C101.817 10.1107 102.228 10.3533 102.555 10.68C102.881 10.9973 103.11 11.394 103.241 11.87C103.371 12.346 103.381 12.892 103.269 13.508C103.185 13.9187 103.11 14.2827 103.045 14.6C102.979 14.9173 102.895 15.2767 102.793 15.678C102.587 16.546 102.293 17.2647 101.911 17.834C101.537 18.394 101.038 18.814 100.413 19.094C99.7965 19.3647 99.0078 19.5 98.0465 19.5H94.3785ZM96.3245 17.89H98.1165C98.6392 17.89 99.0778 17.8153 99.4325 17.666C99.7965 17.5167 100.091 17.2787 100.315 16.952C100.539 16.616 100.711 16.1773 100.833 15.636C100.907 15.356 100.968 15.1133 101.015 14.908C101.061 14.6933 101.103 14.4833 101.141 14.278C101.187 14.0633 101.234 13.8207 101.281 13.55C101.43 12.7847 101.36 12.22 101.071 11.856C100.791 11.492 100.249 11.31 99.4465 11.31H97.7245L96.3245 17.89ZM104.531 19.5C104.437 19.5 104.367 19.4673 104.321 19.402C104.274 19.3367 104.26 19.2573 104.279 19.164L106.211 10.05C106.229 9.94733 106.276 9.86333 106.351 9.798C106.435 9.73267 106.523 9.7 106.617 9.7H110.243C111.372 9.7 112.207 9.96133 112.749 10.484C113.29 11.0067 113.453 11.7673 113.239 12.766C113.089 13.4567 112.8 14.0307 112.371 14.488C111.941 14.9453 111.414 15.2767 110.789 15.482L112.077 19.052C112.086 19.08 112.091 19.108 112.091 19.136C112.091 19.1547 112.086 19.178 112.077 19.206C112.067 19.29 112.025 19.36 111.951 19.416C111.876 19.472 111.801 19.5 111.727 19.5H110.453C110.294 19.5 110.182 19.458 110.117 19.374C110.061 19.29 110.014 19.206 109.977 19.122L108.885 15.804H106.939L106.225 19.164C106.206 19.2573 106.155 19.3367 106.071 19.402C105.996 19.4673 105.907 19.5 105.805 19.5H104.531ZM107.275 14.222H109.235C109.804 14.222 110.257 14.096 110.593 13.844C110.929 13.5827 111.143 13.2187 111.237 12.752C111.339 12.2853 111.279 11.9213 111.055 11.66C110.84 11.3893 110.443 11.254 109.865 11.254H107.891L107.275 14.222ZM112.985 19.5C112.863 19.5 112.784 19.4533 112.747 19.36C112.7 19.2667 112.705 19.1733 112.761 19.08L118.053 10.05C118.109 9.95667 118.179 9.87733 118.263 9.812C118.356 9.73733 118.473 9.7 118.613 9.7H120.237C120.377 9.7 120.479 9.73733 120.545 9.812C120.61 9.87733 120.647 9.95667 120.657 10.05L122.113 19.08C122.131 19.2107 122.108 19.3133 122.043 19.388C121.987 19.4627 121.907 19.5 121.805 19.5H120.615C120.484 19.5 120.391 19.472 120.335 19.416C120.279 19.3507 120.241 19.2713 120.223 19.178L119.915 17.526H115.757L114.735 19.234C114.688 19.2993 114.627 19.36 114.553 19.416C114.478 19.472 114.385 19.5 114.273 19.5H112.985ZM116.583 15.916H119.775L119.103 11.59L116.583 15.916Z" fill="#1C81A0" fill-opacity="0.9"/>
<defs>
<clipPath id="clip0_1059_4945">
<rect width="24" height="24" fill="white" transform="translate(7.5 3)"/>
</clipPath>
</defs>
</svg>
