<svg width="69" height="30" viewBox="0 0 69 30" fill="none" xmlns="http://www.w3.org/2000/svg">
<rect width="69" height="30" fill="#091A28"/>
<path fill-rule="evenodd" clip-rule="evenodd" d="M12.722 20.251C12.0453 20.2527 11.4708 20.0619 11.0016 19.8266C9.85183 19.2502 9.28125 18.2366 9.28125 16.8047C9.28125 15.3732 9.85467 14.3659 11.0016 13.7832C11.4739 13.5541 12.0472 13.4124 12.722 13.3586H14.2593C14.5965 13.3586 14.8598 13.5001 15.0486 13.7832C15.2374 14.0661 15.3318 14.3962 15.3318 14.7735C15.3318 15.1509 15.2374 15.481 15.0486 15.764C14.8598 16.0468 14.5965 16.1884 14.2593 16.1884H12.722C12.3171 16.1884 12.1148 16.394 12.1148 16.8047C12.1148 17.2159 12.3171 17.4226 12.722 17.4215L18.1833 17.3958C18.5206 17.395 18.7839 17.5375 18.9727 17.8204C19.1612 18.1032 19.256 18.4333 19.256 18.8107C19.256 19.188 19.1615 19.5182 18.9727 19.8011C18.7839 20.084 18.5204 20.2248 18.1833 20.2255L12.722 20.251Z" fill="#01933F"/>
<path fill-rule="evenodd" clip-rule="evenodd" d="M26.8264 19.1593V14.3217C26.8264 13.9849 26.9682 13.7256 27.2514 13.537C27.5349 13.348 27.8654 13.2539 28.2432 13.2539C28.6209 13.2539 28.9514 13.348 29.235 13.537C29.5183 13.7256 29.66 13.9849 29.66 14.3217V19.1593C29.66 19.4962 29.5183 19.7557 29.235 19.9443C28.9514 20.1328 28.6209 20.2272 28.2432 20.2272C27.8654 20.2272 27.5349 20.1328 27.2514 19.9443C26.9682 19.7557 26.8264 19.4962 26.8264 19.1593Z" fill="#01933F"/>
<path fill-rule="evenodd" clip-rule="evenodd" d="M28.2432 12.4858C27.8519 12.4858 27.518 12.3477 27.2414 12.0715C26.9648 11.7952 26.8264 11.4617 26.8264 11.0709C26.8264 10.6801 26.9648 10.3467 27.2414 10.0704C27.518 9.7942 27.8519 9.65625 28.2432 9.65625C28.6345 9.65625 28.9684 9.7942 29.245 10.0704C29.5216 10.3467 29.66 10.6801 29.66 11.0709C29.66 11.4617 29.5216 11.7952 29.245 12.0715C28.9684 12.3477 28.6345 12.4858 28.2432 12.4858Z" fill="#83C21F"/>
<path fill-rule="evenodd" clip-rule="evenodd" d="M22.7786 19.1559V16.7305C22.7786 16.3264 22.5761 16.1241 22.1713 16.1241H20.0873C18.6572 16.1241 17.6517 15.5514 17.0716 14.406C16.8423 13.9345 16.7005 13.3617 16.6465 12.688V11.0709C16.6465 10.7341 16.7884 10.4712 17.0716 10.2826C17.355 10.094 17.6856 9.99976 18.0634 9.99976C18.441 9.99976 18.7716 10.094 19.0551 10.2826C19.3384 10.4712 19.4802 10.7341 19.4802 11.0709V12.688C19.4802 13.0923 19.6824 13.2944 20.0873 13.2944H22.1713C22.8461 13.348 23.4194 13.4898 23.8917 13.7189C25.0387 14.2983 25.6122 15.3022 25.6122 16.7305V19.1559C25.6122 19.4929 25.4704 19.7557 25.1872 19.9442C24.9037 20.1328 24.5731 20.2272 24.1954 20.2272C23.8175 20.2272 23.4869 20.1328 23.2035 19.9442C22.9203 19.7557 22.7786 19.4929 22.7786 19.1559Z" fill="#01933F"/>
<path d="M40.644 19.64C40.0093 19.64 39.4493 19.556 38.964 19.388C38.488 19.22 38.096 18.9727 37.788 18.646C37.4893 18.31 37.284 17.9087 37.172 17.442C37.06 16.9753 37.0553 16.4433 37.158 15.846C37.2233 15.4633 37.3027 15.0527 37.396 14.614C37.4987 14.1753 37.5967 13.7553 37.69 13.354C37.8953 12.57 38.1987 11.8933 38.6 11.324C39.0107 10.7547 39.5333 10.3207 40.168 10.022C40.8027 9.714 41.5587 9.56 42.436 9.56C43.0613 9.56 43.6167 9.63933 44.102 9.798C44.5873 9.95667 44.9887 10.1853 45.306 10.484C45.6327 10.7827 45.8613 11.128 45.992 11.52C46.1227 11.912 46.1413 12.3413 46.048 12.808C46.0387 12.892 46.006 12.962 45.95 13.018C45.894 13.074 45.824 13.102 45.74 13.102H44.396C44.284 13.102 44.1953 13.0787 44.13 13.032C44.074 12.976 44.046 12.8873 44.046 12.766C44.074 12.1687 43.9247 11.7533 43.598 11.52C43.2807 11.2867 42.8513 11.17 42.31 11.17C41.6847 11.17 41.1387 11.3473 40.672 11.702C40.2053 12.0473 39.874 12.6213 39.678 13.424C39.482 14.1893 39.314 14.9733 39.174 15.776C39.034 16.5787 39.104 17.1573 39.384 17.512C39.6733 17.8573 40.1307 18.03 40.756 18.03C41.2973 18.03 41.778 17.918 42.198 17.694C42.6273 17.4607 42.9773 17.0407 43.248 16.434C43.3133 16.3033 43.3787 16.2147 43.444 16.168C43.5093 16.1213 43.5933 16.098 43.696 16.098H45.054C45.138 16.098 45.2033 16.126 45.25 16.182C45.2967 16.238 45.3107 16.308 45.292 16.392C45.1707 16.84 44.984 17.2647 44.732 17.666C44.4893 18.058 44.172 18.4033 43.78 18.702C43.3973 18.9913 42.9447 19.22 42.422 19.388C41.9087 19.556 41.316 19.64 40.644 19.64ZM46.7566 19.5C46.654 19.5 46.5746 19.472 46.5186 19.416C46.472 19.3507 46.458 19.2667 46.4766 19.164L48.4226 10.05C48.4413 9.94733 48.488 9.86333 48.5626 9.798C48.6373 9.73267 48.726 9.7 48.8286 9.7H50.0886C50.1913 9.7 50.266 9.73267 50.3126 9.798C50.3686 9.86333 50.3873 9.94733 50.3686 10.05L49.5986 13.662H53.7286L54.4986 10.05C54.5173 9.94733 54.564 9.86333 54.6386 9.798C54.7133 9.73267 54.802 9.7 54.9046 9.7H56.1646C56.2673 9.7 56.342 9.73267 56.3886 9.798C56.4446 9.86333 56.4633 9.94733 56.4446 10.05L54.4986 19.164C54.48 19.2573 54.4333 19.3367 54.3586 19.402C54.284 19.4673 54.1953 19.5 54.0926 19.5H52.8326C52.73 19.5 52.6506 19.4673 52.5946 19.402C52.548 19.3367 52.534 19.2573 52.5526 19.164L53.3506 15.412H49.2206L48.4226 19.164C48.404 19.2573 48.3573 19.3367 48.2826 19.402C48.208 19.4673 48.1193 19.5 48.0166 19.5H46.7566ZM57.0819 19.5C56.9885 19.5 56.9139 19.4673 56.8579 19.402C56.8112 19.3367 56.7972 19.2573 56.8159 19.164L58.7619 10.036C58.7805 9.94267 58.8272 9.86333 58.9019 9.798C58.9765 9.73267 59.0652 9.7 59.1679 9.7H60.4839C60.5772 9.7 60.6519 9.73267 60.7079 9.798C60.7639 9.86333 60.7825 9.94267 60.7639 10.036L58.8039 19.164C58.7852 19.2573 58.7385 19.3367 58.6639 19.402C58.5892 19.4673 58.5052 19.5 58.4119 19.5H57.0819Z" fill="white" fill-opacity="0.9"/>
</svg>
