<svg width="99" height="30" viewBox="0 0 99 30" fill="none" xmlns="http://www.w3.org/2000/svg">
<rect width="99" height="30" fill="black"/>
<g clip-path="url(#clip0_1059_4517)">
<path d="M18.473 25.9459C24.5331 25.9459 29.4459 21.0331 29.4459 14.973C29.4459 8.91276 24.5331 4 18.473 4C12.4128 4 7.5 8.91276 7.5 14.973C7.5 21.0331 12.4128 25.9459 18.473 25.9459Z" fill="black"/>
<path fill-rule="evenodd" clip-rule="evenodd" d="M21.8567 17.4498C23.7144 17.5409 25.6546 16.7072 26.2569 15.0481C26.8592 13.389 26.6256 11.7482 24.465 10.7641C22.3045 9.7796 21.3066 8.60949 19.5611 7.90351C18.4207 7.44223 17.1518 7.71599 15.8489 8.43607C12.3397 10.3755 9.19544 16.503 10.6447 22.1802C10.6655 22.258 10.6306 22.3395 10.56 22.3785C10.4898 22.4171 10.4017 22.4026 10.3473 22.3434C8.39329 20.188 7.29378 17.2654 7.53254 14.1383C7.99367 8.09998 13.2704 3.57193 19.3087 4.03305C25.3467 4.49412 29.8747 9.77077 29.4136 15.8091C29.22 18.345 28.1773 20.6142 26.5849 22.3597C25.3672 23.6106 23.8158 24.1666 22.5212 24.1436C21.5827 24.127 20.6647 23.7534 20.03 23.2073C19.1239 22.4267 18.7576 21.5348 18.6324 20.5391C18.601 20.2918 18.6194 19.6175 18.7483 19.1506C18.844 18.8026 19.0876 18.1302 19.4437 17.8362C19.027 17.657 18.4912 17.2663 18.322 17.0788C18.2807 17.0329 18.2862 16.9605 18.3234 16.9111C18.3602 16.8612 18.4258 16.8419 18.4839 16.8628C18.842 16.9857 19.2781 17.1066 19.738 17.1838C20.3427 17.285 21.0947 17.412 21.8567 17.4498ZM18.0763 8.66825C18.6682 8.62183 19.1846 9.12706 19.2737 9.79891C19.3924 10.6939 19.064 11.6185 17.9838 11.6398C17.0611 11.6582 16.7815 10.7277 16.8427 10.164C16.9034 9.60026 17.3681 8.72382 18.0763 8.66825Z" fill="white"/>
</g>
<path d="M35.06 19.5C34.9573 19.5 34.878 19.4673 34.822 19.402C34.7753 19.3367 34.7613 19.2573 34.78 19.164L36.726 10.05C36.7447 9.94733 36.7913 9.86333 36.866 9.798C36.9407 9.73267 37.0293 9.7 37.132 9.7H40.338C40.954 9.7 41.5093 9.784 42.004 9.952C42.4987 10.1107 42.9093 10.3533 43.236 10.68C43.5627 10.9973 43.7913 11.394 43.922 11.87C44.0527 12.346 44.062 12.892 43.95 13.508C43.866 13.9187 43.7913 14.2827 43.726 14.6C43.6607 14.9173 43.5767 15.2767 43.474 15.678C43.2687 16.546 42.9747 17.2647 42.592 17.834C42.2187 18.394 41.7193 18.814 41.094 19.094C40.478 19.3647 39.6893 19.5 38.728 19.5H35.06ZM37.006 17.89H38.798C39.3207 17.89 39.7593 17.8153 40.114 17.666C40.478 17.5167 40.772 17.2787 40.996 16.952C41.22 16.616 41.3927 16.1773 41.514 15.636C41.5887 15.356 41.6493 15.1133 41.696 14.908C41.7427 14.6933 41.7847 14.4833 41.822 14.278C41.8687 14.0633 41.9153 13.8207 41.962 13.55C42.1113 12.7847 42.0413 12.22 41.752 11.856C41.472 11.492 40.9307 11.31 40.128 11.31H38.406L37.006 17.89ZM45.0301 19.5C44.9274 19.5 44.8481 19.4673 44.7921 19.402C44.7454 19.3367 44.7314 19.2573 44.7501 19.164L46.6961 10.05C46.7147 9.94733 46.7614 9.86333 46.8361 9.798C46.9107 9.73267 46.9994 9.7 47.1021 9.7H53.2621C53.3647 9.7 53.4394 9.73267 53.4861 9.798C53.5327 9.86333 53.5467 9.94733 53.5281 10.05L53.3321 10.974C53.3134 11.0673 53.2667 11.1467 53.1921 11.212C53.1174 11.2773 53.0287 11.31 52.9261 11.31H48.3201L47.7881 13.788H52.0861C52.1887 13.788 52.2634 13.8207 52.3101 13.886C52.3567 13.942 52.3707 14.0213 52.3521 14.124L52.1701 14.992C52.1514 15.0947 52.1047 15.1787 52.0301 15.244C51.9554 15.3 51.8667 15.328 51.7641 15.328H47.4661L46.9061 17.89H51.6381C51.7407 17.89 51.8154 17.9227 51.8621 17.988C51.9087 18.0533 51.9227 18.1373 51.9041 18.24L51.7081 19.164C51.6894 19.2573 51.6427 19.3367 51.5681 19.402C51.4934 19.4673 51.4047 19.5 51.3021 19.5H45.0301ZM53.8654 19.5C53.7627 19.5 53.6834 19.4673 53.6274 19.402C53.5807 19.3367 53.5667 19.2573 53.5854 19.164L55.5314 10.05C55.5501 9.94733 55.5967 9.86333 55.6714 9.798C55.7461 9.73267 55.8301 9.7 55.9234 9.7H56.9874C57.1181 9.7 57.2067 9.728 57.2534 9.784C57.3094 9.84 57.3421 9.88667 57.3514 9.924L60.0674 16.252L61.3834 10.05C61.4021 9.94733 61.4487 9.86333 61.5234 9.798C61.6074 9.73267 61.7007 9.7 61.8034 9.7H62.9794C63.0821 9.7 63.1567 9.73267 63.2034 9.798C63.2501 9.86333 63.2641 9.94733 63.2454 10.05L61.3134 19.15C61.2947 19.2527 61.2481 19.3367 61.1734 19.402C61.0987 19.4673 61.0101 19.5 60.9074 19.5H59.8434C59.7127 19.5 59.6241 19.472 59.5774 19.416C59.5307 19.36 59.4981 19.3133 59.4794 19.276L56.7494 13.088L55.4614 19.164C55.4427 19.2573 55.3961 19.3367 55.3214 19.402C55.2467 19.4673 55.1581 19.5 55.0554 19.5H53.8654ZM67.4735 19.64C66.9042 19.64 66.3815 19.5653 65.9055 19.416C65.4295 19.2573 65.0328 19.0193 64.7155 18.702C64.3982 18.3847 64.1742 17.988 64.0435 17.512C63.9222 17.0267 63.9175 16.4573 64.0295 15.804C64.0948 15.4027 64.1695 15.006 64.2535 14.614C64.3468 14.222 64.4402 13.8207 64.5335 13.41C64.8415 12.1407 65.3922 11.184 66.1855 10.54C66.9788 9.88667 68.0102 9.56 69.2795 9.56C69.8582 9.56 70.3808 9.644 70.8475 9.812C71.3235 9.97067 71.7202 10.2133 72.0375 10.54C72.3548 10.8573 72.5742 11.2587 72.6955 11.744C72.8262 12.22 72.8355 12.7753 72.7235 13.41C72.6582 13.8207 72.5788 14.222 72.4855 14.614C72.4015 15.006 72.3128 15.4027 72.2195 15.804C71.9022 17.1013 71.3468 18.0673 70.5535 18.702C69.7602 19.3273 68.7335 19.64 67.4735 19.64ZM67.5995 18.03C68.2155 18.03 68.7568 17.8527 69.2235 17.498C69.6995 17.134 70.0355 16.546 70.2315 15.734C70.3342 15.3233 70.4228 14.9453 70.4975 14.6C70.5722 14.2453 70.6422 13.8673 70.7075 13.466C70.8568 12.654 70.7915 12.0707 70.5115 11.716C70.2408 11.352 69.7882 11.17 69.1535 11.17C68.5282 11.17 67.9822 11.352 67.5155 11.716C67.0582 12.0707 66.7315 12.654 66.5355 13.466C66.4328 13.8673 66.3442 14.2453 66.2695 14.6C66.1948 14.9453 66.1202 15.3233 66.0455 15.734C65.9055 16.546 65.9662 17.134 66.2275 17.498C66.4982 17.8527 66.9555 18.03 67.5995 18.03ZM76.7459 19.64C76.2979 19.64 75.8545 19.5793 75.4159 19.458C74.9772 19.3273 74.5852 19.1313 74.2399 18.87C73.9039 18.6087 73.6519 18.2867 73.4839 17.904C73.3159 17.5213 73.2692 17.0687 73.3439 16.546C73.3625 16.462 73.3999 16.392 73.4559 16.336C73.5212 16.2707 73.6005 16.238 73.6939 16.238H75.0379C75.1592 16.238 75.2432 16.2707 75.2899 16.336C75.3459 16.4013 75.3785 16.49 75.3879 16.602C75.3505 17.106 75.4625 17.47 75.7239 17.694C75.9852 17.918 76.3632 18.03 76.8579 18.03C77.5112 18.03 78.0245 17.8387 78.3979 17.456C78.7805 17.0733 79.0419 16.5413 79.1819 15.86L80.1479 11.352H75.3879C75.2945 11.352 75.2199 11.3193 75.1639 11.254C75.1172 11.1887 75.1032 11.1093 75.1219 11.016L75.3459 10.036C75.3645 9.94267 75.4112 9.86333 75.4859 9.798C75.5605 9.73267 75.6445 9.7 75.7379 9.7H82.1499C82.2525 9.7 82.3272 9.73267 82.3739 9.798C82.4205 9.86333 82.4345 9.94733 82.4159 10.05L81.1699 15.916C81.0112 16.6907 80.7499 17.358 80.3859 17.918C80.0312 18.478 79.5552 18.9073 78.9579 19.206C78.3605 19.4953 77.6232 19.64 76.7459 19.64ZM86.188 19.64C85.32 19.64 84.6107 19.514 84.06 19.262C83.5093 19.01 83.108 18.6787 82.856 18.268C82.6133 17.848 82.5293 17.4047 82.604 16.938C82.6133 16.854 82.646 16.784 82.702 16.728C82.7673 16.672 82.842 16.644 82.926 16.644H84.214C84.326 16.644 84.4053 16.672 84.452 16.728C84.508 16.7747 84.55 16.8353 84.578 16.91C84.606 17.0873 84.6807 17.2647 84.802 17.442C84.9233 17.61 85.1053 17.75 85.348 17.862C85.6 17.974 85.922 18.03 86.314 18.03C86.986 18.03 87.518 17.918 87.91 17.694C88.302 17.47 88.54 17.1667 88.624 16.784C88.68 16.5133 88.638 16.2987 88.498 16.14C88.358 15.972 88.1153 15.8227 87.77 15.692C87.4247 15.552 86.9673 15.4073 86.398 15.258C85.7447 15.09 85.208 14.8753 84.788 14.614C84.368 14.3527 84.0787 14.026 83.92 13.634C83.7707 13.242 83.7567 12.7707 83.878 12.22C84.046 11.408 84.4753 10.764 85.166 10.288C85.866 9.80267 86.7807 9.56 87.91 9.56C88.498 9.56 89.0113 9.644 89.45 9.812C89.8887 9.97067 90.2527 10.1853 90.542 10.456C90.8313 10.7173 91.0367 11.002 91.158 11.31C91.2793 11.6087 91.3167 11.9027 91.27 12.192C91.2607 12.2667 91.228 12.3367 91.172 12.402C91.116 12.458 91.0413 12.486 90.948 12.486H89.618C89.534 12.486 89.4593 12.4673 89.394 12.43C89.3287 12.3927 89.282 12.3227 89.254 12.22C89.2633 11.9307 89.1327 11.6833 88.862 11.478C88.6007 11.2727 88.246 11.17 87.798 11.17C87.294 11.17 86.86 11.2633 86.496 11.45C86.1413 11.6367 85.9173 11.926 85.824 12.318C85.7773 12.5793 85.81 12.7987 85.922 12.976C86.034 13.144 86.244 13.2933 86.552 13.424C86.86 13.5547 87.2847 13.6947 87.826 13.844C88.5913 14.0213 89.1933 14.2407 89.632 14.502C90.08 14.754 90.3833 15.0713 90.542 15.454C90.7007 15.8367 90.7193 16.3033 90.598 16.854C90.4113 17.7687 89.94 18.464 89.184 18.94C88.428 19.4067 87.4293 19.64 86.188 19.64Z" fill="white" fill-opacity="0.9"/>
<defs>
<clipPath id="clip0_1059_4517">
<rect width="22" height="22" fill="white" transform="translate(7.5 4)"/>
</clipPath>
</defs>
</svg>
