<svg width="108" height="30" viewBox="0 0 108 30" fill="none" xmlns="http://www.w3.org/2000/svg">
<rect width="108" height="30" fill="#0F172B"/>
<g clip-path="url(#clip0_1059_4732)">
<path fill-rule="evenodd" clip-rule="evenodd" d="M25.7361 24.2304C28.0429 22.214 29.5 19.2498 29.5 15.9453C29.5 9.87018 24.5751 4.94531 18.5 4.94531C12.4249 4.94531 7.5 9.87018 7.5 15.9453C7.5 19.1533 8.87321 22.0405 11.0639 24.0512L11.074 23.9805L25.5101 19.2539L25.7361 24.2304Z" fill="#333333"/>
<path d="M15.6604 6.26616L13.709 5.9765L14.0013 5.88656C14.1774 5.83236 14.3427 5.74756 14.4894 5.63604L14.5353 5.60118C14.7121 5.46678 14.8528 5.29056 14.9447 5.08835C14.9944 4.97912 15.0292 4.86372 15.0481 4.74525L15.0699 4.60879C15.0934 4.46173 15.0922 4.31178 15.0664 4.16511C15.0554 4.10282 15.1175 4.05289 15.1759 4.07698L15.2558 4.10986C15.3559 4.1511 15.4528 4.19993 15.5456 4.25591L15.8774 4.45629C16.3184 4.72256 16.705 5.06996 17.0167 5.48011L17.2374 5.77047C17.3196 5.87865 17.4165 5.97489 17.5252 6.05642C17.6444 6.14584 17.7766 6.21658 17.9171 6.26619L18.0703 6.32025L17.2657 6.35243C16.729 6.3739 16.1916 6.34502 15.6604 6.26616Z" fill="#CCCCCC"/>
<path d="M15.1623 7.99636L15.741 6.9384C15.7467 6.92802 15.747 6.91556 15.742 6.90487L15.5447 6.48945C15.4208 6.22868 15.1579 6.06251 14.8692 6.06251L14.8146 6.06062C14.4368 6.0476 14.0616 5.99302 13.6956 5.89789L13.6233 5.87907C13.3232 5.80105 13.0321 5.69182 12.7548 5.55317L12.6325 5.49201C12.4483 5.39991 12.2738 5.28958 12.1117 5.16267L11.9495 5.03574C11.9013 4.99802 11.8314 5.00765 11.7952 5.057C11.6837 5.20908 11.6138 5.38762 11.5924 5.57499L11.5629 5.83293C11.5471 5.9713 11.5453 6.11092 11.5577 6.24964L11.6295 7.05764C11.6829 7.6588 11.8904 8.23604 12.2319 8.73366L12.305 8.84022C12.41 8.9931 12.5323 9.13331 12.6695 9.25805C12.6888 9.27562 12.7134 9.28645 12.7395 9.28877C13.7318 9.3778 14.6842 8.87043 15.1623 7.99636Z" fill="#CCCCCC"/>
<path d="M12.9732 9.30821L13.6606 9.01066C13.964 8.87934 14.0564 8.49348 13.8453 8.23895C13.6738 8.03203 13.3686 7.99948 13.1572 8.16556L12.9942 8.29362C12.9551 8.32432 12.9194 8.35903 12.8876 8.39719L12.4956 8.86761C12.4405 8.9337 12.4449 9.03089 12.5058 9.09174L12.6268 9.23014C12.6463 9.25231 12.6689 9.27156 12.6939 9.2872C12.7779 9.33971 12.8823 9.34753 12.9732 9.30821Z" fill="#EDEDED"/>
<path d="M13.8589 5.92688L13.8379 5.93359L13.9007 5.95358C14.1728 6.04015 14.455 6.09086 14.7401 6.10444C14.7544 6.10512 14.7687 6.10347 14.7825 6.09953L14.9121 6.0625L14.9766 6.04102L14.5649 5.95152C14.5107 5.93974 14.4602 5.91506 14.4176 5.87956C14.3844 5.85187 14.3846 5.80075 14.4181 5.77335L14.4791 5.72341C14.552 5.66374 14.611 5.58881 14.6519 5.50391C14.4151 5.69143 14.1465 5.83471 13.8589 5.92688Z" fill="#B2B2B2"/>
<path d="M16.213 13.4286L10.6062 23.4517C10.5784 23.5014 10.5108 23.5108 10.4705 23.4705L10.3574 23.3575L9.88476 22.8203L9.5835 22.4305C9.29784 22.0608 9.0428 21.6684 8.82092 21.2573L8.77803 21.1779C8.54234 20.7411 8.34491 20.2848 8.18798 19.814L8.03711 19.3614C7.81045 18.5398 7.75843 17.6798 7.88439 16.8368L7.88971 16.8012C7.94489 16.4319 8.03295 16.0682 8.15284 15.7146L8.40234 14.9785L8.58854 14.5869C8.8773 13.9795 9.27543 13.4305 9.76303 12.9672L9.99957 12.7425C10.4886 12.278 11.0833 11.9393 11.7324 11.7559C11.5806 11.7988 11.4257 11.8296 11.269 11.8481L10.959 11.8848L10.7227 11.9063L10.4648 11.9493L10.207 11.9734L10.0352 11.9922L9.91134 12C9.87156 12.0024 9.85286 11.9517 9.88475 11.9278L10.0578 11.8448C10.6155 11.5776 11.074 11.1402 11.3672 10.5957L11.5583 10.2976C11.7862 9.94209 12.0894 9.64097 12.4464 9.41547L12.5202 9.36889C12.6535 9.28472 12.7957 9.21575 12.9444 9.16329L13.6207 8.92455C13.7454 8.88055 13.8461 8.78632 13.8982 8.66476L13.9085 8.64066C13.9326 8.58424 13.9424 8.52271 13.9368 8.46161C13.9285 8.36948 13.8858 8.28387 13.8174 8.22165L13.6985 8.11355C13.6912 8.1069 13.6845 8.09956 13.6786 8.09165L12.9141 7.0723L12.304 6.23146C12.1833 6.06508 12.1131 5.86745 12.1017 5.6622C12.0998 5.62968 12.1336 5.60713 12.163 5.62122L12.823 5.93804C13.3942 6.21221 14.0454 6.26986 14.6559 6.10028C14.7978 6.06087 14.9428 6.03349 15.0893 6.01847L15.3923 5.98739C16.1542 5.90925 16.9239 5.97253 17.6628 6.17405L17.7266 6.19144L18.4483 6.45128C19.3537 6.77723 20.0712 7.48295 20.4121 8.38284L20.5634 8.97298C20.6056 9.13768 20.6653 9.29743 20.7413 9.4495C20.92 9.80692 21.1853 10.114 21.513 10.3428L21.8981 10.6116C22.0674 10.7298 22.245 10.8354 22.4296 10.9278L23.2819 11.3539C23.3201 11.373 23.3316 11.4221 23.3057 11.4561C23.0707 11.7654 22.7603 12.0092 22.4041 12.1643L21.9105 12.3793C21.7139 12.4649 21.5113 12.5358 21.3042 12.5914L20.9416 12.6888C20.4332 12.8254 19.9092 12.8946 19.3828 12.8946H18.5143C18.3345 12.8946 18.1563 12.8607 17.989 12.7948C17.3218 12.532 16.5631 12.8027 16.213 13.4286Z" fill="white"/>
<path d="M19.1524 9.81444L19.5306 9.81882C19.5819 9.81943 19.5935 9.74707 19.5446 9.7316C19.4642 9.7062 19.386 9.67402 19.3111 9.63543L19.0159 9.48332C18.8157 9.38024 18.6275 9.2555 18.4545 9.11134L18.3964 9.06296C18.2653 8.95365 18.1463 8.83054 18.0414 8.69579L17.9743 8.60947C17.9514 8.57995 17.9041 8.59795 17.9066 8.63525C17.9504 9.29323 18.493 9.80679 19.1524 9.81444Z" fill="#666666"/>
<path d="M11.033 23.6107L17.4392 17.8961C18.043 17.3574 18.5678 16.7361 18.9979 16.0506L19.037 15.9883C19.2478 15.5669 19.3377 15.0953 19.2969 14.6259L19.2407 13.9798C19.2062 13.5824 19.0421 13.2074 18.7738 12.9122C18.7634 12.9007 18.7496 12.8929 18.7344 12.8898L17.705 12.6797C16.9581 12.4542 16.1662 12.4217 15.4033 12.5852L15.3632 12.5938L14.7642 12.7338C13.0173 13.1422 11.4777 14.1701 10.4309 15.627L10.4045 15.6637C10.1161 16.0652 9.87104 16.496 9.67353 16.9492L9.63827 17.0301C9.13938 18.1746 8.97122 19.436 9.15287 20.6712L9.21228 21.0752C9.27347 21.4913 9.39885 21.8954 9.58396 22.273C9.75492 22.6218 9.97499 22.9442 10.2374 23.2305L10.5644 23.5872C10.6878 23.7218 10.8966 23.7323 11.033 23.6107Z" fill="#CCCCCC"/>
<path d="M16.6416 15.9821L16.6208 15.9939C16.0803 16.3028 15.7894 16.8859 15.8179 17.5079C15.826 17.6848 16.0032 17.8468 16.1736 17.7986L16.4875 17.7096C16.8933 17.5946 17.2691 17.3925 17.5886 17.1172L18.5 16.332L18.7704 16.1319C20.3421 14.9685 22.317 14.4892 24.2472 14.8025C24.3068 14.8122 24.3087 14.8971 24.2496 14.9094L24.0215 14.957L23.9181 14.9931C23.7057 15.0675 23.5212 15.2051 23.3894 15.3876C23.3647 15.4218 23.3977 15.4679 23.4381 15.4554L23.5129 15.4324C23.9341 15.3028 24.376 15.2536 24.8155 15.2874L24.9883 15.3007C25.9268 15.3415 26.7979 15.8003 27.3625 16.5511L27.5741 16.8325C28.2013 17.6667 28.4667 18.718 28.3106 19.7499L28.229 20.2888C28.118 21.0226 27.8508 21.7239 27.4454 22.3455L27.416 22.3906L26.9648 22.9921L26.4707 23.5507L26.018 23.9853C25.6047 24.3821 25.1527 24.7365 24.6689 25.0434L24.5156 25.1406L24.2224 25.2802C24.1468 25.3162 24.0838 25.2127 24.1504 25.162L24.5586 24.7753L24.6425 24.6872C24.8693 24.449 25.0324 24.1574 25.1166 23.8395L25.1554 23.6929C25.1728 23.627 25.1816 23.5582 25.1816 23.49C25.1816 23.1171 24.9176 22.7901 24.5515 22.7184C24.3246 22.674 24.0896 22.7327 23.9101 22.8785L23.5059 23.207L22.7923 23.7908C22.324 24.1739 21.8165 24.5065 21.2784 24.7831L20.541 25.162L19.2949 25.6347L19.0333 25.706C18.5783 25.8302 18.1138 25.9166 17.6446 25.9644L17.2969 25.9999H16.1797L14.6973 25.8388L13.8951 25.6652C13.472 25.5736 13.0626 25.4277 12.677 25.2309C12.3632 25.0709 12.0673 24.8782 11.7939 24.6561L11.1738 24.1523C10.4221 23.5782 9.95115 22.7106 9.87939 21.7674L9.8418 21.2734L9.88603 20.5782C9.95498 19.4948 10.3699 18.4622 11.0698 17.6323C11.3528 17.2968 11.6782 16.9994 12.0378 16.7477L12.1697 16.6553C12.7189 16.2709 13.3317 15.9865 13.9799 15.8153L14.4157 15.7002C14.9824 15.5505 15.5761 15.5347 16.1499 15.6539L16.6045 15.7484C16.7186 15.7721 16.7427 15.9243 16.6416 15.9821Z" fill="#5E5E5E"/>
</g>
<path d="M35.06 19.5C34.9573 19.5 34.878 19.4673 34.822 19.402C34.7753 19.3367 34.7613 19.2573 34.78 19.164L36.726 10.05C36.7447 9.94733 36.7913 9.86333 36.866 9.798C36.9407 9.73267 37.0293 9.7 37.132 9.7H43.292C43.3947 9.7 43.4693 9.73267 43.516 9.798C43.5627 9.86333 43.5767 9.94733 43.558 10.05L43.362 10.974C43.3433 11.0673 43.2967 11.1467 43.222 11.212C43.1473 11.2773 43.0587 11.31 42.956 11.31H38.35L37.818 13.788H42.116C42.2187 13.788 42.2933 13.8207 42.34 13.886C42.3867 13.942 42.4007 14.0213 42.382 14.124L42.2 14.992C42.1813 15.0947 42.1347 15.1787 42.06 15.244C41.9853 15.3 41.8967 15.328 41.794 15.328H37.496L36.936 17.89H41.668C41.7707 17.89 41.8453 17.9227 41.892 17.988C41.9387 18.0533 41.9527 18.1373 41.934 18.24L41.738 19.164C41.7193 19.2573 41.6727 19.3367 41.598 19.402C41.5233 19.4673 41.4347 19.5 41.332 19.5H35.06ZM43.8953 19.5C43.7926 19.5 43.7133 19.4673 43.6573 19.402C43.6106 19.3367 43.5966 19.2573 43.6153 19.164L45.5613 10.036C45.58 9.94267 45.6266 9.86333 45.7013 9.798C45.776 9.73267 45.8646 9.7 45.9673 9.7H47.2553C47.358 9.7 47.4326 9.73267 47.4793 9.798C47.5353 9.86333 47.554 9.94267 47.5353 10.036L45.8693 17.834H50.3073C50.41 17.834 50.4846 17.8667 50.5313 17.932C50.5873 17.9973 50.606 18.0813 50.5873 18.184L50.3773 19.164C50.3586 19.2573 50.312 19.3367 50.2373 19.402C50.1626 19.4673 50.074 19.5 49.9713 19.5H43.8953ZM53.1185 19.5C53.0251 19.5 52.9505 19.4673 52.8945 19.402C52.8478 19.3367 52.8338 19.2573 52.8525 19.164L53.5105 16L51.4525 10.148C51.4151 10.0453 51.4291 9.94733 51.4945 9.854C51.5691 9.75133 51.6671 9.7 51.7885 9.7H52.9505C53.0625 9.7 53.1465 9.728 53.2025 9.784C53.2585 9.84 53.3005 9.90067 53.3285 9.966L54.7985 14.026L58.0045 9.966C58.0418 9.90067 58.1025 9.84 58.1865 9.784C58.2705 9.728 58.3685 9.7 58.4805 9.7H59.8665C60.0158 9.7 60.0951 9.75133 60.1045 9.854C60.1231 9.95667 60.0951 10.0547 60.0205 10.148L55.4705 16L54.7845 19.164C54.7658 19.2573 54.7191 19.3367 54.6445 19.402C54.5698 19.4673 54.4811 19.5 54.3785 19.5H53.1185ZM62.8299 19.64C61.9619 19.64 61.2525 19.514 60.7019 19.262C60.1512 19.01 59.7499 18.6787 59.4979 18.268C59.2552 17.848 59.1712 17.4047 59.2459 16.938C59.2552 16.854 59.2879 16.784 59.3439 16.728C59.4092 16.672 59.4839 16.644 59.5679 16.644H60.8559C60.9679 16.644 61.0472 16.672 61.0939 16.728C61.1499 16.7747 61.1919 16.8353 61.2199 16.91C61.2479 17.0873 61.3225 17.2647 61.4439 17.442C61.5652 17.61 61.7472 17.75 61.9899 17.862C62.2419 17.974 62.5639 18.03 62.9559 18.03C63.6279 18.03 64.1599 17.918 64.5519 17.694C64.9439 17.47 65.1819 17.1667 65.2659 16.784C65.3219 16.5133 65.2799 16.2987 65.1399 16.14C64.9999 15.972 64.7572 15.8227 64.4119 15.692C64.0665 15.552 63.6092 15.4073 63.0399 15.258C62.3865 15.09 61.8499 14.8753 61.4299 14.614C61.0099 14.3527 60.7205 14.026 60.5619 13.634C60.4125 13.242 60.3985 12.7707 60.5199 12.22C60.6879 11.408 61.1172 10.764 61.8079 10.288C62.5079 9.80267 63.4225 9.56 64.5519 9.56C65.1399 9.56 65.6532 9.644 66.0919 9.812C66.5305 9.97067 66.8945 10.1853 67.1839 10.456C67.4732 10.7173 67.6785 11.002 67.7999 11.31C67.9212 11.6087 67.9585 11.9027 67.9119 12.192C67.9025 12.2667 67.8699 12.3367 67.8139 12.402C67.7579 12.458 67.6832 12.486 67.5899 12.486H66.2599C66.1759 12.486 66.1012 12.4673 66.0359 12.43C65.9705 12.3927 65.9239 12.3227 65.8959 12.22C65.9052 11.9307 65.7745 11.6833 65.5039 11.478C65.2425 11.2727 64.8879 11.17 64.4399 11.17C63.9359 11.17 63.5019 11.2633 63.1379 11.45C62.7832 11.6367 62.5592 11.926 62.4659 12.318C62.4192 12.5793 62.4519 12.7987 62.5639 12.976C62.6759 13.144 62.8859 13.2933 63.1939 13.424C63.5019 13.5547 63.9265 13.6947 64.4679 13.844C65.2332 14.0213 65.8352 14.2407 66.2739 14.502C66.7219 14.754 67.0252 15.0713 67.1839 15.454C67.3425 15.8367 67.3612 16.3033 67.2399 16.854C67.0532 17.7687 66.5819 18.464 65.8259 18.94C65.0699 19.4067 64.0712 19.64 62.8299 19.64ZM68.7466 19.5C68.6533 19.5 68.5786 19.4673 68.5226 19.402C68.476 19.3367 68.462 19.2573 68.4806 19.164L70.4266 10.036C70.4453 9.94267 70.492 9.86333 70.5666 9.798C70.6413 9.73267 70.73 9.7 70.8326 9.7H72.1486C72.242 9.7 72.3166 9.73267 72.3726 9.798C72.4286 9.86333 72.4473 9.94267 72.4286 10.036L70.4686 19.164C70.45 19.2573 70.4033 19.3367 70.3286 19.402C70.254 19.4673 70.17 19.5 70.0766 19.5H68.7466ZM72.1602 19.5C72.0389 19.5 71.9596 19.4533 71.9222 19.36C71.8756 19.2667 71.8802 19.1733 71.9362 19.08L77.2282 10.05C77.2842 9.95667 77.3542 9.87733 77.4382 9.812C77.5316 9.73733 77.6482 9.7 77.7882 9.7H79.4122C79.5522 9.7 79.6549 9.73733 79.7202 9.812C79.7856 9.87733 79.8229 9.95667 79.8322 10.05L81.2882 19.08C81.3069 19.2107 81.2836 19.3133 81.2182 19.388C81.1622 19.4627 81.0829 19.5 80.9802 19.5H79.7902C79.6596 19.5 79.5662 19.472 79.5102 19.416C79.4542 19.3507 79.4169 19.2713 79.3982 19.178L79.0902 17.526H74.9322L73.9102 19.234C73.8636 19.2993 73.8029 19.36 73.7282 19.416C73.6536 19.472 73.5602 19.5 73.4482 19.5H72.1602ZM75.7582 15.916H78.9502L78.2782 11.59L75.7582 15.916ZM85.7622 19.64C85.3142 19.64 84.8709 19.5793 84.4322 19.458C83.9935 19.3273 83.6015 19.1313 83.2562 18.87C82.9202 18.6087 82.6682 18.2867 82.5002 17.904C82.3322 17.5213 82.2855 17.0687 82.3602 16.546C82.3789 16.462 82.4162 16.392 82.4722 16.336C82.5375 16.2707 82.6169 16.238 82.7102 16.238H84.0542C84.1755 16.238 84.2595 16.2707 84.3062 16.336C84.3622 16.4013 84.3949 16.49 84.4042 16.602C84.3669 17.106 84.4789 17.47 84.7402 17.694C85.0015 17.918 85.3795 18.03 85.8742 18.03C86.5275 18.03 87.0409 17.8387 87.4142 17.456C87.7969 17.0733 88.0582 16.5413 88.1982 15.86L89.1642 11.352H84.4042C84.3109 11.352 84.2362 11.3193 84.1802 11.254C84.1335 11.1887 84.1195 11.1093 84.1382 11.016L84.3622 10.036C84.3809 9.94267 84.4275 9.86333 84.5022 9.798C84.5769 9.73267 84.6609 9.7 84.7542 9.7H91.1662C91.2689 9.7 91.3435 9.73267 91.3902 9.798C91.4369 9.86333 91.4509 9.94733 91.4322 10.05L90.1862 15.916C90.0275 16.6907 89.7662 17.358 89.4022 17.918C89.0475 18.478 88.5715 18.9073 87.9742 19.206C87.3769 19.4953 86.6395 19.64 85.7622 19.64ZM95.2043 19.64C94.3363 19.64 93.627 19.514 93.0763 19.262C92.5257 19.01 92.1243 18.6787 91.8723 18.268C91.6297 17.848 91.5457 17.4047 91.6203 16.938C91.6297 16.854 91.6623 16.784 91.7183 16.728C91.7837 16.672 91.8583 16.644 91.9423 16.644H93.2303C93.3423 16.644 93.4217 16.672 93.4683 16.728C93.5243 16.7747 93.5663 16.8353 93.5943 16.91C93.6223 17.0873 93.697 17.2647 93.8183 17.442C93.9397 17.61 94.1217 17.75 94.3643 17.862C94.6163 17.974 94.9383 18.03 95.3303 18.03C96.0023 18.03 96.5343 17.918 96.9263 17.694C97.3183 17.47 97.5563 17.1667 97.6403 16.784C97.6963 16.5133 97.6543 16.2987 97.5143 16.14C97.3743 15.972 97.1317 15.8227 96.7863 15.692C96.441 15.552 95.9837 15.4073 95.4143 15.258C94.761 15.09 94.2243 14.8753 93.8043 14.614C93.3843 14.3527 93.095 14.026 92.9363 13.634C92.787 13.242 92.773 12.7707 92.8943 12.22C93.0623 11.408 93.4917 10.764 94.1823 10.288C94.8823 9.80267 95.797 9.56 96.9263 9.56C97.5143 9.56 98.0277 9.644 98.4663 9.812C98.905 9.97067 99.269 10.1853 99.5583 10.456C99.8477 10.7173 100.053 11.002 100.174 11.31C100.296 11.6087 100.333 11.9027 100.286 12.192C100.277 12.2667 100.244 12.3367 100.188 12.402C100.132 12.458 100.058 12.486 99.9643 12.486H98.6343C98.5503 12.486 98.4757 12.4673 98.4103 12.43C98.345 12.3927 98.2983 12.3227 98.2703 12.22C98.2797 11.9307 98.149 11.6833 97.8783 11.478C97.617 11.2727 97.2623 11.17 96.8143 11.17C96.3103 11.17 95.8763 11.2633 95.5123 11.45C95.1577 11.6367 94.9337 11.926 94.8403 12.318C94.7937 12.5793 94.8263 12.7987 94.9383 12.976C95.0503 13.144 95.2603 13.2933 95.5683 13.424C95.8763 13.5547 96.301 13.6947 96.8423 13.844C97.6077 14.0213 98.2097 14.2407 98.6483 14.502C99.0963 14.754 99.3997 15.0713 99.5583 15.454C99.717 15.8367 99.7357 16.3033 99.6143 16.854C99.4277 17.7687 98.9563 18.464 98.2003 18.94C97.4443 19.4067 96.4457 19.64 95.2043 19.64Z" fill="white" fill-opacity="0.9"/>
<defs>
<clipPath id="clip0_1059_4732">
<rect width="22" height="22" fill="white" transform="translate(7.5 4)"/>
</clipPath>
</defs>
</svg>
