<svg width="107" height="30" viewBox="0 0 107 30" fill="none" xmlns="http://www.w3.org/2000/svg">
<rect width="107" height="30" fill="#030712"/>
<g clip-path="url(#clip0_1059_4536)">
<path d="M29.5 21.0391C29.1798 21.1602 28.8264 21.1599 28.5064 21.0383C28.1864 20.9167 27.9219 20.6822 27.7629 20.3791L24.6004 16.0056L24.1421 15.3942L20.4727 20.3846C20.3232 20.675 20.0731 20.9011 19.7691 21.0205C19.4651 21.14 19.128 21.1446 18.8208 21.0336L23.549 14.6902L19.1508 8.96015C19.4671 8.84618 19.8129 8.84467 20.1302 8.95587C20.4474 9.06706 20.7166 9.28418 20.8925 9.57065L24.1705 13.9981L27.4668 9.58898C27.6174 9.3037 27.8676 9.0837 28.1698 8.9708C28.472 8.85791 28.8051 8.85999 29.1058 8.97665L27.399 11.2417L25.0872 14.2511C25.023 14.3084 24.9716 14.3786 24.9364 14.4571C24.9013 14.5356 24.8831 14.6207 24.8831 14.7067C24.8831 14.7928 24.9013 14.8778 24.9364 14.9563C24.9716 15.0348 25.023 15.105 25.0872 15.1623L29.4908 21.04L29.5 21.0391ZM7.50184 14.6114L7.88684 12.7093C8.94468 8.94823 13.2567 7.38348 16.223 9.71181C17.9601 11.0767 18.3937 13.0091 18.3084 15.1871H8.52301C8.36443 19.0765 11.1713 21.425 14.76 20.2251C15.3418 20.0156 15.8625 19.6652 16.2756 19.2051C16.6887 18.745 16.9811 18.1896 17.1268 17.5887C17.3166 16.9782 17.6292 16.8737 18.203 17.0497C18.1074 17.7944 17.8441 18.5077 17.4331 19.136C17.022 19.7643 16.4738 20.2911 15.8298 20.677C14.7659 21.2589 13.5453 21.4896 12.3424 21.3359C11.1396 21.1823 10.0161 20.6523 9.13259 19.8217C8.25904 18.8385 7.73108 17.5965 7.62926 16.2852C7.62926 16.0698 7.55593 15.8681 7.50643 15.6747C7.50197 15.3206 7.49983 14.9665 7.50001 14.6123L7.50184 14.6114ZM8.53493 14.3492H17.3844C17.3294 11.5296 15.5502 9.5294 13.1769 9.51106C10.5351 9.4744 8.64493 11.4306 8.52851 14.3364L8.53493 14.3492Z" fill="white"/>
</g>
<path d="M35.06 19.5C34.9573 19.5 34.878 19.4673 34.822 19.402C34.7753 19.3367 34.7613 19.2573 34.78 19.164L36.726 10.05C36.7447 9.94733 36.7913 9.86333 36.866 9.798C36.9407 9.73267 37.0293 9.7 37.132 9.7H43.292C43.3947 9.7 43.4693 9.73267 43.516 9.798C43.5627 9.86333 43.5767 9.94733 43.558 10.05L43.362 10.974C43.3433 11.0673 43.2967 11.1467 43.222 11.212C43.1473 11.2773 43.0587 11.31 42.956 11.31H38.35L37.818 13.788H42.116C42.2187 13.788 42.2933 13.8207 42.34 13.886C42.3867 13.942 42.4007 14.0213 42.382 14.124L42.2 14.992C42.1813 15.0947 42.1347 15.1787 42.06 15.244C41.9853 15.3 41.8967 15.328 41.794 15.328H37.496L36.936 17.89H41.668C41.7707 17.89 41.8453 17.9227 41.892 17.988C41.9387 18.0533 41.9527 18.1373 41.934 18.24L41.738 19.164C41.7193 19.2573 41.6727 19.3367 41.598 19.402C41.5233 19.4673 41.4347 19.5 41.332 19.5H35.06ZM43.0273 19.5C42.9153 19.5 42.836 19.4487 42.7893 19.346C42.7333 19.234 42.7473 19.1313 42.8313 19.038L47.0593 14.46L44.9033 10.148C44.8473 10.0453 44.8473 9.94733 44.9033 9.854C44.9686 9.75133 45.062 9.7 45.1833 9.7H46.4433C46.6113 9.7 46.7233 9.73267 46.7793 9.798C46.8353 9.86333 46.8726 9.91933 46.8913 9.966L48.4313 13.046L51.1893 9.966C51.236 9.91933 51.2966 9.86333 51.3713 9.798C51.4553 9.73267 51.5813 9.7 51.7493 9.7H53.1213C53.2426 9.7 53.322 9.756 53.3593 9.868C53.406 9.97067 53.392 10.0687 53.3173 10.162L49.2853 14.74L51.4833 19.066C51.53 19.1687 51.5206 19.2667 51.4553 19.36C51.3993 19.4533 51.306 19.5 51.1753 19.5H49.9293C49.78 19.5 49.6726 19.4673 49.6073 19.402C49.5513 19.3367 49.514 19.2853 49.4953 19.248L47.9133 16.168L45.0573 19.248C45.0293 19.2853 44.9733 19.3367 44.8893 19.402C44.8146 19.4673 44.698 19.5 44.5393 19.5H43.0273ZM53.3048 19.5C53.2022 19.5 53.1228 19.4673 53.0668 19.402C53.0202 19.3367 53.0062 19.2573 53.0248 19.164L54.9708 10.05C54.9895 9.94733 55.0362 9.86333 55.1108 9.798C55.1855 9.73267 55.2742 9.7 55.3768 9.7H58.9608C59.5115 9.7 60.0015 9.76533 60.4308 9.896C60.8695 10.0267 61.2288 10.2227 61.5088 10.484C61.7888 10.7453 61.9802 11.072 62.0828 11.464C62.1948 11.8467 62.1948 12.2947 62.0828 12.808C61.8588 13.844 61.4015 14.6187 60.7108 15.132C60.0202 15.636 59.1055 15.888 57.9668 15.888H55.7268L55.0268 19.164C55.0082 19.2573 54.9615 19.3367 54.8868 19.402C54.8122 19.4673 54.7235 19.5 54.6208 19.5H53.3048ZM56.0348 14.334H58.0088C58.5222 14.334 58.9655 14.208 59.3388 13.956C59.7215 13.6947 59.9688 13.312 60.0808 12.808C60.1462 12.4907 60.1602 12.22 60.1228 11.996C60.0855 11.7627 59.9595 11.5807 59.7448 11.45C59.5395 11.3193 59.2128 11.254 58.7648 11.254H56.6928L56.0348 14.334ZM62.869 19.5C62.7757 19.5 62.7057 19.4673 62.659 19.402C62.6124 19.3367 62.5984 19.2573 62.617 19.164L64.549 10.05C64.5677 9.94733 64.6144 9.86333 64.689 9.798C64.773 9.73267 64.8617 9.7 64.955 9.7H68.581C69.7104 9.7 70.5457 9.96133 71.087 10.484C71.6284 11.0067 71.7917 11.7673 71.577 12.766C71.4277 13.4567 71.1384 14.0307 70.709 14.488C70.2797 14.9453 69.7524 15.2767 69.127 15.482L70.415 19.052C70.4244 19.08 70.429 19.108 70.429 19.136C70.429 19.1547 70.4244 19.178 70.415 19.206C70.4057 19.29 70.3637 19.36 70.289 19.416C70.2144 19.472 70.1397 19.5 70.065 19.5H68.791C68.6324 19.5 68.5204 19.458 68.455 19.374C68.399 19.29 68.3524 19.206 68.315 19.122L67.223 15.804H65.277L64.563 19.164C64.5444 19.2573 64.493 19.3367 64.409 19.402C64.3344 19.4673 64.2457 19.5 64.143 19.5H62.869ZM65.613 14.222H67.573C68.1424 14.222 68.595 14.096 68.931 13.844C69.267 13.5827 69.4817 13.2187 69.575 12.752C69.6777 12.2853 69.617 11.9213 69.393 11.66C69.1784 11.3893 68.7817 11.254 68.203 11.254H66.229L65.613 14.222ZM72.247 19.5C72.1443 19.5 72.065 19.4673 72.009 19.402C71.9623 19.3367 71.9483 19.2573 71.967 19.164L73.913 10.05C73.9316 9.94733 73.9783 9.86333 74.053 9.798C74.1276 9.73267 74.2163 9.7 74.319 9.7H80.479C80.5816 9.7 80.6563 9.73267 80.703 9.798C80.7496 9.86333 80.7636 9.94733 80.745 10.05L80.549 10.974C80.5303 11.0673 80.4836 11.1467 80.409 11.212C80.3343 11.2773 80.2456 11.31 80.143 11.31H75.537L75.005 13.788H79.303C79.4056 13.788 79.4803 13.8207 79.527 13.886C79.5736 13.942 79.5876 14.0213 79.569 14.124L79.387 14.992C79.3683 15.0947 79.3216 15.1787 79.247 15.244C79.1723 15.3 79.0836 15.328 78.981 15.328H74.683L74.123 17.89H78.855C78.9576 17.89 79.0323 17.9227 79.079 17.988C79.1256 18.0533 79.1396 18.1373 79.121 18.24L78.925 19.164C78.9063 19.2573 78.8596 19.3367 78.785 19.402C78.7103 19.4673 78.6216 19.5 78.519 19.5H72.247ZM84.2603 19.64C83.3923 19.64 82.6829 19.514 82.1323 19.262C81.5816 19.01 81.1803 18.6787 80.9283 18.268C80.6856 17.848 80.6016 17.4047 80.6763 16.938C80.6856 16.854 80.7183 16.784 80.7743 16.728C80.8396 16.672 80.9143 16.644 80.9983 16.644H82.2863C82.3983 16.644 82.4776 16.672 82.5243 16.728C82.5803 16.7747 82.6223 16.8353 82.6503 16.91C82.6783 17.0873 82.7529 17.2647 82.8743 17.442C82.9956 17.61 83.1776 17.75 83.4203 17.862C83.6723 17.974 83.9943 18.03 84.3863 18.03C85.0583 18.03 85.5903 17.918 85.9823 17.694C86.3743 17.47 86.6123 17.1667 86.6963 16.784C86.7523 16.5133 86.7103 16.2987 86.5703 16.14C86.4303 15.972 86.1876 15.8227 85.8423 15.692C85.4969 15.552 85.0396 15.4073 84.4703 15.258C83.8169 15.09 83.2803 14.8753 82.8603 14.614C82.4403 14.3527 82.1509 14.026 81.9923 13.634C81.8429 13.242 81.8289 12.7707 81.9503 12.22C82.1183 11.408 82.5476 10.764 83.2383 10.288C83.9383 9.80267 84.8529 9.56 85.9823 9.56C86.5703 9.56 87.0836 9.644 87.5223 9.812C87.9609 9.97067 88.3249 10.1853 88.6143 10.456C88.9036 10.7173 89.1089 11.002 89.2303 11.31C89.3516 11.6087 89.3889 11.9027 89.3423 12.192C89.3329 12.2667 89.3003 12.3367 89.2443 12.402C89.1883 12.458 89.1136 12.486 89.0203 12.486H87.6903C87.6063 12.486 87.5316 12.4673 87.4663 12.43C87.4009 12.3927 87.3543 12.3227 87.3263 12.22C87.3356 11.9307 87.2049 11.6833 86.9343 11.478C86.6729 11.2727 86.3183 11.17 85.8703 11.17C85.3663 11.17 84.9323 11.2633 84.5683 11.45C84.2136 11.6367 83.9896 11.926 83.8963 12.318C83.8496 12.5793 83.8823 12.7987 83.9943 12.976C84.1063 13.144 84.3163 13.2933 84.6243 13.424C84.9323 13.5547 85.3569 13.6947 85.8983 13.844C86.6636 14.0213 87.2656 14.2407 87.7043 14.502C88.1523 14.754 88.4556 15.0713 88.6143 15.454C88.7729 15.8367 88.7916 16.3033 88.6703 16.854C88.4836 17.7687 88.0123 18.464 87.2563 18.94C86.5003 19.4067 85.5016 19.64 84.2603 19.64ZM93.369 19.64C92.501 19.64 91.7917 19.514 91.241 19.262C90.6903 19.01 90.289 18.6787 90.037 18.268C89.7943 17.848 89.7103 17.4047 89.785 16.938C89.7943 16.854 89.827 16.784 89.883 16.728C89.9483 16.672 90.023 16.644 90.107 16.644H91.395C91.507 16.644 91.5863 16.672 91.633 16.728C91.689 16.7747 91.731 16.8353 91.759 16.91C91.787 17.0873 91.8617 17.2647 91.983 17.442C92.1043 17.61 92.2863 17.75 92.529 17.862C92.781 17.974 93.103 18.03 93.495 18.03C94.167 18.03 94.699 17.918 95.091 17.694C95.483 17.47 95.721 17.1667 95.805 16.784C95.861 16.5133 95.819 16.2987 95.679 16.14C95.539 15.972 95.2963 15.8227 94.951 15.692C94.6057 15.552 94.1483 15.4073 93.579 15.258C92.9257 15.09 92.389 14.8753 91.969 14.614C91.549 14.3527 91.2597 14.026 91.101 13.634C90.9517 13.242 90.9377 12.7707 91.059 12.22C91.227 11.408 91.6563 10.764 92.347 10.288C93.047 9.80267 93.9617 9.56 95.091 9.56C95.679 9.56 96.1923 9.644 96.631 9.812C97.0697 9.97067 97.4337 10.1853 97.723 10.456C98.0123 10.7173 98.2177 11.002 98.339 11.31C98.4603 11.6087 98.4977 11.9027 98.451 12.192C98.4417 12.2667 98.409 12.3367 98.353 12.402C98.297 12.458 98.2223 12.486 98.129 12.486H96.799C96.715 12.486 96.6403 12.4673 96.575 12.43C96.5097 12.3927 96.463 12.3227 96.435 12.22C96.4443 11.9307 96.3137 11.6833 96.043 11.478C95.7817 11.2727 95.427 11.17 94.979 11.17C94.475 11.17 94.041 11.2633 93.677 11.45C93.3223 11.6367 93.0983 11.926 93.005 12.318C92.9583 12.5793 92.991 12.7987 93.103 12.976C93.215 13.144 93.425 13.2933 93.733 13.424C94.041 13.5547 94.4657 13.6947 95.007 13.844C95.7723 14.0213 96.3743 14.2407 96.813 14.502C97.261 14.754 97.5643 15.0713 97.723 15.454C97.8817 15.8367 97.9003 16.3033 97.779 16.854C97.5923 17.7687 97.121 18.464 96.365 18.94C95.609 19.4067 94.6103 19.64 93.369 19.64Z" fill="white" fill-opacity="0.9"/>
<defs>
<clipPath id="clip0_1059_4536">
<rect width="22" height="22" fill="white" transform="translate(7.5 4)"/>
</clipPath>
</defs>
</svg>
