<svg width="100" height="30" viewBox="0 0 100 30" fill="none" xmlns="http://www.w3.org/2000/svg">
<rect width="100" height="30" fill="black"/>
<g clip-path="url(#clip0_1059_4546)">
<path d="M28.8079 9.94921L29.5 8.15529L29.4716 8.04438L22.6213 9.84746C23.3519 8.79054 23.1007 7.94263 23.1007 7.94263C23.1007 7.94263 20.9127 9.33963 19.2572 9.30388C17.6035 9.26721 17.0691 8.82721 14.5318 9.63571C11.9944 10.4442 11.2767 12.9265 10.5433 13.461C9.80633 13.9954 7.5 15.7315 7.5 15.7315L7.5055 15.7627L9.58633 15.099C9.58633 15.099 9.01617 15.6353 7.80342 17.2715L7.74658 17.2193L7.74842 17.2294C7.74842 17.2294 8.72375 18.7199 9.67983 18.443C9.7915 18.4079 9.89979 18.3628 10.0034 18.3083C10.3875 18.5228 10.8898 18.7327 11.4444 18.7895C11.4444 18.7895 11.0686 18.3541 10.7551 17.8573L10.9733 17.7161L11.7662 18.0076L11.6782 17.2633C11.6809 17.2605 11.6837 17.2605 11.6855 17.2578L12.4638 17.5429L12.3675 16.8664C12.4643 16.815 12.5628 16.7667 12.6627 16.7215L13.4739 13.6553L16.8308 11.3664L16.564 12.0383C15.8847 13.7121 14.6069 14.1063 14.6069 14.1063L14.0734 14.308C13.6765 14.7773 13.5106 14.8919 13.3731 16.4649C13.6921 16.3842 13.9982 16.3668 14.2751 16.4392C15.7087 16.8251 16.2065 18.554 15.8197 19.0306C15.7243 19.1498 15.4933 19.3551 15.2028 19.5962H14.6225L14.6152 20.0674L14.5556 20.1141H13.9643L13.9561 20.5761L13.8003 20.6925C13.2438 20.7026 12.5417 20.2177 12.5417 20.2177C12.5417 20.6586 12.9093 21.3406 12.9093 21.3406L12.9734 21.3095L12.9175 21.3507C12.9175 21.3507 14.4071 22.3435 15.343 21.975C16.1772 21.6486 18.3341 19.9464 20.1977 19.1397L25.8352 17.6547L26.5786 15.7297L22.2813 16.8618V15.1302L27.3229 13.8029L28.0663 11.8779L22.2822 13.4014V11.6698L28.8079 9.94921ZM18.5752 13.6159L19.9126 13.2639L19.9309 13.3317L19.5138 14.4125L18.1269 14.7773L18.5752 13.6159ZM19.0363 15.9314L17.6503 16.2962L18.0985 15.1357L19.4359 14.7828L19.4543 14.8506L19.0363 15.9314ZM20.843 15.5427L19.4561 15.9075L19.9053 14.747L21.2427 14.3941L21.261 14.461L20.843 15.5427Z" fill="white"/>
</g>
<path d="M35.06 19.5C34.9573 19.5 34.878 19.4673 34.822 19.402C34.7753 19.3367 34.7613 19.2573 34.78 19.164L36.726 10.05C36.7447 9.94733 36.7913 9.86333 36.866 9.798C36.9407 9.73267 37.0293 9.7 37.132 9.7H43.208C43.3107 9.7 43.3853 9.73267 43.432 9.798C43.4787 9.86333 43.4927 9.94733 43.474 10.05L43.264 11.03C43.2453 11.1327 43.1987 11.2167 43.124 11.282C43.0493 11.338 42.9607 11.366 42.858 11.366H38.364L37.79 14.026H42.004C42.1067 14.026 42.1813 14.0587 42.228 14.124C42.2747 14.1893 42.2887 14.2733 42.27 14.376L42.074 15.356C42.0553 15.4493 42.004 15.5287 41.92 15.594C41.8453 15.6593 41.7567 15.692 41.654 15.692H37.44L36.698 19.164C36.6793 19.2573 36.6327 19.3367 36.558 19.402C36.4833 19.4673 36.3947 19.5 36.292 19.5H35.06ZM42.2604 19.5C42.139 19.5 42.0597 19.4533 42.0224 19.36C41.9757 19.2667 41.9804 19.1733 42.0364 19.08L47.3284 10.05C47.3844 9.95667 47.4544 9.87733 47.5384 9.812C47.6317 9.73733 47.7484 9.7 47.8884 9.7H49.5124C49.6524 9.7 49.755 9.73733 49.8204 9.812C49.8857 9.87733 49.923 9.95667 49.9324 10.05L51.3884 19.08C51.407 19.2107 51.3837 19.3133 51.3184 19.388C51.2624 19.4627 51.183 19.5 51.0804 19.5H49.8904C49.7597 19.5 49.6664 19.472 49.6104 19.416C49.5544 19.3507 49.517 19.2713 49.4984 19.178L49.1904 17.526H45.0324L44.0104 19.234C43.9637 19.2993 43.903 19.36 43.8284 19.416C43.7537 19.472 43.6604 19.5 43.5484 19.5H42.2604ZM45.8584 15.916H49.0504L48.3784 11.59L45.8584 15.916ZM56.059 19.64C55.191 19.64 54.4817 19.514 53.931 19.262C53.3803 19.01 52.979 18.6787 52.727 18.268C52.4843 17.848 52.4003 17.4047 52.475 16.938C52.4843 16.854 52.517 16.784 52.573 16.728C52.6383 16.672 52.713 16.644 52.797 16.644H54.085C54.197 16.644 54.2763 16.672 54.323 16.728C54.379 16.7747 54.421 16.8353 54.449 16.91C54.477 17.0873 54.5517 17.2647 54.673 17.442C54.7943 17.61 54.9763 17.75 55.219 17.862C55.471 17.974 55.793 18.03 56.185 18.03C56.857 18.03 57.389 17.918 57.781 17.694C58.173 17.47 58.411 17.1667 58.495 16.784C58.551 16.5133 58.509 16.2987 58.369 16.14C58.229 15.972 57.9863 15.8227 57.641 15.692C57.2957 15.552 56.8383 15.4073 56.269 15.258C55.6157 15.09 55.079 14.8753 54.659 14.614C54.239 14.3527 53.9497 14.026 53.791 13.634C53.6417 13.242 53.6277 12.7707 53.749 12.22C53.917 11.408 54.3463 10.764 55.037 10.288C55.737 9.80267 56.6517 9.56 57.781 9.56C58.369 9.56 58.8823 9.644 59.321 9.812C59.7597 9.97067 60.1237 10.1853 60.413 10.456C60.7023 10.7173 60.9077 11.002 61.029 11.31C61.1504 11.6087 61.1877 11.9027 61.141 12.192C61.1317 12.2667 61.099 12.3367 61.043 12.402C60.987 12.458 60.9124 12.486 60.819 12.486H59.489C59.405 12.486 59.3303 12.4673 59.265 12.43C59.1997 12.3927 59.153 12.3227 59.125 12.22C59.1343 11.9307 59.0037 11.6833 58.733 11.478C58.4717 11.2727 58.117 11.17 57.669 11.17C57.165 11.17 56.731 11.2633 56.367 11.45C56.0123 11.6367 55.7883 11.926 55.695 12.318C55.6483 12.5793 55.681 12.7987 55.793 12.976C55.905 13.144 56.115 13.2933 56.423 13.424C56.731 13.5547 57.1557 13.6947 57.697 13.844C58.4623 14.0213 59.0643 14.2407 59.503 14.502C59.951 14.754 60.2544 15.0713 60.413 15.454C60.5717 15.8367 60.5903 16.3033 60.469 16.854C60.2824 17.7687 59.811 18.464 59.055 18.94C58.299 19.4067 57.3003 19.64 56.059 19.64ZM63.9534 19.5C63.86 19.5 63.7854 19.4673 63.7294 19.402C63.6827 19.3367 63.6687 19.2573 63.6874 19.164L65.3394 11.422H62.7494C62.6467 11.422 62.5674 11.3893 62.5114 11.324C62.4647 11.2587 62.4507 11.1793 62.4694 11.086L62.6934 10.05C62.712 9.94733 62.7587 9.86333 62.8334 9.798C62.9174 9.73267 63.006 9.7 63.0994 9.7H70.2394C70.342 9.7 70.4167 9.73267 70.4634 9.798C70.5194 9.86333 70.538 9.94733 70.5194 10.05L70.2954 11.086C70.2767 11.1793 70.23 11.2587 70.1554 11.324C70.0807 11.3893 69.992 11.422 69.8894 11.422H67.2994L65.6474 19.164C65.6287 19.2573 65.582 19.3367 65.5074 19.402C65.4327 19.4673 65.344 19.5 65.2414 19.5H63.9534ZM70.3736 19.5C70.2802 19.5 70.2056 19.4673 70.1496 19.402C70.1029 19.3367 70.0889 19.2573 70.1076 19.164L72.0536 10.036C72.0722 9.94267 72.1189 9.86333 72.1936 9.798C72.2682 9.73267 72.3569 9.7 72.4596 9.7H73.7756C73.8689 9.7 73.9436 9.73267 73.9996 9.798C74.0556 9.86333 74.0742 9.94267 74.0556 10.036L72.0956 19.164C72.0769 19.2573 72.0302 19.3367 71.9556 19.402C71.8809 19.4673 71.7969 19.5 71.7036 19.5H70.3736ZM74.7112 19.5C74.6085 19.5 74.5292 19.4673 74.4732 19.402C74.4265 19.3367 74.4125 19.2573 74.4312 19.164L76.3772 10.05C76.3958 9.94733 76.4425 9.86333 76.5172 9.798C76.5918 9.73267 76.6805 9.7 76.7832 9.7H82.8592C82.9618 9.7 83.0365 9.73267 83.0832 9.798C83.1298 9.86333 83.1438 9.94733 83.1252 10.05L82.9152 11.03C82.8965 11.1327 82.8498 11.2167 82.7752 11.282C82.7005 11.338 82.6118 11.366 82.5092 11.366H78.0152L77.4412 14.026H81.6552C81.7578 14.026 81.8325 14.0587 81.8792 14.124C81.9258 14.1893 81.9398 14.2733 81.9212 14.376L81.7252 15.356C81.7065 15.4493 81.6552 15.5287 81.5712 15.594C81.4965 15.6593 81.4078 15.692 81.3052 15.692H77.0912L76.3492 19.164C76.3305 19.2573 76.2838 19.3367 76.2092 19.402C76.1345 19.4673 76.0458 19.5 75.9432 19.5H74.7112ZM85.8347 19.5C85.7414 19.5 85.6667 19.4673 85.6107 19.402C85.5641 19.3367 85.5501 19.2573 85.5687 19.164L86.2267 16L84.1687 10.148C84.1314 10.0453 84.1454 9.94733 84.2107 9.854C84.2854 9.75133 84.3834 9.7 84.5047 9.7H85.6667C85.7787 9.7 85.8627 9.728 85.9187 9.784C85.9747 9.84 86.0167 9.90067 86.0447 9.966L87.5147 14.026L90.7207 9.966C90.7581 9.90067 90.8187 9.84 90.9027 9.784C90.9867 9.728 91.0847 9.7 91.1967 9.7H92.5827C92.7321 9.7 92.8114 9.75133 92.8207 9.854C92.8394 9.95667 92.8114 10.0547 92.7367 10.148L88.1867 16L87.5007 19.164C87.4821 19.2573 87.4354 19.3367 87.3607 19.402C87.2861 19.4673 87.1974 19.5 87.0947 19.5H85.8347Z" fill="white" fill-opacity="0.9"/>
<defs>
<clipPath id="clip0_1059_4546">
<rect width="22" height="22" fill="white" transform="translate(7.5 4)"/>
</clipPath>
</defs>
</svg>
