<svg width="100" height="30" viewBox="0 0 100 30" fill="none" xmlns="http://www.w3.org/2000/svg">
<rect width="100" height="30" fill="#009485"/>
<g clip-path="url(#clip0_1059_4748)">
<path d="M18.5001 5.85132C17.2987 5.85126 16.1091 6.08707 14.9991 6.54528C13.8892 7.00349 12.8806 7.67512 12.0311 8.52184C11.1816 9.36855 10.5077 10.3738 10.0479 11.4801C9.58806 12.5864 9.35137 13.7722 9.35132 14.9696C9.35114 16.1673 9.58765 17.3532 10.0473 18.4598C10.507 19.5663 11.1809 20.5717 12.0305 21.4186C12.88 22.2655 13.8887 22.9373 14.9987 23.3956C16.1088 23.854 17.2986 24.0898 18.5001 24.0898C19.7016 24.0898 20.8914 23.854 22.0014 23.3956C23.1115 22.9373 24.1201 22.2655 24.9697 21.4186C25.8193 20.5717 26.4931 19.5663 26.9528 18.4598C27.4125 17.3532 27.649 16.1673 27.6488 14.9696C27.6488 13.7722 27.4121 12.5864 26.9523 11.4801C26.4925 10.3738 25.8186 9.36855 24.9691 8.52184C24.1195 7.67512 23.111 7.00349 22.001 6.54528C20.8911 6.08707 19.7015 5.85126 18.5001 5.85132ZM17.8681 9.9799H23.6241L17.8448 14.0422H21.7961L13.3761 19.9594L15.204 15.8988L16.0401 14.0422L17.8681 9.9799Z" fill="white" fill-opacity="0.980392"/>
</g>
<path d="M35.06 19.5C34.9573 19.5 34.878 19.4673 34.822 19.402C34.7753 19.3367 34.7613 19.2573 34.78 19.164L36.726 10.05C36.7447 9.94733 36.7913 9.86333 36.866 9.798C36.9407 9.73267 37.0293 9.7 37.132 9.7H43.208C43.3107 9.7 43.3853 9.73267 43.432 9.798C43.4787 9.86333 43.4927 9.94733 43.474 10.05L43.264 11.03C43.2453 11.1327 43.1987 11.2167 43.124 11.282C43.0493 11.338 42.9607 11.366 42.858 11.366H38.364L37.79 14.026H42.004C42.1067 14.026 42.1813 14.0587 42.228 14.124C42.2747 14.1893 42.2887 14.2733 42.27 14.376L42.074 15.356C42.0553 15.4493 42.004 15.5287 41.92 15.594C41.8453 15.6593 41.7567 15.692 41.654 15.692H37.44L36.698 19.164C36.6793 19.2573 36.6327 19.3367 36.558 19.402C36.4833 19.4673 36.3947 19.5 36.292 19.5H35.06ZM42.2604 19.5C42.139 19.5 42.0597 19.4533 42.0224 19.36C41.9757 19.2667 41.9804 19.1733 42.0364 19.08L47.3284 10.05C47.3844 9.95667 47.4544 9.87733 47.5384 9.812C47.6317 9.73733 47.7484 9.7 47.8884 9.7H49.5124C49.6524 9.7 49.755 9.73733 49.8204 9.812C49.8857 9.87733 49.923 9.95667 49.9324 10.05L51.3884 19.08C51.407 19.2107 51.3837 19.3133 51.3184 19.388C51.2624 19.4627 51.183 19.5 51.0804 19.5H49.8904C49.7597 19.5 49.6664 19.472 49.6104 19.416C49.5544 19.3507 49.517 19.2713 49.4984 19.178L49.1904 17.526H45.0324L44.0104 19.234C43.9637 19.2993 43.903 19.36 43.8284 19.416C43.7537 19.472 43.6604 19.5 43.5484 19.5H42.2604ZM45.8584 15.916H49.0504L48.3784 11.59L45.8584 15.916ZM56.059 19.64C55.191 19.64 54.4817 19.514 53.931 19.262C53.3803 19.01 52.979 18.6787 52.727 18.268C52.4843 17.848 52.4003 17.4047 52.475 16.938C52.4843 16.854 52.517 16.784 52.573 16.728C52.6383 16.672 52.713 16.644 52.797 16.644H54.085C54.197 16.644 54.2763 16.672 54.323 16.728C54.379 16.7747 54.421 16.8353 54.449 16.91C54.477 17.0873 54.5517 17.2647 54.673 17.442C54.7943 17.61 54.9763 17.75 55.219 17.862C55.471 17.974 55.793 18.03 56.185 18.03C56.857 18.03 57.389 17.918 57.781 17.694C58.173 17.47 58.411 17.1667 58.495 16.784C58.551 16.5133 58.509 16.2987 58.369 16.14C58.229 15.972 57.9863 15.8227 57.641 15.692C57.2957 15.552 56.8383 15.4073 56.269 15.258C55.6157 15.09 55.079 14.8753 54.659 14.614C54.239 14.3527 53.9497 14.026 53.791 13.634C53.6417 13.242 53.6277 12.7707 53.749 12.22C53.917 11.408 54.3463 10.764 55.037 10.288C55.737 9.80267 56.6517 9.56 57.781 9.56C58.369 9.56 58.8823 9.644 59.321 9.812C59.7597 9.97067 60.1237 10.1853 60.413 10.456C60.7023 10.7173 60.9077 11.002 61.029 11.31C61.1504 11.6087 61.1877 11.9027 61.141 12.192C61.1317 12.2667 61.099 12.3367 61.043 12.402C60.987 12.458 60.9124 12.486 60.819 12.486H59.489C59.405 12.486 59.3303 12.4673 59.265 12.43C59.1997 12.3927 59.153 12.3227 59.125 12.22C59.1343 11.9307 59.0037 11.6833 58.733 11.478C58.4717 11.2727 58.117 11.17 57.669 11.17C57.165 11.17 56.731 11.2633 56.367 11.45C56.0123 11.6367 55.7883 11.926 55.695 12.318C55.6483 12.5793 55.681 12.7987 55.793 12.976C55.905 13.144 56.115 13.2933 56.423 13.424C56.731 13.5547 57.1557 13.6947 57.697 13.844C58.4623 14.0213 59.0643 14.2407 59.503 14.502C59.951 14.754 60.2544 15.0713 60.413 15.454C60.5717 15.8367 60.5903 16.3033 60.469 16.854C60.2824 17.7687 59.811 18.464 59.055 18.94C58.299 19.4067 57.3003 19.64 56.059 19.64ZM63.9534 19.5C63.86 19.5 63.7854 19.4673 63.7294 19.402C63.6827 19.3367 63.6687 19.2573 63.6874 19.164L65.3394 11.422H62.7494C62.6467 11.422 62.5674 11.3893 62.5114 11.324C62.4647 11.2587 62.4507 11.1793 62.4694 11.086L62.6934 10.05C62.712 9.94733 62.7587 9.86333 62.8334 9.798C62.9174 9.73267 63.006 9.7 63.0994 9.7H70.2394C70.342 9.7 70.4167 9.73267 70.4634 9.798C70.5194 9.86333 70.538 9.94733 70.5194 10.05L70.2954 11.086C70.2767 11.1793 70.23 11.2587 70.1554 11.324C70.0807 11.3893 69.992 11.422 69.8894 11.422H67.2994L65.6474 19.164C65.6287 19.2573 65.582 19.3367 65.5074 19.402C65.4327 19.4673 65.344 19.5 65.2414 19.5H63.9534ZM68.4108 19.5C68.2895 19.5 68.2102 19.4533 68.1728 19.36C68.1262 19.2667 68.1308 19.1733 68.1868 19.08L73.4788 10.05C73.5348 9.95667 73.6048 9.87733 73.6888 9.812C73.7822 9.73733 73.8988 9.7 74.0388 9.7H75.6628C75.8028 9.7 75.9055 9.73733 75.9708 9.812C76.0362 9.87733 76.0735 9.95667 76.0828 10.05L77.5388 19.08C77.5575 19.2107 77.5342 19.3133 77.4688 19.388C77.4128 19.4627 77.3335 19.5 77.2308 19.5H76.0408C75.9102 19.5 75.8168 19.472 75.7608 19.416C75.7048 19.3507 75.6675 19.2713 75.6488 19.178L75.3408 17.526H71.1828L70.1608 19.234C70.1142 19.2993 70.0535 19.36 69.9788 19.416C69.9042 19.472 69.8108 19.5 69.6988 19.5H68.4108ZM72.0088 15.916H75.2008L74.5288 11.59L72.0088 15.916ZM79.2366 19.5C79.1339 19.5 79.0546 19.4673 78.9986 19.402C78.9519 19.3367 78.9379 19.2573 78.9566 19.164L80.9026 10.05C80.9212 9.94733 80.9679 9.86333 81.0426 9.798C81.1172 9.73267 81.2059 9.7 81.3086 9.7H84.8926C85.4432 9.7 85.9332 9.76533 86.3626 9.896C86.8012 10.0267 87.1606 10.2227 87.4406 10.484C87.7206 10.7453 87.9119 11.072 88.0146 11.464C88.1266 11.8467 88.1266 12.2947 88.0146 12.808C87.7906 13.844 87.3332 14.6187 86.6426 15.132C85.9519 15.636 85.0372 15.888 83.8986 15.888H81.6586L80.9586 19.164C80.9399 19.2573 80.8932 19.3367 80.8186 19.402C80.7439 19.4673 80.6552 19.5 80.5526 19.5H79.2366ZM81.9666 14.334H83.9406C84.4539 14.334 84.8972 14.208 85.2706 13.956C85.6532 13.6947 85.9006 13.312 86.0126 12.808C86.0779 12.4907 86.0919 12.22 86.0546 11.996C86.0172 11.7627 85.8912 11.5807 85.6766 11.45C85.4712 11.3193 85.1446 11.254 84.6966 11.254H82.6246L81.9666 14.334ZM88.6048 19.5C88.5114 19.5 88.4368 19.4673 88.3808 19.402C88.3341 19.3367 88.3201 19.2573 88.3388 19.164L90.2848 10.036C90.3034 9.94267 90.3501 9.86333 90.4248 9.798C90.4994 9.73267 90.5881 9.7 90.6908 9.7H92.0068C92.1001 9.7 92.1748 9.73267 92.2308 9.798C92.2868 9.86333 92.3054 9.94267 92.2868 10.036L90.3268 19.164C90.3081 19.2573 90.2614 19.3367 90.1868 19.402C90.1121 19.4673 90.0281 19.5 89.9348 19.5H88.6048Z" fill="white" fill-opacity="0.9"/>
<defs>
<clipPath id="clip0_1059_4748">
<rect width="22" height="22" fill="white" transform="translate(7.5 4)"/>
</clipPath>
</defs>
</svg>
