<svg width="85" height="30" viewBox="0 0 85 30" fill="none" xmlns="http://www.w3.org/2000/svg">
<rect width="85" height="30" fill="#1B1B1D"/>
<path d="M14.6774 12.5874H18.2126L18.0404 13.6041H15.7571L15.5852 14.6661H17.6435L17.4716 15.6861H15.4133L15.0692 17.7672H13.8176L14.6774 12.5874Z" fill="white"/>
<path d="M18.27 13.8822H19.5066L18.8604 17.7663H17.6238L18.27 13.8822ZM18.42 12.8355C18.471 12.51 18.7923 12.2463 19.14 12.2463C19.4877 12.2463 19.7355 12.51 19.6923 12.8355C19.6491 13.161 19.3257 13.4271 18.9768 13.4271C18.6279 13.4271 18.3726 13.1589 18.42 12.8355Z" fill="white"/>
<path d="M20.1483 12.5874H21.3846L21.0636 14.5473H21.09C21.2922 14.1906 21.6945 13.8318 22.3089 13.8318C23.1207 13.8318 23.7489 14.4564 23.52 15.8268C23.3025 17.1492 22.4934 17.8218 21.6336 17.8218C21.0471 17.8218 20.7537 17.4957 20.6628 17.1366H20.6145L20.5134 17.7666H19.29L20.1483 12.5874ZM21.3696 16.86C21.8247 16.86 22.1496 16.4529 22.2495 15.8259C22.3494 15.1989 22.1685 14.799 21.7095 14.799C21.2568 14.799 20.9256 15.1911 20.8245 15.8259C20.7222 16.4538 20.9169 16.86 21.3696 16.86Z" fill="white"/>
<path d="M23.6635 15.8401C23.863 14.6365 24.7531 13.8325 25.924 13.8325C27.0265 13.8325 27.6841 14.5378 27.4717 15.8149L27.4234 16.1233H24.8368L24.829 16.1689C24.7507 16.6621 24.9832 16.9489 25.4662 16.9489C25.7875 16.9489 26.0662 16.8124 26.2072 16.552L27.3349 16.5847C27.0595 17.3485 26.3185 17.8414 25.2949 17.8414C24.0754 17.8396 23.4535 17.0812 23.6635 15.8401ZM26.3893 15.4051C26.4526 15.0082 26.2147 14.725 25.8103 14.725C25.4107 14.725 25.0567 15.0208 24.9682 15.4051H26.3893Z" fill="white"/>
<path d="M28.0739 13.8823H29.2739L29.1539 14.5903H29.1944C29.4245 14.077 29.8061 13.8301 30.2309 13.8301C30.3451 13.8309 30.4589 13.845 30.5699 13.8721L30.3878 14.9494C30.2741 14.9065 30.0641 14.8837 29.9099 14.8837C29.4725 14.8837 29.093 15.1948 29.0123 15.6574L28.6631 17.7664H27.4268L28.0739 13.8823Z" fill="white"/>
<path d="M13.913 13.9624H9.87773L9.55493 14.4205L13.8383 14.4181L13.913 13.9624Z" fill="#00ACD7"/>
<path d="M13.7705 14.9119H8.54841L8.21631 15.3682L13.6958 15.3643L13.7705 14.9119Z" fill="#00ACD7"/>
<path d="M13.628 15.8611H11.3969L11.0969 16.3192L13.5533 16.3174L13.628 15.8611Z" fill="#00ACD7"/>
<path d="M37.06 19.5C36.9573 19.5 36.878 19.4673 36.822 19.402C36.7753 19.3367 36.7613 19.2573 36.78 19.164L38.726 10.05C38.7447 9.94733 38.7913 9.86333 38.866 9.798C38.9407 9.73267 39.0293 9.7 39.132 9.7H45.208C45.3107 9.7 45.3853 9.73267 45.432 9.798C45.4787 9.86333 45.4927 9.94733 45.474 10.05L45.264 11.03C45.2453 11.1327 45.1987 11.2167 45.124 11.282C45.0493 11.338 44.9607 11.366 44.858 11.366H40.364L39.79 14.026H44.004C44.1067 14.026 44.1813 14.0587 44.228 14.124C44.2747 14.1893 44.2887 14.2733 44.27 14.376L44.074 15.356C44.0553 15.4493 44.004 15.5287 43.92 15.594C43.8453 15.6593 43.7567 15.692 43.654 15.692H39.44L38.698 19.164C38.6793 19.2573 38.6327 19.3367 38.558 19.402C38.4833 19.4673 38.3947 19.5 38.292 19.5H37.06ZM45.6215 19.5C45.5282 19.5 45.4535 19.4673 45.3975 19.402C45.3509 19.3367 45.3369 19.2573 45.3555 19.164L47.3015 10.036C47.3202 9.94267 47.3669 9.86333 47.4415 9.798C47.5162 9.73267 47.6049 9.7 47.7075 9.7H49.0235C49.1169 9.7 49.1915 9.73267 49.2475 9.798C49.3035 9.86333 49.3222 9.94267 49.3035 10.036L47.3435 19.164C47.3249 19.2573 47.2782 19.3367 47.2035 19.402C47.1289 19.4673 47.0449 19.5 46.9515 19.5H45.6215ZM49.9591 19.5C49.8565 19.5 49.7771 19.4673 49.7211 19.402C49.6745 19.3367 49.6605 19.2573 49.6791 19.164L51.6251 10.05C51.6438 9.94733 51.6905 9.86333 51.7651 9.798C51.8398 9.73267 51.9285 9.7 52.0311 9.7H55.9791C56.6698 9.7 57.2391 9.81667 57.6871 10.05C58.1445 10.274 58.4665 10.5867 58.6531 10.988C58.8398 11.3893 58.8771 11.856 58.7651 12.388C58.6811 12.7707 58.5458 13.0927 58.3591 13.354C58.1818 13.6153 57.9858 13.83 57.7711 13.998C57.5565 14.1567 57.3511 14.278 57.1551 14.362C57.4818 14.5487 57.7431 14.8333 57.9391 15.216C58.1445 15.5987 58.1911 16.0607 58.0791 16.602C57.9578 17.162 57.7431 17.6613 57.4351 18.1C57.1271 18.5387 56.7118 18.884 56.1891 19.136C55.6665 19.3787 55.0225 19.5 54.2571 19.5H49.9591ZM51.8631 18.016H54.2011C54.6865 18.016 55.0971 17.8807 55.4331 17.61C55.7691 17.33 55.9791 16.994 56.0631 16.602C56.1471 16.1913 56.1005 15.8507 55.9231 15.58C55.7458 15.3093 55.3771 15.174 54.8171 15.174H52.4791L51.8631 18.016ZM52.7871 13.718H54.9431C55.4191 13.718 55.8158 13.6013 56.1331 13.368C56.4505 13.1253 56.6558 12.8127 56.7491 12.43C56.8331 12.038 56.7865 11.7347 56.6091 11.52C56.4318 11.296 56.1005 11.184 55.6151 11.184H53.3331L52.7871 13.718ZM59.7378 19.5C59.6351 19.5 59.5558 19.4673 59.4998 19.402C59.4531 19.3367 59.4391 19.2573 59.4578 19.164L61.4038 10.05C61.4225 9.94733 61.4691 9.86333 61.5438 9.798C61.6185 9.73267 61.7071 9.7 61.8098 9.7H67.9698C68.0725 9.7 68.1471 9.73267 68.1938 9.798C68.2405 9.86333 68.2545 9.94733 68.2358 10.05L68.0398 10.974C68.0211 11.0673 67.9745 11.1467 67.8998 11.212C67.8251 11.2773 67.7365 11.31 67.6338 11.31H63.0278L62.4958 13.788H66.7938C66.8965 13.788 66.9711 13.8207 67.0178 13.886C67.0645 13.942 67.0785 14.0213 67.0598 14.124L66.8778 14.992C66.8591 15.0947 66.8125 15.1787 66.7378 15.244C66.6631 15.3 66.5745 15.328 66.4718 15.328H62.1738L61.6138 17.89H66.3458C66.4485 17.89 66.5231 17.9227 66.5698 17.988C66.6165 18.0533 66.6305 18.1373 66.6118 18.24L66.4158 19.164C66.3971 19.2573 66.3505 19.3367 66.2758 19.402C66.2011 19.4673 66.1125 19.5 66.0098 19.5H59.7378ZM68.7551 19.5C68.6618 19.5 68.5918 19.4673 68.5451 19.402C68.4985 19.3367 68.4845 19.2573 68.5031 19.164L70.4351 10.05C70.4538 9.94733 70.5005 9.86333 70.5751 9.798C70.6591 9.73267 70.7478 9.7 70.8411 9.7H74.4671C75.5965 9.7 76.4318 9.96133 76.9731 10.484C77.5145 11.0067 77.6778 11.7673 77.4631 12.766C77.3138 13.4567 77.0245 14.0307 76.5951 14.488C76.1658 14.9453 75.6385 15.2767 75.0131 15.482L76.3011 19.052C76.3105 19.08 76.3151 19.108 76.3151 19.136C76.3151 19.1547 76.3105 19.178 76.3011 19.206C76.2918 19.29 76.2498 19.36 76.1751 19.416C76.1005 19.472 76.0258 19.5 75.9511 19.5H74.6771C74.5185 19.5 74.4065 19.458 74.3411 19.374C74.2851 19.29 74.2385 19.206 74.2011 19.122L73.1091 15.804H71.1631L70.4491 19.164C70.4305 19.2573 70.3791 19.3367 70.2951 19.402C70.2205 19.4673 70.1318 19.5 70.0291 19.5H68.7551ZM71.4991 14.222H73.4591C74.0285 14.222 74.4811 14.096 74.8171 13.844C75.1531 13.5827 75.3678 13.2187 75.4611 12.752C75.5638 12.2853 75.5031 11.9213 75.2791 11.66C75.0645 11.3893 74.6678 11.254 74.0891 11.254H72.1151L71.4991 14.222Z" fill="white" fill-opacity="0.9"/>
</svg>
