<svg width="62" height="30" viewBox="0 0 62 30" fill="none" xmlns="http://www.w3.org/2000/svg">
<rect width="62" height="30" fill="#00ACD7"/>
<g clip-path="url(#clip0_1059_4522)">
<path fill-rule="evenodd" clip-rule="evenodd" d="M19.956 13.6554C19.6969 13.7279 19.4341 13.8014 19.13 13.884C18.9814 13.9261 18.9476 13.9357 18.8093 13.7676C18.6435 13.5696 18.5219 13.4415 18.2897 13.325C17.5931 12.9639 16.9186 13.0687 16.2883 13.4997C15.5365 14.0122 15.1495 14.7693 15.1606 15.7127C15.1716 16.6446 15.7797 17.4133 16.6533 17.5414C17.4051 17.6463 18.0354 17.3667 18.5329 16.7727C18.6324 16.6446 18.7209 16.5047 18.8315 16.3417H16.6975C16.4652 16.3417 16.41 16.1903 16.4874 15.9923C16.6311 15.6312 16.8965 15.0256 17.0513 14.7227C17.0845 14.6528 17.1619 14.5363 17.3277 14.5363H20.8859C21.0457 14.0028 21.305 13.4988 21.651 13.0218C22.4582 11.9036 23.4312 11.3212 24.7469 11.0766C25.8748 10.867 26.9362 10.9834 27.8982 11.6706C28.7717 12.2996 29.3134 13.1499 29.4572 14.2681C29.6452 15.8405 29.214 17.1218 28.1857 18.2166C27.4559 18.997 26.5603 19.4862 25.532 19.7075C25.3358 19.7457 25.1397 19.7639 24.9467 19.7818C24.8459 19.7911 24.746 19.8003 24.6475 19.8124C23.6412 19.7891 22.7236 19.4862 21.9495 18.7874C21.4052 18.2917 21.0303 17.6826 20.8439 16.9735C20.7146 17.2486 20.56 17.5121 20.3795 17.7627C19.5833 18.8692 18.544 19.5565 17.2282 19.7429C16.1446 19.8942 15.1384 19.6729 14.2539 18.9741C13.4357 18.3218 12.9713 17.4599 12.8496 16.3883C12.7059 15.1187 13.0597 13.9773 13.7895 12.9756C14.5745 11.8924 15.6139 11.2051 16.8854 10.9605C17.9248 10.7625 18.9199 10.8907 19.8156 11.5313C20.4015 11.9389 20.8217 12.498 21.0982 13.1736C21.1645 13.2784 21.1202 13.3367 20.9875 13.3716C20.6001 13.4753 20.2809 13.5646 19.956 13.6554ZM27.2713 14.9821C27.2735 15.0212 27.2758 15.0625 27.279 15.1067C27.2237 16.1084 26.7482 16.8538 25.8748 17.3314C25.2888 17.6458 24.6806 17.6808 24.0725 17.4013C23.2764 17.0285 22.8562 16.1084 23.0552 15.1999C23.2985 14.105 23.9619 13.4178 24.9902 13.1732C26.0406 12.9169 27.0468 13.5692 27.2459 14.7223C27.2615 14.8048 27.2661 14.8872 27.2713 14.9821Z" fill="white" fill-opacity="0.9"/>
<path d="M9.18074 13.5231C9.15862 13.558 9.16968 13.5813 9.2139 13.5813L12.5069 13.593C12.54 13.593 12.5953 13.558 12.6174 13.5231L12.8054 13.2202C12.8275 13.1853 12.8165 13.1504 12.7722 13.1504H9.53456C9.49033 13.1504 9.43504 13.1737 9.41293 13.2086L9.18074 13.5231Z" fill="white" fill-opacity="0.9"/>
<path d="M7.51106 14.5946C7.48894 14.6295 7.5 14.6528 7.54423 14.6528L12.0645 14.6412C12.1087 14.6412 12.153 14.6179 12.164 14.5713L12.2525 14.2918C12.2635 14.2568 12.2414 14.2219 12.1972 14.2219H7.86488C7.82065 14.2219 7.76537 14.2452 7.74325 14.2802L7.51106 14.5946Z" fill="white" fill-opacity="0.9"/>
<path d="M10.1868 15.6545C10.1647 15.6895 10.1758 15.7244 10.22 15.7244L11.9208 15.7361C11.9539 15.7361 11.9982 15.7011 11.9982 15.6545L12.0203 15.375C12.0203 15.3284 11.9982 15.2935 11.9539 15.2935H10.4522C10.408 15.2935 10.3637 15.3284 10.3416 15.3633L10.1868 15.6545Z" fill="white" fill-opacity="0.9"/>
</g>
<path d="M38.686 19.64C37.8273 19.64 37.1273 19.4907 36.586 19.192C36.0447 18.8933 35.6667 18.464 35.452 17.904C35.2467 17.3347 35.214 16.658 35.354 15.874C35.4287 15.4727 35.5127 15.0433 35.606 14.586C35.7087 14.1193 35.8113 13.6807 35.914 13.27C36.1007 12.4953 36.418 11.8327 36.866 11.282C37.3233 10.7313 37.888 10.3067 38.56 10.008C39.232 9.70933 39.988 9.56 40.828 9.56C41.5093 9.56 42.088 9.65333 42.564 9.84C43.04 10.0173 43.418 10.2507 43.698 10.54C43.978 10.82 44.1693 11.1233 44.272 11.45C44.3747 11.7767 44.4027 12.08 44.356 12.36C44.3467 12.444 44.3047 12.514 44.23 12.57C44.1647 12.626 44.0853 12.654 43.992 12.654H42.55C42.466 12.654 42.4007 12.6353 42.354 12.598C42.3167 12.5607 42.284 12.5047 42.256 12.43C42.2373 12.234 42.1673 12.0427 42.046 11.856C41.934 11.66 41.752 11.4967 41.5 11.366C41.2573 11.2353 40.9213 11.17 40.492 11.17C39.8573 11.17 39.3113 11.338 38.854 11.674C38.406 12.01 38.0887 12.5653 37.902 13.34C37.7993 13.7413 37.7013 14.152 37.608 14.572C37.524 14.9827 37.4447 15.3933 37.37 15.804C37.2393 16.5973 37.328 17.1667 37.636 17.512C37.9533 17.8573 38.4293 18.03 39.064 18.03C39.484 18.03 39.876 17.9553 40.24 17.806C40.604 17.6567 40.912 17.4233 41.164 17.106C41.4253 16.7887 41.6073 16.3827 41.71 15.888L41.808 15.454H40.086C39.9927 15.454 39.9227 15.4213 39.876 15.356C39.8293 15.2907 39.8153 15.2067 39.834 15.104L39.988 14.362C40.0067 14.2593 40.0533 14.1753 40.128 14.11C40.212 14.0447 40.3007 14.012 40.394 14.012H43.74C43.8427 14.012 43.9173 14.0447 43.964 14.11C44.0107 14.1753 44.0247 14.2593 44.006 14.362L43.698 15.832C43.5393 16.616 43.2267 17.2927 42.76 17.862C42.2933 18.4313 41.71 18.87 41.01 19.178C40.3193 19.486 39.5447 19.64 38.686 19.64ZM48.5587 19.64C47.9894 19.64 47.4667 19.5653 46.9907 19.416C46.5147 19.2573 46.1181 19.0193 45.8007 18.702C45.4834 18.3847 45.2594 17.988 45.1287 17.512C45.0074 17.0267 45.0027 16.4573 45.1147 15.804C45.1801 15.4027 45.2547 15.006 45.3387 14.614C45.4321 14.222 45.5254 13.8207 45.6187 13.41C45.9267 12.1407 46.4774 11.184 47.2707 10.54C48.0641 9.88667 49.0954 9.56 50.3647 9.56C50.9434 9.56 51.4661 9.644 51.9327 9.812C52.4087 9.97067 52.8054 10.2133 53.1227 10.54C53.4401 10.8573 53.6594 11.2587 53.7807 11.744C53.9114 12.22 53.9207 12.7753 53.8087 13.41C53.7434 13.8207 53.6641 14.222 53.5707 14.614C53.4867 15.006 53.3981 15.4027 53.3047 15.804C52.9874 17.1013 52.4321 18.0673 51.6387 18.702C50.8454 19.3273 49.8187 19.64 48.5587 19.64ZM48.6847 18.03C49.3007 18.03 49.8421 17.8527 50.3087 17.498C50.7847 17.134 51.1207 16.546 51.3167 15.734C51.4194 15.3233 51.5081 14.9453 51.5827 14.6C51.6574 14.2453 51.7274 13.8673 51.7927 13.466C51.9421 12.654 51.8767 12.0707 51.5967 11.716C51.3261 11.352 50.8734 11.17 50.2387 11.17C49.6134 11.17 49.0674 11.352 48.6007 11.716C48.1434 12.0707 47.8167 12.654 47.6207 13.466C47.5181 13.8673 47.4294 14.2453 47.3547 14.6C47.2801 14.9453 47.2054 15.3233 47.1307 15.734C46.9907 16.546 47.0514 17.134 47.3127 17.498C47.5834 17.8527 48.0407 18.03 48.6847 18.03Z" fill="white" fill-opacity="0.9"/>
<defs>
<clipPath id="clip0_1059_4522">
<rect width="22" height="22" fill="white" transform="translate(7.5 4)"/>
</clipPath>
</defs>
</svg>
