<svg width="108" height="30" viewBox="0 0 108 30" fill="none" xmlns="http://www.w3.org/2000/svg">
<rect width="108" height="30" fill="#0B0B0B"/>
<path d="M27.4786 13.73C27.4403 13.3783 27.4018 12.9485 27.2481 12.4796C27.1328 12.0106 26.9408 11.5027 26.6718 10.9556C26.4028 10.4085 26.0571 9.86145 25.6345 9.31438C25.4808 9.119 25.2887 8.88454 25.0582 8.68916C25.3655 7.43872 24.674 6.38366 24.674 6.38366C23.5214 6.3055 22.7529 6.73534 22.4839 6.9698C22.4456 6.9698 22.4071 6.93073 22.3303 6.89164C22.1382 6.8135 21.9461 6.73534 21.7156 6.65719C21.4851 6.57904 21.2929 6.53996 21.0624 6.46181C20.8319 6.42273 20.6013 6.38366 20.4093 6.34458C20.3708 6.34458 20.3325 6.34458 20.294 6.34458C19.7945 4.70337 18.3345 4 18.3345 4C16.7209 5.05506 16.4135 6.50089 16.4135 6.50089C16.4135 6.50089 16.4135 6.53996 16.4135 6.57904C16.3367 6.61811 16.2214 6.61811 16.1446 6.65719C16.0293 6.69627 15.9141 6.73534 15.7604 6.77442C15.6451 6.8135 15.5299 6.85257 15.3762 6.93073C15.1457 7.04796 14.8767 7.16518 14.6462 7.28241C14.4157 7.39964 14.1852 7.55594 13.9546 7.71226C13.9162 7.71226 13.9162 7.67317 13.9162 7.67317C11.6494 6.8135 9.65154 7.86856 9.65154 7.86856C9.45944 10.2913 10.5352 11.8543 10.7657 12.1279C10.7273 12.2842 10.6505 12.4405 10.6121 12.5968C10.4584 13.1439 10.3047 13.73 10.2279 14.3162C10.2279 14.3943 10.1894 14.4725 10.1894 14.5506C8.11473 15.6057 7.5 17.7549 7.5 17.7549C9.22892 19.7869 11.2652 19.904 11.2652 19.904C11.5342 20.373 11.8031 20.8028 12.1489 21.2326C12.3026 21.3889 12.4562 21.5844 12.5715 21.7406C11.9568 23.5772 12.6483 25.1013 12.6483 25.1013C14.5694 25.1794 15.8372 24.2415 16.1062 24.0071C16.2983 24.0853 16.4904 24.1243 16.6825 24.2025C17.2588 24.3588 17.8735 24.437 18.4882 24.476C18.6419 24.476 18.7957 24.476 18.9493 24.476H19.0262H19.0645H19.1414H19.2182C20.1403 25.8046 21.7156 26 21.7156 26C22.8682 24.7886 22.9066 23.5772 22.9066 23.3037V23.2647V23.2255C23.1371 23.0692 23.3676 22.8739 23.5982 22.6785C24.0592 22.2486 24.4434 21.7798 24.7892 21.2718C24.8277 21.2326 24.866 21.1936 24.866 21.1155C26.1723 21.1936 27.056 20.2949 27.056 20.2949C26.8255 18.9272 26.057 18.2629 25.9034 18.1457H25.865C25.865 18.0674 25.865 17.9893 25.865 17.9111C25.865 17.7549 25.865 17.5986 25.865 17.4814V17.286V17.2468V17.2078V17.1687V17.0906V16.9734C25.865 16.9343 25.865 16.8952 25.865 16.8561C25.865 16.8171 25.865 16.778 25.865 16.7388V16.6217V16.5044C25.8265 16.3481 25.8265 16.1918 25.7881 16.0745C25.6345 15.4885 25.4423 14.9414 25.135 14.4334C24.8277 13.9254 24.4819 13.4955 24.0592 13.1048C23.6366 12.714 23.1756 12.4405 22.6761 12.206C22.1766 11.9716 21.6771 11.8543 21.1393 11.7762C20.8703 11.7371 20.6398 11.7371 20.3708 11.7371H20.294H20.2556H20.2172H20.1788H20.102C20.0635 11.7371 20.025 11.7371 19.9867 11.7371C19.8713 11.7371 19.7177 11.7762 19.6025 11.7762C19.103 11.8543 18.6035 12.0497 18.1809 12.3233C17.7582 12.5968 17.3741 12.9094 17.0667 13.2611C16.7593 13.6128 16.5288 14.0426 16.3751 14.4725C16.2214 14.9023 16.1446 15.3321 16.1062 15.762C16.1062 15.8792 16.1062 15.9574 16.1062 16.0745C16.1062 16.1137 16.1062 16.1137 16.1062 16.1528V16.2309C16.1062 16.27 16.1062 16.3481 16.1062 16.3872C16.1446 16.5825 16.183 16.8171 16.2214 17.0124C16.3367 17.4031 16.5288 17.7549 16.7209 18.0674C16.9514 18.3801 17.2204 18.6146 17.4894 18.8099C17.7582 19.0053 18.0657 19.1616 18.373 19.2397C18.6804 19.3179 18.9493 19.357 19.2567 19.357C19.295 19.357 19.3335 19.357 19.3719 19.357H19.4103H19.4488C19.4872 19.357 19.5256 19.357 19.5256 19.357C19.5256 19.357 19.5256 19.357 19.564 19.357H19.6025H19.6408C19.6793 19.357 19.7177 19.357 19.7561 19.357C19.7945 19.357 19.833 19.357 19.8713 19.3179C19.9482 19.3179 19.9867 19.2789 20.0635 19.2789C20.1788 19.2397 20.294 19.2007 20.4093 19.1226C20.5245 19.0834 20.6013 19.0053 20.7166 18.9272C20.755 18.9272 20.7551 18.8881 20.7935 18.849C20.9088 18.7709 20.9088 18.6146 20.8319 18.5364C20.7551 18.4583 20.6398 18.4192 20.563 18.4973C20.5245 18.4973 20.5245 18.5364 20.4861 18.5364C20.4093 18.5754 20.3325 18.6146 20.2172 18.6536C20.1403 18.6927 20.025 18.6927 19.9482 18.7317C19.9098 18.7317 19.833 18.7317 19.7945 18.7317C19.7561 18.7317 19.7561 18.7317 19.7177 18.7317C19.6793 18.7317 19.6793 18.7317 19.6408 18.7317C19.6025 18.7317 19.6025 18.7317 19.564 18.7317C19.5256 18.7317 19.4872 18.7317 19.4872 18.7317H19.4488H19.4103C19.3719 18.7317 19.372 18.7317 19.3335 18.7317C19.103 18.6927 18.9109 18.6536 18.6804 18.5364C18.4498 18.4583 18.2577 18.302 18.0656 18.1457C17.8735 17.9893 17.7199 17.7549 17.6046 17.5595C17.4894 17.3641 17.3741 17.0906 17.3356 16.8171C17.2972 16.6998 17.2972 16.5435 17.2972 16.4263C17.2972 16.3872 17.2972 16.3481 17.2972 16.3091V16.27V16.2309C17.2972 16.1528 17.2972 16.0745 17.3356 15.9964C17.4509 15.4102 17.7199 14.8632 18.1809 14.3943C18.2962 14.2771 18.4114 14.1989 18.5267 14.0816C18.6419 14.0035 18.7957 13.9254 18.9109 13.8472C19.0645 13.7691 19.2182 13.73 19.3335 13.6909C19.4872 13.6519 19.6408 13.6128 19.7945 13.6128C19.8713 13.6128 19.9482 13.6128 20.025 13.6128H20.0635H20.1403H20.1788H20.2556C20.4093 13.6128 20.6013 13.6519 20.755 13.6909C21.1008 13.7691 21.4082 13.8863 21.7156 14.0816C22.3303 14.4334 22.8297 14.9805 23.1756 15.6057C23.3292 15.9183 23.4445 16.27 23.5214 16.6217C23.5214 16.6998 23.5597 16.8171 23.5597 16.8952V16.9734V17.0515C23.5597 17.0906 23.5597 17.0906 23.5597 17.1297C23.5597 17.1687 23.5597 17.1687 23.5597 17.2078V17.286V17.3641C23.5597 17.4031 23.5597 17.4813 23.5597 17.5204C23.5597 17.6377 23.5597 17.7158 23.5214 17.833C23.5214 17.9111 23.4829 18.0284 23.4829 18.1066C23.4829 18.1847 23.4444 18.302 23.4061 18.3801C23.3676 18.5754 23.2908 18.7709 23.2139 18.9272C23.0603 19.2789 22.8682 19.6306 22.6376 19.9822C22.1766 20.6075 21.5619 21.1545 20.8319 21.4671C20.4861 21.6235 20.102 21.7406 19.7177 21.8188C19.5256 21.8579 19.3335 21.8579 19.1414 21.8969H19.103H19.0645H18.9877H18.9109H18.8725C18.7572 21.8969 18.6804 21.8969 18.5651 21.8969C18.1425 21.8579 17.7199 21.7798 17.3356 21.6625C16.9514 21.5453 16.5288 21.3889 16.183 21.1936C15.453 20.8028 14.7999 20.2558 14.262 19.5915C13.9931 19.2789 13.7625 18.9272 13.6088 18.5364C13.4167 18.1457 13.2631 17.7549 13.1478 17.3641C13.0325 16.9734 12.9557 16.5435 12.9557 16.1528V16.0745V16.0355V15.9574V15.7229V15.6838V15.6057V15.5666C12.9557 15.5275 12.9557 15.4494 12.9557 15.4102C12.9557 15.2149 12.9941 14.9805 12.9941 14.7851C13.0325 14.5897 13.071 14.3552 13.1094 14.1599C13.1478 13.9645 13.1862 13.73 13.2631 13.5346C13.3783 13.1439 13.532 12.7531 13.6857 12.3623C14.0315 11.6199 14.4541 10.9556 14.992 10.4476C15.1072 10.3304 15.2609 10.1741 15.4146 10.0568C15.5683 9.9396 15.722 9.82237 15.8757 9.74423C16.0293 9.627 16.183 9.54884 16.3367 9.47069C16.4135 9.43161 16.4904 9.39254 16.5672 9.35346C16.6056 9.35346 16.6441 9.31438 16.6825 9.31438C16.7209 9.31438 16.7593 9.2753 16.7978 9.2753C16.9514 9.19716 17.1435 9.15807 17.2972 9.07993C17.3356 9.07993 17.3741 9.04084 17.4125 9.04084C17.4509 9.04084 17.4894 9.00177 17.5277 9.00177C17.6046 8.9627 17.7199 8.9627 17.7967 8.92362C17.8351 8.92362 17.8735 8.88454 17.9504 8.88454C17.9887 8.88454 18.0272 8.88454 18.104 8.84547C18.1425 8.84547 18.1809 8.84547 18.2577 8.80639H18.3345H18.4114C18.4498 8.80639 18.4882 8.80639 18.5651 8.76731C18.6035 8.76731 18.6804 8.76731 18.7188 8.72824C18.7572 8.72824 18.834 8.72824 18.8725 8.72824C18.9109 8.72824 18.9493 8.72824 18.9877 8.72824H19.0645H19.103H19.1414C19.1798 8.72824 19.2567 8.72824 19.295 8.72824H19.3719H19.4103C19.4488 8.72824 19.4872 8.72824 19.5256 8.72824C19.7177 8.72824 19.8713 8.72824 20.0635 8.72824C20.4093 8.72824 20.755 8.76731 21.1008 8.84547C21.754 8.9627 22.3687 9.19716 22.9451 9.47069C23.5214 9.74423 24.0207 10.0959 24.4434 10.4867C24.4819 10.5257 24.4819 10.5257 24.5202 10.5648C24.5587 10.6039 24.5587 10.6039 24.5971 10.643C24.6355 10.6821 24.7124 10.7211 24.7507 10.7993C24.7892 10.8774 24.866 10.8774 24.9045 10.9556C24.9429 11.0337 25.0197 11.0728 25.0582 11.1119C25.2502 11.3073 25.4039 11.5027 25.5576 11.7371C25.865 12.1279 26.134 12.5577 26.326 12.9485C26.326 12.9876 26.3645 12.9876 26.3645 13.0266C26.3645 13.0657 26.4028 13.0657 26.4028 13.1048C26.4413 13.1439 26.4413 13.1829 26.4797 13.2611C26.5181 13.3002 26.5181 13.3392 26.5565 13.4174C26.595 13.4565 26.595 13.4955 26.6333 13.5737C26.7103 13.7691 26.7871 13.9254 26.8255 14.0816C26.9023 14.3552 26.9791 14.5897 27.0176 14.7851C27.056 14.8632 27.1328 14.9414 27.2096 14.9023C27.2865 14.9023 27.3634 14.8242 27.3634 14.7459C27.5171 14.2771 27.5171 14.0035 27.4786 13.73Z" fill="url(#paint0_linear_1062_6059)"/>
<path d="M36.686 19.64C35.8273 19.64 35.1273 19.4907 34.586 19.192C34.0447 18.8933 33.6667 18.464 33.452 17.904C33.2467 17.3347 33.214 16.658 33.354 15.874C33.4287 15.4727 33.5127 15.0433 33.606 14.586C33.7087 14.1193 33.8113 13.6807 33.914 13.27C34.1007 12.4953 34.418 11.8327 34.866 11.282C35.3233 10.7313 35.888 10.3067 36.56 10.008C37.232 9.70933 37.988 9.56 38.828 9.56C39.5093 9.56 40.088 9.65333 40.564 9.84C41.04 10.0173 41.418 10.2507 41.698 10.54C41.978 10.82 42.1693 11.1233 42.272 11.45C42.3747 11.7767 42.4027 12.08 42.356 12.36C42.3467 12.444 42.3047 12.514 42.23 12.57C42.1647 12.626 42.0853 12.654 41.992 12.654H40.55C40.466 12.654 40.4007 12.6353 40.354 12.598C40.3167 12.5607 40.284 12.5047 40.256 12.43C40.2373 12.234 40.1673 12.0427 40.046 11.856C39.934 11.66 39.752 11.4967 39.5 11.366C39.2573 11.2353 38.9213 11.17 38.492 11.17C37.8573 11.17 37.3113 11.338 36.854 11.674C36.406 12.01 36.0887 12.5653 35.902 13.34C35.7993 13.7413 35.7013 14.152 35.608 14.572C35.524 14.9827 35.4447 15.3933 35.37 15.804C35.2393 16.5973 35.328 17.1667 35.636 17.512C35.9533 17.8573 36.4293 18.03 37.064 18.03C37.484 18.03 37.876 17.9553 38.24 17.806C38.604 17.6567 38.912 17.4233 39.164 17.106C39.4253 16.7887 39.6073 16.3827 39.71 15.888L39.808 15.454H38.086C37.9927 15.454 37.9227 15.4213 37.876 15.356C37.8293 15.2907 37.8153 15.2067 37.834 15.104L37.988 14.362C38.0067 14.2593 38.0533 14.1753 38.128 14.11C38.212 14.0447 38.3007 14.012 38.394 14.012H41.74C41.8427 14.012 41.9173 14.0447 41.964 14.11C42.0107 14.1753 42.0247 14.2593 42.006 14.362L41.698 15.832C41.5393 16.616 41.2267 17.2927 40.76 17.862C40.2933 18.4313 39.71 18.87 39.01 19.178C38.3193 19.486 37.5447 19.64 36.686 19.64ZM43.1847 19.5C43.0914 19.5 43.0214 19.4673 42.9747 19.402C42.9281 19.3367 42.9141 19.2573 42.9327 19.164L44.8647 10.05C44.8834 9.94733 44.9301 9.86333 45.0047 9.798C45.0887 9.73267 45.1774 9.7 45.2707 9.7H48.8967C50.0261 9.7 50.8614 9.96133 51.4027 10.484C51.9441 11.0067 52.1074 11.7673 51.8927 12.766C51.7434 13.4567 51.4541 14.0307 51.0247 14.488C50.5954 14.9453 50.0681 15.2767 49.4427 15.482L50.7307 19.052C50.7401 19.08 50.7447 19.108 50.7447 19.136C50.7447 19.1547 50.7401 19.178 50.7307 19.206C50.7214 19.29 50.6794 19.36 50.6047 19.416C50.5301 19.472 50.4554 19.5 50.3807 19.5H49.1067C48.9481 19.5 48.8361 19.458 48.7707 19.374C48.7147 19.29 48.6681 19.206 48.6307 19.122L47.5387 15.804H45.5927L44.8787 19.164C44.8601 19.2573 44.8087 19.3367 44.7247 19.402C44.6501 19.4673 44.5614 19.5 44.4587 19.5H43.1847ZM45.9287 14.222H47.8887C48.4581 14.222 48.9107 14.096 49.2467 13.844C49.5827 13.5827 49.7974 13.2187 49.8907 12.752C49.9934 12.2853 49.9327 11.9213 49.7087 11.66C49.4941 11.3893 49.0974 11.254 48.5187 11.254H46.5447L45.9287 14.222ZM51.6387 19.5C51.5173 19.5 51.438 19.4533 51.4007 19.36C51.354 19.2667 51.3587 19.1733 51.4147 19.08L56.7067 10.05C56.7627 9.95667 56.8327 9.87733 56.9167 9.812C57.01 9.73733 57.1267 9.7 57.2667 9.7H58.8907C59.0307 9.7 59.1333 9.73733 59.1987 9.812C59.264 9.87733 59.3013 9.95667 59.3107 10.05L60.7667 19.08C60.7853 19.2107 60.762 19.3133 60.6967 19.388C60.6407 19.4627 60.5613 19.5 60.4587 19.5H59.2687C59.138 19.5 59.0447 19.472 58.9887 19.416C58.9327 19.3507 58.8953 19.2713 58.8767 19.178L58.5687 17.526H54.4107L53.3887 19.234C53.342 19.2993 53.2813 19.36 53.2067 19.416C53.132 19.472 53.0387 19.5 52.9267 19.5H51.6387ZM55.2367 15.916H58.4287L57.7567 11.59L55.2367 15.916ZM62.4644 19.5C62.3617 19.5 62.2824 19.4673 62.2264 19.402C62.1797 19.3367 62.1657 19.2573 62.1844 19.164L64.1304 10.05C64.149 9.94733 64.1957 9.86333 64.2704 9.798C64.345 9.73267 64.4337 9.7 64.5364 9.7H70.6124C70.715 9.7 70.7897 9.73267 70.8364 9.798C70.883 9.86333 70.897 9.94733 70.8784 10.05L70.6684 11.03C70.6497 11.1327 70.603 11.2167 70.5284 11.282C70.4537 11.338 70.365 11.366 70.2624 11.366H65.7684L65.1944 14.026H69.4084C69.511 14.026 69.5857 14.0587 69.6324 14.124C69.679 14.1893 69.693 14.2733 69.6744 14.376L69.4784 15.356C69.4597 15.4493 69.4084 15.5287 69.3244 15.594C69.2497 15.6593 69.161 15.692 69.0584 15.692H64.8444L64.1024 19.164C64.0837 19.2573 64.037 19.3367 63.9624 19.402C63.8877 19.4673 63.799 19.5 63.6964 19.5H62.4644ZM69.6648 19.5C69.5434 19.5 69.4641 19.4533 69.4268 19.36C69.3801 19.2667 69.3848 19.1733 69.4408 19.08L74.7328 10.05C74.7888 9.95667 74.8588 9.87733 74.9428 9.812C75.0361 9.73733 75.1528 9.7 75.2928 9.7H76.9168C77.0568 9.7 77.1594 9.73733 77.2248 9.812C77.2901 9.87733 77.3274 9.95667 77.3368 10.05L78.7928 19.08C78.8114 19.2107 78.7881 19.3133 78.7228 19.388C78.6668 19.4627 78.5874 19.5 78.4848 19.5H77.2948C77.1641 19.5 77.0708 19.472 77.0148 19.416C76.9588 19.3507 76.9214 19.2713 76.9028 19.178L76.5948 17.526H72.4368L71.4148 19.234C71.3681 19.2993 71.3074 19.36 71.2328 19.416C71.1581 19.472 71.0648 19.5 70.9528 19.5H69.6648ZM73.2628 15.916H76.4548L75.7828 11.59L73.2628 15.916ZM80.4905 19.5C80.3878 19.5 80.3085 19.4673 80.2525 19.402C80.2058 19.3367 80.1918 19.2573 80.2105 19.164L82.1565 10.05C82.1751 9.94733 82.2218 9.86333 82.2965 9.798C82.3711 9.73267 82.4551 9.7 82.5485 9.7H83.6125C83.7431 9.7 83.8318 9.728 83.8785 9.784C83.9345 9.84 83.9671 9.88667 83.9765 9.924L86.6925 16.252L88.0085 10.05C88.0271 9.94733 88.0738 9.86333 88.1485 9.798C88.2325 9.73267 88.3258 9.7 88.4285 9.7H89.6045C89.7071 9.7 89.7818 9.73267 89.8285 9.798C89.8751 9.86333 89.8891 9.94733 89.8705 10.05L87.9385 19.15C87.9198 19.2527 87.8731 19.3367 87.7985 19.402C87.7238 19.4673 87.6351 19.5 87.5325 19.5H86.4685C86.3378 19.5 86.2491 19.472 86.2025 19.416C86.1558 19.36 86.1231 19.3133 86.1045 19.276L83.3745 13.088L82.0865 19.164C82.0678 19.2573 82.0211 19.3367 81.9465 19.402C81.8718 19.4673 81.7831 19.5 81.6805 19.5H80.4905ZM89.6186 19.5C89.4972 19.5 89.4179 19.4533 89.3806 19.36C89.3339 19.2667 89.3386 19.1733 89.3946 19.08L94.6866 10.05C94.7426 9.95667 94.8126 9.87733 94.8966 9.812C94.9899 9.73733 95.1066 9.7 95.2466 9.7H96.8706C97.0106 9.7 97.1132 9.73733 97.1786 9.812C97.2439 9.87733 97.2812 9.95667 97.2906 10.05L98.7466 19.08C98.7652 19.2107 98.7419 19.3133 98.6766 19.388C98.6206 19.4627 98.5412 19.5 98.4386 19.5H97.2486C97.1179 19.5 97.0246 19.472 96.9686 19.416C96.9126 19.3507 96.8752 19.2713 96.8566 19.178L96.5486 17.526H92.3906L91.3686 19.234C91.3219 19.2993 91.2612 19.36 91.1866 19.416C91.1119 19.472 91.0186 19.5 90.9066 19.5H89.6186ZM93.2166 15.916H96.4086L95.7366 11.59L93.2166 15.916Z" fill="white" fill-opacity="0.9"/>
<defs>
<linearGradient id="paint0_linear_1062_6059" x1="17.5625" y1="31.9453" x2="17.5625" y2="6.49511" gradientUnits="userSpaceOnUse">
<stop stop-color="#FFF100"/>
<stop offset="1" stop-color="#F05A28"/>
</linearGradient>
</defs>
</svg>
