<svg width="95" height="30" viewBox="0 0 95 30" fill="none" xmlns="http://www.w3.org/2000/svg">
<rect width="95" height="30" fill="#1E1E20"/>
<g clip-path="url(#clip0_1059_4551)">
<path d="M9.81579 9.61224L11.2895 11.6327C11.2895 11.6327 13.1842 7.59184 15.9211 4C19.5 8.4898 23.5 14.7755 23.5 18.3673C23.5 22.8571 19.5 26 15.7105 26C11.0789 26 7.5 22.1837 7.5 17.6939C7.5 16.3469 8.13158 12.3061 9.81579 9.61224Z" fill="url(#paint0_linear_1059_4551)"/>
<path d="M15.7105 8.71436C25.6053 20.1633 18.6579 23.5307 15.7105 23.5307C13.3947 23.5307 4.97369 21.0613 15.7105 8.71436Z" fill="#FF9955"/>
</g>
<path d="M29.06 19.5C28.9573 19.5 28.878 19.472 28.822 19.416C28.7753 19.3507 28.7613 19.2667 28.78 19.164L30.726 10.05C30.7447 9.94733 30.7913 9.86333 30.866 9.798C30.9407 9.73267 31.0293 9.7 31.132 9.7H32.392C32.4947 9.7 32.5693 9.73267 32.616 9.798C32.672 9.86333 32.6907 9.94733 32.672 10.05L31.902 13.662H36.032L36.802 10.05C36.8207 9.94733 36.8673 9.86333 36.942 9.798C37.0167 9.73267 37.1053 9.7 37.208 9.7H38.468C38.5707 9.7 38.6453 9.73267 38.692 9.798C38.748 9.86333 38.7667 9.94733 38.748 10.05L36.802 19.164C36.7833 19.2573 36.7367 19.3367 36.662 19.402C36.5873 19.4673 36.4987 19.5 36.396 19.5H35.136C35.0333 19.5 34.954 19.4673 34.898 19.402C34.8513 19.3367 34.8373 19.2573 34.856 19.164L35.654 15.412H31.524L30.726 19.164C30.7073 19.2573 30.6607 19.3367 30.586 19.402C30.5113 19.4673 30.4227 19.5 30.32 19.5H29.06ZM42.9552 19.64C42.3859 19.64 41.8632 19.5653 41.3872 19.416C40.9112 19.2573 40.5146 19.0193 40.1972 18.702C39.8799 18.3847 39.6559 17.988 39.5252 17.512C39.4039 17.0267 39.3992 16.4573 39.5112 15.804C39.5766 15.4027 39.6512 15.006 39.7352 14.614C39.8286 14.222 39.9219 13.8207 40.0152 13.41C40.3232 12.1407 40.8739 11.184 41.6672 10.54C42.4606 9.88667 43.4919 9.56 44.7612 9.56C45.3399 9.56 45.8626 9.644 46.3292 9.812C46.8052 9.97067 47.2019 10.2133 47.5192 10.54C47.8366 10.8573 48.0559 11.2587 48.1772 11.744C48.3079 12.22 48.3172 12.7753 48.2052 13.41C48.1399 13.8207 48.0606 14.222 47.9672 14.614C47.8832 15.006 47.7946 15.4027 47.7012 15.804C47.3839 17.1013 46.8286 18.0673 46.0352 18.702C45.2419 19.3273 44.2152 19.64 42.9552 19.64ZM43.0812 18.03C43.6972 18.03 44.2386 17.8527 44.7052 17.498C45.1812 17.134 45.5172 16.546 45.7132 15.734C45.8159 15.3233 45.9046 14.9453 45.9792 14.6C46.0539 14.2453 46.1239 13.8673 46.1892 13.466C46.3386 12.654 46.2732 12.0707 45.9932 11.716C45.7226 11.352 45.2699 11.17 44.6352 11.17C44.0099 11.17 43.4639 11.352 42.9972 11.716C42.5399 12.0707 42.2132 12.654 42.0172 13.466C41.9146 13.8673 41.8259 14.2453 41.7512 14.6C41.6766 14.9453 41.6019 15.3233 41.5272 15.734C41.3872 16.546 41.4479 17.134 41.7092 17.498C41.9799 17.8527 42.4372 18.03 43.0812 18.03ZM49.2736 19.5C49.1709 19.5 49.0916 19.4673 49.0356 19.402C48.9889 19.3367 48.9749 19.2573 48.9936 19.164L50.9396 10.05C50.9583 9.94733 51.0049 9.86333 51.0796 9.798C51.1543 9.73267 51.2383 9.7 51.3316 9.7H52.3956C52.5263 9.7 52.6149 9.728 52.6616 9.784C52.7176 9.84 52.7503 9.88667 52.7596 9.924L55.4756 16.252L56.7916 10.05C56.8103 9.94733 56.8569 9.86333 56.9316 9.798C57.0156 9.73267 57.1089 9.7 57.2116 9.7H58.3876C58.4903 9.7 58.5649 9.73267 58.6116 9.798C58.6583 9.86333 58.6723 9.94733 58.6536 10.05L56.7216 19.15C56.7029 19.2527 56.6563 19.3367 56.5816 19.402C56.5069 19.4673 56.4183 19.5 56.3156 19.5H55.2516C55.1209 19.5 55.0323 19.472 54.9856 19.416C54.9389 19.36 54.9063 19.3133 54.8876 19.276L52.1576 13.088L50.8696 19.164C50.8509 19.2573 50.8043 19.3367 50.7296 19.402C50.6549 19.4673 50.5663 19.5 50.4636 19.5H49.2736ZM62.8817 19.64C62.3124 19.64 61.7897 19.5653 61.3137 19.416C60.8377 19.2573 60.441 19.0193 60.1237 18.702C59.8064 18.3847 59.5824 17.988 59.4517 17.512C59.3304 17.0267 59.3257 16.4573 59.4377 15.804C59.503 15.4027 59.5777 15.006 59.6617 14.614C59.755 14.222 59.8484 13.8207 59.9417 13.41C60.2497 12.1407 60.8004 11.184 61.5937 10.54C62.387 9.88667 63.4184 9.56 64.6877 9.56C65.2664 9.56 65.789 9.644 66.2557 9.812C66.7317 9.97067 67.1284 10.2133 67.4457 10.54C67.763 10.8573 67.9824 11.2587 68.1037 11.744C68.2344 12.22 68.2437 12.7753 68.1317 13.41C68.0664 13.8207 67.987 14.222 67.8937 14.614C67.8097 15.006 67.721 15.4027 67.6277 15.804C67.3104 17.1013 66.755 18.0673 65.9617 18.702C65.1684 19.3273 64.1417 19.64 62.8817 19.64ZM63.0077 18.03C63.6237 18.03 64.165 17.8527 64.6317 17.498C65.1077 17.134 65.4437 16.546 65.6397 15.734C65.7424 15.3233 65.831 14.9453 65.9057 14.6C65.9804 14.2453 66.0504 13.8673 66.1157 13.466C66.265 12.654 66.1997 12.0707 65.9197 11.716C65.649 11.352 65.1964 11.17 64.5617 11.17C63.9364 11.17 63.3904 11.352 62.9237 11.716C62.4664 12.0707 62.1397 12.654 61.9437 13.466C61.841 13.8673 61.7524 14.2453 61.6777 14.6C61.603 14.9453 61.5284 15.3233 61.4537 15.734C61.3137 16.546 61.3744 17.134 61.6357 17.498C61.9064 17.8527 62.3637 18.03 63.0077 18.03ZM72.1541 19.64C71.7061 19.64 71.2627 19.5793 70.8241 19.458C70.3854 19.3273 69.9934 19.1313 69.6481 18.87C69.3121 18.6087 69.0601 18.2867 68.8921 17.904C68.7241 17.5213 68.6774 17.0687 68.7521 16.546C68.7707 16.462 68.8081 16.392 68.8641 16.336C68.9294 16.2707 69.0087 16.238 69.1021 16.238H70.4461C70.5674 16.238 70.6514 16.2707 70.6981 16.336C70.7541 16.4013 70.7867 16.49 70.7961 16.602C70.7587 17.106 70.8707 17.47 71.1321 17.694C71.3934 17.918 71.7714 18.03 72.2661 18.03C72.9194 18.03 73.4327 17.8387 73.8061 17.456C74.1887 17.0733 74.4501 16.5413 74.5901 15.86L75.5561 11.352H70.7961C70.7027 11.352 70.6281 11.3193 70.5721 11.254C70.5254 11.1887 70.5114 11.1093 70.5301 11.016L70.7541 10.036C70.7727 9.94267 70.8194 9.86333 70.8941 9.798C70.9687 9.73267 71.0527 9.7 71.1461 9.7H77.5581C77.6607 9.7 77.7354 9.73267 77.7821 9.798C77.8287 9.86333 77.8427 9.94733 77.8241 10.05L76.5781 15.916C76.4194 16.6907 76.1581 17.358 75.7941 17.918C75.4394 18.478 74.9634 18.9073 74.3661 19.206C73.7687 19.4953 73.0314 19.64 72.1541 19.64ZM81.5962 19.64C80.7282 19.64 80.0189 19.514 79.4682 19.262C78.9175 19.01 78.5162 18.6787 78.2642 18.268C78.0215 17.848 77.9375 17.4047 78.0122 16.938C78.0215 16.854 78.0542 16.784 78.1102 16.728C78.1755 16.672 78.2502 16.644 78.3342 16.644H79.6222C79.7342 16.644 79.8135 16.672 79.8602 16.728C79.9162 16.7747 79.9582 16.8353 79.9862 16.91C80.0142 17.0873 80.0889 17.2647 80.2102 17.442C80.3315 17.61 80.5135 17.75 80.7562 17.862C81.0082 17.974 81.3302 18.03 81.7222 18.03C82.3942 18.03 82.9262 17.918 83.3182 17.694C83.7102 17.47 83.9482 17.1667 84.0322 16.784C84.0882 16.5133 84.0462 16.2987 83.9062 16.14C83.7662 15.972 83.5235 15.8227 83.1782 15.692C82.8329 15.552 82.3755 15.4073 81.8062 15.258C81.1529 15.09 80.6162 14.8753 80.1962 14.614C79.7762 14.3527 79.4869 14.026 79.3282 13.634C79.1789 13.242 79.1649 12.7707 79.2862 12.22C79.4542 11.408 79.8835 10.764 80.5742 10.288C81.2742 9.80267 82.1889 9.56 83.3182 9.56C83.9062 9.56 84.4195 9.644 84.8582 9.812C85.2969 9.97067 85.6609 10.1853 85.9502 10.456C86.2395 10.7173 86.4449 11.002 86.5662 11.31C86.6875 11.6087 86.7249 11.9027 86.6782 12.192C86.6689 12.2667 86.6362 12.3367 86.5802 12.402C86.5242 12.458 86.4495 12.486 86.3562 12.486H85.0262C84.9422 12.486 84.8675 12.4673 84.8022 12.43C84.7369 12.3927 84.6902 12.3227 84.6622 12.22C84.6715 11.9307 84.5409 11.6833 84.2702 11.478C84.0089 11.2727 83.6542 11.17 83.2062 11.17C82.7022 11.17 82.2682 11.2633 81.9042 11.45C81.5495 11.6367 81.3255 11.926 81.2322 12.318C81.1855 12.5793 81.2182 12.7987 81.3302 12.976C81.4422 13.144 81.6522 13.2933 81.9602 13.424C82.2682 13.5547 82.6929 13.6947 83.2342 13.844C83.9995 14.0213 84.6015 14.2407 85.0402 14.502C85.4882 14.754 85.7915 15.0713 85.9502 15.454C86.1089 15.8367 86.1275 16.3033 86.0062 16.854C85.8195 17.7687 85.3482 18.464 84.5922 18.94C83.8362 19.4067 82.8375 19.64 81.5962 19.64Z" fill="white" fill-opacity="0.9"/>
<defs>
<linearGradient id="paint0_linear_1059_4551" x1="7.5" y1="4" x2="7.5" y2="26" gradientUnits="userSpaceOnUse">
<stop stop-color="#FF8844"/>
<stop offset="1" stop-color="#FF3300"/>
</linearGradient>
<clipPath id="clip0_1059_4551">
<rect width="16" height="22" fill="white" transform="translate(7.5 4)"/>
</clipPath>
</defs>
</svg>
