<svg width="112" height="30" viewBox="0 0 112 30" fill="none" xmlns="http://www.w3.org/2000/svg">
<rect width="111.348" height="30" fill="#020A47"/>
<path fill-rule="evenodd" clip-rule="evenodd" d="M23.3579 19.1477L28.3913 17.9873C28.4689 17.9715 28.5422 17.9396 28.6068 17.8937C28.6715 17.8478 28.726 17.7889 28.7667 17.7207C28.8074 17.6525 28.8335 17.5765 28.8435 17.4976C28.8535 17.4187 28.8469 17.3385 28.8243 17.2623L26.6838 7.92691C26.6451 7.77286 26.5473 7.64051 26.4117 7.55888C26.2761 7.47725 26.1139 7.45303 25.9606 7.49149L20.9293 8.65191C20.777 8.6912 20.6464 8.78953 20.566 8.92539C20.4856 9.06125 20.462 9.22358 20.5004 9.37691L22.6347 18.7123C22.6734 18.8663 22.7712 18.9987 22.9068 19.0803C23.0424 19.1619 23.2046 19.1861 23.3579 19.1477Z" fill="white"/>
<path fill-rule="evenodd" clip-rule="evenodd" d="M21.6235 24.9162L27.7261 19.2351C27.9561 19.0017 27.8981 18.858 27.581 18.9726L23.3869 19.9309C23.2135 19.974 23.0536 20.0603 22.9221 20.1819C22.7907 20.3036 22.6918 20.4565 22.6347 20.6267L21.3624 24.7433C21.2754 25.0621 21.3914 25.1496 21.6235 24.9162Z" fill="white"/>
<path fill-rule="evenodd" clip-rule="evenodd" d="M10.4899 23.0622L19.6282 25.9016C19.7843 25.931 19.9457 25.9034 20.0835 25.8241C20.2213 25.7447 20.3265 25.6185 20.3804 25.4684L21.9117 20.5392C21.9339 20.4624 21.9407 20.3818 21.9319 20.3023C21.923 20.2228 21.8987 20.1457 21.8602 20.0757C21.8217 20.0056 21.7698 19.9439 21.7075 19.894C21.6453 19.8442 21.5738 19.8071 21.4973 19.7851L12.359 16.9726C12.2043 16.9281 12.0384 16.9469 11.8974 17.025C11.7565 17.1031 11.652 17.234 11.6068 17.3893L10.0858 22.308C10.0406 22.4619 10.0577 22.6274 10.1334 22.7687C10.2091 22.9099 10.3372 23.0154 10.4899 23.0622Z" fill="white"/>
<path fill-rule="evenodd" clip-rule="evenodd" d="M7.53893 12.9727L9.39145 21.1289C9.44948 21.4476 9.59868 21.4476 9.67949 21.1289L10.9518 17.0122C10.9952 16.8368 10.9969 16.6536 10.957 16.4774C10.917 16.3012 10.8365 16.1369 10.7218 15.9977L7.80002 12.8269C7.59695 12.5873 7.44568 12.6539 7.53893 12.9727Z" fill="white"/>
<path fill-rule="evenodd" clip-rule="evenodd" d="M14.6838 4.25393L7.68402 10.7685C7.57172 10.876 7.50579 11.0234 7.50036 11.1792C7.49494 11.335 7.55046 11.4867 7.65501 11.6018L11.1549 15.408C11.2628 15.5231 11.4114 15.5907 11.5686 15.5961C11.7257 15.6016 11.8787 15.5445 11.9942 15.4372L18.9919 8.91223C19.1052 8.80532 19.1718 8.65768 19.1772 8.50158C19.1827 8.34546 19.1265 8.19352 19.0209 8.07891L15.5272 4.27476C15.4735 4.21725 15.4089 4.17105 15.3373 4.13883C15.2656 4.10662 15.1883 4.08903 15.1098 4.08709C15.0314 4.08516 14.9533 4.09891 14.8802 4.12754C14.8071 4.15618 14.7403 4.19914 14.6838 4.25393Z" fill="white"/>
<path fill-rule="evenodd" clip-rule="evenodd" d="M21.4496 19.0017C21.7687 19.0892 21.9697 18.9163 21.8847 18.5851L19.8602 9.77263C19.7732 9.45388 19.5121 9.36639 19.2821 9.59764L12.6884 15.7559C12.4563 15.9872 12.5144 16.2476 12.8314 16.3351L21.4496 19.0017Z" fill="white"/>
<path fill-rule="evenodd" clip-rule="evenodd" d="M24.8913 6.71009L16.9093 4.25385C16.5923 4.16635 16.5343 4.28301 16.7933 4.54343L19.7151 7.70383C19.8461 7.82702 20.0046 7.91683 20.1773 7.96575C20.35 8.01469 20.5319 8.02131 20.7076 7.98507L24.9017 7.02884C25.2105 6.94134 25.2105 6.7955 24.8913 6.71009Z" fill="white"/>
<path d="M34.3941 19.5C34.3008 19.5 34.2261 19.4673 34.1701 19.402C34.1235 19.3367 34.1095 19.2573 34.1281 19.164L36.0741 10.036C36.0928 9.94267 36.1395 9.86333 36.2141 9.798C36.2888 9.73267 36.3775 9.7 36.4801 9.7H37.7961C37.8895 9.7 37.9641 9.73267 38.0201 9.798C38.0761 9.86333 38.0948 9.94267 38.0761 10.036L36.1161 19.164C36.0975 19.2573 36.0508 19.3367 35.9761 19.402C35.9015 19.4673 35.8175 19.5 35.7241 19.5H34.3941ZM38.7317 19.5C38.6291 19.5 38.5497 19.4673 38.4937 19.402C38.4471 19.3367 38.4331 19.2573 38.4517 19.164L40.3977 10.05C40.4164 9.94733 40.4631 9.86333 40.5377 9.798C40.6124 9.73267 40.6964 9.7 40.7897 9.7H41.8537C41.9844 9.7 42.0731 9.728 42.1197 9.784C42.1757 9.84 42.2084 9.88667 42.2177 9.924L44.9337 16.252L46.2497 10.05C46.2684 9.94733 46.3151 9.86333 46.3897 9.798C46.4737 9.73267 46.5671 9.7 46.6697 9.7H47.8457C47.9484 9.7 48.0231 9.73267 48.0697 9.798C48.1164 9.86333 48.1304 9.94733 48.1117 10.05L46.1797 19.15C46.1611 19.2527 46.1144 19.3367 46.0397 19.402C45.9651 19.4673 45.8764 19.5 45.7737 19.5H44.7097C44.5791 19.5 44.4904 19.472 44.4437 19.416C44.3971 19.36 44.3644 19.3133 44.3457 19.276L41.6157 13.088L40.3277 19.164C40.3091 19.2573 40.2624 19.3367 40.1877 19.402C40.1131 19.4673 40.0244 19.5 39.9217 19.5H38.7317ZM48.7838 19.5C48.6812 19.5 48.6018 19.4673 48.5458 19.402C48.4992 19.3367 48.4852 19.2573 48.5038 19.164L50.4498 10.05C50.4685 9.94733 50.5152 9.86333 50.5898 9.798C50.6645 9.73267 50.7532 9.7 50.8558 9.7H56.9318C57.0345 9.7 57.1092 9.73267 57.1558 9.798C57.2025 9.86333 57.2165 9.94733 57.1978 10.05L56.9878 11.03C56.9692 11.1327 56.9225 11.2167 56.8478 11.282C56.7732 11.338 56.6845 11.366 56.5818 11.366H52.0878L51.5138 14.026H55.7278C55.8305 14.026 55.9052 14.0587 55.9518 14.124C55.9985 14.1893 56.0125 14.2733 55.9938 14.376L55.7978 15.356C55.7792 15.4493 55.7278 15.5287 55.6438 15.594C55.5692 15.6593 55.4805 15.692 55.3778 15.692H51.1638L50.4218 19.164C50.4032 19.2573 50.3565 19.3367 50.2818 19.402C50.2072 19.4673 50.1185 19.5 50.0158 19.5H48.7838ZM57.3594 19.5C57.2567 19.5 57.1774 19.4673 57.1214 19.402C57.0747 19.3367 57.0607 19.2573 57.0794 19.164L59.0254 10.036C59.0441 9.94267 59.0907 9.86333 59.1654 9.798C59.2401 9.73267 59.3287 9.7 59.4314 9.7H60.7194C60.8221 9.7 60.8967 9.73267 60.9434 9.798C60.9994 9.86333 61.0181 9.94267 60.9994 10.036L59.3334 17.834H63.7714C63.8741 17.834 63.9487 17.8667 63.9954 17.932C64.0514 17.9973 64.0701 18.0813 64.0514 18.184L63.8414 19.164C63.8227 19.2573 63.7761 19.3367 63.7014 19.402C63.6267 19.4673 63.5381 19.5 63.4354 19.5H57.3594ZM68.9607 19.64C68.3634 19.64 67.8267 19.5653 67.3507 19.416C66.8747 19.2573 66.4827 19.0193 66.1747 18.702C65.876 18.3847 65.6754 17.9833 65.5727 17.498C65.4794 17.0033 65.5027 16.42 65.6427 15.748L66.8467 10.05C66.8654 9.94733 66.912 9.86333 66.9867 9.798C67.0707 9.73267 67.1594 9.7 67.2527 9.7H68.5267C68.6294 9.7 68.704 9.73267 68.7507 9.798C68.7974 9.86333 68.8114 9.94733 68.7927 10.05L67.5747 15.748C67.416 16.5133 67.4534 17.0827 67.6867 17.456C67.92 17.82 68.3867 18.002 69.0867 18.002C69.7587 18.002 70.314 17.82 70.7527 17.456C71.1914 17.0827 71.49 16.5133 71.6487 15.748L72.8667 10.05C72.8854 9.94733 72.9367 9.86333 73.0207 9.798C73.1047 9.73267 73.1934 9.7 73.2867 9.7H74.5467C74.6494 9.7 74.724 9.73267 74.7707 9.798C74.8174 9.86333 74.8314 9.94733 74.8127 10.05L73.6087 15.748C73.3194 17.092 72.8014 18.0767 72.0547 18.702C71.308 19.3273 70.2767 19.64 68.9607 19.64ZM74.5038 19.5C74.3918 19.5 74.3125 19.4487 74.2658 19.346C74.2098 19.234 74.2238 19.1313 74.3078 19.038L78.5358 14.46L76.3798 10.148C76.3238 10.0453 76.3238 9.94733 76.3798 9.854C76.4452 9.75133 76.5385 9.7 76.6598 9.7H77.9198C78.0878 9.7 78.1998 9.73267 78.2558 9.798C78.3118 9.86333 78.3492 9.91933 78.3678 9.966L79.9078 13.046L82.6658 9.966C82.7125 9.91933 82.7732 9.86333 82.8478 9.798C82.9318 9.73267 83.0578 9.7 83.2258 9.7H84.5978C84.7192 9.7 84.7985 9.756 84.8358 9.868C84.8825 9.97067 84.8685 10.0687 84.7938 10.162L80.7618 14.74L82.9598 19.066C83.0065 19.1687 82.9972 19.2667 82.9318 19.36C82.8758 19.4533 82.7825 19.5 82.6518 19.5H81.4058C81.2565 19.5 81.1492 19.4673 81.0838 19.402C81.0278 19.3367 80.9905 19.2853 80.9718 19.248L79.3898 16.168L76.5338 19.248C76.5058 19.2853 76.4498 19.3367 76.3658 19.402C76.2912 19.4673 76.1745 19.5 76.0158 19.5H74.5038ZM84.7813 19.5C84.6787 19.5 84.5993 19.4673 84.5433 19.402C84.4967 19.3367 84.4827 19.2573 84.5013 19.164L86.4473 10.05C86.466 9.94733 86.5127 9.86333 86.5873 9.798C86.662 9.73267 86.7507 9.7 86.8533 9.7H90.0593C90.6753 9.7 91.2307 9.784 91.7253 9.952C92.22 10.1107 92.6307 10.3533 92.9573 10.68C93.284 10.9973 93.5127 11.394 93.6433 11.87C93.774 12.346 93.7833 12.892 93.6713 13.508C93.5873 13.9187 93.5127 14.2827 93.4473 14.6C93.382 14.9173 93.298 15.2767 93.1953 15.678C92.99 16.546 92.696 17.2647 92.3133 17.834C91.94 18.394 91.4407 18.814 90.8153 19.094C90.1993 19.3647 89.4107 19.5 88.4493 19.5H84.7813ZM86.7273 17.89H88.5193C89.042 17.89 89.4807 17.8153 89.8353 17.666C90.1993 17.5167 90.4933 17.2787 90.7173 16.952C90.9413 16.616 91.114 16.1773 91.2353 15.636C91.31 15.356 91.3707 15.1133 91.4173 14.908C91.464 14.6933 91.506 14.4833 91.5433 14.278C91.59 14.0633 91.6367 13.8207 91.6833 13.55C91.8327 12.7847 91.7627 12.22 91.4733 11.856C91.1933 11.492 90.652 11.31 89.8493 11.31H88.1273L86.7273 17.89ZM94.7514 19.5C94.6488 19.5 94.5694 19.4673 94.5134 19.402C94.4668 19.3367 94.4528 19.2573 94.4714 19.164L96.4174 10.05C96.4361 9.94733 96.4828 9.86333 96.5574 9.798C96.6321 9.73267 96.7208 9.7 96.8234 9.7H100.771C101.462 9.7 102.031 9.81667 102.479 10.05C102.937 10.274 103.259 10.5867 103.445 10.988C103.632 11.3893 103.669 11.856 103.557 12.388C103.473 12.7707 103.338 13.0927 103.151 13.354C102.974 13.6153 102.778 13.83 102.563 13.998C102.349 14.1567 102.143 14.278 101.947 14.362C102.274 14.5487 102.535 14.8333 102.731 15.216C102.937 15.5987 102.983 16.0607 102.871 16.602C102.75 17.162 102.535 17.6613 102.227 18.1C101.919 18.5387 101.504 18.884 100.981 19.136C100.459 19.3787 99.8148 19.5 99.0494 19.5H94.7514ZM96.6554 18.016H98.9934C99.4788 18.016 99.8894 17.8807 100.225 17.61C100.561 17.33 100.771 16.994 100.855 16.602C100.939 16.1913 100.893 15.8507 100.715 15.58C100.538 15.3093 100.169 15.174 99.6094 15.174H97.2714L96.6554 18.016ZM97.5794 13.718H99.7354C100.211 13.718 100.608 13.6013 100.925 13.368C101.243 13.1253 101.448 12.8127 101.541 12.43C101.625 12.038 101.579 11.7347 101.401 11.52C101.224 11.296 100.893 11.184 100.407 11.184H98.1254L97.5794 13.718Z" fill="white" fill-opacity="0.9"/>
</svg>
