<svg width="102" height="30" viewBox="0 0 102 30" fill="none" xmlns="http://www.w3.org/2000/svg">
<rect width="102" height="30" fill="#001E2B"/>
<g clip-path="url(#clip0_1059_4573)">
<path d="M15.0463 5.66616C14.0575 4.47499 13.2061 3.26522 13.0322 3.01396C13.0139 2.99535 12.9864 2.99535 12.9681 3.01396C12.7941 3.26522 11.9427 4.47499 10.954 5.66616C2.46733 16.6565 12.2906 24.0734 12.2906 24.0734L12.373 24.1292C12.4462 25.2739 12.6293 26.921 12.6293 26.921H12.9955H13.3617C13.3617 26.921 13.5448 25.2831 13.6181 24.1292L13.7005 24.0641C13.7096 24.0641 23.533 16.6565 15.0463 5.66616ZM12.9955 23.9059C12.9955 23.9059 12.5561 23.5243 12.4371 23.3288V23.3103L12.9681 11.3428C12.9681 11.3056 13.023 11.3056 13.023 11.3428L13.554 23.3103V23.3288C13.435 23.5243 12.9955 23.9059 12.9955 23.9059Z" fill="#00ED64"/>
</g>
<path d="M24.06 19.5C23.9667 19.5 23.892 19.4673 23.836 19.402C23.78 19.3367 23.7613 19.2573 23.78 19.164L25.726 10.05C25.7447 9.94733 25.7913 9.86333 25.866 9.798C25.95 9.73267 26.0387 9.7 26.132 9.7H27.252C27.3827 9.7 27.4713 9.73733 27.518 9.812C27.574 9.87733 27.6113 9.92867 27.63 9.966L29.268 15.006L33.062 9.966C33.0807 9.92867 33.1273 9.87733 33.202 9.812C33.286 9.73733 33.3933 9.7 33.524 9.7H34.63C34.7327 9.7 34.8073 9.73267 34.854 9.798C34.91 9.86333 34.9287 9.94733 34.91 10.05L32.964 19.164C32.9453 19.2573 32.8987 19.3367 32.824 19.402C32.7493 19.4673 32.6607 19.5 32.558 19.5H31.368C31.2747 19.5 31.2 19.4673 31.144 19.402C31.088 19.3367 31.0693 19.2573 31.088 19.164L32.348 13.228L29.674 16.84C29.6087 16.924 29.534 16.9987 29.45 17.064C29.366 17.12 29.2633 17.148 29.142 17.148H28.568C28.4467 17.148 28.3533 17.12 28.288 17.064C28.232 16.9987 28.19 16.924 28.162 16.84L26.958 13.018L25.656 19.164C25.6373 19.2573 25.5907 19.3367 25.516 19.402C25.4413 19.4673 25.3527 19.5 25.25 19.5H24.06ZM39.1173 19.64C38.548 19.64 38.0253 19.5653 37.5493 19.416C37.0733 19.2573 36.6767 19.0193 36.3593 18.702C36.042 18.3847 35.818 17.988 35.6873 17.512C35.566 17.0267 35.5613 16.4573 35.6733 15.804C35.7387 15.4027 35.8133 15.006 35.8973 14.614C35.9907 14.222 36.084 13.8207 36.1773 13.41C36.4853 12.1407 37.036 11.184 37.8293 10.54C38.6227 9.88667 39.654 9.56 40.9233 9.56C41.502 9.56 42.0247 9.644 42.4913 9.812C42.9673 9.97067 43.364 10.2133 43.6813 10.54C43.9987 10.8573 44.218 11.2587 44.3393 11.744C44.47 12.22 44.4793 12.7753 44.3673 13.41C44.302 13.8207 44.2227 14.222 44.1293 14.614C44.0453 15.006 43.9567 15.4027 43.8633 15.804C43.546 17.1013 42.9907 18.0673 42.1973 18.702C41.404 19.3273 40.3773 19.64 39.1173 19.64ZM39.2433 18.03C39.8593 18.03 40.4007 17.8527 40.8673 17.498C41.3433 17.134 41.6793 16.546 41.8753 15.734C41.978 15.3233 42.0667 14.9453 42.1413 14.6C42.216 14.2453 42.286 13.8673 42.3513 13.466C42.5007 12.654 42.4353 12.0707 42.1553 11.716C41.8847 11.352 41.432 11.17 40.7973 11.17C40.172 11.17 39.626 11.352 39.1593 11.716C38.702 12.0707 38.3753 12.654 38.1793 13.466C38.0767 13.8673 37.988 14.2453 37.9133 14.6C37.8387 14.9453 37.764 15.3233 37.6893 15.734C37.5493 16.546 37.61 17.134 37.8713 17.498C38.142 17.8527 38.5993 18.03 39.2433 18.03ZM45.4357 19.5C45.333 19.5 45.2537 19.4673 45.1977 19.402C45.151 19.3367 45.137 19.2573 45.1557 19.164L47.1017 10.05C47.1204 9.94733 47.167 9.86333 47.2417 9.798C47.3164 9.73267 47.4004 9.7 47.4937 9.7H48.5577C48.6884 9.7 48.777 9.728 48.8237 9.784C48.8797 9.84 48.9124 9.88667 48.9217 9.924L51.6377 16.252L52.9537 10.05C52.9724 9.94733 53.019 9.86333 53.0937 9.798C53.1777 9.73267 53.271 9.7 53.3737 9.7H54.5497C54.6524 9.7 54.727 9.73267 54.7737 9.798C54.8204 9.86333 54.8344 9.94733 54.8157 10.05L52.8837 19.15C52.865 19.2527 52.8184 19.3367 52.7437 19.402C52.669 19.4673 52.5804 19.5 52.4777 19.5H51.4137C51.283 19.5 51.1944 19.472 51.1477 19.416C51.101 19.36 51.0684 19.3133 51.0497 19.276L48.3197 13.088L47.0317 19.164C47.013 19.2573 46.9664 19.3367 46.8917 19.402C46.817 19.4673 46.7284 19.5 46.6257 19.5H45.4357ZM59.1138 19.64C58.2551 19.64 57.5551 19.4907 57.0138 19.192C56.4725 18.8933 56.0945 18.464 55.8798 17.904C55.6745 17.3347 55.6418 16.658 55.7818 15.874C55.8565 15.4727 55.9405 15.0433 56.0338 14.586C56.1365 14.1193 56.2391 13.6807 56.3418 13.27C56.5285 12.4953 56.8458 11.8327 57.2938 11.282C57.7511 10.7313 58.3158 10.3067 58.9878 10.008C59.6598 9.70933 60.4158 9.56 61.2558 9.56C61.9371 9.56 62.5158 9.65333 62.9918 9.84C63.4678 10.0173 63.8458 10.2507 64.1258 10.54C64.4058 10.82 64.5971 11.1233 64.6998 11.45C64.8025 11.7767 64.8305 12.08 64.7838 12.36C64.7745 12.444 64.7325 12.514 64.6578 12.57C64.5925 12.626 64.5131 12.654 64.4198 12.654H62.9778C62.8938 12.654 62.8285 12.6353 62.7818 12.598C62.7445 12.5607 62.7118 12.5047 62.6838 12.43C62.6651 12.234 62.5951 12.0427 62.4738 11.856C62.3618 11.66 62.1798 11.4967 61.9278 11.366C61.6851 11.2353 61.3491 11.17 60.9198 11.17C60.2851 11.17 59.7391 11.338 59.2818 11.674C58.8338 12.01 58.5165 12.5653 58.3298 13.34C58.2271 13.7413 58.1291 14.152 58.0358 14.572C57.9518 14.9827 57.8725 15.3933 57.7978 15.804C57.6671 16.5973 57.7558 17.1667 58.0638 17.512C58.3811 17.8573 58.8571 18.03 59.4918 18.03C59.9118 18.03 60.3038 17.9553 60.6678 17.806C61.0318 17.6567 61.3398 17.4233 61.5918 17.106C61.8531 16.7887 62.0351 16.3827 62.1378 15.888L62.2358 15.454H60.5138C60.4205 15.454 60.3505 15.4213 60.3038 15.356C60.2571 15.2907 60.2431 15.2067 60.2618 15.104L60.4158 14.362C60.4345 14.2593 60.4811 14.1753 60.5558 14.11C60.6398 14.0447 60.7285 14.012 60.8218 14.012H64.1678C64.2705 14.012 64.3451 14.0447 64.3918 14.11C64.4385 14.1753 64.4525 14.2593 64.4338 14.362L64.1258 15.832C63.9671 16.616 63.6545 17.2927 63.1878 17.862C62.7211 18.4313 62.1378 18.87 61.4378 19.178C60.7471 19.486 59.9725 19.64 59.1138 19.64ZM68.9865 19.64C68.4172 19.64 67.8945 19.5653 67.4185 19.416C66.9425 19.2573 66.5459 19.0193 66.2285 18.702C65.9112 18.3847 65.6872 17.988 65.5565 17.512C65.4352 17.0267 65.4305 16.4573 65.5425 15.804C65.6079 15.4027 65.6825 15.006 65.7665 14.614C65.8599 14.222 65.9532 13.8207 66.0465 13.41C66.3545 12.1407 66.9052 11.184 67.6985 10.54C68.4919 9.88667 69.5232 9.56 70.7925 9.56C71.3712 9.56 71.8939 9.644 72.3605 9.812C72.8365 9.97067 73.2332 10.2133 73.5505 10.54C73.8679 10.8573 74.0872 11.2587 74.2085 11.744C74.3392 12.22 74.3485 12.7753 74.2365 13.41C74.1712 13.8207 74.0919 14.222 73.9985 14.614C73.9145 15.006 73.8259 15.4027 73.7325 15.804C73.4152 17.1013 72.8599 18.0673 72.0665 18.702C71.2732 19.3273 70.2465 19.64 68.9865 19.64ZM69.1125 18.03C69.7285 18.03 70.2699 17.8527 70.7365 17.498C71.2125 17.134 71.5485 16.546 71.7445 15.734C71.8472 15.3233 71.9359 14.9453 72.0105 14.6C72.0852 14.2453 72.1552 13.8673 72.2205 13.466C72.3699 12.654 72.3045 12.0707 72.0245 11.716C71.7539 11.352 71.3012 11.17 70.6665 11.17C70.0412 11.17 69.4952 11.352 69.0285 11.716C68.5712 12.0707 68.2445 12.654 68.0485 13.466C67.9459 13.8673 67.8572 14.2453 67.7825 14.6C67.7079 14.9453 67.6332 15.3233 67.5585 15.734C67.4185 16.546 67.4792 17.134 67.7405 17.498C68.0112 17.8527 68.4685 18.03 69.1125 18.03ZM75.3049 19.5C75.2023 19.5 75.1229 19.4673 75.0669 19.402C75.0203 19.3367 75.0063 19.2573 75.0249 19.164L76.9709 10.05C76.9896 9.94733 77.0363 9.86333 77.1109 9.798C77.1856 9.73267 77.2743 9.7 77.3769 9.7H80.5829C81.1989 9.7 81.7543 9.784 82.2489 9.952C82.7436 10.1107 83.1543 10.3533 83.4809 10.68C83.8076 10.9973 84.0363 11.394 84.1669 11.87C84.2976 12.346 84.3069 12.892 84.1949 13.508C84.1109 13.9187 84.0363 14.2827 83.9709 14.6C83.9056 14.9173 83.8216 15.2767 83.7189 15.678C83.5136 16.546 83.2196 17.2647 82.8369 17.834C82.4636 18.394 81.9643 18.814 81.3389 19.094C80.7229 19.3647 79.9343 19.5 78.9729 19.5H75.3049ZM77.2509 17.89H79.0429C79.5656 17.89 80.0043 17.8153 80.3589 17.666C80.7229 17.5167 81.0169 17.2787 81.2409 16.952C81.4649 16.616 81.6376 16.1773 81.7589 15.636C81.8336 15.356 81.8943 15.1133 81.9409 14.908C81.9876 14.6933 82.0296 14.4833 82.0669 14.278C82.1136 14.0633 82.1603 13.8207 82.2069 13.55C82.3563 12.7847 82.2863 12.22 81.9969 11.856C81.7169 11.492 81.1756 11.31 80.3729 11.31H78.6509L77.2509 17.89ZM85.275 19.5C85.1723 19.5 85.093 19.4673 85.037 19.402C84.9903 19.3367 84.9763 19.2573 84.995 19.164L86.941 10.05C86.9597 9.94733 87.0063 9.86333 87.081 9.798C87.1557 9.73267 87.2443 9.7 87.347 9.7H91.295C91.9857 9.7 92.555 9.81667 93.003 10.05C93.4603 10.274 93.7823 10.5867 93.969 10.988C94.1557 11.3893 94.193 11.856 94.081 12.388C93.997 12.7707 93.8617 13.0927 93.675 13.354C93.4977 13.6153 93.3017 13.83 93.087 13.998C92.8723 14.1567 92.667 14.278 92.471 14.362C92.7977 14.5487 93.059 14.8333 93.255 15.216C93.4603 15.5987 93.507 16.0607 93.395 16.602C93.2737 17.162 93.059 17.6613 92.751 18.1C92.443 18.5387 92.0277 18.884 91.505 19.136C90.9823 19.3787 90.3383 19.5 89.573 19.5H85.275ZM87.179 18.016H89.517C90.0023 18.016 90.413 17.8807 90.749 17.61C91.085 17.33 91.295 16.994 91.379 16.602C91.463 16.1913 91.4163 15.8507 91.239 15.58C91.0617 15.3093 90.693 15.174 90.133 15.174H87.795L87.179 18.016ZM88.103 13.718H90.259C90.735 13.718 91.1317 13.6013 91.449 13.368C91.7663 13.1253 91.9717 12.8127 92.065 12.43C92.149 12.038 92.1023 11.7347 91.925 11.52C91.7477 11.296 91.4163 11.184 90.931 11.184H88.649L88.103 13.718Z" fill="white" fill-opacity="0.9"/>
<defs>
<clipPath id="clip0_1059_4573">
<rect width="11" height="24" fill="white" transform="translate(7.5 3)"/>
</clipPath>
</defs>
</svg>
