<svg width="97" height="30" viewBox="0 0 97 30" fill="none" xmlns="http://www.w3.org/2000/svg">
<rect width="97" height="30" fill="#EA2845"/>
<path fill-rule="evenodd" clip-rule="evenodd" d="M20.2098 5.375C20.0777 5.37685 19.9468 5.40006 19.8221 5.44375C20.9324 6.17387 19.6227 7.23125 20.2346 8.125C20.1924 7.82438 20.2402 7.51801 20.372 7.24455C20.5038 6.97108 20.7136 6.74278 20.975 6.58844C21.171 6.4255 21.2968 6.36706 21.2548 6.09756C21.1868 5.65619 20.5983 5.375 20.2098 5.375ZM21.7911 5.65963C21.6378 6.43169 21.4473 6.45988 20.8815 6.95694C20.6608 7.13092 20.5051 7.37409 20.4394 7.64732C20.3737 7.92055 20.4018 8.20794 20.5192 8.46325C18.1817 7.55575 15.1856 7.00713 12.989 8.57737C12.1991 9.14181 11.7171 9.95237 10.743 10.2831C10.1132 10.4989 9.49446 10.435 9.09984 11.0592C8.95551 11.2395 8.88012 11.4653 8.88717 11.6961C8.89423 11.9269 8.98327 12.1476 9.13834 12.3188C9.2559 12.4391 9.48209 12.5161 9.57559 12.6384C9.6299 12.7072 9.62852 12.7759 9.68009 12.8674C9.77121 13.0805 9.90291 13.2738 10.0678 13.4366C10.1689 13.5198 10.5161 13.6009 10.5752 13.6896C10.6495 13.8003 10.457 14.2396 10.6185 14.3084C10.7271 14.3586 11.0455 13.7969 11.0764 13.7474C11.0131 14.1894 10.93 14.9739 11.427 14.3208C11.6628 14.0107 11.6773 13.9083 12.074 13.8395C12.3278 13.7954 12.5844 13.7688 12.8419 13.7598C14.3129 13.7083 15.7477 14.223 16.8505 15.1979C17.9533 16.1728 18.6402 17.5336 18.7695 18.9999C18.6953 18.6561 18.2463 18.1061 17.8283 18.2368C17.6503 18.2918 17.5843 18.5991 17.4674 18.7771C17.3196 19.0029 17.1376 19.2042 16.9277 19.3739C16.9632 19.0406 16.9465 18.7038 16.8782 18.3756C16.7531 18.8899 16.5021 19.7431 15.8703 19.6049C15.6599 19.5727 15.4627 19.4821 15.3012 19.3433C15.1398 19.2044 15.0206 19.023 14.9573 18.8197C14.8755 18.2972 15.4276 17.6847 14.54 17.6414C12.7594 17.5541 13.1712 20.1728 14.2224 20.8554C13.9808 20.8822 13.7452 20.9479 13.5246 21.05C14.1923 21.4378 14.9447 21.6565 15.7163 21.6872C16.4879 21.7179 17.2552 21.5595 17.9517 21.226C18.6481 20.8924 19.2524 20.3937 19.7121 19.7733C20.1718 19.1529 20.473 18.4295 20.5893 17.6661C20.7423 18.3652 20.7388 19.0895 20.579 19.7871C20.4936 20.1578 20.3658 20.5174 20.1981 20.8589C19.9709 21.3201 19.6689 21.7406 19.3044 22.1033C19.0885 22.3171 18.6925 22.5323 18.5564 22.7502C19.3896 22.6397 20.2038 22.4158 20.9764 22.0847C20.1767 23.1801 19.1116 24.0542 17.8813 24.625C19.2004 24.5317 20.4756 24.1115 21.5918 23.4023C22.708 22.693 23.6302 21.7171 24.275 20.5626C24.0695 21.7173 23.613 22.8128 22.9378 23.7718C23.846 23.1638 24.6186 22.3747 25.2072 21.4539C25.7958 20.533 26.1876 19.5005 26.3581 18.421C26.5275 19.2112 26.5759 20.0225 26.5018 20.8272C27.2478 19.7907 27.7518 18.5999 27.9766 17.3427C28.2013 16.0856 28.1412 14.794 27.8005 13.5631C27.54 12.6063 27.1493 11.6898 26.6393 10.8392C26.4424 10.5079 26.2269 10.1879 25.9938 9.88087C25.9023 9.76194 25.4135 9.32675 25.4135 9.19337C25.4094 9.20667 25.406 9.20667 25.4032 9.19337C25.4032 11.4264 22.997 12.8598 20.9819 12.2617C21.7481 12.2023 22.4723 11.8878 23.0388 11.3685C23.6054 10.8492 23.9815 10.155 24.1073 9.39687C24.2186 8.60147 24.0479 7.7922 23.6248 7.10952C23.2017 6.42684 22.5529 5.91386 21.7911 5.65963Z" fill="white"/>
<path d="M35.06 19.5C34.9573 19.5 34.878 19.4673 34.822 19.402C34.7753 19.3367 34.7613 19.2573 34.78 19.164L36.726 10.05C36.7447 9.94733 36.7913 9.86333 36.866 9.798C36.9407 9.73267 37.0247 9.7 37.118 9.7H38.182C38.3127 9.7 38.4013 9.728 38.448 9.784C38.504 9.84 38.5367 9.88667 38.546 9.924L41.262 16.252L42.578 10.05C42.5967 9.94733 42.6433 9.86333 42.718 9.798C42.802 9.73267 42.8953 9.7 42.998 9.7H44.174C44.2767 9.7 44.3513 9.73267 44.398 9.798C44.4447 9.86333 44.4587 9.94733 44.44 10.05L42.508 19.15C42.4893 19.2527 42.4427 19.3367 42.368 19.402C42.2933 19.4673 42.2047 19.5 42.102 19.5H41.038C40.9073 19.5 40.8187 19.472 40.772 19.416C40.7253 19.36 40.6927 19.3133 40.674 19.276L37.944 13.088L36.656 19.164C36.6373 19.2573 36.5907 19.3367 36.516 19.402C36.4413 19.4673 36.3527 19.5 36.25 19.5H35.06ZM45.1121 19.5C45.0094 19.5 44.9301 19.4673 44.8741 19.402C44.8274 19.3367 44.8134 19.2573 44.8321 19.164L46.7781 10.05C46.7968 9.94733 46.8434 9.86333 46.9181 9.798C46.9928 9.73267 47.0814 9.7 47.1841 9.7H53.3441C53.4468 9.7 53.5214 9.73267 53.5681 9.798C53.6148 9.86333 53.6288 9.94733 53.6101 10.05L53.4141 10.974C53.3954 11.0673 53.3488 11.1467 53.2741 11.212C53.1994 11.2773 53.1108 11.31 53.0081 11.31H48.4021L47.8701 13.788H52.1681C52.2708 13.788 52.3454 13.8207 52.3921 13.886C52.4388 13.942 52.4528 14.0213 52.4341 14.124L52.2521 14.992C52.2334 15.0947 52.1868 15.1787 52.1121 15.244C52.0374 15.3 51.9488 15.328 51.8461 15.328H47.5481L46.9881 17.89H51.7201C51.8228 17.89 51.8974 17.9227 51.9441 17.988C51.9908 18.0533 52.0048 18.1373 51.9861 18.24L51.7901 19.164C51.7714 19.2573 51.7248 19.3367 51.6501 19.402C51.5754 19.4673 51.4868 19.5 51.3841 19.5H45.1121ZM57.1254 19.64C56.2574 19.64 55.5481 19.514 54.9974 19.262C54.4468 19.01 54.0454 18.6787 53.7934 18.268C53.5508 17.848 53.4668 17.4047 53.5414 16.938C53.5508 16.854 53.5834 16.784 53.6394 16.728C53.7048 16.672 53.7794 16.644 53.8634 16.644H55.1514C55.2634 16.644 55.3428 16.672 55.3894 16.728C55.4454 16.7747 55.4874 16.8353 55.5154 16.91C55.5434 17.0873 55.6181 17.2647 55.7394 17.442C55.8608 17.61 56.0428 17.75 56.2854 17.862C56.5374 17.974 56.8594 18.03 57.2514 18.03C57.9234 18.03 58.4554 17.918 58.8474 17.694C59.2394 17.47 59.4774 17.1667 59.5614 16.784C59.6174 16.5133 59.5754 16.2987 59.4354 16.14C59.2954 15.972 59.0528 15.8227 58.7074 15.692C58.3621 15.552 57.9048 15.4073 57.3354 15.258C56.6821 15.09 56.1454 14.8753 55.7254 14.614C55.3054 14.3527 55.0161 14.026 54.8574 13.634C54.7081 13.242 54.6941 12.7707 54.8154 12.22C54.9834 11.408 55.4128 10.764 56.1034 10.288C56.8034 9.80267 57.7181 9.56 58.8474 9.56C59.4354 9.56 59.9488 9.644 60.3874 9.812C60.8261 9.97067 61.1901 10.1853 61.4794 10.456C61.7688 10.7173 61.9741 11.002 62.0954 11.31C62.2168 11.6087 62.2541 11.9027 62.2074 12.192C62.1981 12.2667 62.1654 12.3367 62.1094 12.402C62.0534 12.458 61.9788 12.486 61.8854 12.486H60.5554C60.4714 12.486 60.3968 12.4673 60.3314 12.43C60.2661 12.3927 60.2194 12.3227 60.1914 12.22C60.2008 11.9307 60.0701 11.6833 59.7994 11.478C59.5381 11.2727 59.1834 11.17 58.7354 11.17C58.2314 11.17 57.7974 11.2633 57.4334 11.45C57.0788 11.6367 56.8548 11.926 56.7614 12.318C56.7148 12.5793 56.7474 12.7987 56.8594 12.976C56.9714 13.144 57.1814 13.2933 57.4894 13.424C57.7974 13.5547 58.2221 13.6947 58.7634 13.844C59.5288 14.0213 60.1308 14.2407 60.5694 14.502C61.0174 14.754 61.3208 15.0713 61.4794 15.454C61.6381 15.8367 61.6568 16.3033 61.5354 16.854C61.3488 17.7687 60.8774 18.464 60.1214 18.94C59.3654 19.4067 58.3668 19.64 57.1254 19.64ZM65.0198 19.5C64.9264 19.5 64.8518 19.4673 64.7958 19.402C64.7491 19.3367 64.7351 19.2573 64.7538 19.164L66.4058 11.422H63.8158C63.7131 11.422 63.6338 11.3893 63.5778 11.324C63.5311 11.2587 63.5171 11.1793 63.5358 11.086L63.7598 10.05C63.7784 9.94733 63.8251 9.86333 63.8998 9.798C63.9838 9.73267 64.0724 9.7 64.1658 9.7H71.3058C71.4084 9.7 71.4831 9.73267 71.5298 9.798C71.5858 9.86333 71.6044 9.94733 71.5858 10.05L71.3618 11.086C71.3431 11.1793 71.2964 11.2587 71.2218 11.324C71.1471 11.3893 71.0584 11.422 70.9558 11.422H68.3658L66.7138 19.164C66.6951 19.2573 66.6484 19.3367 66.5738 19.402C66.4991 19.4673 66.4104 19.5 66.3078 19.5H65.0198ZM74.367 19.64C73.919 19.64 73.4756 19.5793 73.037 19.458C72.5983 19.3273 72.2063 19.1313 71.861 18.87C71.525 18.6087 71.273 18.2867 71.105 17.904C70.937 17.5213 70.8903 17.0687 70.965 16.546C70.9836 16.462 71.021 16.392 71.077 16.336C71.1423 16.2707 71.2216 16.238 71.315 16.238H72.659C72.7803 16.238 72.8643 16.2707 72.911 16.336C72.967 16.4013 72.9996 16.49 73.009 16.602C72.9716 17.106 73.0836 17.47 73.345 17.694C73.6063 17.918 73.9843 18.03 74.479 18.03C75.1323 18.03 75.6456 17.8387 76.019 17.456C76.4016 17.0733 76.663 16.5413 76.803 15.86L77.769 11.352H73.009C72.9156 11.352 72.841 11.3193 72.785 11.254C72.7383 11.1887 72.7243 11.1093 72.743 11.016L72.967 10.036C72.9856 9.94267 73.0323 9.86333 73.107 9.798C73.1816 9.73267 73.2656 9.7 73.359 9.7H79.771C79.8736 9.7 79.9483 9.73267 79.995 9.798C80.0416 9.86333 80.0556 9.94733 80.037 10.05L78.791 15.916C78.6323 16.6907 78.371 17.358 78.007 17.918C77.6523 18.478 77.1763 18.9073 76.579 19.206C75.9816 19.4953 75.2443 19.64 74.367 19.64ZM83.8091 19.64C82.9411 19.64 82.2318 19.514 81.6811 19.262C81.1304 19.01 80.7291 18.6787 80.4771 18.268C80.2344 17.848 80.1504 17.4047 80.2251 16.938C80.2344 16.854 80.2671 16.784 80.3231 16.728C80.3884 16.672 80.4631 16.644 80.5471 16.644H81.8351C81.9471 16.644 82.0264 16.672 82.0731 16.728C82.1291 16.7747 82.1711 16.8353 82.1991 16.91C82.2271 17.0873 82.3018 17.2647 82.4231 17.442C82.5444 17.61 82.7264 17.75 82.9691 17.862C83.2211 17.974 83.5431 18.03 83.9351 18.03C84.6071 18.03 85.1391 17.918 85.5311 17.694C85.9231 17.47 86.1611 17.1667 86.2451 16.784C86.3011 16.5133 86.2591 16.2987 86.1191 16.14C85.9791 15.972 85.7364 15.8227 85.3911 15.692C85.0458 15.552 84.5884 15.4073 84.0191 15.258C83.3658 15.09 82.8291 14.8753 82.4091 14.614C81.9891 14.3527 81.6998 14.026 81.5411 13.634C81.3918 13.242 81.3778 12.7707 81.4991 12.22C81.6671 11.408 82.0964 10.764 82.7871 10.288C83.4871 9.80267 84.4018 9.56 85.5311 9.56C86.1191 9.56 86.6324 9.644 87.0711 9.812C87.5098 9.97067 87.8738 10.1853 88.1631 10.456C88.4524 10.7173 88.6578 11.002 88.7791 11.31C88.9004 11.6087 88.9378 11.9027 88.8911 12.192C88.8818 12.2667 88.8491 12.3367 88.7931 12.402C88.7371 12.458 88.6624 12.486 88.5691 12.486H87.2391C87.1551 12.486 87.0804 12.4673 87.0151 12.43C86.9498 12.3927 86.9031 12.3227 86.8751 12.22C86.8844 11.9307 86.7538 11.6833 86.4831 11.478C86.2218 11.2727 85.8671 11.17 85.4191 11.17C84.9151 11.17 84.4811 11.2633 84.1171 11.45C83.7624 11.6367 83.5384 11.926 83.4451 12.318C83.3984 12.5793 83.4311 12.7987 83.5431 12.976C83.6551 13.144 83.8651 13.2933 84.1731 13.424C84.4811 13.5547 84.9058 13.6947 85.4471 13.844C86.2124 14.0213 86.8144 14.2407 87.2531 14.502C87.7011 14.754 88.0044 15.0713 88.1631 15.454C88.3218 15.8367 88.3404 16.3033 88.2191 16.854C88.0324 17.7687 87.5611 18.464 86.8051 18.94C86.0491 19.4067 85.0504 19.64 83.8091 19.64Z" fill="white" fill-opacity="0.9"/>
</svg>
