<svg width="99" height="30" viewBox="0 0 99 30" fill="none" xmlns="http://www.w3.org/2000/svg">
<rect width="99" height="30" fill="#171717"/>
<mask id="mask0_1059_4476" style="mask-type:luminance" maskUnits="userSpaceOnUse" x="9" y="4" width="19" height="22">
<path d="M18.0163 4.9358L10.0258 9.54782C9.87905 9.63242 9.75713 9.75419 9.67236 9.90089C9.58759 10.0476 9.54296 10.214 9.54297 10.3835V19.6139C9.54297 19.9586 9.72656 20.277 10.0258 20.4496L18.0169 25.0652C18.1637 25.1498 18.3301 25.1943 18.4996 25.1943C18.669 25.1943 18.8354 25.1498 18.9823 25.0652L26.972 20.4496C27.1184 20.3647 27.24 20.2428 27.3245 20.0962C27.4091 19.9495 27.4536 19.7832 27.4537 19.6139V10.3835C27.4537 10.039 27.2697 9.72041 26.9701 9.54782L18.9815 4.9358C18.8343 4.85133 18.6676 4.80688 18.4979 4.80688C18.3282 4.80688 18.1614 4.85133 18.0142 4.9358" fill="white"/>
</mask>
<g mask="url(#mask0_1059_4476)">
<path d="M35.5285 8.76471L13.0127 -2.27173L1.46802 21.2794L23.9832 32.3164L35.5285 8.76471Z" fill="url(#paint0_linear_1059_4476)"/>
</g>
<mask id="mask1_1059_4476" style="mask-type:luminance" maskUnits="userSpaceOnUse" x="9" y="4" width="19" height="22">
<path d="M9.74097 20.2001C9.8174 20.2993 9.91299 20.3852 10.0255 20.4497L16.8798 24.4089L18.0216 25.0651C18.1923 25.1637 18.3869 25.2055 18.5781 25.1912C18.6418 25.1861 18.7055 25.1742 18.7677 25.1565L27.1952 9.72561C27.1307 9.65544 27.0552 9.59664 26.9706 9.54733L21.7386 6.52601L18.973 4.93475C18.8944 4.89018 18.8102 4.85637 18.7226 4.83423L9.74097 20.2001Z" fill="white"/>
</mask>
<g mask="url(#mask1_1059_4476)">
<path d="M0.00610352 12.029L15.9045 33.5467L36.9305 18.0123L21.0311 -3.50488L0.00610352 12.029Z" fill="url(#paint1_linear_1059_4476)"/>
</g>
<mask id="mask2_1059_4476" style="mask-type:luminance" maskUnits="userSpaceOnUse" x="10" y="4" width="18" height="22">
<path d="M18.4025 4.8122C18.2666 4.82592 18.1351 4.86805 18.0165 4.93586L10.0488 9.53459L18.6405 25.1836C18.76 25.1665 18.8776 25.1267 18.9838 25.0653L26.9743 20.4496C27.0949 20.3798 27.1991 20.2848 27.2796 20.171C27.3601 20.0572 27.4151 19.9274 27.4408 19.7904L18.6822 4.82794C18.6179 4.81512 18.5525 4.80864 18.4869 4.80859L18.4072 4.81238" fill="white"/>
</mask>
<g mask="url(#mask2_1059_4476)">
<path d="M10.0486 4.80859V25.184H27.4374V4.80859H10.0486Z" fill="url(#paint2_linear_1059_4476)"/>
</g>
<path d="M35.06 19.5C34.9573 19.5 34.878 19.4673 34.822 19.402C34.7753 19.3367 34.7613 19.2573 34.78 19.164L36.726 10.05C36.7447 9.94733 36.7913 9.86333 36.866 9.798C36.9407 9.73267 37.0247 9.7 37.118 9.7H38.182C38.3127 9.7 38.4013 9.728 38.448 9.784C38.504 9.84 38.5367 9.88667 38.546 9.924L41.262 16.252L42.578 10.05C42.5967 9.94733 42.6433 9.86333 42.718 9.798C42.802 9.73267 42.8953 9.7 42.998 9.7H44.174C44.2767 9.7 44.3513 9.73267 44.398 9.798C44.4447 9.86333 44.4587 9.94733 44.44 10.05L42.508 19.15C42.4893 19.2527 42.4427 19.3367 42.368 19.402C42.2933 19.4673 42.2047 19.5 42.102 19.5H41.038C40.9073 19.5 40.8187 19.472 40.772 19.416C40.7253 19.36 40.6927 19.3133 40.674 19.276L37.944 13.088L36.656 19.164C36.6373 19.2573 36.5907 19.3367 36.516 19.402C36.4413 19.4673 36.3527 19.5 36.25 19.5H35.06ZM48.6681 19.64C48.0988 19.64 47.5761 19.5653 47.1001 19.416C46.6241 19.2573 46.2274 19.0193 45.9101 18.702C45.5928 18.3847 45.3688 17.988 45.2381 17.512C45.1168 17.0267 45.1121 16.4573 45.2241 15.804C45.2894 15.4027 45.3641 15.006 45.4481 14.614C45.5414 14.222 45.6348 13.8207 45.7281 13.41C46.0361 12.1407 46.5868 11.184 47.3801 10.54C48.1734 9.88667 49.2048 9.56 50.4741 9.56C51.0528 9.56 51.5754 9.644 52.0421 9.812C52.5181 9.97067 52.9148 10.2133 53.2321 10.54C53.5494 10.8573 53.7688 11.2587 53.8901 11.744C54.0208 12.22 54.0301 12.7753 53.9181 13.41C53.8528 13.8207 53.7734 14.222 53.6801 14.614C53.5961 15.006 53.5074 15.4027 53.4141 15.804C53.0968 17.1013 52.5414 18.0673 51.7481 18.702C50.9548 19.3273 49.9281 19.64 48.6681 19.64ZM48.7941 18.03C49.4101 18.03 49.9514 17.8527 50.4181 17.498C50.8941 17.134 51.2301 16.546 51.4261 15.734C51.5288 15.3233 51.6174 14.9453 51.6921 14.6C51.7668 14.2453 51.8368 13.8673 51.9021 13.466C52.0514 12.654 51.9861 12.0707 51.7061 11.716C51.4354 11.352 50.9828 11.17 50.3481 11.17C49.7228 11.17 49.1768 11.352 48.7101 11.716C48.2528 12.0707 47.9261 12.654 47.7301 13.466C47.6274 13.8673 47.5388 14.2453 47.4641 14.6C47.3894 14.9453 47.3148 15.3233 47.2401 15.734C47.1001 16.546 47.1608 17.134 47.4221 17.498C47.6928 17.8527 48.1501 18.03 48.7941 18.03ZM54.9865 19.5C54.8838 19.5 54.8045 19.4673 54.7485 19.402C54.7018 19.3367 54.6878 19.2573 54.7065 19.164L56.6525 10.05C56.6712 9.94733 56.7178 9.86333 56.7925 9.798C56.8672 9.73267 56.9558 9.7 57.0585 9.7H60.2645C60.8805 9.7 61.4358 9.784 61.9305 9.952C62.4252 10.1107 62.8358 10.3533 63.1625 10.68C63.4892 10.9973 63.7178 11.394 63.8485 11.87C63.9792 12.346 63.9885 12.892 63.8765 13.508C63.7925 13.9187 63.7178 14.2827 63.6525 14.6C63.5872 14.9173 63.5032 15.2767 63.4005 15.678C63.1952 16.546 62.9012 17.2647 62.5185 17.834C62.1452 18.394 61.6458 18.814 61.0205 19.094C60.4045 19.3647 59.6158 19.5 58.6545 19.5H54.9865ZM56.9325 17.89H58.7245C59.2472 17.89 59.6858 17.8153 60.0405 17.666C60.4045 17.5167 60.6985 17.2787 60.9225 16.952C61.1465 16.616 61.3192 16.1773 61.4405 15.636C61.5152 15.356 61.5758 15.1133 61.6225 14.908C61.6692 14.6933 61.7112 14.4833 61.7485 14.278C61.7952 14.0633 61.8418 13.8207 61.8885 13.55C62.0378 12.7847 61.9678 12.22 61.6785 11.856C61.3985 11.492 60.8572 11.31 60.0545 11.31H58.3325L56.9325 17.89ZM64.9566 19.5C64.8539 19.5 64.7746 19.4673 64.7186 19.402C64.6719 19.3367 64.6579 19.2573 64.6766 19.164L66.6226 10.05C66.6412 9.94733 66.6879 9.86333 66.7626 9.798C66.8372 9.73267 66.9259 9.7 67.0286 9.7H73.1886C73.2912 9.7 73.3659 9.73267 73.4126 9.798C73.4592 9.86333 73.4732 9.94733 73.4546 10.05L73.2586 10.974C73.2399 11.0673 73.1932 11.1467 73.1186 11.212C73.0439 11.2773 72.9552 11.31 72.8526 11.31H68.2466L67.7146 13.788H72.0126C72.1152 13.788 72.1899 13.8207 72.2366 13.886C72.2832 13.942 72.2972 14.0213 72.2786 14.124L72.0966 14.992C72.0779 15.0947 72.0312 15.1787 71.9566 15.244C71.8819 15.3 71.7932 15.328 71.6906 15.328H67.3926L66.8326 17.89H71.5646C71.6672 17.89 71.7419 17.9227 71.7886 17.988C71.8352 18.0533 71.8492 18.1373 71.8306 18.24L71.6346 19.164C71.6159 19.2573 71.5692 19.3367 71.4946 19.402C71.4199 19.4673 71.3312 19.5 71.2286 19.5H64.9566ZM76.7459 19.64C76.2979 19.64 75.8545 19.5793 75.4159 19.458C74.9772 19.3273 74.5852 19.1313 74.2399 18.87C73.9039 18.6087 73.6519 18.2867 73.4839 17.904C73.3159 17.5213 73.2692 17.0687 73.3439 16.546C73.3625 16.462 73.3999 16.392 73.4559 16.336C73.5212 16.2707 73.6005 16.238 73.6939 16.238H75.0379C75.1592 16.238 75.2432 16.2707 75.2899 16.336C75.3459 16.4013 75.3785 16.49 75.3879 16.602C75.3505 17.106 75.4625 17.47 75.7239 17.694C75.9852 17.918 76.3632 18.03 76.8579 18.03C77.5112 18.03 78.0245 17.8387 78.3979 17.456C78.7805 17.0733 79.0419 16.5413 79.1819 15.86L80.1479 11.352H75.3879C75.2945 11.352 75.2199 11.3193 75.1639 11.254C75.1172 11.1887 75.1032 11.1093 75.1219 11.016L75.3459 10.036C75.3645 9.94267 75.4112 9.86333 75.4859 9.798C75.5605 9.73267 75.6445 9.7 75.7379 9.7H82.1499C82.2525 9.7 82.3272 9.73267 82.3739 9.798C82.4205 9.86333 82.4345 9.94733 82.4159 10.05L81.1699 15.916C81.0112 16.6907 80.7499 17.358 80.3859 17.918C80.0312 18.478 79.5552 18.9073 78.9579 19.206C78.3605 19.4953 77.6232 19.64 76.7459 19.64ZM86.188 19.64C85.32 19.64 84.6107 19.514 84.06 19.262C83.5093 19.01 83.108 18.6787 82.856 18.268C82.6133 17.848 82.5293 17.4047 82.604 16.938C82.6133 16.854 82.646 16.784 82.702 16.728C82.7673 16.672 82.842 16.644 82.926 16.644H84.214C84.326 16.644 84.4053 16.672 84.452 16.728C84.508 16.7747 84.55 16.8353 84.578 16.91C84.606 17.0873 84.6807 17.2647 84.802 17.442C84.9233 17.61 85.1053 17.75 85.348 17.862C85.6 17.974 85.922 18.03 86.314 18.03C86.986 18.03 87.518 17.918 87.91 17.694C88.302 17.47 88.54 17.1667 88.624 16.784C88.68 16.5133 88.638 16.2987 88.498 16.14C88.358 15.972 88.1153 15.8227 87.77 15.692C87.4247 15.552 86.9673 15.4073 86.398 15.258C85.7447 15.09 85.208 14.8753 84.788 14.614C84.368 14.3527 84.0787 14.026 83.92 13.634C83.7707 13.242 83.7567 12.7707 83.878 12.22C84.046 11.408 84.4753 10.764 85.166 10.288C85.866 9.80267 86.7807 9.56 87.91 9.56C88.498 9.56 89.0113 9.644 89.45 9.812C89.8887 9.97067 90.2527 10.1853 90.542 10.456C90.8313 10.7173 91.0367 11.002 91.158 11.31C91.2793 11.6087 91.3167 11.9027 91.27 12.192C91.2607 12.2667 91.228 12.3367 91.172 12.402C91.116 12.458 91.0413 12.486 90.948 12.486H89.618C89.534 12.486 89.4593 12.4673 89.394 12.43C89.3287 12.3927 89.282 12.3227 89.254 12.22C89.2633 11.9307 89.1327 11.6833 88.862 11.478C88.6007 11.2727 88.246 11.17 87.798 11.17C87.294 11.17 86.86 11.2633 86.496 11.45C86.1413 11.6367 85.9173 11.926 85.824 12.318C85.7773 12.5793 85.81 12.7987 85.922 12.976C86.034 13.144 86.244 13.2933 86.552 13.424C86.86 13.5547 87.2847 13.6947 87.826 13.844C88.5913 14.0213 89.1933 14.2407 89.632 14.502C90.08 14.754 90.3833 15.0713 90.542 15.454C90.7007 15.8367 90.7193 16.3033 90.598 16.854C90.4113 17.7687 89.94 18.464 89.184 18.94C88.428 19.4067 87.4293 19.64 86.188 19.64Z" fill="white" fill-opacity="0.9"/>
<defs>
<linearGradient id="paint0_linear_1059_4476" x1="24.2639" y1="3.22904" x2="12.7199" y2="26.7786" gradientUnits="userSpaceOnUse">
<stop offset="0.3" stop-color="#3E863D"/>
<stop offset="0.5" stop-color="#55934F"/>
<stop offset="0.8" stop-color="#5AAD45"/>
</linearGradient>
<linearGradient id="paint1_linear_1059_4476" x1="8.05043" y1="22.9112" x2="29.0773" y2="7.3749" gradientUnits="userSpaceOnUse">
<stop offset="0.57" stop-color="#3E863D"/>
<stop offset="0.72" stop-color="#619857"/>
<stop offset="1" stop-color="#76AC64"/>
</linearGradient>
<linearGradient id="paint2_linear_1059_4476" x1="10.0545" y1="14.9969" x2="27.4406" y2="14.9969" gradientUnits="userSpaceOnUse">
<stop offset="0.16" stop-color="#6BBF47"/>
<stop offset="0.38" stop-color="#79B461"/>
<stop offset="0.47" stop-color="#75AC64"/>
<stop offset="0.7" stop-color="#659E5A"/>
<stop offset="0.9" stop-color="#3E863D"/>
</linearGradient>
</defs>
</svg>
