<svg width="69" height="30" viewBox="0 0 69 30" fill="none" xmlns="http://www.w3.org/2000/svg">
<rect width="69" height="30" fill="#170205"/>
<g clip-path="url(#clip0_1059_4585)">
<path d="M26.0952 24.9974C26.0829 25.2582 25.9871 25.3573 25.7489 25.3581C9.30114 25.648 12.1871 25.4277 8.72886 25.3591C8.58254 25.3591 8.47097 25.3011 8.42079 25.1597C8.37167 25.0212 8.4243 24.9094 8.55272 24.8236C8.63132 24.6829 8.75974 24.6991 8.87342 24.6973C9.35132 24.6905 9.82921 24.6865 10.3064 24.6984C10.5127 24.7038 10.652 24.6624 10.7106 24.4333C10.7854 24.1939 10.9622 24.0427 11.1432 23.888C11.1661 23.8772 11.1846 23.8855 11.1917 23.8779C11.2071 23.861 11.1969 23.8833 11.1706 23.8621C11.1529 23.8474 11.1368 23.8309 11.1225 23.8127C10.9885 23.6467 10.871 23.4837 10.7552 23.3034C10.3632 22.656 10.2815 21.9228 10.2748 21.1748C10.2717 21.1442 10.2594 21.1154 10.2397 21.0922C9.97377 20.8484 9.77377 20.5812 9.76921 20.1917C9.74184 19.7084 9.95061 19.36 10.3134 19.0794C10.3506 19.0552 10.3801 19.0444 10.418 19.0253C10.5492 19.0138 10.498 18.8782 10.5373 18.8053C10.6348 18.3314 10.9829 17.9978 11.1927 17.5766C11.2394 17.4936 11.1748 17.4752 11.1208 17.4557C10.2797 17.2339 9.65763 16.672 9.01132 16.1296C8.96149 16.1217 8.23272 15.356 7.88886 14.8345C7.87798 14.8298 7.57272 14.3819 7.70289 14.0598C7.79307 13.8366 7.78114 13.6577 7.66816 13.4561C7.61553 13.3623 7.64711 13.2397 7.67272 13.1167C7.745 12.6471 8.47412 12.9407 8.51377 12.3669C8.4457 11.348 8.73132 10.4374 9.32254 9.62626C9.42781 9.48272 9.46219 9.3738 9.36921 9.2097C9.24816 8.99619 9.20781 8.74914 9.14114 8.49993C8.98816 8.32104 8.94991 5.2515 10.8783 4.17026C11.2678 4.08442 11.5169 4.3495 11.5211 4.36104C11.6678 4.60701 11.699 4.87606 11.7559 5.13898C11.958 6.07127 12.5341 6.63931 13.4446 6.79114C14.2436 6.92458 15.0429 7.05298 15.8061 7.34655C15.9001 7.38262 15.9524 7.36603 15.9822 7.26108C16.1415 6.70062 16.3997 6.18488 16.6773 5.67888C16.8464 5.37088 16.9745 5.04629 17.079 4.71088C17.2475 4.16881 17.7106 3.98019 18.1836 4.27809C18.5675 4.51937 18.8408 4.87318 19.0661 5.26665C19.699 6.29272 19.8503 7.67583 19.718 8.73472C19.7699 8.75636 21.2317 7.56475 22.812 7.64265C23.045 7.65347 23.219 7.76347 23.278 8.00691C23.2987 8.09167 23.338 8.09924 23.4071 8.10357C24.1082 8.14757 24.7885 8.29327 25.4071 8.64311C26.4001 9.20429 27.0724 10.0331 27.3152 11.1915C27.3741 11.4746 27.3552 11.7631 27.3201 12.0499C27.3096 12.1364 27.2997 12.2237 27.2899 12.3276C27.2317 12.3442 27.2022 12.302 27.1671 12.2482C26.9569 11.8594 26.6632 11.5648 26.3299 11.291C26.3124 11.2813 26.305 11.2773 26.2875 11.2669C26.0787 11.1125 25.8646 10.9668 25.6555 10.8132C25.5987 10.767 25.5218 10.723 25.545 10.6321C25.5696 10.538 25.651 10.5185 25.7485 10.5153C26.0552 10.5394 26.3275 10.6386 26.6117 10.7832C26.4734 10.4392 26.2752 10.1604 26.0425 9.90829C25.2882 9.0896 24.3576 8.69649 23.2625 8.68314C22.8229 8.67954 22.3854 8.74445 21.9643 8.87465C21.8818 8.8999 21.7678 8.96481 21.7155 8.86275C21.672 8.77799 21.7797 8.71308 21.8355 8.64996C21.9864 8.47973 22.1675 8.3499 22.3818 8.24098C21.2987 8.4195 20.3899 8.93163 19.559 9.64032C19.2306 9.94688 18.9506 10.2751 18.7661 10.6826C18.6969 10.8352 18.6836 10.9769 18.7352 11.1399C18.9327 11.5367 18.9218 11.9514 18.9148 12.3831C18.9096 12.5342 18.952 12.633 19.1211 12.6565C19.1415 12.6612 19.1492 12.6626 19.1692 12.6662C19.232 12.6843 19.2762 12.7149 19.3359 12.7366C19.3685 12.7471 19.3999 12.7612 19.4296 12.7787C19.4752 12.8011 19.5197 12.8249 19.5639 12.8494C19.5773 12.8574 19.5825 12.8606 19.5952 12.8693C19.6071 12.8783 19.612 12.8823 19.6303 12.8981C19.6569 12.9234 19.6829 12.9497 19.7085 12.976C19.7261 12.9948 19.7303 12.9998 19.7411 13.0125C19.7517 13.0258 19.7559 13.0316 19.7657 13.046C19.7868 13.0803 19.8043 13.1044 19.8225 13.1419C19.8287 13.1569 19.8334 13.1725 19.8366 13.1885C19.8429 13.2678 19.8415 13.3349 19.8401 13.4142C19.8391 13.4308 19.837 13.4473 19.8338 13.4636C19.8145 13.5289 19.7818 13.5754 19.7654 13.6414C19.7604 13.6559 19.7548 13.6707 19.7485 13.6847C19.6766 13.781 19.731 13.8492 19.7808 13.9296C19.7884 13.9445 19.7945 13.96 19.799 13.9761C19.8124 14.1197 19.8064 14.2513 19.8061 14.3956C19.8043 14.4165 19.8036 14.4244 19.8004 14.4446C19.7917 14.4789 19.7829 14.5002 19.7713 14.5319C19.7664 14.5488 19.7643 14.5557 19.7583 14.5719C19.7465 14.6022 19.7324 14.6315 19.7162 14.6596C19.6962 14.6956 19.6776 14.7328 19.6601 14.7703C19.6478 14.7931 19.6341 14.815 19.619 14.8359C19.6004 14.8612 19.5832 14.8882 19.5682 14.916L19.5397 14.9604C19.5306 14.9759 19.5212 14.9913 19.5117 15.0065C19.5038 15.0195 19.4952 15.0319 19.4857 15.0437L19.4513 15.0844C19.4327 15.1071 19.4261 15.1169 19.4148 15.1342C19.3927 15.171 19.3666 15.2052 19.3369 15.2359L19.2997 15.2767C19.2825 15.2983 19.2703 15.3116 19.2552 15.3351L19.2352 15.3661L19.2082 15.4029C19.1906 15.427 19.1836 15.4368 19.172 15.4541C19.1654 15.464 19.1584 15.4736 19.151 15.4829L19.1159 15.5215C19.0889 15.5547 19.0601 15.5865 19.0296 15.6164L18.9229 15.7275L18.8559 15.8007L18.8173 15.8411L18.7773 15.8836C18.7567 15.9064 18.7358 15.9287 18.7145 15.9507C18.6741 15.9911 18.6482 16.016 18.6187 16.0535C18.6011 16.0744 18.5906 16.086 18.5706 16.1058C18.1573 16.5674 17.6618 16.8855 17.1232 17.1409C16.9429 17.226 16.9422 17.2336 17.0324 17.4114C17.1243 17.5917 17.2569 17.7338 17.4092 17.8611C18.0583 18.4032 18.6096 19.0296 18.972 19.8144C19.4562 20.8636 19.6432 21.9607 19.4885 23.1166C19.4254 23.588 19.2955 24.0319 19.0538 24.4398C19.0029 24.5249 18.9387 24.5992 18.8678 24.6952C19.7464 24.7742 20.439 24.3616 21.1092 23.9061C21.1141 23.8592 21.0927 23.8494 21.0738 23.8375C20.8313 23.681 20.8169 23.5306 21.0478 23.3492C21.2839 23.1638 21.518 22.9774 21.718 22.7505C21.8871 22.559 22.0404 22.3556 22.1362 22.0981C22.2145 21.9221 22.298 21.7641 22.3808 21.6054C22.4124 21.5441 22.4534 21.4781 22.5366 21.5001C22.6131 21.5203 22.612 21.5914 22.611 21.6696C22.5725 21.7969 22.5527 21.9294 22.5524 22.0627C22.5506 22.3116 22.4868 22.5471 22.3839 22.7916C22.6639 22.497 22.8524 22.1738 22.9471 21.7876C23.0004 21.5712 22.9868 21.384 22.8418 21.199C22.8089 21.0569 22.8432 20.9231 22.8085 20.7795C22.8044 20.752 22.8049 20.724 22.8099 20.6966C22.8608 20.6093 22.8678 20.5206 22.8927 20.4384C22.9201 20.3482 22.9668 20.3114 23.0657 20.3626L23.1061 20.3843C23.1215 20.3944 23.1271 20.3987 23.1482 20.4174C23.1762 20.4427 23.1997 20.4723 23.2254 20.4997C23.2366 20.5127 23.2478 20.5249 23.2639 20.5235C23.2832 20.5087 23.2854 20.4957 23.2896 20.4712C23.3415 20.2093 23.2394 19.9944 23.1338 19.7697C23.1101 19.7462 23.0942 19.7157 23.0882 19.6824C23.1162 19.5612 23.0545 19.4826 22.9948 19.3903C22.9858 19.3752 22.9785 19.3591 22.9731 19.3423C22.9552 19.1537 22.9815 18.9791 22.9931 18.8057C23.0159 18.4638 22.939 18.1493 22.7983 17.8319C22.7569 17.7735 22.7696 17.7064 22.7208 17.6534C22.6986 17.6305 22.6829 17.6018 22.6755 17.5704C22.6713 17.5059 22.6696 17.4532 22.6303 17.3995C22.6216 17.3877 22.6137 17.3754 22.6064 17.3627C22.5734 17.3158 22.5604 17.2588 22.538 17.2083C22.5545 17.1636 22.5152 17.1329 22.5046 17.0983C22.4922 17.0809 22.482 17.062 22.4741 17.0421C22.4811 16.9281 22.4075 16.8462 22.3706 16.7525C22.3426 16.725 22.326 16.6876 22.3243 16.6479C22.3078 16.4791 22.205 16.3319 22.1254 16.183C22.1157 16.1593 22.1091 16.1345 22.1057 16.109C22.0345 15.9027 21.9811 15.704 21.9225 15.493C21.9132 15.4687 21.9058 15.4436 21.9004 15.418C21.8783 15.3571 21.8773 15.2918 21.8661 15.229C21.8125 14.8289 21.8125 14.4231 21.8661 14.023C21.8678 13.9988 21.8685 13.9895 21.871 13.966C21.9169 13.781 21.9832 13.6036 22.0492 13.4254C22.111 13.3028 22.1555 13.1838 22.2345 13.0712L22.2559 13.033C22.2839 12.9897 22.3001 12.9742 22.3359 12.9176C22.3558 12.8894 22.3781 12.8631 22.4025 12.839L22.4348 12.8058C22.4499 12.7907 22.4587 12.782 22.4734 12.7661C22.4861 12.7517 22.498 12.7366 22.5085 12.7207L22.5541 12.6493C22.7032 12.4873 22.8699 12.3644 23.0471 12.236C23.1257 12.1894 23.1706 12.1772 23.2562 12.126C23.2738 12.1151 23.2808 12.1115 23.2997 12.1032C23.4832 12.0228 23.6654 11.9839 23.859 11.9366C24.3162 11.8457 24.698 11.9846 25.0822 12.2219C25.3952 12.4794 25.5734 12.8044 25.5355 13.2303C25.5211 13.3911 25.4569 13.5242 25.332 13.622C25.238 13.6963 25.1306 13.7035 25.0239 13.6555C24.9218 13.6093 24.8857 13.5156 24.8924 13.4095C24.9341 12.7557 24.4597 12.4848 23.8443 12.6338C23.6597 12.6781 23.4931 12.7726 23.3215 12.8848C22.7706 13.2642 22.5341 13.803 22.4875 14.4518C22.4682 15.6416 22.9689 16.7611 23.3846 17.8474C23.5461 18.1525 23.6303 18.4746 23.7197 18.7927C23.8257 19.1685 23.9011 19.5522 23.9018 19.9468C23.9089 20.2129 23.8745 20.4787 23.8773 20.6973C23.8917 21.248 23.5359 22.1053 23.5306 22.1096C23.2264 22.8955 22.9622 23.1123 22.4071 23.5613C21.9734 24.0507 21.3534 24.4027 20.8724 24.7843C23.539 24.7843 20.5152 24.7814 25.6166 24.7724C25.7741 24.7724 25.938 24.7687 26.0587 24.9264C26.0787 24.9516 26.0903 24.9675 26.0952 24.9974Z" fill="#3C060C"/>
<path d="M23.925 25.3604C23.9846 25.3875 24.0471 25.381 24.0734 25.4528C24.0769 25.6757 24.0618 25.6634 23.8646 25.7463C19.0485 25.7409 14.713 25.738 9.70462 25.7453C9.62462 25.7435 9.56076 25.7132 9.52777 25.6327C9.49514 25.5534 9.52637 25.4993 9.58813 25.452C9.60321 25.4405 9.60532 25.4109 9.61339 25.377C11.7979 25.3615 16.4843 25.3294 23.925 25.3604Z" fill="#877676"/>
<path d="M24.3668 16.2972C24.0033 16.1811 23.7275 15.9008 23.4489 15.6318C23.025 15.0944 22.8854 14.4766 22.9752 13.8018C23.0085 13.5533 23.1352 13.3402 23.2966 13.1353C23.5584 13.114 23.7054 13.2868 23.6475 13.532C23.5398 13.9904 23.5534 14.4387 23.7496 14.8726C23.9303 15.2718 24.2198 15.56 24.6015 15.7533C24.6527 15.7793 24.7061 15.8006 24.765 15.8399C24.8141 15.8958 24.8699 15.9102 24.924 15.9243C25.0198 15.9495 25.0878 15.9134 25.084 15.8078C25.0734 15.5164 25.1815 15.2661 25.3275 15.014C25.3328 14.9987 25.3395 14.984 25.3475 14.97C25.3755 14.9285 25.4145 14.9137 25.432 14.8643C25.4384 14.8466 25.4415 14.8398 25.4496 14.8225C25.469 14.7803 25.5 14.7448 25.5387 14.7204C25.5896 14.6966 25.6292 14.6771 25.6384 14.6122C25.6457 14.5795 25.6595 14.5487 25.6789 14.5218C25.6984 14.4949 25.723 14.4723 25.7513 14.4557C25.7659 14.447 25.7812 14.4395 25.7969 14.4333C25.8776 14.4153 25.9254 14.3662 25.978 14.3244C26.1391 14.1953 26.178 14.2101 26.2278 14.4293C26.2306 14.4635 26.2226 14.4976 26.205 14.5267C26.0868 14.7186 26.0892 14.7824 26.2176 14.9054C26.2276 14.9276 26.2316 14.9521 26.2292 14.9765C26.1619 15.1229 26.004 15.1947 25.8762 15.2794C25.6419 15.4298 25.6271 15.6588 25.6187 15.9044C25.4847 16.3069 25.4338 16.3199 25.1492 16.4252C24.7457 16.4743 24.7362 16.435 24.3668 16.2972Z" fill="#3C060C"/>
<path d="M26.2095 14.9449C26.0351 14.8306 26.0229 14.7447 26.1534 14.5146C26.226 14.568 26.1969 14.6373 26.1909 14.7043C26.2976 14.6041 26.3927 14.4952 26.4794 14.3613C26.7972 13.9408 26.8723 13.4727 26.8057 12.9714C26.7791 12.7563 26.7399 12.5432 26.6881 12.333C26.6636 12.2367 26.6415 12.1383 26.6874 12.0272C26.8046 11.9655 26.8523 12.0557 26.8951 12.1228C27.0706 12.3983 27.2323 12.6807 27.1688 13.046C27.0874 13.8016 26.7372 14.3855 26.2674 14.955C26.2476 14.9596 26.2268 14.956 26.2095 14.9449Z" fill="#3C060C"/>
<path d="M27.1716 13.0496C27.1754 12.6399 26.9653 12.3146 26.7249 11.9904C26.5972 11.9168 26.5589 11.8072 26.5603 11.6669C26.66 11.6019 26.6989 11.6835 26.7484 11.7354C26.8951 11.889 26.9905 12.091 27.1856 12.2129C27.2214 12.2544 27.2456 12.2933 27.2803 12.3384C27.2527 12.5768 27.2164 12.814 27.1716 13.0496Z" fill="#F7C9B6"/>
<path d="M19.7133 14.5823C19.7161 14.5715 19.7175 14.5567 19.721 14.5499C19.741 14.5293 19.74 14.508 19.7491 14.4802C19.7522 14.4705 19.7536 14.473 19.7522 14.4738C19.8259 14.3079 19.7793 14.1369 19.7614 13.9584C19.7512 13.9497 19.7543 13.9501 19.7533 13.9512C19.7228 13.8671 19.6635 13.7874 19.7108 13.6735C19.715 13.659 19.7178 13.6644 19.7157 13.6626C19.7698 13.6208 19.7635 13.5544 19.7814 13.4848C19.7828 13.4719 19.7796 13.4614 19.7824 13.4571C19.8519 13.3683 19.8105 13.2767 19.7933 13.1812C19.7838 13.175 19.7782 13.166 19.7796 13.161C19.7828 13.113 19.761 13.0809 19.727 13.0434C19.7168 13.0369 19.7189 13.0344 19.7193 13.0362C19.7137 13.023 19.7045 13.0118 19.6929 13.0037C19.6859 12.9987 19.6884 12.9972 19.6877 12.9983C19.6798 12.9865 19.6698 12.9763 19.6582 12.9684C19.6512 12.9637 19.654 12.9622 19.6533 12.9633C19.645 12.9518 19.6349 12.9416 19.6235 12.9334C19.6157 12.9291 19.6185 12.928 19.6182 12.9294C19.6107 12.9167 19.6001 12.9062 19.5873 12.8991C19.5789 12.8962 19.5824 12.8959 19.5821 12.8977C19.5736 12.876 19.5519 12.8739 19.5231 12.8645C19.5136 12.8602 19.5168 12.8569 19.5157 12.8591C19.5038 12.8403 19.4831 12.8385 19.455 12.8292C19.4463 12.8245 19.4491 12.8205 19.4477 12.8227C19.4347 12.8046 19.414 12.8032 19.3859 12.7945C19.3768 12.7906 19.3786 12.7862 19.3775 12.7884C19.334 12.7422 19.2733 12.7415 19.2056 12.7246C19.1929 12.7224 19.1821 12.7235 19.1775 12.7202C19.1684 12.713 19.1649 12.708 19.16 12.7058C18.8894 12.5868 18.8828 12.5861 18.9038 12.2629C18.9126 12.1345 18.8308 11.9971 18.9431 11.8669C18.9592 11.8459 18.9764 11.8258 18.9947 11.8067C19.14 11.6184 19.1561 11.392 19.2319 11.1763C19.24 11.1413 19.2494 11.1193 19.2645 11.0876C19.2709 11.0738 19.2779 11.0605 19.2856 11.0475C19.295 11.0317 19.2989 11.0252 19.3147 11.0006C19.3435 10.9505 19.3621 10.9195 19.3701 10.8719C19.379 10.8433 19.3934 10.8169 19.4126 10.7943C19.4645 10.7583 19.4828 10.71 19.5101 10.6559C19.5174 10.6434 19.5256 10.6316 19.5347 10.6205C19.5663 10.5888 19.5986 10.5718 19.6119 10.5242C19.6175 10.5106 19.6241 10.4975 19.6315 10.4849C19.6398 10.4727 19.649 10.4611 19.6589 10.4503C19.6692 10.4397 19.6802 10.43 19.6919 10.4211C19.7143 10.4101 19.7343 10.3943 19.7504 10.3749C19.7666 10.3554 19.7785 10.3327 19.7856 10.3082C19.8038 10.2696 19.8291 10.235 19.86 10.2061L19.9021 10.1636C19.9178 10.1466 19.9273 10.1372 19.9442 10.1203C19.9629 10.0999 19.9837 10.0816 20.0063 10.0658C20.0367 10.0495 20.0625 10.0254 20.0814 9.99585C20.0901 9.98071 20.0936 9.97457 20.1031 9.95979C20.1339 9.92032 20.1674 9.8832 20.2035 9.84871C20.2217 9.83067 20.2263 9.82635 20.2438 9.80759C20.2569 9.79316 20.2692 9.77799 20.2807 9.76215C20.2964 9.74051 20.3003 9.73474 20.3108 9.72103C20.3329 9.69328 20.3601 9.67024 20.3908 9.65323C20.4322 9.63448 20.4701 9.63375 20.4996 9.59228C20.508 9.5794 20.5174 9.56722 20.5277 9.55585C20.5392 9.54451 20.5518 9.53436 20.5652 9.52556C20.5798 9.51762 20.5954 9.51168 20.6115 9.50789C20.6922 9.50428 20.74 9.53133 20.7519 9.61897C20.7505 9.64413 20.7437 9.66866 20.7319 9.69074C20.7216 9.70721 20.7105 9.7231 20.6986 9.73834C20.6771 9.76792 20.6708 9.77982 20.6701 9.80218C20.6771 9.81516 20.6817 9.81949 20.6954 9.82743C20.7321 9.82439 20.7679 9.81387 20.8006 9.79647C20.8333 9.77907 20.8623 9.75514 20.8859 9.72608C20.8968 9.71425 20.9092 9.70395 20.9228 9.69543C20.9514 9.68158 20.9824 9.6735 21.014 9.67162C21.0863 9.66333 21.1642 9.69218 21.1877 9.5829C21.1947 9.56487 21.1978 9.55766 21.2073 9.54034C21.2273 9.51113 21.2459 9.49634 21.2705 9.47002C21.2824 9.45952 21.2953 9.45033 21.3091 9.44261C21.4543 9.41664 21.5624 9.3391 21.6796 9.25434C21.6925 9.24478 21.7064 9.23667 21.721 9.23018C21.8182 9.20962 21.9101 9.22297 21.9852 9.15408C22.0168 9.12523 22.0778 9.10251 22.1126 9.13028C22.2361 9.22946 22.2705 9.10359 22.3435 9.0412C22.3641 9.02959 22.3878 9.02481 22.4112 9.02749C22.4603 9.03543 22.495 9.11766 22.5438 9.02533C22.5569 9.01036 22.5736 8.99927 22.5922 8.99324C22.6109 8.98722 22.6307 8.98646 22.6498 8.99107C22.7084 9.01703 22.7157 9.07582 22.754 9.10792C22.8171 9.07834 22.8147 8.99972 22.8771 8.96113C22.9086 8.94693 22.9441 8.94564 22.9764 8.95753C23.134 9.07582 23.2607 9.19556 23.2007 9.41412C23.1831 9.47651 23.2449 9.48444 23.2894 9.49274C23.4298 9.51979 23.5649 9.55621 23.6712 9.66513C23.7273 9.72248 23.7905 9.70841 23.8607 9.68136C24.0905 9.59084 24.1561 9.61644 24.28 9.84077C24.3045 9.88441 24.3435 9.90569 24.3775 9.93562C24.581 10.116 24.5722 10.3435 24.3487 10.4867C24.2607 10.543 24.275 10.6238 24.2715 10.702C24.2631 10.8751 24.2947 11.0558 24.16 11.2131C24.0294 11.2845 23.8954 11.26 23.7684 11.2841C23.5901 11.3177 23.4154 11.3591 23.2364 11.4374C23.1761 11.459 23.1308 11.4821 23.0733 11.5081C22.9891 11.5427 22.9203 11.582 22.8417 11.6278C22.7245 11.6873 22.6238 11.7497 22.534 11.8507C22.5215 11.8622 22.5078 11.8724 22.4933 11.881C21.7301 12.5742 21.3796 13.4408 21.3529 14.4683C21.3312 15.3357 21.574 16.1331 21.8975 16.9158C22.0877 17.3756 22.3322 17.8066 22.5568 18.2632L22.5947 18.3335C22.6743 18.5362 22.7501 18.7259 22.8463 18.9062C22.9214 19.0461 22.975 19.1929 23.0045 19.3624C23.0115 19.3733 23.0126 19.3715 23.0115 19.3722C23.0557 19.4537 23.1063 19.5316 23.1228 19.6387C23.1251 19.6658 23.1322 19.6922 23.1438 19.7166C23.2484 19.9619 23.3487 20.1988 23.3357 20.4801C23.3252 20.5306 23.3171 20.5674 23.2957 20.6089C23.274 20.6056 23.2677 20.5962 23.2571 20.5789C23.2505 20.5732 23.2512 20.5706 23.2501 20.5703C23.2438 20.5634 23.2393 20.5569 23.2266 20.5418C23.2182 20.5331 23.2182 20.5339 23.2186 20.5335C23.2085 20.5238 23.1989 20.5135 23.1898 20.5028C23.1849 20.4956 23.1842 20.4981 23.1852 20.4978C23.1743 20.4889 23.1644 20.4787 23.1557 20.4675C23.1505 20.4603 23.1501 20.4628 23.1512 20.4624C23.1404 20.4533 23.1304 20.4432 23.1214 20.4321C23.1164 20.4249 23.1161 20.4275 23.1171 20.4267C23.0873 20.4011 23.0621 20.369 23.0312 20.3438C22.9452 20.2735 22.9 20.2955 22.8922 20.4087C22.8866 20.4891 22.8726 20.5692 22.8684 20.6622C22.861 20.6904 22.8561 20.7066 22.8526 20.7362C22.8729 20.8768 22.8421 21.0031 22.8396 21.1452C22.8249 21.2927 22.7905 21.42 22.7414 21.5426C22.7098 21.6227 22.6705 21.7017 22.5575 21.7081C22.547 21.6742 22.5522 21.6454 22.554 21.6162C22.5561 21.5805 22.5543 21.5408 22.5122 21.5325C22.4684 21.5239 22.4589 21.5675 22.4438 21.5967C22.3593 21.7615 22.2754 21.9267 22.1866 22.1031C21.914 22.5553 21.4757 22.7656 21.0487 22.9841C20.7717 23.1242 20.476 23.2209 20.1712 23.2712C19.994 23.3012 19.9322 23.246 19.9821 23.0786C20.2901 22.049 20.1049 21.0626 19.748 20.0888C19.6901 19.9301 19.6112 19.779 19.5887 19.5947C19.5924 19.5768 19.5999 19.5601 19.6108 19.5457C19.7477 19.4962 19.8087 19.6257 19.9263 19.6618C19.9069 19.3654 19.8285 19.0762 19.6961 18.8121C19.4196 18.2466 19.1059 17.7013 18.8445 17.1275C18.7235 16.8617 18.6087 16.5937 18.5435 16.3062C18.527 16.2323 18.5024 16.1584 18.5512 16.074C18.5621 16.0582 18.5744 16.0434 18.588 16.03C18.628 15.9997 18.6687 15.9831 18.6884 15.9294C18.6954 15.9211 18.6947 15.9196 18.6954 15.9196L18.7207 15.8951C18.7294 15.8872 18.7298 15.8846 18.7308 15.885C18.7505 15.8706 18.7694 15.8561 18.7908 15.8273C18.8049 15.8082 18.8119 15.7984 18.8266 15.7837C18.8396 15.7728 18.8445 15.7667 18.8582 15.7523L18.8663 15.7436C18.874 15.736 18.8821 15.7281 18.8947 15.714C18.9 15.7079 18.9007 15.7086 18.9003 15.7083C18.9103 15.699 18.9198 15.6891 18.9287 15.6787C18.934 15.6722 18.935 15.6733 18.9343 15.6729C18.9447 15.6638 18.9543 15.6537 18.9631 15.643C18.9684 15.6365 18.9691 15.638 18.9684 15.6376C18.9792 15.6285 18.9888 15.618 18.9968 15.6062C19.001 15.5986 19.0021 15.6015 19.0003 15.6012C19.0125 15.5933 19.0229 15.5828 19.0308 15.5705C19.0343 15.5626 19.0357 15.5655 19.0343 15.5651C19.0469 15.5579 19.0573 15.5473 19.0645 15.5344C19.0677 15.5258 19.0666 15.529 19.0659 15.5276C19.0912 15.5153 19.1077 15.493 19.1273 15.4616C19.1291 15.4515 19.1326 15.4526 19.1308 15.4537C19.1554 15.45 19.1568 15.4284 19.1673 15.3996C19.1726 15.3905 19.1743 15.3909 19.1736 15.3902C19.185 15.3818 19.1946 15.3713 19.2021 15.3592C19.2056 15.3512 19.2056 15.3552 19.2049 15.3534C19.2371 15.3346 19.2484 15.3004 19.2708 15.2618C19.2831 15.2438 19.2884 15.2333 19.3014 15.2185C19.3161 15.2092 19.329 15.1972 19.3396 15.1832C19.3438 15.1756 19.3442 15.1785 19.3428 15.1781C19.3553 15.1705 19.3657 15.1597 19.3729 15.1467C19.3761 15.1381 19.3764 15.1417 19.3747 15.1417C19.3943 15.1323 19.3971 15.1114 19.4087 15.0847C19.4157 15.0775 19.4147 15.0753 19.4157 15.0753L19.4428 15.0429C19.447 15.0364 19.4484 15.0385 19.447 15.0382C19.4593 15.0288 19.4693 15.0166 19.4761 15.0025C19.4847 14.9799 19.4961 14.9585 19.5101 14.939C19.5228 14.9276 19.5345 14.9152 19.5452 14.9019C19.5498 14.8943 19.5501 14.8972 19.5487 14.8972C19.5663 14.8849 19.5687 14.864 19.5789 14.8355C19.5845 14.8268 19.5859 14.8283 19.5852 14.8276C19.5973 14.8172 19.6069 14.8041 19.6133 14.7893C19.6157 14.78 19.6178 14.767 19.6214 14.7616C19.6298 14.75 19.6347 14.7439 19.6449 14.7273C19.6501 14.7168 19.6512 14.7201 19.6494 14.7194C19.6698 14.7085 19.6712 14.6869 19.681 14.6573C19.6852 14.648 19.6866 14.6501 19.6852 14.6501C19.7052 14.6375 19.7056 14.614 19.7133 14.5823Z" fill="#F05232"/>
<path d="M13.0978 8.32642C13.0855 8.13275 12.9399 8.06242 12.8076 7.99461C12.6824 7.93078 12.5417 7.8994 12.4076 7.85396C12.0613 7.73711 11.8192 7.51602 11.7353 7.12724C11.8006 7.06665 11.8511 7.10596 11.8904 7.14527C12.3055 7.56002 12.8378 7.70825 13.3764 7.84783C13.8894 7.98019 14.4087 8.09055 14.9002 8.30225C15.3764 8.50675 15.8203 8.76281 16.2146 9.10724C16.3603 9.23455 16.3792 9.23058 16.4532 9.08199C16.4788 8.97343 16.4883 8.92943 16.4953 8.88688C16.5104 8.83639 16.5234 8.7978 16.5203 8.74406C16.516 8.66183 16.5294 8.59511 16.5669 8.44435C16.7143 7.51999 17.2129 6.7334 17.5873 5.89812C17.6234 5.81409 17.6494 5.71888 17.7652 5.6875C17.915 5.78163 17.8666 5.93996 17.8757 6.05934C17.9108 6.50835 17.8957 6.95953 17.8227 7.42117C17.7369 8.0119 17.5466 8.5815 17.2613 9.10183C17.168 9.27134 17.0532 9.4257 16.8859 9.5274C16.8034 9.57681 16.7925 9.6273 16.8532 9.70881C17.3325 10.3479 17.5936 11.0757 17.6753 11.8749C17.7052 12.167 17.6943 12.4603 17.6824 12.7531C17.6792 12.8288 17.6606 12.9039 17.6066 12.9796C17.4252 13.0726 17.2483 13.1094 17.0487 13.0496C16.9624 12.9241 16.9897 12.7946 16.9904 12.6543C17.0024 12.5641 17.0045 12.4887 16.9866 12.4011C16.9539 12.3037 16.976 12.2778 16.9515 12.2067C16.9431 12.1739 16.9399 12.1519 16.9322 12.1194C16.927 12.098 16.9214 12.0767 16.9153 12.0556C16.9013 12.0109 16.8834 11.9676 16.8673 11.9236C16.6655 11.3956 16.3578 10.9725 15.8445 10.7641C15.1571 10.4849 14.2831 10.7223 13.8217 11.3714C13.3838 11.9878 13.2988 12.6554 13.5536 13.3832C13.5641 13.4109 13.5697 13.4268 13.5806 13.4542L13.6006 13.5011C13.6103 13.5255 13.6173 13.5509 13.6217 13.5768C13.6257 13.6132 13.6161 13.6497 13.5946 13.6789C13.342 13.7597 13.1076 13.8654 12.842 13.8957C12.8069 13.8715 12.7876 13.8488 12.7792 13.821C12.6824 13.4982 12.4178 13.4189 12.1427 13.3825C11.8708 13.3464 11.5988 13.3695 11.349 13.5116C11.3045 13.5368 11.2571 13.5585 11.1911 13.5368C11.1104 13.4286 11.1532 13.3251 11.1778 13.2256C11.2694 12.8622 11.3119 12.4875 11.3041 12.1122C11.2972 11.7889 11.2202 11.4713 11.0788 11.1825C10.8273 10.6667 10.4059 10.6425 9.93148 10.8099C9.8592 10.8247 9.80095 10.8485 9.72867 10.8243C9.702 10.7969 9.6992 10.7727 9.70306 10.7363C9.71007 10.6934 9.72937 10.6526 9.75534 10.6011L9.78095 10.552C9.79499 10.5253 9.80727 10.4979 9.82025 10.4712L9.83323 10.4373C9.84025 10.4168 9.84481 10.4049 9.85253 10.3843C9.86411 10.3461 9.89534 10.3201 9.91639 10.288C9.94095 10.2577 9.962 10.2256 9.98516 10.1946C10.0101 10.164 10.0273 10.1279 10.0483 10.0951C10.058 10.0686 10.0716 10.0438 10.0887 10.0215C10.0999 10.0078 10.1048 10.0024 10.1245 9.98147C10.1532 9.95153 10.1771 9.91763 10.1964 9.88048C10.8953 8.96694 11.9378 8.65137 13.0318 8.35527C13.056 8.34661 13.0697 8.34265 13.0978 8.32642Z" fill="#F05232"/>
<path d="M12.8254 13.8675C13.0359 13.8343 13.2078 13.7131 13.4078 13.6879C13.4573 13.6818 13.5061 13.6677 13.5692 13.6554C13.7176 13.7323 13.8398 13.8264 13.9327 13.9562C14.0955 14.1845 14.311 14.3699 14.558 14.4626C14.9622 14.6141 15.4015 14.6956 15.8075 14.4896C16.0664 14.3584 16.3534 14.2494 16.5548 14.0201C16.7261 13.8253 16.8896 13.6197 16.8934 13.333C16.8952 13.2158 16.904 13.095 17.0359 13.0301C17.2233 13.0109 17.3973 12.9889 17.5854 12.9623C17.6776 12.8901 17.7622 12.8869 17.8619 12.9486C18.2513 13.0329 18.6306 13.1 18.9871 13.2587C19.225 13.3648 19.2327 13.3846 19.0959 13.6028C19.0713 13.6421 19.0468 13.681 19.0134 13.7279C18.9485 13.7849 18.8959 13.8459 18.825 13.8664C18.6348 13.9216 18.5524 14.0612 18.4815 14.2408C18.3226 14.6447 18.0387 14.9578 17.7226 15.2409C17.512 15.4295 17.2857 15.5965 17.0408 15.7577C17.0153 15.7764 16.9883 15.793 16.9601 15.8071C16.9215 15.8237 16.892 15.8324 16.8566 15.8569C16.7917 15.8973 16.7352 15.929 16.6671 15.9672C16.138 16.2612 15.5784 16.4267 15.0054 16.541C13.5654 16.8292 12.1538 16.7163 10.7776 16.1865C10.3339 16.0137 9.91422 15.7817 9.52923 15.4966C9.298 15.3271 9.10467 15.1219 8.96467 14.8676C8.90993 14.7681 8.84783 14.7165 8.73098 14.7572C8.63835 14.7897 8.55063 14.7594 8.45975 14.6959C8.38256 14.6126 8.3173 14.5358 8.24221 14.4474C8.34677 14.4428 8.42572 14.5138 8.52467 14.4532C8.43449 14.3025 8.44432 14.1503 8.53554 13.9999C8.58291 13.922 8.55239 13.857 8.48642 13.8022C8.38747 13.7193 8.32993 13.6046 8.26467 13.4946C8.20256 13.39 8.22116 13.3262 8.33274 13.28C8.53905 13.1952 8.74923 13.13 8.98397 13.1033C9.03519 13.1256 9.06081 13.1574 9.06923 13.1988C9.18011 13.7384 9.51625 14.1146 9.91975 14.4424C10.0727 14.5665 10.451 14.5582 10.6278 14.4244C10.6826 14.3825 10.7327 14.3342 10.8075 14.3017C10.9348 14.2862 10.9934 14.2177 11.0057 14.0897C11.0079 14.0644 11.0135 14.0395 11.0222 14.0157C11.044 13.9714 11.0668 13.9454 11.1134 13.9303C11.132 13.9299 11.1401 13.9292 11.1429 13.9328C11.3394 14.1798 11.5173 14.442 11.7633 14.6462C11.8419 14.7111 11.7826 14.7962 11.7043 14.8445C11.558 14.9347 11.3724 14.9058 11.2299 14.7764C11.1668 14.7187 11.105 14.5895 11.0117 14.6826C10.9257 14.7688 10.9987 14.8828 11.0608 14.9675C11.2436 15.2146 11.605 15.3072 11.8791 15.1637C12.0152 15.0927 12.124 15.0927 12.2622 15.1637C12.6078 15.3422 12.9724 15.234 13.1934 14.9076C13.2289 14.8615 13.2535 14.8076 13.2654 14.75C13.2759 14.6851 13.2555 14.6346 13.1966 14.6047C13.1369 14.574 13.1005 14.6119 13.0654 14.653C13.0464 14.675 13.0306 14.6999 13.0127 14.7226C12.891 14.8784 12.7282 14.9314 12.5412 14.9084C12.4362 14.8954 12.3369 14.8575 12.2966 14.7439C12.2573 14.6321 12.3236 14.5528 12.3948 14.4817C12.5275 14.349 12.6229 14.1907 12.7019 14.0204C12.7289 13.9624 12.7524 13.9018 12.8254 13.8671V13.8675Z" fill="#FEF3EA"/>
<path d="M18.5481 16.0675C18.5917 16.4199 18.731 16.7416 18.8738 17.0604C19.1429 17.663 19.478 18.2307 19.7632 18.8247C19.9032 19.1154 19.9727 19.4277 20.0015 19.7693C19.8506 19.7253 19.7632 19.6091 19.6324 19.5493C19.718 19.8277 19.8159 20.1076 19.9113 20.3885C20.1029 20.9504 20.2176 21.5282 20.1973 22.1244C20.186 22.4616 20.1474 22.8009 20.0243 23.1208C19.9878 23.2161 19.9987 23.2482 20.1103 23.2265C20.808 23.0932 21.4588 22.7715 21.9959 22.2946C22.0555 22.2423 22.1053 22.1785 22.171 22.1171C22.0317 22.5438 21.7296 22.8522 21.4032 23.1392C21.2864 23.242 21.158 23.3304 21.0404 23.4317C20.9815 23.4822 20.9015 23.5356 20.9313 23.6333C20.9611 23.7307 21.0436 23.7747 21.1352 23.8028C21.1752 23.8151 21.2411 23.7848 21.2506 23.8479C21.2583 23.9009 21.1969 23.9168 21.1608 23.9417C20.7053 24.2569 20.232 24.5306 19.6976 24.6893C19.3874 24.7817 19.0797 24.755 18.7274 24.7607C18.9644 24.5169 19.1433 24.22 19.2503 23.8934C19.4794 23.2179 19.5183 22.5218 19.459 21.8138C19.4071 21.2007 19.2527 20.615 19.0204 20.0524C18.6604 19.1789 18.0766 18.481 17.3611 17.8949C17.1639 17.7334 17.0264 17.5303 16.9078 17.3078C16.8506 17.1996 16.9148 17.161 16.9973 17.1267C17.4334 16.9443 17.8383 16.7077 18.1952 16.3892C18.3113 16.2857 18.4232 16.1775 18.5481 16.0675Z" fill="#C02C1F"/>
<path d="M23.1754 11.4209C23.4716 11.241 23.7895 11.2056 24.1284 11.1937C24.2407 11.1183 24.3516 11.136 24.4582 11.1447C25.3916 11.2186 26.2049 11.888 26.4975 12.8026C26.6309 13.2156 26.6693 13.6547 26.6098 14.0854C26.5958 14.1926 26.5365 14.2824 26.5151 14.3999C26.4126 14.5594 26.3088 14.6975 26.1488 14.7844C26.1039 14.6892 26.1761 14.6185 26.1656 14.5254C26.174 14.4934 26.1825 14.4753 26.1902 14.4468C26.1895 14.2928 26.1347 14.1583 26.1389 13.9769C26.0077 14.1597 25.9646 14.3538 25.7951 14.4667C25.786 14.4746 25.7874 14.476 25.7874 14.4753C25.7788 14.4857 25.7697 14.4956 25.76 14.5049C25.7319 14.5359 25.7084 14.5604 25.6832 14.5951C25.6568 14.665 25.6042 14.6982 25.554 14.7491C25.5347 14.7599 25.526 14.7664 25.5168 14.7837C25.5063 14.7995 25.4986 14.8078 25.4856 14.8223L25.4796 14.8284C25.4502 14.8702 25.433 14.9207 25.3828 14.9604C25.3747 14.9676 25.3765 14.9694 25.3758 14.9683C25.2126 15.245 25.0832 15.532 25.0986 15.8693C25.1028 15.9594 25.0453 15.9919 24.961 15.963C24.9021 15.9425 24.8379 15.9407 24.7716 15.8988C24.1772 15.6586 23.7744 15.2471 23.5958 14.6257C23.494 14.2723 23.4825 13.9058 23.5863 13.5528C23.6382 13.3764 23.6151 13.2772 23.4537 13.2083C23.4175 13.1928 23.3856 13.1669 23.3407 13.1438C23.2935 13.0537 23.275 12.9506 23.2881 12.8491C23.5912 12.6313 23.9112 12.5 24.2842 12.5332C24.6968 12.5693 25.007 12.9443 24.9533 13.3681C24.9403 13.4687 24.9403 13.5629 25.0361 13.6108C25.1425 13.6638 25.2446 13.6436 25.3333 13.5546C25.521 13.367 25.5446 12.9642 25.3779 12.6677C25.1218 12.2133 24.7309 11.9922 24.226 11.9734C24.1403 11.9702 24.0547 11.9731 23.9533 11.9713C23.8172 11.8681 23.6747 11.7996 23.5674 11.6737C23.5116 11.6081 23.3919 11.6539 23.2909 11.6297C23.2745 11.6245 23.2588 11.6171 23.2442 11.6077C23.1958 11.5504 23.1495 11.5046 23.1754 11.4209Z" fill="#C02C1F"/>
<path d="M17.194 24.0677C16.9624 23.5725 16.5185 23.4964 16.0736 23.4239C16.0119 23.4141 15.948 23.4185 15.8701 23.4141C15.5466 23.3247 15.3115 23.1321 15.1136 22.8652C15.0993 22.8247 15.0898 22.7826 15.0852 22.7397C15.2887 22.1194 15.4091 21.472 15.9115 21.018C15.9627 20.9718 16.0238 20.9386 16.0789 20.878C16.1171 20.8394 16.1529 20.8196 16.1982 20.7918C16.2627 20.7586 16.3192 20.7348 16.3771 20.6901C16.3904 20.6825 16.4043 20.6758 16.4185 20.6703C16.4706 20.6618 16.5202 20.6416 16.5638 20.6111C16.7298 20.5664 16.8635 20.4842 16.9975 20.3767C17.1898 20.3706 17.3375 20.4838 17.5178 20.5365C17.5933 20.5401 17.6354 20.5805 17.6771 20.6212C18.1884 21.1225 18.5277 21.7223 18.6333 22.4461C18.7294 23.1061 18.2684 24.0121 17.4052 24.1297C17.3315 24.1394 17.2554 24.156 17.194 24.0677Z" fill="#EF5234"/>
<path d="M11.128 22.6935C10.8943 22.2553 10.8308 21.7901 10.8221 21.3122C10.821 21.2401 10.8421 21.2076 10.9193 21.2065C10.9859 21.2051 11.0694 21.2007 11.1164 21.1614C11.2964 21.01 11.4164 21.1203 11.5494 21.2368C11.7456 21.4085 11.9754 21.5286 12.1968 21.6609C12.2743 21.7071 12.3414 21.7078 12.421 21.6674C12.6978 21.5271 12.9722 21.3854 13.1859 21.1477C13.2175 21.1131 13.2456 21.0742 13.301 21.1052C13.7063 21.3338 14.1505 21.3829 14.608 21.3926C14.4466 22.0093 14.4512 22.6152 14.6417 23.2291C14.6084 23.3254 14.5326 23.3582 14.4607 23.3914C13.5761 23.805 12.7098 23.7304 11.8614 23.2803C11.5866 23.1342 11.3305 22.9604 11.128 22.6935Z" fill="#FCE6DD"/>
<path d="M8.45079 14.7007C8.58623 14.6942 8.72974 14.7505 8.85781 14.6427C8.89605 14.6102 8.91711 14.6419 8.93254 14.678C9.16658 15.2208 9.62132 15.5234 10.0992 15.7946C10.8315 16.2101 11.622 16.4402 12.4487 16.5563C13.3206 16.6789 14.1887 16.6562 15.0487 16.4744C15.602 16.3579 16.1399 16.1827 16.661 15.9208C16.7673 16.0571 16.7901 16.2144 16.7824 16.3825C16.9764 16.3251 17.1245 16.1286 17.3568 16.2288C16.6999 16.6775 15.9827 16.9829 15.2118 17.16C14.935 17.2235 14.8722 17.4514 15.0701 17.6725C15.0704 17.6913 15.0631 17.6996 15.0417 17.7162C14.5982 17.7717 14.1683 17.7573 13.7392 17.7324C13.5754 17.7216 13.4122 17.7019 13.2504 17.6732C13.1725 17.6603 13.0922 17.6534 13.0178 17.5831C12.8448 17.1261 12.6217 16.9851 12.1571 17.0468C11.9034 17.0803 11.6729 16.992 11.4406 16.9169C10.2094 16.5206 9.22623 15.7665 8.45044 14.7011L8.45079 14.7007Z" fill="#EAAF93"/>
<path d="M20.4207 9.67953C20.3919 9.70334 20.3705 9.71921 20.3442 9.74445C20.3344 9.75953 20.3227 9.77323 20.3094 9.78521C20.3024 9.79061 20.3049 9.79098 20.3049 9.78953C20.296 9.80089 20.286 9.81128 20.275 9.82055C20.268 9.8256 20.2705 9.82596 20.2705 9.82488C20.2617 9.83624 20.2517 9.84653 20.2407 9.85553C20.2336 9.86058 20.2361 9.86058 20.2357 9.85914C20.2357 9.85806 20.2242 9.87104 20.2168 9.87537C20.2074 9.88182 20.1988 9.88946 20.1912 9.89809C20.1856 9.90458 20.1764 9.91937 20.1694 9.92406C20.1621 9.92839 20.1649 9.92947 20.1652 9.92766C20.1589 9.94127 20.1488 9.95259 20.1361 9.96012C20.1277 9.96373 20.1308 9.96373 20.1298 9.96193C20.0905 10.0109 20.0471 10.0562 20 10.0972C19.9901 10.1026 19.9936 10.1044 19.9929 10.1026C19.9877 10.1076 19.9835 10.1145 19.9684 10.1267C19.9014 10.1606 19.8385 10.1592 19.7796 10.1729C19.6414 10.2043 19.6312 10.231 19.7049 10.3785C19.7085 10.3903 19.7093 10.4028 19.7074 10.415C19.7054 10.4272 19.7007 10.4388 19.6936 10.4488C19.6845 10.4578 19.6866 10.4593 19.6866 10.4578C19.6799 10.47 19.671 10.4808 19.6603 10.4896L19.6543 10.4961C19.6256 10.5379 19.6077 10.5877 19.5603 10.6291C19.5529 10.6371 19.5515 10.6371 19.5519 10.6378C19.5091 10.6832 19.4996 10.7485 19.4533 10.8037C19.4363 10.821 19.4218 10.8408 19.4105 10.8625C19.3978 10.9198 19.3621 10.9581 19.3445 11.0122C19.3329 11.0161 19.3364 11.0179 19.3364 11.0158C19.3378 11.0269 19.334 11.0381 19.3164 11.0522C19.3087 11.0576 19.3119 11.0587 19.3105 11.0576C19.3017 11.0709 19.2943 11.0854 19.2789 11.1095C19.2687 11.1227 19.2572 11.1348 19.2445 11.1456C19.2299 11.154 19.2135 11.1586 19.1968 11.1593C19.0912 11.1268 19.1056 11.0601 19.1301 10.9884C19.2098 10.7586 19.2828 10.5278 19.2585 10.2771C19.2512 10.2007 19.2596 10.1102 19.3389 10.0795C19.4898 10.0211 19.5014 9.90278 19.4933 9.76753C19.4923 9.72204 19.4996 9.67676 19.515 9.63409C20.0354 9.11835 20.6477 8.77501 21.295 8.48973C21.6941 8.31357 22.1203 8.21126 22.554 8.1875C22.2466 8.3736 21.9329 8.54996 21.6901 8.90593C22.6926 8.54671 23.6614 8.50668 24.6228 8.87527C25.5912 9.24675 26.3035 9.90602 26.7101 10.8939C26.4294 10.7052 26.1115 10.6392 25.7866 10.5541C25.6733 10.5318 25.6049 10.4578 25.5329 10.3944C25.2515 10.1462 24.9217 9.99475 24.5842 9.84543C24.1926 9.67232 23.7677 9.65861 23.3687 9.53022C23.3305 9.51796 23.2649 9.54104 23.2968 9.44727C23.3172 9.42151 23.3438 9.40172 23.374 9.38993L23.4147 9.37298C23.4449 9.36324 23.4649 9.35855 23.4943 9.34845C23.5098 9.34232 23.5161 9.3398 23.5319 9.33439C23.56 9.32465 23.5796 9.31996 23.6077 9.30914L23.6463 9.29399L23.6873 9.27957C23.709 9.27146 23.7309 9.26401 23.7529 9.2572C23.7691 9.25308 23.7855 9.25031 23.8021 9.24891C23.908 9.24529 24.0141 9.24637 24.12 9.25216C24.1838 9.26947 24.2343 9.28678 24.3017 9.28173C24.4091 9.29832 24.4978 9.33655 24.6045 9.35278C24.7108 9.40327 24.8259 9.4094 24.8828 9.4754C24.8178 9.40724 24.6985 9.39498 24.5824 9.34629C24.3631 9.30229 24.1971 9.15839 23.9877 9.11402C23.7217 9.05776 23.4593 8.9813 23.1859 9.0015C23.0719 9.0098 22.967 8.92973 22.8403 8.98455C22.8145 8.99593 22.7865 9.00087 22.7585 8.99898C22.6 8.97986 22.4656 9.02963 22.3178 9.07219C22.1126 9.12845 21.927 9.20996 21.7175 9.25252C21.7052 9.25757 21.7077 9.25612 21.7063 9.2554C21.5861 9.34992 21.4499 9.42061 21.3045 9.46386C21.2929 9.46819 21.2968 9.46747 21.295 9.46675C21.2831 9.4956 21.2589 9.51075 21.2245 9.52084C21.2147 9.51652 21.207 9.51868 21.2052 9.52229C21.2245 9.56196 21.1905 9.5753 21.1663 9.60235C21.1382 9.61858 21.1182 9.62616 21.0891 9.63986C21.0765 9.64714 21.0636 9.65388 21.0505 9.66006C21.0089 9.67503 20.9683 9.69286 20.9291 9.71343C20.9196 9.71957 20.9221 9.72065 20.9214 9.71957C20.8564 9.79891 20.7712 9.84327 20.6628 9.86599C20.6508 9.86347 20.6473 9.85878 20.6445 9.85986C20.6161 9.82416 20.6294 9.78448 20.6424 9.73363C20.6512 9.72173 20.6487 9.72173 20.6494 9.72281C20.6573 9.71182 20.666 9.70145 20.6754 9.69179C20.6894 9.67593 20.6985 9.66655 20.7105 9.64743C20.7596 9.50065 20.8568 9.40471 20.9617 9.31563C20.8407 9.38776 20.7333 9.4837 20.5884 9.53743C20.5789 9.54465 20.5796 9.54501 20.5796 9.54465C20.57 9.55527 20.5594 9.56493 20.548 9.5735C20.541 9.57747 20.5438 9.57819 20.5431 9.57675C20.5112 9.621 20.4693 9.65634 20.4207 9.67953Z" fill="#FCE6DD"/>
<path d="M17.1845 24.0712C17.4599 24.1173 17.7066 24.0264 17.9224 23.8735C18.5995 23.3928 18.7469 22.604 18.4143 21.8199C18.2126 21.3368 17.9131 20.9035 17.5357 20.5486C17.8188 20.2799 17.809 20.1808 17.4687 19.9799C17.3192 19.6708 17.1915 19.3624 16.9939 19.0941C16.808 18.842 16.6381 18.5769 16.415 18.3559C16.1988 18.1366 15.9344 17.9742 15.6441 17.8823C15.5231 17.8444 15.382 17.8354 15.302 17.6969C15.631 17.6034 15.9616 17.5156 16.2936 17.4337C16.3641 17.4156 16.4041 17.4553 16.4227 17.5166C16.5448 17.922 16.8567 18.1676 17.1518 18.4244C18.1964 19.3332 18.8045 20.4765 18.9413 21.8834C19.0076 22.5676 18.9525 23.2308 18.6606 23.8548C18.4497 24.3045 18.1424 24.6543 17.608 24.7225C17.3774 24.6861 17.2515 24.5317 17.1455 24.3456C17.1687 24.2518 17.1936 24.1711 17.1845 24.0712ZM17.8781 12.9507C17.7903 12.9608 17.7019 12.964 17.6136 12.9601C17.6817 12.3408 17.6487 11.7281 17.4841 11.1323C17.3374 10.6003 17.1132 10.099 16.7501 9.67811C16.6876 9.60598 16.6659 9.5746 16.7764 9.52159C17.0809 9.3766 17.2276 9.08592 17.3567 8.79054C17.5392 8.37362 17.6887 7.94444 17.7683 7.47775C17.7788 7.46116 17.7876 7.45864 17.8076 7.46369C17.8859 7.58018 17.8634 7.69883 17.8459 7.81352C17.7522 8.42303 17.6406 9.02749 17.4213 9.60598C17.3918 9.6828 17.3399 9.77369 17.4497 9.8368C17.5599 9.90028 17.6462 9.86493 17.7174 9.76756C17.8283 9.61572 17.9006 9.44297 17.9634 9.26624C18.0855 8.92398 18.1722 8.57126 18.2343 8.21277C18.2897 7.89251 18.288 7.89215 18.4974 7.66421C18.3241 7.63247 18.3181 7.49759 18.3325 7.36847C18.3546 7.16651 18.3339 6.95841 18.4185 6.75536C18.5757 6.74634 18.6164 6.86716 18.6606 6.97067C18.8045 7.30572 18.8795 7.66169 18.9206 8.0227C18.9525 8.30041 18.9732 8.57883 18.9381 8.86231C18.9134 9.08178 18.8573 9.29629 18.7715 9.49887C18.7641 9.51221 18.7638 9.50969 18.7645 9.50969C18.7659 9.50969 18.7536 9.52123 18.7529 9.52988C18.602 9.78595 18.4504 10.0334 18.3006 10.2819C18.269 10.3338 18.2406 10.3756 18.1911 10.301C18.1438 10.2288 18.1017 10.1286 17.9967 10.2144C17.9031 10.2912 17.8452 10.3828 17.9167 10.5184C18.1027 10.8719 18.2143 11.252 18.2887 11.6451C18.3431 11.9358 18.3231 12.2287 18.3132 12.5212C18.3087 12.6647 18.1929 12.7231 18.095 12.7927C18.0248 12.8425 17.9539 12.8908 17.8781 12.9507Z" fill="#C02C1F"/>
<path d="M15.2898 17.6829C15.3757 17.7604 15.4761 17.7731 15.567 17.7976C16.0561 17.9307 16.4287 18.2282 16.7287 18.6368C16.968 18.9625 17.2129 19.2838 17.3782 19.6596C17.4182 19.7502 17.4589 19.84 17.4617 19.9565C16.6638 19.603 15.9413 19.7458 15.2792 20.3085C15.1547 20.4145 15.0641 20.5512 14.9449 20.6767C14.8312 20.7535 14.7154 20.7741 14.5929 20.7741C14.2091 20.7755 13.828 20.7672 13.4877 20.5451C13.4392 20.5133 13.3975 20.4733 13.3357 20.4354C13.3259 20.427 13.3174 20.417 13.3105 20.4058C13.3041 20.3914 13.3013 20.3838 13.2894 20.3687C13.2192 20.293 13.2105 20.2075 13.208 20.1079C13.3098 19.9312 13.4792 19.9392 13.6494 19.9117C13.7441 19.9208 13.8234 19.9215 13.9178 19.9096C14.0599 19.8988 14.188 19.9063 14.3294 19.9049C14.3961 19.9107 14.448 19.9262 14.5133 19.9049C14.5484 19.893 14.5726 19.8887 14.608 19.8804L14.6761 19.8652C14.7091 19.8573 14.7312 19.8544 14.7641 19.8501C14.7931 19.8485 14.8216 19.8418 14.8484 19.8302C14.8926 19.8151 14.9277 19.8057 14.9715 19.7888C15.0466 19.77 15.1034 19.7361 15.1708 19.6993C15.187 19.6896 15.1936 19.686 15.2108 19.6777C15.2764 19.6467 15.3322 19.6214 15.3912 19.5778C15.4059 19.5655 15.4122 19.5608 15.4277 19.5496C15.4548 19.5352 15.4805 19.5179 15.5041 19.4981C15.5163 19.488 15.529 19.4789 15.5424 19.4707C15.8543 19.2153 16.0933 18.9199 16.201 18.5257C16.0115 18.7668 15.7802 18.9698 15.5189 19.1244C15.4908 19.0054 15.4287 18.9679 15.3199 18.974C15.1859 18.9813 15.0515 18.9787 14.9059 19.0116C14.8403 18.952 14.8624 18.8889 14.8827 18.828C14.988 18.5142 15.0487 18.195 15.008 17.8614C14.9994 17.8036 15.013 17.7446 15.0459 17.697C15.0547 17.6851 15.0663 17.6847 15.0722 17.684C15.1438 17.6825 15.2094 17.6818 15.2898 17.6829Z" fill="#EA5738"/>
<path d="M23.774 9.29526C23.7671 9.30439 23.7582 9.31179 23.7481 9.3169C23.7417 9.3187 23.7266 9.31221 23.7186 9.31329C23.7025 9.31448 23.6865 9.31775 23.6712 9.32303C23.6589 9.32835 23.6459 9.33163 23.6326 9.33276C23.6017 9.36162 23.5691 9.34611 23.5351 9.36198L23.5266 9.36919C23.5021 9.39408 23.4688 9.38253 23.4337 9.40021C23.4266 9.40958 23.4235 9.40526 23.4256 9.40742C23.4095 9.4186 23.3891 9.42149 23.3635 9.43555C23.2814 9.55276 23.394 9.49975 23.4126 9.50299C24.0477 9.61083 24.6709 9.75113 25.2347 10.0934C25.4326 10.2135 25.6028 10.365 25.7716 10.537C25.7547 10.5536 25.733 10.5638 25.7098 10.5662C25.6589 10.572 25.5986 10.5705 25.5807 10.6293C25.5575 10.7043 25.6288 10.726 25.6719 10.757C25.8666 10.8973 26.0631 11.0347 26.2635 11.1836C26.2722 11.2011 26.2838 11.2169 26.2979 11.2302C26.3052 11.2359 26.3021 11.2356 26.3024 11.2338C26.3621 11.312 26.4554 11.36 26.5024 11.4657C26.5158 11.4884 26.5228 11.5017 26.5354 11.5241C26.5593 11.5656 26.5775 11.5973 26.5828 11.6456C26.6249 11.7585 26.6677 11.8602 26.7126 11.9728C26.6965 12.2869 26.8224 12.5657 26.8589 12.8607C26.9281 13.4172 26.9003 13.9448 26.5175 14.405C26.5281 14.1338 26.5891 13.8604 26.5786 13.5773C26.5354 12.416 25.7765 11.4152 24.6161 11.2291C24.4684 11.2053 24.3224 11.2056 24.1596 11.1941C24.2389 11.0055 24.2077 10.8039 24.2123 10.6062C24.2137 10.5305 24.2014 10.4421 24.3059 10.4299C24.4 10.4191 24.4965 10.3888 24.4765 10.282C24.4554 10.1673 24.4702 10.0104 24.3109 9.96824C24.2442 9.95093 24.2224 9.91234 24.2109 9.8467C24.1835 9.68837 24.0431 9.6249 23.9105 9.72119C23.773 9.82109 23.6916 9.79513 23.5831 9.66529C23.4968 9.56214 23.3481 9.53906 23.2077 9.54411C23.1477 9.54627 23.0551 9.55204 23.1154 9.44637C23.2175 9.26749 23.1554 9.14991 23.0042 9.05181C22.9919 9.04388 22.9891 9.02152 22.98 8.99375C23.2877 8.9227 23.5873 8.99267 23.8852 9.06444C23.973 9.08535 24.0638 9.10122 24.1484 9.13693C24.2049 9.16109 24.2744 9.17119 24.2663 9.27362C24.2495 9.30608 24.233 9.31509 24.1968 9.31293C24.053 9.25162 23.9168 9.29129 23.774 9.2949V9.29526Z" fill="#F05232"/>
<path d="M23.2428 11.5951C23.3432 11.5879 23.4337 11.589 23.5246 11.5879C23.5853 11.5872 23.6382 11.6009 23.6649 11.6637C23.7081 11.7661 23.7677 11.8404 23.8902 11.8443C23.94 11.8461 23.9347 11.9028 23.9375 11.9561C23.9228 11.9727 23.9081 11.9756 23.8821 11.9781C23.6656 11.9699 23.48 12.0369 23.2961 12.1455C23.2888 12.1549 23.2863 12.1527 23.2877 12.1534C23.2502 12.1765 23.2 12.1711 23.1579 12.2147C23.1382 12.2324 23.1164 12.2474 23.093 12.2595C22.8582 12.319 22.7137 12.4852 22.5751 12.672C22.5669 12.6985 22.5537 12.7231 22.5361 12.7442C22.5232 12.7557 22.5193 12.7622 22.5067 12.7752C22.4919 12.7921 22.4856 12.8022 22.4716 12.8163C22.4591 12.8272 22.4472 12.8389 22.4361 12.8513C22.4312 12.8578 22.4302 12.856 22.4312 12.8563C22.4203 12.8653 22.4105 12.8756 22.4021 12.887C22.3975 12.8942 22.3961 12.8917 22.3975 12.892C22.3852 12.9018 22.3751 12.9142 22.3681 12.9285C22.3646 12.9379 22.3639 12.9508 22.3611 12.9566C22.3535 12.968 22.3449 12.9786 22.3354 12.9883L22.3274 12.997C22.3175 13.0068 22.3081 13.0172 22.2993 13.028C22.2944 13.0349 22.2944 13.0323 22.2954 13.0331C22.1832 13.1294 22.127 13.2581 22.0919 13.4107C22.087 13.4477 22.0769 13.4838 22.0618 13.5178C21.9782 13.6491 21.9228 13.7789 21.9242 13.9398C21.9182 13.9502 21.9172 13.9477 21.9182 13.9484C21.8681 14.0068 21.8775 14.0819 21.8761 14.1489C21.8667 14.5085 21.8333 14.8688 21.9098 15.2388C21.9218 15.263 21.9239 15.2749 21.9239 15.2958C21.9246 15.3272 21.933 15.3488 21.9414 15.3809C21.9502 15.4055 21.9533 15.4206 21.9568 15.4466C21.9154 15.6954 22.0554 15.8772 22.1414 16.0871C22.1514 16.1073 22.1583 16.129 22.1621 16.1513C22.1091 16.3259 22.1281 16.4586 22.2737 16.5751C22.3446 16.6317 22.3895 16.7475 22.3688 16.8434C22.3333 17.0086 22.3863 17.1078 22.5365 17.1799C22.5754 17.2917 22.5898 17.3952 22.5919 17.5009C22.5933 17.5762 22.6102 17.6415 22.7028 17.6704C22.7173 17.6785 22.7307 17.6885 22.7428 17.6999C22.7891 17.7937 22.7498 17.8384 22.667 17.8633C22.7207 17.8842 22.774 17.8687 22.8291 17.9008C22.8502 17.9189 22.8586 17.9326 22.8695 17.9585C22.88 18.0007 22.8863 18.0314 22.9028 18.0725C22.9074 18.0931 22.9084 18.1014 22.9109 18.123C22.9225 18.2745 22.8653 18.3632 22.7186 18.3957C22.702 18.3959 22.6854 18.3942 22.6691 18.3906C22.6396 18.3809 22.6125 18.3644 22.5902 18.3423C22.5744 18.3336 22.5677 18.3315 22.5516 18.3239C22.3151 17.9463 22.12 17.556 21.9404 17.1586C21.6807 16.5837 21.4565 15.993 21.3572 15.3643C21.1782 14.2304 21.3393 13.1694 22.0544 12.2465C22.1737 12.0928 22.3081 11.9453 22.4849 11.8342C22.5723 11.9118 22.5067 11.9908 22.4874 12.0665C22.8214 12.047 23.0453 11.8548 23.2428 11.5951Z" fill="#C02C1F"/>
<path d="M16.6036 8.4389C16.6025 8.47532 16.5998 8.51166 16.5955 8.54782C16.572 8.60336 16.5752 8.66323 16.5646 8.72202C16.5359 8.76926 16.5366 8.81038 16.5362 8.86339C16.5348 8.91388 16.5338 8.95248 16.5292 9.00441C16.5249 9.02246 16.5179 9.03973 16.5085 9.05562C16.5039 9.09277 16.505 9.12306 16.498 9.15084C16.4545 9.31998 16.4127 9.33729 16.2797 9.22874C16.0383 9.03218 15.7966 8.83743 15.5306 8.67477C14.8583 8.2629 14.1085 8.07861 13.3601 7.89647C12.7699 7.75293 12.2082 7.56215 11.7513 7.11349C11.611 6.89602 11.6324 6.68323 11.7594 6.46143C12.2871 7.10484 13.0117 7.28733 13.765 7.39625C14.432 7.49254 15.0913 7.61192 15.6927 7.95057C15.8734 8.05228 16.0429 8.16769 16.2131 8.32205C16.2436 8.07752 16.3148 7.84093 16.3952 7.61805C16.4127 7.54195 16.4317 7.47775 16.4587 7.40526C16.5973 7.35693 16.6208 7.46766 16.6152 7.54159C16.5966 7.78467 16.7117 8.02848 16.6061 8.27011C16.5857 8.317 16.6099 8.37326 16.6036 8.4389Z" fill="#F9D8C8"/>
<path d="M11.1186 4.85559C11.2308 5.03952 11.2056 5.2469 11.2551 5.4366C11.2565 5.44237 11.2551 5.44886 11.2568 5.45427C11.3849 5.82863 11.3287 6.17054 11.1751 6.5384C10.9919 6.9766 11.0751 7.4386 11.2814 7.86381C11.3456 7.99618 11.3245 8.05027 11.1936 8.10798C10.7955 8.27986 10.4198 8.50231 10.0754 8.77014C9.97189 8.7128 9.97084 8.60785 9.95014 8.51336C9.93646 8.45132 9.94593 8.38496 9.91295 8.31067C9.85681 7.71919 9.88453 7.21355 10.2929 6.26791C10.3922 6.03781 10.508 5.81493 10.6428 5.5888L10.6645 5.54588C10.6768 5.52208 10.6849 5.50945 10.6986 5.48781C10.7361 5.43877 10.7631 5.38322 10.7954 5.33093L10.8277 5.27359C10.9319 5.13004 10.9596 4.94719 11.1186 4.85559Z" fill="#F05232"/>
<path d="M11.1182 22.6975C11.1708 22.6773 11.201 22.7162 11.2336 22.7479C12.1224 23.6146 13.5287 23.8876 14.6308 23.2439C14.7199 23.4105 14.782 23.5876 14.8855 23.7426C14.9255 23.8025 14.9217 23.8422 14.8669 23.888C14.6718 24.051 14.5438 24.2638 14.4526 24.5011C14.4304 24.5581 14.4034 24.5851 14.3417 24.5848C13.2954 24.5761 11.6961 24.0856 11.1182 22.6975Z" fill="#EAAF93"/>
<path d="M17.3751 16.2334C17.1681 16.2283 17.0042 16.3044 16.8635 16.4379C16.8204 16.479 16.7758 16.4945 16.7249 16.4667C16.6688 16.436 16.6863 16.3935 16.714 16.3495C16.7342 16.3205 16.7445 16.2856 16.7437 16.25C16.7428 16.2144 16.7307 16.1801 16.7091 16.1522C16.6642 16.0891 16.6761 16.0184 16.6733 15.934C16.7235 15.8868 16.7737 15.8539 16.8347 15.8179C16.8695 15.7879 16.9028 15.8013 16.9386 15.7836C16.946 15.775 16.9474 15.7771 16.9456 15.7771C16.9573 15.7687 16.9674 15.7583 16.9758 15.7465C17.3183 15.5009 17.6547 15.2621 17.9397 14.9541C18.194 14.6793 18.4007 14.3753 18.5165 14.0121C18.5305 13.9674 18.5361 13.9277 18.5902 13.9064C18.7218 13.8538 18.8498 13.791 18.9919 13.7344C18.994 13.8148 18.9779 13.8895 18.9986 13.9739C19.027 14.0893 19.0067 14.2039 18.9344 14.306C18.9067 14.345 18.8432 14.3843 18.8807 14.4395C18.9084 14.4802 18.9656 14.4449 19.0098 14.4438C19.0439 14.4427 19.0779 14.4398 19.1249 14.4373C19.0221 14.675 18.8561 14.878 18.6874 15.0749C18.306 15.52 17.9074 15.9488 17.3751 16.2337V16.2334Z" fill="#EBAB8E"/>
<path d="M9.79267 10.5927C9.78601 10.5999 9.77864 10.6089 9.77864 10.6143C9.77934 10.6233 9.77813 10.6323 9.7751 10.6408C9.77207 10.6493 9.76729 10.657 9.76109 10.6634C9.75443 10.6706 9.74706 10.6814 9.74636 10.6879C9.74325 10.7095 9.73623 10.7303 9.72566 10.7492C9.69443 10.8188 9.71513 10.8855 9.68916 10.9584C9.59548 11.1409 9.44706 11.2736 9.37548 11.4723C9.28074 11.6635 9.23408 11.8557 9.19688 12.0519C9.1825 12.1276 9.17653 12.2264 9.04425 12.1947C8.9818 10.8484 9.51197 9.80896 10.5741 9.05231C11.2671 8.55929 12.066 8.38437 12.8843 8.27942C12.957 8.26695 13.0318 8.27791 13.0983 8.3108C13.1123 8.3144 13.1123 8.3108 13.1109 8.31044C13.1095 8.30972 13.1172 8.32126 13.1169 8.32775C13.0776 8.43811 12.9818 8.4309 12.9011 8.44677C12.1046 8.59932 11.3607 8.87595 10.7292 9.41693C10.5544 9.5666 10.3716 9.70906 10.2292 9.90922C10.2232 9.93411 10.2176 9.94601 10.199 9.95936C10.1895 9.96296 10.1927 9.96296 10.1923 9.96116C10.1895 9.97198 10.1836 9.9828 10.1664 9.99578C10.1586 10.0005 10.1614 10.0012 10.1611 9.99939C10.1546 10.0119 10.1455 10.0227 10.1344 10.0311C10.1181 10.0474 10.1034 10.0653 10.0906 10.0845C10.0818 10.1231 10.059 10.1418 10.0337 10.1711C10.026 10.1783 10.019 10.1851 10.0193 10.1902C10.0158 10.2273 9.98285 10.2389 9.96566 10.2749C9.95969 10.2843 9.95723 10.285 9.95759 10.2861C9.9432 10.3013 9.93513 10.32 9.91969 10.346C9.90987 10.3618 9.90425 10.3683 9.89478 10.3878C9.86952 10.4077 9.87267 10.4289 9.86145 10.4527C9.85618 10.4603 9.85443 10.461 9.85443 10.4621C9.83864 10.4765 9.83794 10.4971 9.82636 10.5234L9.82039 10.531C9.80566 10.5461 9.80355 10.566 9.79232 10.5923L9.79267 10.5927Z" fill="#F9D8C8"/>
<path d="M15.0392 17.684C15.1182 18.1338 15.0631 18.5669 14.8919 18.9975C14.6627 19.0632 14.429 19.0581 14.1961 19.0682C14.0957 19.0729 14.0592 19.0448 14.0448 18.9398C13.9652 18.3628 13.6427 17.978 13.1315 17.7472C13.0683 17.7187 12.9789 17.7107 13.0034 17.5859C13.6736 17.6952 14.3483 17.6977 15.0392 17.684Z" fill="#FCE6DD"/>
<path d="M18.7741 9.50611C18.7608 9.2825 18.8544 9.07188 18.8758 8.84322C18.9236 8.34552 18.8502 7.86909 18.7348 7.39339C18.6801 7.16726 18.6257 6.93932 18.445 6.76332C18.3495 6.71103 18.3587 6.62375 18.358 6.54585C18.3562 6.34388 18.352 6.14191 18.3334 5.9266C18.3383 5.8689 18.3534 5.82706 18.3499 5.7708C18.3478 5.75501 18.3455 5.73926 18.3429 5.72355C18.3405 5.68368 18.3295 5.64485 18.3106 5.60995C18.2925 5.57024 18.2849 5.52633 18.2885 5.48263C18.3155 5.3986 18.3236 5.30952 18.4453 5.34486C18.4569 5.3528 18.4555 5.35388 18.4558 5.35316C18.4699 5.36903 18.4716 5.39067 18.4888 5.41447C18.498 5.41988 18.4944 5.42096 18.4944 5.41916C18.4993 5.43276 18.5079 5.44457 18.5194 5.45306C18.5264 5.45847 18.5243 5.45883 18.525 5.45775C18.5422 5.48804 18.5622 5.51762 18.586 5.55657C18.593 5.56486 18.5923 5.56522 18.5927 5.56486C18.6071 5.58037 18.6088 5.60129 18.6232 5.62654C18.958 6.2108 19.1706 6.82644 19.2113 7.49834C19.2358 7.90227 19.225 8.3026 19.1481 8.70149C19.0909 9.00119 18.978 9.2688 18.7741 9.50611Z" fill="#F05232"/>
<path d="M9.03042 12.2027C9.11779 12.1911 9.12551 12.137 9.13638 12.0656C9.16796 11.8557 9.20831 11.6466 9.33042 11.4543C9.40059 11.3858 9.45463 11.3079 9.57007 11.3569C9.61954 11.4302 9.58761 11.4886 9.56656 11.5492C9.36867 12.1226 9.33428 12.7062 9.47638 13.2966C9.53603 13.5454 9.67042 13.7589 9.82937 13.954C9.89252 14.0316 9.97217 14.0886 10.0609 14.1326C10.3157 14.2584 10.5238 14.2 10.6845 13.958C10.7294 13.8906 10.7497 13.8065 10.8311 13.7503C11.0216 13.7672 11.0567 13.808 11.0539 14.0027L11.0536 14.0766C11.0027 14.1755 10.9753 14.2822 10.8574 14.3273C10.7164 14.3681 10.662 14.5148 10.5255 14.5527C10.1795 14.6483 9.9013 14.5621 9.65463 14.2938C9.45884 14.081 9.28761 13.8628 9.14972 13.6006C9.06761 13.4444 9.04796 13.2893 9.00024 13.1191C9.06796 12.9464 9.0213 12.7794 9.03042 12.6164C9.03814 12.4844 9.02937 12.3516 9.03042 12.2027Z" fill="#F9F6F6"/>
<path d="M16.6099 8.44156C16.5471 8.3514 16.5246 8.2515 16.6061 8.15015C16.6222 8.12996 16.6387 8.08271 16.6299 8.07333C16.4839 7.91753 16.5987 7.73215 16.5717 7.56373C16.5611 7.49953 16.5576 7.43641 16.4797 7.39963C16.6103 6.9571 16.8096 6.54343 17.0359 6.14491C17.2801 5.71428 17.4499 5.24976 17.6569 4.79028C17.8243 4.81625 17.8187 4.967 17.8727 5.09179C17.8878 5.1495 17.8882 5.19494 17.8822 5.25409C17.8752 5.30169 17.8611 5.33415 17.8559 5.38176C17.8545 5.40782 17.8506 5.43367 17.8443 5.45894C17.8106 5.54261 17.8155 5.62881 17.7436 5.69481C17.5566 6.12291 17.3478 6.52612 17.1422 6.93078C16.9016 7.40856 16.7227 7.91656 16.6099 8.44192V8.44156Z" fill="#F9D8C8"/>
<path d="M11.7492 19.0735C11.5685 19.0832 11.3983 19.0897 11.2281 19.0901C11.0474 19.0901 11.0222 19.0602 11.0643 18.8723C11.1523 18.4784 11.3885 18.2166 11.7702 18.1243C12.0495 18.0568 12.3359 17.9865 12.6401 18.0828C12.9573 18.2765 12.9664 18.5264 12.6657 18.732C12.5674 18.7994 12.5639 18.908 12.4966 19.0007C12.365 19.0566 12.2485 19.0519 12.1295 18.9657C12.0776 18.9141 12.0909 18.851 12.0618 18.794C12.032 18.8423 12.0537 18.8943 12.0306 18.9491C11.9569 19.0483 11.8541 19.0461 11.7495 19.0735H11.7492Z" fill="#CA6149"/>
<path d="M19.509 9.62598C19.5753 9.73309 19.5465 9.85211 19.549 9.96788C19.5501 10.0256 19.5164 10.0851 19.4665 10.0894C19.2557 10.1085 19.3013 10.2651 19.3227 10.3859C19.3392 10.4804 19.3416 10.5547 19.283 10.6311C19.255 10.6676 19.2318 10.7166 19.2487 10.7631C19.2837 10.8612 19.2444 10.9308 19.1837 11.0001C19.129 11.0621 19.1251 11.1155 19.2364 11.1353C19.2206 11.3741 19.129 11.5908 19.0427 11.8213C19.0275 11.8341 19.0145 11.8493 19.0041 11.8664C18.9216 11.8902 18.9094 11.8231 18.8844 11.7593C18.8202 11.5479 18.7722 11.3413 18.6858 11.1534C18.602 10.9705 18.6423 10.8194 18.7185 10.6564C18.9058 10.2553 19.1743 9.92063 19.509 9.62598Z" fill="#FCE6DD"/>
<path d="M14.7958 19.8845C14.766 19.8953 14.7446 19.9007 14.7116 19.9061C14.6935 19.9052 14.6756 19.9105 14.6607 19.9213C14.6267 19.9285 14.6011 19.9321 14.5618 19.935C14.4986 19.9353 14.4512 19.9584 14.3898 19.9566C14.2404 19.9613 14.1014 19.9638 13.9463 19.9638C13.8481 19.944 13.7653 19.9555 13.6712 19.958C13.5119 19.9804 13.3674 20.0093 13.2228 20.0893C13.2088 19.8019 13.4239 19.5945 13.7428 19.584C14.0326 19.5743 14.3218 19.6421 14.613 19.5855C14.9298 19.5242 15.227 19.4268 15.4635 19.1675C15.4786 19.1556 15.4835 19.1495 15.4983 19.1372C15.5081 19.1307 15.507 19.1264 15.5091 19.1257C15.6032 19.0615 15.6849 19.0831 15.7456 19.1682C15.8112 19.2602 15.7337 19.3139 15.6786 19.3695C15.6359 19.4136 15.5949 19.4593 15.5554 19.5065C15.547 19.518 15.5428 19.5148 15.5449 19.5159C15.5154 19.5325 15.4818 19.5444 15.4495 19.579C15.4435 19.5884 15.44 19.5851 15.4425 19.5862C15.3797 19.6252 15.2979 19.6313 15.2407 19.707C15.2325 19.7156 15.222 19.7215 15.2105 19.724C15.139 19.7521 15.0691 19.7626 15.0028 19.8131C14.9561 19.8347 14.9186 19.8498 14.8695 19.8646C14.8435 19.8631 14.8177 19.87 14.7958 19.8845Z" fill="#FCE6DD"/>
<path d="M10.7081 5.52637C10.5193 5.9469 10.2807 6.33893 10.1506 6.7829C10.1 6.95529 10.052 7.12877 9.99758 7.31415C9.93056 7.46778 9.8446 7.56769 9.66284 7.51142C9.67302 6.881 9.886 6.31765 10.1544 5.77234C10.2183 5.64251 10.3 5.52205 10.3832 5.39113C10.4467 5.35615 10.4885 5.39221 10.5007 5.43116C10.5369 5.54657 10.6137 5.539 10.7081 5.52637Z" fill="#F9D8C8"/>
<path d="M12.2074 19.5689C12.4099 19.5573 12.6022 19.5577 12.7948 19.5526C12.8931 19.5501 12.9166 19.5786 12.865 19.6717C12.7451 19.8841 12.7058 20.1346 12.7548 20.3749C12.7208 20.5892 12.6289 20.7479 12.4408 20.8315C12.1973 20.9397 11.9548 20.8337 11.8706 20.5693C12.1131 20.428 12.1429 20.1971 12.159 19.958C12.1678 19.8314 12.1334 19.6994 12.2074 19.5689Z" fill="#FBCBA7"/>
<path d="M12.4801 18.9913C12.4931 18.8326 12.5152 18.7183 12.6906 18.653C12.8661 18.5881 12.8738 18.3443 12.7394 18.1986C12.7102 18.166 12.683 18.1316 12.658 18.0955C13.0422 18.1099 13.4405 18.4208 13.5377 18.7735C13.6029 19.0104 13.5489 19.0873 13.3096 19.0891C13.0363 19.0912 12.7629 19.0891 12.4735 19.0869C12.4429 19.0519 12.4626 19.0274 12.4801 18.9913Z" fill="#862A19"/>
<path d="M16.119 20.8777C15.6888 21.225 15.4464 21.6903 15.298 22.2204C15.2526 22.3943 15.1827 22.5604 15.0906 22.7135C14.946 21.9467 15.0643 21.2423 15.6671 20.6736C15.7271 20.9069 15.8485 20.9827 16.0636 20.8557C16.0755 20.8485 16.0959 20.8608 16.119 20.8777ZM15.686 24.7476C15.5043 24.7576 15.3338 24.7551 15.1632 24.762C15.0425 24.7674 15.0439 24.7162 15.0895 24.6285C15.2699 24.2787 15.5506 24.0742 15.9309 24.0212C16.345 23.9635 16.713 24.1092 17.0759 24.3148C17.0246 24.4266 16.926 24.397 16.8404 24.3887C16.7152 24.3764 16.5913 24.3562 16.465 24.3671C16.2208 24.3873 15.9913 24.445 15.8222 24.648C15.7878 24.6888 15.7411 24.7118 15.686 24.7476Z" fill="#FCE6DD"/>
<path d="M15.6908 24.7586C15.8371 24.4348 16.121 24.3248 16.4455 24.3093C16.648 24.2995 16.8515 24.3226 17.0694 24.3266C17.0992 24.3255 17.1136 24.3287 17.1396 24.3327C17.2866 24.4658 17.4087 24.6144 17.5866 24.7125C17.5189 24.7449 17.4431 24.7633 17.362 24.763C16.8104 24.7612 16.2589 24.7619 15.6908 24.7586ZM11.281 20.091C11.3055 20.3713 11.1957 20.5895 10.9925 20.6807C10.7806 20.7756 10.616 20.6656 10.4676 20.5321C10.2725 20.3568 10.2255 20.1278 10.3276 19.8757C10.5757 19.9518 10.8255 19.9648 11.0725 19.9951C11.1448 20.0041 11.2217 20.0124 11.281 20.091Z" fill="#EA5738"/>
<path d="M22.5382 21.7137C22.7417 21.5893 22.7157 21.3631 22.7978 21.1774C22.8266 21.1659 22.8452 21.1709 22.868 21.1926C23.027 21.3209 23.0621 21.4775 23.0291 21.6686C22.9529 22.1101 22.7491 22.4808 22.4557 22.8043C22.4157 22.8487 22.3715 22.8949 22.2698 22.9068C22.4891 22.5291 22.4873 22.122 22.5382 21.7137Z" fill="#C02C1F"/>
<path d="M16.1366 20.8834C16.0552 20.8809 15.998 20.9159 15.9401 20.9534C15.7731 21.0616 15.6959 21.0223 15.6805 20.8225C15.6773 20.7825 15.6798 20.7417 15.6787 20.6858C16.0612 20.3407 16.4962 20.244 16.9934 20.3652C16.9366 20.5563 16.764 20.5873 16.5959 20.6461C16.538 20.6577 16.4962 20.6779 16.4436 20.7002C16.4344 20.7062 16.4243 20.7107 16.4138 20.7136C16.3506 20.7395 16.2917 20.7576 16.237 20.8088C16.2019 20.8384 16.1738 20.8593 16.1366 20.8834ZM12.2019 19.5562C12.2145 19.8253 12.2412 20.0936 12.152 20.3526C12.1092 20.477 12.0415 20.5661 11.8882 20.5697C11.7833 20.5776 11.785 20.4975 11.7566 20.4305C11.8162 20.1131 11.7338 19.8347 11.5808 19.553C11.7948 19.553 11.9906 19.553 12.2019 19.5562Z" fill="#FCE6DD"/>
<path d="M11.7466 20.4315C11.8185 20.4387 11.821 20.5116 11.8666 20.5624C12.115 20.9685 12.5487 20.86 12.6933 20.4694C12.7053 20.4406 12.7224 20.4143 12.7438 20.3918C12.7775 20.4481 12.7876 20.5181 12.8255 20.565C12.9683 20.742 12.8747 20.8427 12.7283 20.9375C12.2799 21.2293 12.4041 21.2397 11.9336 20.9361C11.9096 20.9206 11.8865 20.9036 11.8645 20.8852C11.6715 20.7229 11.6603 20.6822 11.7466 20.4315Z" fill="#D89F68"/>
<path d="M9.64738 7.5164C9.78352 7.49656 9.89124 7.44355 9.98071 7.32886C9.95264 7.64263 9.95054 7.96073 9.96001 8.29541C9.95299 8.58033 9.94036 8.59837 9.74036 8.60089C9.63826 8.24972 9.60662 7.88088 9.64738 7.51676V7.5164Z" fill="#F9D8C8"/>
<path d="M11.2905 20.0899C11.0632 20.0387 10.8309 20.0257 10.5986 20.008C10.5004 20.0004 10.4039 19.9921 10.3467 19.8746C10.4386 19.5969 10.7151 19.493 10.9737 19.634C11.1467 19.7281 11.2604 19.8728 11.2905 20.0899Z" fill="#FCE6DD"/>
<path d="M11.9398 24.4511C12.1152 24.5499 12.2805 24.6415 12.492 24.7591L11.4064 24.7587C11.3299 24.7587 11.3233 24.714 11.3482 24.653C11.4078 24.5088 11.5127 24.4016 11.625 24.3007C11.6699 24.2603 11.7106 24.2848 11.7489 24.3115C11.8099 24.354 11.8696 24.3995 11.9398 24.4511Z" fill="#C02C1F"/>
<path d="M10.7158 5.53398C10.5712 5.6887 10.4912 5.64831 10.4614 5.4467C10.4586 5.42831 10.4319 5.41352 10.4045 5.39116C10.5358 5.15313 10.7 4.9389 10.9084 4.7665C10.9986 4.69185 11.0979 4.66191 11.1273 4.84801C11.0088 4.98867 10.9624 5.16178 10.8551 5.30965C10.8416 5.32355 10.8302 5.33933 10.821 5.35654C10.8186 5.36519 10.8158 5.3789 10.8119 5.38431L10.7884 5.41929C10.7737 5.44634 10.7656 5.46365 10.7509 5.48781C10.7388 5.49994 10.7278 5.51309 10.7179 5.52713C10.7144 5.53434 10.7151 5.53326 10.7158 5.53434V5.53398Z" fill="#F9D8C8"/>
<path d="M22.6277 18.3404C22.6365 18.3468 22.6468 18.3507 22.6575 18.3519C22.6842 18.3667 22.7067 18.3663 22.7291 18.3685C22.9052 18.3851 22.9116 18.3793 22.8965 18.199C22.894 18.1701 22.8954 18.1413 22.8838 18.1016C22.8803 18.0901 22.8824 18.0789 22.8803 18.0738C22.87 18.0657 22.8617 18.0551 22.8561 18.043C22.8505 18.0309 22.8477 18.0176 22.8481 18.0042C22.8474 17.9821 22.8445 17.9601 22.8396 17.9386C22.801 17.9025 22.7712 17.8737 22.7961 17.803C22.9435 17.931 22.9624 18.1261 23.0119 18.3079C23.1056 18.652 23.0351 18.9971 23.0119 19.3578C22.855 19.0288 22.7084 18.6948 22.5723 18.3562C22.5937 18.3299 22.6067 18.3292 22.6277 18.3404Z" fill="#430609"/>
<path d="M13.3269 20.4366C13.3409 20.4276 13.3613 20.424 13.3746 20.4327C13.8504 20.7414 14.3725 20.7446 14.9206 20.6815C14.8985 20.7764 14.8409 20.8431 14.736 20.8474C14.4073 20.8601 14.0799 20.8582 13.7641 20.7414C13.5944 20.6821 13.4433 20.5768 13.3269 20.4366Z" fill="#C02C1F"/>
<path d="M15.1045 22.8684C15.234 22.9038 15.3003 23.0285 15.4031 23.109C15.5431 23.2186 15.6964 23.3008 15.8508 23.4011C15.7547 23.4314 15.6441 23.4285 15.5575 23.4739C15.3768 23.5688 15.3119 23.4675 15.2592 23.3225C15.2042 23.1724 15.1524 23.021 15.1045 22.8684Z" fill="#C02C1F"/>
<path d="M17.8613 5.11081C17.7726 5.01596 17.7736 4.88143 17.6775 4.78802C17.7526 4.6737 17.8445 4.70796 17.9364 4.77143C18.1484 4.91786 18.3119 5.11189 18.4536 5.34127C18.3649 5.33983 18.3536 5.40907 18.3319 5.48481C18.2326 5.47399 18.2343 5.38491 18.2063 5.31963C18.1206 5.12127 18.0806 5.09458 17.8613 5.11117V5.11081Z" fill="#F05232"/>
<path d="M26.5069 11.5421C26.4322 11.4335 26.3676 11.3455 26.3027 11.2449C26.6873 11.4656 26.962 11.8075 27.1957 12.2028C27.141 12.2796 27.1069 12.2406 27.0589 12.1956C26.8869 12.0354 26.7873 11.8111 26.5936 11.6589C26.5604 11.6236 26.5314 11.5844 26.5073 11.5421H26.5069Z" fill="#F9D8C8"/>
<path d="M22.5454 17.1687C22.2829 17.12 22.2808 17.1197 22.3229 16.8629C22.3436 16.7384 22.2966 16.6411 22.2078 16.5707C22.0289 16.429 22.0141 16.3652 22.1531 16.1704C22.1927 16.2274 22.2222 16.292 22.2573 16.3673C22.3134 16.4438 22.3275 16.526 22.3608 16.6126C22.3689 16.6526 22.3762 16.6811 22.3913 16.7161C22.4496 16.7918 22.4633 16.8762 22.4976 16.9642C22.5019 16.9941 22.5047 17.0122 22.5134 17.0421C22.519 17.0544 22.5201 17.0699 22.5271 17.0728C22.5341 17.0757 22.5341 17.0793 22.5359 17.08C22.5524 17.1005 22.5615 17.1225 22.5454 17.1687Z" fill="#BA2D1F"/>
<path d="M9.73009 8.60476C9.89289 8.58493 9.93114 8.47024 9.95044 8.32129C9.99325 8.4569 10.0269 8.60152 10.0627 8.76021C9.85816 8.98922 9.85535 8.98886 9.76132 8.71585C9.74911 8.67935 9.73892 8.64228 9.73009 8.60476Z" fill="#F9D8C8"/>
<path d="M12.3797 17.7133C12.3081 17.7133 12.2513 17.7143 12.1945 17.7129C12.1678 17.7122 12.1327 17.7183 12.1243 17.6815C12.1127 17.6296 12.1088 17.5744 12.1541 17.5355C12.246 17.4568 12.3531 17.4539 12.4594 17.49C12.5225 17.5117 12.5636 17.5694 12.5481 17.6408C12.5299 17.7244 12.4562 17.7115 12.3797 17.7133Z" fill="#D89F68"/>
<path d="M12.4684 18.9806C12.5432 19.0188 12.5018 19.0437 12.4642 19.0773C12.2277 19.0843 11.991 19.0861 11.7544 19.0827C11.7937 18.9792 11.9137 19.0134 12.0004 18.9514C12.0358 18.9258 12.0583 18.9005 12.1056 18.9081C12.2204 18.9838 12.3358 18.9918 12.4684 18.9806Z" fill="#C02C1F"/>
<path d="M18.8782 11.7632C18.9168 11.787 18.949 11.8274 18.9915 11.8714C18.9399 11.9468 18.8897 12.0128 18.9276 12.1253C18.9522 12.1971 18.9354 12.284 18.9175 12.3651C18.8743 12.5635 18.8999 12.5992 19.1024 12.6464C19.1315 12.6536 19.1561 12.6616 19.1704 12.7045C19.1669 12.7175 19.161 12.7189 19.1557 12.7171C18.801 12.623 18.8704 12.6937 18.868 12.3565C18.8666 12.1642 18.8701 11.972 18.8782 11.7632Z" fill="#F05232"/>
<path d="M22.7538 17.6959C22.5783 17.7464 22.5166 17.6717 22.5317 17.5018C22.5397 17.4088 22.5327 17.3147 22.5324 17.205C22.5324 17.1884 22.5394 17.1812 22.5432 17.1776C22.5467 17.174 22.5625 17.174 22.5682 17.179C22.579 17.2043 22.5843 17.2241 22.5969 17.2512C22.6169 17.2746 22.618 17.2955 22.6292 17.323C22.6348 17.3312 22.6366 17.3482 22.6397 17.3561C22.6766 17.4081 22.691 17.4614 22.7078 17.5256C22.7134 17.5523 22.722 17.5782 22.7334 17.6028C22.758 17.6317 22.7657 17.6562 22.7538 17.6959ZM22.5846 12.6781C22.5096 12.5435 22.652 12.4977 22.7082 12.4469C22.8078 12.3567 22.892 12.2038 23.0752 12.2514C22.9204 12.3982 22.7573 12.5352 22.5846 12.6781ZM22.1492 16.083C21.9745 15.9766 21.8755 15.6863 21.9478 15.4663C22.0215 15.6621 22.0853 15.8659 22.1492 16.083ZM21.9197 15.2355C21.8636 15.2423 21.8478 15.2034 21.8482 15.1511L21.8496 14.0511C21.8496 14.0143 21.8664 13.984 21.9074 13.9551C21.8822 14.2148 21.8818 14.4824 21.8794 14.7508C21.878 14.9094 21.9022 15.0642 21.9197 15.2355Z" fill="#BA2D1F"/>
<path d="M22.8755 20.6682C22.8585 20.6079 22.8519 20.545 22.8558 20.4824C22.8656 20.3951 22.8193 20.2617 22.9151 20.2336C23.0032 20.2076 23.0527 20.3346 23.1151 20.415C22.9821 20.3454 22.9256 20.4063 22.9127 20.5477C22.9091 20.5866 22.9183 20.6306 22.8755 20.6682ZM23.3404 20.4824C23.3165 20.2354 23.2274 19.9948 23.1516 19.7373C23.3179 19.9447 23.3741 20.1961 23.3404 20.4824Z" fill="#430609"/>
<path d="M23.3014 12.1529C23.434 11.961 23.6361 11.9397 23.861 11.9679C23.6853 12.0357 23.4996 12.0934 23.3014 12.1529ZM22.1017 13.4145C22.0474 13.3016 22.1228 13.1378 22.2842 13.0347C22.2344 13.158 22.1723 13.2821 22.1017 13.4145Z" fill="#BA2D1F"/>
<path d="M19.752 13.9661C19.846 14.1154 19.8523 14.2849 19.7614 14.4659C19.7684 14.3101 19.7755 14.1464 19.752 13.9661Z" fill="#3C060C"/>
<path d="M21.9273 13.9411C21.8782 13.7886 21.928 13.6526 22.0417 13.5278C22.0143 13.6609 21.975 13.7965 21.9273 13.9411Z" fill="#BA2D1F"/>
<path d="M22.8755 21.183C22.8569 21.1938 22.8379 21.1887 22.8123 21.1758C22.8193 21.038 22.8327 20.9081 22.8499 20.7635C22.899 20.8861 22.8643 21.0279 22.8755 21.183ZM23.1292 19.6419C23.0832 19.5599 23.0439 19.4741 23.0116 19.3855C23.1071 19.4313 23.1544 19.5153 23.1292 19.6419ZM22.5064 16.9687C22.4386 16.9132 22.4295 16.827 22.4004 16.7361C22.493 16.7743 22.5025 16.8681 22.5064 16.9687Z" fill="#430609"/>
<path d="M19.7053 13.6663C19.7284 13.747 19.7414 13.835 19.7537 13.9378C19.6765 13.8722 19.6028 13.7907 19.7053 13.6663Z" fill="#3C060C"/>
<path d="M22.3694 16.6165C22.3017 16.5635 22.2947 16.4777 22.2634 16.3904C22.3575 16.4254 22.3659 16.5177 22.3694 16.6165Z" fill="#430609"/>
<path d="M16.3849 7.61389C7.49996 4.00012 7.49996 4.00012 16.3849 7.61389Z" fill="#F9D8C8"/>
<path d="M19.7841 13.1905C19.8536 13.2576 19.8851 13.3438 19.7957 13.4463C19.7863 13.3613 19.7823 13.2757 19.7837 13.1902L19.7841 13.1905Z" fill="#3C060C"/>
<path d="M22.7165 17.5293C22.6663 17.4979 22.6625 17.4391 22.6428 17.376C22.7225 17.3875 22.7172 17.4571 22.7165 17.5293ZM22.7467 17.7092C22.7449 17.6833 22.7425 17.6587 22.7404 17.6223C22.8267 17.6277 22.8011 17.7002 22.8098 17.7698C22.8109 17.7832 22.8088 17.785 22.8077 17.7857C22.7572 17.8037 22.7604 17.7637 22.7481 17.7236C22.7428 17.7128 22.746 17.711 22.7467 17.7092Z" fill="#430609"/>
<path d="M19.2024 12.7312C19.2557 12.7167 19.3206 12.7009 19.3715 12.7784C19.3133 12.7706 19.2564 12.7547 19.2024 12.7312ZM19.7747 13.4817C19.7887 13.5372 19.8073 13.6054 19.7263 13.6559C19.7312 13.6043 19.7491 13.5481 19.7747 13.4817ZM18.6856 15.9255C18.6957 15.9756 18.6856 16.0214 18.6077 16.025C18.6224 15.9933 18.6491 15.9616 18.6856 15.9255Z" fill="#F05232"/>
<path d="M23.1618 12.2219C23.1583 12.1498 23.2109 12.1516 23.2762 12.153C23.2412 12.181 23.2027 12.204 23.1618 12.2215V12.2219Z" fill="#BA2D1F"/>
<path d="M22.5806 17.1768C22.5736 17.1844 22.5596 17.1804 22.5533 17.1768C22.5437 17.1496 22.5382 17.121 22.5371 17.0921C22.5859 17.0913 22.6108 17.1159 22.5806 17.1768Z" fill="#430609"/>
<path d="M19.2685 15.259C19.2766 15.295 19.2776 15.3365 19.2159 15.3513C19.2266 15.3169 19.2446 15.2854 19.2685 15.259ZM19.7197 13.0481C19.7766 13.0377 19.7906 13.0755 19.7839 13.1419C19.757 13.1151 19.7352 13.0833 19.7197 13.0481ZM19.1201 15.4555C19.1362 15.488 19.1289 15.5161 19.0769 15.5262C19.0804 15.5042 19.0955 15.4818 19.1201 15.4555ZM18.5913 5.55371C18.5562 5.5483 18.5324 5.52161 18.526 5.46823C18.5471 5.48554 18.5682 5.51404 18.5913 5.55371ZM18.7892 15.8212C18.7948 15.8483 18.7829 15.8717 18.7425 15.8832C18.7529 15.859 18.769 15.8377 18.7892 15.8212ZM18.4962 5.40945C18.4846 5.40476 18.4713 5.38925 18.4573 5.36328C18.4692 5.36797 18.4818 5.38348 18.4959 5.40945H18.4962ZM19.7092 14.5795C19.7127 14.5939 19.7078 14.6155 19.6934 14.644C19.6899 14.6296 19.6955 14.6083 19.7092 14.5795Z" fill="#CA6149"/>
<path d="M23.2512 20.5803C23.26 20.5807 23.2695 20.5886 23.281 20.6056C23.2558 20.6261 23.2558 20.6045 23.2512 20.5803Z" fill="#430609"/>
<path d="M10.3298 21.1217C10.3193 21.117 10.3105 21.1029 10.301 21.0806C10.3105 21.0853 10.321 21.0986 10.3298 21.1217Z" fill="#948B8D"/>
<path d="M18.6292 5.62305C18.6187 5.61764 18.6064 5.60177 18.5938 5.57544C18.6043 5.58121 18.6162 5.59708 18.6288 5.62341L18.6292 5.62305Z" fill="#CA6149"/>
<path d="M22.6351 17.3208C22.6249 17.3136 22.6148 17.2967 22.6042 17.2686C22.6144 17.2758 22.6246 17.2931 22.6351 17.3208Z" fill="#430609"/>
<path d="M19.408 15.0829C19.4083 15.0958 19.4003 15.1142 19.3824 15.137C19.3817 15.1233 19.3904 15.1056 19.408 15.0829ZM19.5764 14.8326C19.5785 14.8463 19.5722 14.8661 19.5564 14.8917C19.5539 14.8777 19.561 14.8582 19.5764 14.8326ZM19.7445 14.477C19.749 14.4907 19.7452 14.5109 19.7329 14.5372C19.7283 14.5235 19.7325 14.5033 19.7445 14.477ZM19.6771 14.6537C19.6799 14.6681 19.6736 14.6883 19.6578 14.7139C19.6546 14.6991 19.6613 14.6793 19.6771 14.6537ZM19.5192 12.8692C19.5332 12.8666 19.5529 12.8735 19.5771 12.8901C19.5631 12.893 19.5441 12.8854 19.5192 12.8692Z" fill="#CA6149"/>
<path d="M21.9484 15.3786C21.9385 15.3699 21.9291 15.3494 21.9207 15.3169C21.9308 15.3256 21.94 15.3465 21.9487 15.3789L21.9484 15.3786Z" fill="#BA2D1F"/>
<path d="M19.1645 15.3956C19.1656 15.4096 19.1578 15.4287 19.1399 15.4515C19.1378 15.4367 19.147 15.4186 19.1645 15.3956ZM19.4522 12.8331C19.4656 12.8306 19.4849 12.8367 19.5094 12.8522C19.4961 12.8551 19.4771 12.8486 19.4522 12.8331ZM19.3831 12.7988C19.3961 12.796 19.4157 12.8014 19.4406 12.8162C19.4273 12.8198 19.408 12.8133 19.3831 12.7988ZM19.4719 14.9985C19.4743 15.005 19.4687 15.0172 19.4543 15.0338C19.4515 15.027 19.4578 15.0154 19.4719 14.9985ZM19.4396 15.0396C19.4459 15.0483 19.4403 15.0584 19.4242 15.0713C19.4217 15.0652 19.4266 15.054 19.4396 15.0396Z" fill="#CA6149"/>
<path d="M23.5779 21.9722C23.5828 21.9801 23.5789 21.9913 23.5681 22.0082C23.5635 22.001 23.566 21.9884 23.5779 21.9722Z" fill="#968C8F"/>
<path d="M19.5422 14.8983C19.545 14.9048 19.5394 14.9153 19.5257 14.9308C19.5233 14.9243 19.5285 14.9131 19.5422 14.8983ZM19.3682 15.1414C19.371 15.149 19.3647 15.1602 19.3499 15.175C19.3471 15.1677 19.3535 15.1566 19.3682 15.1414ZM19.3363 15.1789C19.3384 15.1861 19.3324 15.197 19.3177 15.2114C19.3152 15.2042 19.3212 15.1934 19.3363 15.1789ZM19.1984 15.3553C19.2008 15.3618 19.1952 15.3722 19.1815 15.3867C19.1791 15.3798 19.185 15.3694 19.1984 15.3553ZM18.5254 5.44988C18.5184 5.45168 18.5089 5.44375 18.4973 5.42644C18.5043 5.42499 18.5135 5.43257 18.5254 5.44988Z" fill="#CA6149"/>
<path d="M22.5053 12.7794C22.5025 12.7733 22.5085 12.765 22.5222 12.7542C22.5267 12.761 22.5218 12.7697 22.5053 12.7794Z" fill="#BA2D1F"/>
<path d="M23.6892 25.3631C23.6969 25.3646 23.686 25.3754 23.686 25.3754C23.686 25.3754 23.6724 25.3732 23.6692 25.3689C23.6657 25.3649 23.6815 25.3617 23.6892 25.3631Z" fill="#948B8D"/>
<path d="M19.6436 14.7212C19.6506 14.7288 19.6467 14.7392 19.632 14.7522C19.6243 14.745 19.6278 14.7342 19.6436 14.7212ZM19.6085 14.7854C19.6117 14.7919 19.6064 14.8041 19.5931 14.8215C19.5896 14.815 19.5952 14.8031 19.6085 14.7854Z" fill="#CA6149"/>
<path d="M23.4123 22.3618C23.4193 22.3705 23.4144 22.3809 23.3993 22.3954C23.3961 22.3889 23.4 22.3773 23.4123 22.3618Z" fill="#968C8F"/>
<path d="M18.758 9.53471C18.7461 9.5307 18.7477 9.52189 18.7639 9.51227C18.7686 9.50946 18.7627 9.52669 18.758 9.53431V9.53471Z" fill="#EA5738"/>
<path d="M19.1397 14.4393C19.1428 14.4376 19.145 14.435 19.1482 14.4334C19.1488 14.433 19.1514 14.436 19.1529 14.4376C19.1504 14.4393 19.1479 14.4409 19.1416 14.4399C19.1384 14.4367 19.139 14.4386 19.1397 14.4393Z" fill="#EBAB8E"/>
<path d="M15.5027 19.1306C15.5052 19.1418 15.4985 19.1504 15.4813 19.1595C15.4743 19.1562 15.4754 19.1497 15.4803 19.1349C15.4845 19.1263 15.4964 19.1303 15.5027 19.1306Z" fill="#F9D8C8"/>
<path d="M22.3022 13.0315C22.2977 13.0236 22.304 13.0138 22.3205 13.0012C22.3219 13.007 22.3159 13.0171 22.3022 13.0315Z" fill="#BA2D1F"/>
<path d="M19.6887 13.0078C19.6954 13.006 19.7049 13.0136 19.7175 13.0295C19.7105 13.0313 19.701 13.0241 19.6887 13.0078Z" fill="#CA6149"/>
<path d="M22.3351 12.994C22.3313 12.9867 22.3372 12.9781 22.3523 12.9666C22.3579 12.9745 22.3527 12.9839 22.3351 12.994Z" fill="#BA2D1F"/>
<path d="M19.655 12.9719C19.6609 12.9701 19.6708 12.977 19.6841 12.9921C19.6778 12.9939 19.6683 12.9871 19.655 12.9719ZM19.6192 12.9377C19.6258 12.9355 19.6357 12.942 19.6497 12.9571C19.643 12.9593 19.6329 12.9528 19.6192 12.9377ZM18.722 15.8896C18.7262 15.8979 18.7199 15.9066 18.7037 15.9167C18.6981 15.908 18.7037 15.8986 18.722 15.8896Z" fill="#CA6149"/>
<path d="M22.3727 12.9328C22.3706 12.9267 22.3766 12.9148 22.391 12.8975C22.3934 12.904 22.3871 12.9155 22.3727 12.9328Z" fill="#BA2D1F"/>
<path d="M19.5825 12.9053C19.5895 12.9024 19.6001 12.9081 19.6148 12.9229C19.6078 12.9258 19.5973 12.9204 19.5825 12.9053Z" fill="#CA6149"/>
<path d="M26.305 11.226C26.2956 11.2293 26.285 11.2213 26.271 11.2044C26.2798 11.2011 26.292 11.208 26.305 11.226Z" fill="#F9D8C8"/>
<path d="M22.406 12.8916C22.4043 12.8851 22.4106 12.875 22.425 12.8609C22.4267 12.867 22.4208 12.8775 22.406 12.8916ZM22.439 12.8548C22.4348 12.8468 22.4408 12.8375 22.4573 12.8252C22.4622 12.8328 22.4562 12.8432 22.439 12.8548Z" fill="#BA2D1F"/>
<path d="M22.531 17.0711C22.5266 17.0734 22.5216 17.0698 22.519 17.0593C22.5194 17.0547 22.5291 17.0675 22.531 17.0711Z" fill="#430609"/>
<path d="M18.9937 15.6023C18.9958 15.6091 18.9902 15.6196 18.9758 15.634C18.9737 15.6275 18.9793 15.6167 18.9937 15.6023Z" fill="#CA6149"/>
<path d="M23.2218 20.5408C23.2305 20.5357 23.2393 20.5426 23.2474 20.5624C23.2397 20.5657 23.2316 20.5581 23.2218 20.5408ZM23.1888 20.504C23.1947 20.5029 23.2049 20.5094 23.2169 20.5256C23.2105 20.5271 23.2014 20.5199 23.1888 20.504ZM23.1547 20.469C23.1607 20.4672 23.1709 20.474 23.1842 20.4896C23.1779 20.4914 23.1681 20.4841 23.1547 20.469ZM23.1204 20.4333C23.1267 20.4319 23.1365 20.4387 23.1498 20.4542C23.1435 20.456 23.134 20.4488 23.1204 20.4333Z" fill="#430609"/>
<path d="M19.0267 15.5662C19.0291 15.5734 19.0228 15.5835 19.0077 15.5979C19.0056 15.5907 19.0119 15.5799 19.0267 15.5662Z" fill="#CA6149"/>
<path d="M13.2821 20.3697C13.2919 20.3647 13.3 20.3719 13.3063 20.3914C13.2958 20.3964 13.2884 20.3892 13.2821 20.3697Z" fill="#BA2E1F"/>
<path d="M19.06 15.5295C19.0624 15.5368 19.0564 15.5476 19.0414 15.562C19.0389 15.5548 19.0449 15.544 19.06 15.5295ZM18.9607 15.6399C18.9659 15.6486 18.9596 15.6587 18.9417 15.6698C18.94 15.6633 18.9463 15.6536 18.9607 15.6399ZM18.9266 15.6756C18.9319 15.6843 18.9252 15.694 18.9077 15.7052C18.9059 15.699 18.9122 15.689 18.9266 15.6756ZM18.8929 15.7113C18.8979 15.72 18.8912 15.7293 18.874 15.7405C18.8722 15.7344 18.8789 15.7247 18.8929 15.7113ZM18.8589 15.7467C18.8638 15.755 18.8579 15.7647 18.8414 15.7755C18.835 15.7672 18.8407 15.7575 18.8589 15.7467Z" fill="#CA6149"/>
<path d="M25.799 14.4746C25.8776 14.3014 26.0011 14.1471 26.0646 13.9581C26.0751 13.9264 26.0955 13.8896 26.1355 13.8939C26.1864 13.899 26.1937 13.9469 26.1944 13.9862C26.1976 14.1258 26.1958 14.2654 26.1923 14.4208C26.1397 14.2528 26.1387 14.252 26.0029 14.3793C25.9474 14.4306 25.8892 14.4717 25.799 14.4746ZM24.7639 15.9028C24.8555 15.8955 24.9555 15.9817 25.0355 15.9352C25.1176 15.888 25.0639 15.7653 25.0772 15.6766C25.1151 15.4198 25.1951 15.1829 25.365 14.9726C25.3632 15.1602 25.2011 15.29 25.1741 15.4804C25.1636 15.5533 25.1369 15.6247 25.1365 15.7015C25.1348 16.0171 25.0541 16.0629 24.7639 15.9028ZM25.5587 14.7555C25.5622 14.6906 25.6078 14.6509 25.6706 14.6105C25.6972 14.6964 25.6485 14.736 25.5587 14.7555ZM25.3871 14.9665C25.3857 14.9124 25.4211 14.8742 25.4699 14.8338C25.4804 14.8915 25.4723 14.9485 25.3871 14.9665ZM25.4874 14.8248C25.4864 14.819 25.4923 14.8092 25.5064 14.7952C25.5106 14.8028 25.5043 14.8125 25.4874 14.8248ZM25.7622 14.5077C25.7569 14.4998 25.7629 14.4897 25.7804 14.4778C25.7846 14.4857 25.7783 14.4951 25.7622 14.5077Z" fill="#3C060C"/>
<path d="M23.2434 11.5793C23.261 11.7236 23.2399 11.8354 23.0718 11.8379C23.0515 11.8379 23.0175 11.8505 23.0129 11.8646C22.922 12.1646 22.6206 12.0341 22.4455 12.1592C22.422 12.1758 22.3887 12.1841 22.375 12.1484C22.369 12.1329 22.3796 12.099 22.3932 12.0889C22.4704 12.0316 22.482 11.9454 22.4968 11.8458C22.4968 11.8321 22.4971 11.8332 22.4971 11.8332C22.5978 11.7614 22.7248 11.7261 22.7999 11.5991C22.8806 11.5598 22.935 11.4913 23.0301 11.4794C23.1315 11.4534 23.1729 11.5342 23.2434 11.5793Z" fill="#C02C1F"/>
<path d="M24.2523 9.30659C24.2561 9.18469 24.1705 9.16846 24.0944 9.1479C23.7386 9.05233 23.3835 8.95387 22.9944 8.98092H22.8884C22.8551 9.00292 22.834 8.99895 22.8112 8.9701C23.3323 8.8958 23.834 8.99173 24.3238 9.17387C24.4168 9.20849 24.4789 9.31452 24.6066 9.30226C24.6407 9.32606 24.648 9.34951 24.6298 9.38774C24.527 9.37692 24.4333 9.35672 24.3266 9.334C24.2986 9.31596 24.2786 9.31633 24.2523 9.30659ZM20.5916 9.54498C20.7298 9.3917 20.9056 9.28062 21.107 9.20596C20.9796 9.3459 20.8431 9.47393 20.7228 9.6319C20.721 9.55255 20.6698 9.54029 20.5916 9.54498Z" fill="#F05232"/>
<path d="M21.7192 9.25956C21.8764 9.14631 22.0747 9.11061 22.2764 9.04858C22.3052 9.03776 22.322 9.03415 22.3512 9.04569C22.3382 9.10556 22.3133 9.15677 22.2908 9.20907C22.2508 9.30284 22.2063 9.34359 22.1547 9.21881C22.1126 9.11782 22.0259 9.16795 22.0038 9.19969C21.9263 9.31258 21.8273 9.26353 21.7192 9.25956ZM21.9701 9.40743C22.0087 9.43989 22.0666 9.46405 22.0245 9.50661C21.9729 9.55854 21.9003 9.59244 21.8238 9.56071C21.7817 9.54303 21.7477 9.50444 21.7522 9.45179C21.7571 9.39589 21.7971 9.37497 21.847 9.371C21.8688 9.36823 21.8909 9.36999 21.9121 9.37619C21.9333 9.38238 21.953 9.39288 21.9701 9.40707V9.40743Z" fill="#EE5336"/>
<path d="M19.0449 11.8283C19.1032 11.6072 19.174 11.3847 19.247 11.1503C19.2488 11.1373 19.2481 11.1362 19.2649 11.1348C19.2404 11.3757 19.1761 11.6108 19.0449 11.8283Z" fill="#F05232"/>
<path d="M22.7972 8.95654C22.8253 8.9652 22.8414 8.97277 22.8667 8.98107C22.8708 9.00422 22.868 9.0281 22.8586 9.04959C22.8306 9.10946 22.8397 9.21622 22.7572 9.21261C22.6793 9.209 22.6871 9.10874 22.6702 9.03048C22.679 8.99441 22.6965 8.98359 22.7274 8.97205C22.75 8.96411 22.7734 8.95891 22.7972 8.95654ZM22.4334 9.54153C22.3562 9.5271 22.3021 9.49103 22.3527 9.42395C22.3867 9.37851 22.4299 9.31936 22.5004 9.32044C22.5278 9.32081 22.5302 9.3529 22.5309 9.37526C22.5337 9.44667 22.5383 9.52061 22.4334 9.54153Z" fill="#EE5336"/>
<path d="M22.7962 11.594C22.7962 11.7743 22.6513 11.7934 22.5103 11.8331C22.5657 11.7188 22.6797 11.664 22.7962 11.594Z" fill="#C02C1F"/>
<path d="M21.307 9.47045C21.406 9.36658 21.5435 9.31284 21.6923 9.25586C21.6158 9.40012 21.4832 9.4636 21.307 9.47045ZM21.6586 9.57288C21.6383 9.65186 21.6148 9.70848 21.5309 9.66196C21.4944 9.64176 21.4548 9.60786 21.4906 9.57107C21.5369 9.52347 21.5993 9.45566 21.6586 9.57288ZM21.1197 9.58478C21.1463 9.56206 21.1667 9.54763 21.1951 9.5296C21.2765 9.69189 21.199 9.73445 21.0379 9.72002C21.0035 9.68396 21.0221 9.65763 21.0502 9.62156C21.0576 9.61219 21.059 9.61471 21.0576 9.61435C21.0737 9.60137 21.0937 9.59848 21.1197 9.58478Z" fill="#EE5336"/>
<path d="M22.7242 8.96484C22.7312 8.99478 22.7137 9.00957 22.6789 9.01534C22.6404 9.02255 22.6112 9.0276 22.5737 9.0413C22.5333 9.08097 22.4965 9.08963 22.4425 9.06114C22.4201 9.05392 22.3967 9.05122 22.3733 9.0532C22.3494 9.05297 22.3256 9.05177 22.3018 9.0496C22.4239 8.98757 22.5691 8.98324 22.7242 8.96484Z" fill="#F05232"/>
<path d="M23.2509 11.576C23.1674 11.6012 23.121 11.5352 23.053 11.4847C23.0818 11.4566 23.121 11.4346 23.1716 11.4111C23.2053 11.4609 23.2274 11.5121 23.2509 11.576Z" fill="#C02C1F"/>
<path d="M20.6587 9.87182C20.7385 9.81504 20.8224 9.76453 20.9096 9.7207C20.8818 9.84801 20.786 9.88336 20.6587 9.87182ZM19.6966 10.4572C19.6892 10.4442 19.6938 10.4305 19.7022 10.4067C19.6962 10.3327 19.732 10.3003 19.806 10.283C19.8253 10.3713 19.792 10.4323 19.6966 10.4572ZM20.0029 10.103C20.0155 10.0446 20.0576 10.0024 20.1187 9.96415C20.1296 10.041 20.0871 10.0842 20.0029 10.103Z" fill="#F05232"/>
<path d="M22.4319 9.06472C22.4663 9.05174 22.5024 9.05101 22.5522 9.05029C22.5631 9.08672 22.5747 9.13397 22.5256 9.14659C22.4729 9.16029 22.4477 9.12387 22.4319 9.06472Z" fill="#F05232"/>
<path d="M19.5648 10.6353C19.5613 10.5812 19.6048 10.5481 19.6448 10.5012C19.6554 10.5582 19.6452 10.613 19.5648 10.6353ZM19.4561 10.8092C19.4736 10.7576 19.5034 10.7039 19.5427 10.6444C19.5343 10.7003 19.534 10.7713 19.4561 10.8095V10.8092ZM21.0466 9.61432C21.047 9.64705 21.0407 9.6795 21.028 9.70953C20.9971 9.719 20.9647 9.72266 20.9326 9.72035C20.9448 9.66914 20.9933 9.64642 21.0466 9.61432ZM20.4255 9.68681C20.4336 9.6356 20.4799 9.61107 20.5315 9.57861C20.542 9.64714 20.5034 9.67996 20.4255 9.68681ZM20.642 9.72792C20.6469 9.75894 20.6431 9.79645 20.6403 9.84694C20.541 9.82566 20.6133 9.77842 20.642 9.72792ZM19.3445 11.0122C19.3556 10.965 19.3741 10.9199 19.3992 10.8788C19.4143 10.9264 19.395 10.9711 19.3445 11.0122Z" fill="#F05232"/>
<path d="M21.2261 9.52342C21.2345 9.50034 21.2541 9.48375 21.2836 9.4668C21.2931 9.50431 21.2857 9.5364 21.2261 9.52342Z" fill="#EE5336"/>
<path d="M19.2673 11.1056C19.2762 11.089 19.2877 11.074 19.3014 11.0613C19.3049 11.0771 19.3007 11.0973 19.2891 11.1255C19.2821 11.133 19.2793 11.1312 19.2779 11.1301C19.2745 11.1271 19.2718 11.1233 19.27 11.1191C19.2681 11.1148 19.2672 11.1102 19.2673 11.1056ZM20.3112 9.78778C20.3091 9.78057 20.3158 9.76975 20.3312 9.7564C20.3333 9.76362 20.3266 9.77408 20.3112 9.78778ZM20.2765 9.82277C20.2747 9.81555 20.281 9.80473 20.2965 9.79139C20.2986 9.7986 20.2919 9.80906 20.2765 9.82277ZM20.2421 9.85775C20.24 9.85054 20.2466 9.83972 20.2621 9.82637C20.2642 9.83359 20.2575 9.84404 20.2421 9.85775ZM20.2094 9.87686C20.2052 9.86244 20.2116 9.86136 20.227 9.85919C20.2305 9.86893 20.2252 9.87975 20.2094 9.87686ZM20.1705 9.92663C20.1631 9.92231 20.1642 9.91581 20.167 9.90067C20.1691 9.89165 20.1831 9.8848 20.1901 9.88804C20.1972 9.89165 20.201 9.89598 20.2031 9.89814C20.1948 9.91035 20.1836 9.92016 20.1705 9.92663ZM20.1368 9.96162C20.1344 9.95368 20.141 9.94286 20.1572 9.92916C20.1593 9.93709 20.1526 9.94755 20.1368 9.96162ZM20.5491 9.57572C20.548 9.5685 20.5551 9.5584 20.5712 9.54614C20.573 9.55372 20.5656 9.56309 20.5494 9.57572H20.5491ZM20.6737 9.68968C20.6765 9.69618 20.6716 9.707 20.6579 9.72142C20.6516 9.71277 20.6572 9.70267 20.6737 9.68968Z" fill="#CA6149"/>
<path d="M22.543 18.3263C22.542 18.3184 22.5522 18.3227 22.5574 18.3227C22.569 18.3263 22.575 18.3306 22.5739 18.3433L22.5673 18.3512C22.5557 18.3512 22.548 18.3458 22.543 18.3263Z" fill="#430609"/>
<path d="M19.3173 11.0541C19.3127 11.0469 19.3166 11.035 19.3289 11.0184C19.3331 11.0256 19.3292 11.0375 19.3173 11.0541ZM19.9689 10.1221C19.9636 10.107 19.9696 10.1055 19.9843 10.1023C19.9885 10.1124 19.9843 10.1239 19.9689 10.1221ZM19.9639 10.1452C19.9608 10.1575 19.9538 10.1665 19.9338 10.1676C19.9264 10.1542 19.9303 10.147 19.9461 10.1394C19.958 10.1387 19.9622 10.143 19.9639 10.1452ZM19.9299 10.1802C19.9264 10.1928 19.9197 10.2018 19.8997 10.2033C19.8927 10.1907 19.8969 10.1842 19.9127 10.1755C19.9239 10.1733 19.9278 10.178 19.9299 10.1802ZM19.8962 10.2159C19.8927 10.2282 19.8857 10.2372 19.8657 10.2383C19.8587 10.2253 19.8632 10.2188 19.8794 10.2112C19.891 10.2098 19.8945 10.2137 19.8962 10.2159ZM19.8611 10.2509C19.8583 10.2631 19.8517 10.2718 19.8366 10.2833C19.8296 10.2877 19.8268 10.2855 19.8254 10.2841C19.8197 10.2678 19.8232 10.2552 19.8457 10.2455C19.8562 10.2455 19.8597 10.2491 19.8611 10.2509ZM19.6625 10.4922C19.6601 10.486 19.6654 10.4749 19.679 10.4601C19.6818 10.4669 19.6759 10.4774 19.6625 10.4925V10.4922Z" fill="#CA6149"/>
<path d="M17.0471 13.0164C16.9924 13.0943 16.9489 13.1679 16.9506 13.2508C16.9583 13.6703 16.7499 13.9552 16.4331 14.1871C16.3187 14.2708 16.2366 14.4017 16.0699 14.3768C16.0524 14.3743 16.0275 14.3938 16.012 14.4093C15.6948 14.7274 15.3068 14.683 14.9278 14.6091C14.7927 14.5828 14.6464 14.6163 14.5166 14.5218C14.2955 14.3617 14.0411 14.2398 13.8969 13.9934C13.8169 13.8571 13.6436 13.8319 13.5861 13.666C13.5843 13.6376 13.5842 13.6092 13.5857 13.5809C13.5851 13.563 13.5781 13.5461 13.5661 13.5332C13.5595 13.5248 13.555 13.5149 13.5527 13.5044C13.549 13.4907 13.5431 13.4778 13.5352 13.4662C13.0425 12.3236 13.6341 10.8482 14.9478 10.6148C15.6983 10.4814 16.3962 10.8485 16.7952 11.6138C16.8432 11.7065 16.8766 11.8068 16.9173 11.9164C16.9175 11.9349 16.924 11.9527 16.9355 11.9669C16.9428 11.9875 16.9475 12.0089 16.9496 12.0308C16.9531 12.0477 16.9576 12.0531 16.9643 12.0686C16.9727 12.1054 16.9787 12.1321 16.9843 12.1721C16.981 12.1993 16.9875 12.2267 17.0025 12.2493C17.0113 12.2836 17.0148 12.3099 17.0176 12.3492C17.0169 12.4394 17.0166 12.5158 17.0408 12.6002C17.072 12.7398 17.0454 12.87 17.0471 13.0164Z" fill="#F9F6F6"/>
<path d="M12.8276 13.8556C12.8024 13.8875 12.7829 13.9237 12.7701 13.9627C12.6876 14.2012 12.5506 14.4159 12.3708 14.5888C12.262 14.6962 12.3111 14.7583 12.4073 14.8156C12.5869 14.9224 12.862 14.8517 12.9869 14.6753C13.0466 14.5913 13.088 14.4481 13.2315 14.5433C13.3648 14.632 13.3437 14.7568 13.2774 14.8831C13.0655 15.2874 12.5504 15.4295 12.1732 15.1788C12.0943 15.1261 12.0473 15.1261 11.9683 15.1774C11.6297 15.3963 11.182 15.2838 10.969 14.9357C10.9511 14.9061 10.9311 14.8748 10.9237 14.8419C10.9037 14.7496 10.8809 14.6458 10.9827 14.5913C11.0785 14.5394 11.1518 14.5906 11.2157 14.6739C11.3641 14.8672 11.4999 14.8964 11.6876 14.7976C11.7894 14.7442 11.8009 14.7038 11.6985 14.636C11.4473 14.4698 11.2704 14.2371 11.1416 13.9504C10.9837 13.8018 10.9883 13.7037 11.1641 13.5306C11.2139 13.5364 11.2413 13.5151 11.2708 13.4971C11.6669 13.2569 12.0785 13.2547 12.4981 13.4195C12.6876 13.4938 12.8157 13.6215 12.828 13.8556H12.8276Z" fill="#39060C"/>
<path d="M11.1755 13.5111C11.1176 13.6518 11.007 13.7697 11.1291 13.9313C11.1117 13.9617 11.0891 13.9887 11.0625 14.011C11.013 13.9219 10.9993 13.8043 10.8611 13.7733C10.7849 13.7145 10.7919 13.6355 10.7891 13.5602C10.7764 13.3201 10.799 13.0795 10.8562 12.8464C10.9537 12.467 10.9326 12.0793 10.9155 11.6941C10.9074 11.5174 10.847 11.3508 10.7611 11.1961C10.6376 10.975 10.4172 10.8823 10.1786 10.9559C10.0046 11.0089 9.85931 11.107 9.74352 11.2516C9.70422 11.3006 9.67159 11.3587 9.5944 11.3789C9.49686 11.3591 9.4337 11.4114 9.35229 11.4446C9.39791 11.2642 9.51089 11.12 9.64247 10.9746C9.68107 10.8574 9.76879 10.8213 9.87019 10.7842C10.2011 10.6129 10.5235 10.5487 10.8439 10.7806C11.0186 10.9075 11.1151 11.0918 11.1933 11.2891C11.4425 11.9156 11.3821 12.551 11.2442 13.1883C11.2221 13.2911 11.1972 13.3932 11.1755 13.5111Z" fill="#F9F6F6"/>
<path d="M17.7473 5.70799C17.7543 5.62576 17.774 5.54786 17.8038 5.46094C17.8873 5.47681 17.8985 5.54425 17.9042 5.607C17.9389 6.00805 17.9905 6.40874 17.948 6.81231C17.9333 6.95225 17.9498 7.09363 17.9245 7.23284C17.9105 7.31218 17.9077 7.3973 17.8305 7.46546C17.808 7.46943 17.8003 7.46799 17.7813 7.4651C17.8291 7.04313 17.8561 6.62081 17.8354 6.19704C17.8273 6.03474 17.8368 5.86523 17.7473 5.70799Z" fill="#C02C1F"/>
<path d="M9.8671 10.7761C9.8078 10.8338 9.73727 10.8915 9.65762 10.9571C9.63797 10.8901 9.67201 10.8262 9.70745 10.7512C9.72148 10.7458 9.7278 10.7505 9.7285 10.7649C9.76675 10.8515 9.81166 10.77 9.8671 10.7761Z" fill="#F05232"/>
<path d="M17.0509 12.5947C16.9572 12.5485 16.9846 12.4623 17.0081 12.3704C17.067 12.4281 17.0449 12.507 17.0509 12.5947Z" fill="#FEF3EA"/>
<path d="M16.5422 8.86522C16.4948 8.82916 16.486 8.78407 16.5506 8.73755C16.5558 8.78027 16.553 8.82362 16.5422 8.86522Z" fill="#F9D8C8"/>
<path d="M17.0089 12.2476C16.9773 12.2497 16.9461 12.2418 16.9766 12.1917C16.9927 12.2032 17.0011 12.2205 17.0089 12.2476Z" fill="#FEF3EA"/>
<path d="M10.0374 10.1762C10.0402 10.1538 10.055 10.1293 10.0788 10.099C10.0915 10.1286 10.0858 10.1592 10.0374 10.1762ZM9.96935 10.279C9.97739 10.2504 9.99113 10.2239 10.0097 10.2011C10.0195 10.2285 10.0041 10.2537 9.96935 10.279ZM9.92304 10.3518C9.92703 10.3294 9.93672 10.3085 9.95111 10.2912C9.94711 10.3136 9.93743 10.3345 9.92304 10.3518ZM9.86374 10.4553C9.86304 10.4438 9.8697 10.4276 9.88409 10.4056C9.88479 10.4171 9.87812 10.4337 9.86374 10.4553ZM9.8283 10.5249C9.82655 10.512 9.83251 10.4932 9.84725 10.4687C9.84935 10.4817 9.84304 10.5004 9.8283 10.5249ZM9.79462 10.5942C9.79181 10.5805 9.79742 10.5614 9.81216 10.5365C9.81497 10.5502 9.80865 10.5693 9.79462 10.5942ZM9.73076 10.7669C9.72339 10.7749 9.72023 10.7579 9.71777 10.7496C9.71995 10.7314 9.72727 10.7142 9.73883 10.7002C9.74374 10.7161 9.74128 10.7377 9.73076 10.7669ZM10.1364 10.0337C10.1339 10.0272 10.1392 10.0164 10.1529 10.002C10.1557 10.0088 10.1501 10.0193 10.1364 10.0337ZM10.1988 9.95979C10.1953 9.95221 10.202 9.94067 10.2167 9.9248C10.2199 9.93202 10.2139 9.94428 10.1988 9.95979ZM10.1672 9.99766C10.1637 9.99008 10.1694 9.97854 10.1837 9.96339C10.1872 9.97061 10.1813 9.98215 10.1672 9.99766Z" fill="#CA6149"/>
<path d="M13.1172 8.33075C13.1165 8.33403 13.1118 8.32255 13.1108 8.31665L13.1172 8.33075Z" fill="#3C060C"/>
<path d="M16.9411 11.9658C16.9306 11.9679 16.9236 11.9585 16.9187 11.938C16.9257 11.938 16.9334 11.947 16.9411 11.9658ZM16.9681 12.0718C16.9597 12.0736 16.9545 12.0657 16.9506 12.0491C16.959 12.0465 16.9653 12.0538 16.9681 12.0718ZM13.5611 13.5357C13.5688 13.535 13.5762 13.5443 13.585 13.5624C13.578 13.5624 13.5695 13.5537 13.5611 13.5357ZM13.5295 13.4646C13.5394 13.4618 13.546 13.4701 13.5516 13.4888C13.5415 13.4931 13.5338 13.4852 13.5295 13.4646Z" fill="#FEF3EA"/>
<path d="M10.8614 14.3346C10.9092 14.2546 10.9702 14.1738 11.0421 14.0908C11.0439 14.2091 11.0123 14.3126 10.8614 14.3346Z" fill="#F9F6F6"/>
<path d="M16.9351 15.7754C16.9291 15.8068 16.9003 15.8136 16.8572 15.8143C16.8806 15.7967 16.9069 15.7834 16.9347 15.775L16.9351 15.7754ZM16.9733 15.7429C16.9747 15.7494 16.9677 15.7595 16.9526 15.7739C16.9512 15.7678 16.9582 15.7573 16.9733 15.7429Z" fill="#EAAF93"/>
<path d="M19.6199 19.5467C19.6164 19.5427 19.6128 19.5387 19.6091 19.5349C19.6127 19.5369 19.6158 19.5399 19.618 19.5434C19.6196 19.5474 19.6199 19.5467 19.6199 19.5467Z" fill="#F05232"/>
<path d="M16.2402 20.8155C16.2448 20.7289 16.3118 20.7195 16.3936 20.713C16.355 20.7473 16.3034 20.7805 16.2402 20.8155ZM16.4451 20.7069C16.4606 20.6553 16.5037 20.6377 16.5704 20.6452C16.5317 20.6717 16.4895 20.6927 16.4451 20.7069Z" fill="#F7C9B6"/>
<path d="M19.8594 10.2372C19.8475 10.2523 19.8383 10.2592 19.8268 10.2743C19.7899 10.3165 19.7559 10.3501 19.7138 10.3901C19.6492 10.3558 19.5517 10.34 19.5647 10.2494C19.5794 10.1463 19.6832 10.1376 19.7618 10.1167C19.8148 10.1026 19.8731 10.1102 19.9436 10.1081C19.9576 10.1081 19.9583 10.1236 19.9576 10.1311C19.9461 10.142 19.9369 10.1481 19.9268 10.1654C19.9125 10.1739 19.9009 10.1864 19.8934 10.2015C19.8783 10.2123 19.8692 10.2184 19.8594 10.2372Z" fill="#F3E2D6"/>
<path d="M24.6319 9.40418C24.6211 9.37461 24.6214 9.35189 24.6204 9.31763C24.7379 9.35405 24.859 9.39625 24.9414 9.51779C24.8379 9.48103 24.7347 9.44316 24.6319 9.40418Z" fill="#F05232"/>
<path d="M23.7063 9.33124C23.6982 9.3298 23.6992 9.31501 23.6999 9.3078C23.7227 9.29409 23.7575 9.33413 23.7063 9.33124Z" fill="#D89F68"/>
<path d="M17.8561 5.73772C17.8495 5.64604 17.8382 5.55478 17.822 5.46435C17.8152 5.44546 17.8123 5.4253 17.8136 5.4052C17.8234 5.36445 17.8192 5.31864 17.8459 5.121C17.981 4.9973 18.095 5.01136 18.1856 5.15166C18.2484 5.24904 18.2789 5.36084 18.3196 5.48274C18.3456 5.5574 18.3582 5.63241 18.3778 5.70779C18.3947 5.7489 18.3898 5.78786 18.3964 5.83149C18.4034 6.13877 18.4168 6.43307 18.4319 6.74395C18.4178 6.99281 18.4013 7.22579 18.3841 7.45877C18.3771 7.55182 18.3792 7.62936 18.5077 7.57995C18.5459 7.56481 18.5898 7.57346 18.6105 7.61818C18.6333 7.66687 18.5971 7.70618 18.5648 7.71808C18.3045 7.81438 18.3263 8.0571 18.2841 8.26917C18.1824 8.78022 18.0712 9.28838 17.8087 9.74425C17.681 9.96605 17.5782 9.99491 17.3834 9.88527C17.3133 9.84595 17.2852 9.8034 17.3196 9.71684C17.907 7.97018 17.9143 6.59536 17.8561 5.73772Z" fill="#430609"/>
<path d="M15.5582 19.5154C15.5424 19.4458 15.5929 19.4025 15.6305 19.3538C15.6666 19.3076 15.7582 19.2878 15.7266 19.2114C15.6954 19.1363 15.6136 19.1248 15.5245 19.1248C15.6003 19.0011 15.7378 18.9362 15.8459 18.8345C15.9869 18.7014 16.1077 18.5496 16.235 18.3826C16.2961 18.6783 15.9796 19.1984 15.5582 19.5154ZM15.2441 19.7137C15.2392 19.589 15.3406 19.6052 15.4312 19.5861C15.3978 19.6546 15.3192 19.6716 15.2441 19.7137ZM15.0052 19.8198C15.0248 19.7285 15.101 19.7271 15.1891 19.7242C15.1519 19.7801 15.081 19.7935 15.0052 19.8198ZM13.6743 19.9655C13.7399 19.9139 13.8252 19.933 13.9199 19.9539C13.8384 19.9636 13.7563 19.9675 13.6743 19.9655ZM14.3919 19.9615C14.4276 19.9319 14.4761 19.9053 14.5413 19.9265C14.5048 19.9651 14.4543 19.9644 14.3919 19.9615ZM15.4543 19.5868C15.4438 19.5341 15.4729 19.5129 15.535 19.5157C15.5315 19.554 15.4999 19.5716 15.4543 19.5868ZM14.7971 19.8905C14.7954 19.858 14.8052 19.8292 14.8519 19.8577C14.8406 19.8739 14.8238 19.8825 14.7971 19.8905ZM14.6617 19.9262C14.6624 19.919 14.6726 19.9125 14.6922 19.906C14.6912 19.9132 14.681 19.9204 14.6617 19.9262Z" fill="#FCE6DD"/>
<path d="M22.879 18.1052C22.8895 18.1049 22.9028 18.1182 22.906 18.1341C22.926 18.2336 23.0277 18.3498 22.9586 18.4248C22.8849 18.5048 22.7776 18.3912 22.6744 18.3613C22.8214 18.3577 22.8702 18.2589 22.879 18.1052ZM22.7411 17.7258C22.7593 17.733 22.7755 17.7532 22.7993 17.7799C22.8158 17.8257 22.8246 17.8647 22.8351 17.9159C22.7748 17.9264 22.7123 17.9303 22.6516 17.9217C22.6004 17.9145 22.5442 17.8838 22.5548 17.8243C22.5653 17.7644 22.6176 17.8012 22.6516 17.8099C22.7126 17.8257 22.734 17.794 22.7411 17.7258ZM22.5779 18.3505C22.5663 18.3512 22.5639 18.3368 22.5632 18.3296C22.5877 18.2888 22.6119 18.2798 22.634 18.3368C22.62 18.3476 22.6049 18.3487 22.5779 18.3505ZM22.8411 17.9996C22.8586 18.0115 22.8681 18.0295 22.8779 18.058C22.8463 18.0605 22.8049 18.0602 22.8411 17.9996Z" fill="#C02C1F"/>
<path d="M9.57905 11.3891C9.64712 11.2899 9.70466 11.1936 9.78186 11.1186C10.1331 10.777 10.724 10.6919 10.9187 11.4201C11.0313 11.8402 11.0141 12.2712 10.9454 12.6946C10.8892 13.0416 10.8127 13.3835 10.8485 13.755C10.8454 13.7762 10.8401 13.7802 10.8387 13.7853C10.6352 14.3948 10.0924 14.3995 9.73765 13.9414C9.49309 13.6255 9.36607 13.2648 9.33765 12.8616C9.30817 12.4541 9.35975 12.0566 9.45168 11.6632C9.47309 11.5712 9.53484 11.4886 9.57905 11.3891Z" fill="#39060C"/>
<path d="M11.7281 18.3808C11.8842 18.3303 11.7839 18.4508 11.8018 18.489C11.8193 18.5265 11.819 18.6044 11.7344 18.5853C11.6867 18.5741 11.6281 18.5529 11.6485 18.4833C11.659 18.4479 11.6951 18.4205 11.7278 18.3808H11.7281ZM12.4004 18.4025C12.4109 18.4324 12.4214 18.4631 12.4109 18.4753C12.3699 18.5244 12.3618 18.6304 12.2797 18.607C12.2256 18.5914 12.2495 18.5013 12.2516 18.4486C12.2562 18.3422 12.3383 18.3999 12.4004 18.4025ZM12.119 18.9023C12.0904 18.9236 12.0581 18.9392 12.0239 18.9481C12.0092 18.9323 12.0081 18.9139 12.0014 18.8984C11.9709 18.828 11.9671 18.7631 12.0295 18.7072C12.0478 18.6906 12.0688 18.6802 12.0888 18.6993C12.146 18.7537 12.1527 18.819 12.119 18.9023ZM11.4656 18.7177C11.5127 18.7051 11.5727 18.6802 11.5937 18.7501C11.6067 18.7945 11.6099 18.8435 11.5846 18.8857C11.5678 18.9146 11.5337 18.9175 11.5092 18.9038C11.4358 18.8641 11.479 18.7898 11.4656 18.7177ZM11.4664 18.7025L11.4534 18.6939C11.4534 18.6939 11.4625 18.6957 11.4639 18.7C11.4649 18.704 11.4656 18.7029 11.4664 18.7025Z" fill="#862A19"/>
<path d="M14.6316 14.1511C13.998 13.7696 13.6773 13.0742 13.7744 12.3287C13.8369 11.8483 13.9983 11.422 14.3885 11.1234C14.932 10.708 15.6229 10.7253 16.1499 11.1927C17.1716 12.0979 16.7629 13.7403 15.7836 14.1753C15.3969 14.347 15.0208 14.3325 14.6316 14.1511Z" fill="#39060C"/>
<path d="M12.033 13.5779C12.1147 13.5898 12.1825 13.5981 12.2491 13.6111C12.2702 13.6154 12.2888 13.6327 12.3305 13.6565C12.0723 13.7892 11.8284 13.7398 11.5811 13.6745C11.7112 13.5685 11.8663 13.579 12.033 13.5779Z" fill="#F9D8C8"/>
<path d="M10.8431 11.7957C10.8263 12.1812 10.4607 12.3889 10.1358 12.2162C9.96278 12.1239 9.87261 11.9839 9.88945 11.7773C9.90594 11.58 9.99577 11.4292 10.1698 11.3495C10.5189 11.1894 10.8063 11.3777 10.8431 11.7957ZM14.7944 11.5786C14.92 11.2731 15.1207 11.1602 15.4386 11.2031C15.681 11.2356 15.8944 11.4451 15.92 11.6756C15.954 11.9818 15.7277 12.2508 15.4095 12.2833C15.1158 12.3132 14.8095 12.0694 14.7884 11.7863C14.7838 11.7221 14.7898 11.6572 14.7944 11.5786Z" fill="#F9F6F6"/>
</g>
<path d="M36.616 19.64C36.0467 19.64 35.524 19.5653 35.048 19.416C34.572 19.2573 34.1753 19.0193 33.858 18.702C33.5407 18.3847 33.3167 17.988 33.186 17.512C33.0647 17.0267 33.06 16.4573 33.172 15.804C33.2373 15.4027 33.312 15.006 33.396 14.614C33.4893 14.222 33.5827 13.8207 33.676 13.41C33.984 12.1407 34.5347 11.184 35.328 10.54C36.1213 9.88667 37.1527 9.56 38.422 9.56C39.0007 9.56 39.5233 9.644 39.99 9.812C40.466 9.97067 40.8627 10.2133 41.18 10.54C41.4973 10.8573 41.7167 11.2587 41.838 11.744C41.9687 12.22 41.978 12.7753 41.866 13.41C41.8007 13.8207 41.7213 14.222 41.628 14.614C41.544 15.006 41.4553 15.4027 41.362 15.804C41.0447 17.1013 40.4893 18.0673 39.696 18.702C38.9027 19.3273 37.876 19.64 36.616 19.64ZM36.742 18.03C37.358 18.03 37.8993 17.8527 38.366 17.498C38.842 17.134 39.178 16.546 39.374 15.734C39.4767 15.3233 39.5653 14.9453 39.64 14.6C39.7147 14.2453 39.7847 13.8673 39.85 13.466C39.9993 12.654 39.934 12.0707 39.654 11.716C39.3833 11.352 38.9307 11.17 38.296 11.17C37.6707 11.17 37.1247 11.352 36.658 11.716C36.2007 12.0707 35.874 12.654 35.678 13.466C35.5753 13.8673 35.4867 14.2453 35.412 14.6C35.3373 14.9453 35.2627 15.3233 35.188 15.734C35.048 16.546 35.1087 17.134 35.37 17.498C35.6407 17.8527 36.098 18.03 36.742 18.03ZM41.8053 19.5C41.684 19.5 41.6046 19.4533 41.5673 19.36C41.5206 19.2667 41.5253 19.1733 41.5813 19.08L46.8733 10.05C46.9293 9.95667 46.9993 9.87733 47.0833 9.812C47.1766 9.73733 47.2933 9.7 47.4333 9.7H49.0573C49.1973 9.7 49.3 9.73733 49.3653 9.812C49.4306 9.87733 49.468 9.95667 49.4773 10.05L50.9333 19.08C50.952 19.2107 50.9286 19.3133 50.8633 19.388C50.8073 19.4627 50.728 19.5 50.6253 19.5H49.4353C49.3046 19.5 49.2113 19.472 49.1553 19.416C49.0993 19.3507 49.062 19.2713 49.0433 19.178L48.7353 17.526H44.5773L43.5553 19.234C43.5086 19.2993 43.448 19.36 43.3733 19.416C43.2986 19.472 43.2053 19.5 43.0933 19.5H41.8053ZM45.4033 15.916H48.5953L47.9233 11.59L45.4033 15.916ZM52.631 19.5C52.5283 19.5 52.449 19.4673 52.393 19.402C52.3463 19.3367 52.3323 19.2573 52.351 19.164L54.297 10.05C54.3157 9.94733 54.3577 9.86333 54.423 9.798C54.4977 9.73267 54.5863 9.7 54.689 9.7H55.935C56.0377 9.7 56.1123 9.73267 56.159 9.798C56.215 9.86333 56.2337 9.94733 56.215 10.05L55.529 13.242L59.169 9.952C59.2157 9.90533 59.2857 9.854 59.379 9.798C59.4723 9.73267 59.5983 9.7 59.757 9.7H61.185C61.325 9.7 61.409 9.76067 61.437 9.882C61.4744 9.994 61.451 10.092 61.367 10.176L56.705 14.516L59.813 19.024C59.897 19.1453 59.897 19.2573 59.813 19.36C59.7383 19.4533 59.6497 19.5 59.547 19.5H58.189C58.0397 19.5 57.9277 19.472 57.853 19.416C57.7784 19.36 57.727 19.304 57.699 19.248L55.053 15.482L54.269 19.164C54.2503 19.2573 54.2037 19.3367 54.129 19.402C54.0637 19.4673 53.9797 19.5 53.877 19.5H52.631Z" fill="white" fill-opacity="0.9"/>
<defs>
<clipPath id="clip0_1059_4585">
<rect width="20" height="22" fill="white" transform="translate(7.5 4)"/>
</clipPath>
</defs>
</svg>
