<svg width="136" height="30" viewBox="0 0 136 30" fill="none" xmlns="http://www.w3.org/2000/svg">
<rect width="136" height="30" fill="#336791"/>
<g clip-path="url(#clip0_1059_4563)">
<path d="M31.0461 17.3715C30.9066 16.9489 30.5411 16.6546 30.0683 16.5839C29.8454 16.5506 29.5901 16.5648 29.288 16.6271C28.7615 16.7357 28.3709 16.777 28.0858 16.7851C29.1618 14.9683 30.0369 12.8964 30.5406 10.9461C31.3551 7.79265 30.9198 6.35603 30.4112 5.70616C29.0652 3.98624 27.1013 3.06221 24.7319 3.03389C23.4681 3.01846 22.3585 3.26801 21.7797 3.44742C21.2408 3.35239 20.6613 3.29929 20.0532 3.28946C18.9136 3.27129 17.9066 3.51971 17.0462 4.03031C16.5697 3.86928 15.8052 3.6422 14.9223 3.49724C12.8457 3.15632 11.1721 3.422 9.94798 4.2868C8.46562 5.33391 7.7784 7.15316 7.90552 9.69408C7.94583 10.5008 8.39715 12.9553 9.10769 15.2832C9.51606 16.6211 9.95153 17.7323 10.402 18.5859C11.0408 19.7963 11.7243 20.5092 12.4916 20.7651C12.9218 20.9085 13.7032 21.0088 14.5252 20.3243C14.6293 20.4504 14.7683 20.5758 14.9528 20.6922C15.187 20.84 15.4735 20.9607 15.7595 21.0322C16.7906 21.29 17.7563 21.2255 18.5802 20.8643C18.5853 21.0108 18.5892 21.1508 18.5925 21.2717C18.598 21.4678 18.6034 21.6601 18.6106 21.8399C18.6594 23.0557 18.7421 24.0011 18.9872 24.6625C19.0006 24.699 19.0188 24.7544 19.0379 24.8131C19.1601 25.1875 19.3646 25.8142 19.8847 26.3051C20.4234 26.8135 21.075 26.9695 21.6717 26.9694C21.9709 26.9694 22.2565 26.9302 22.5069 26.8765C23.3997 26.6852 24.4136 26.3937 25.1471 25.3494C25.8405 24.3621 26.1776 22.8751 26.2386 20.532C26.2465 20.4658 26.2538 20.4025 26.2608 20.3422C26.2655 20.3016 26.2704 20.2599 26.2753 20.2185L26.4387 20.2328L26.4808 20.2357C27.3901 20.2771 28.5019 20.0842 29.1847 19.7671C29.7243 19.5167 31.4532 18.6039 31.0461 17.3715Z" fill="black"/>
<path d="M29.4914 17.6112C26.7877 18.1689 26.6019 17.2535 26.6019 17.2535C29.4565 13.0178 30.6498 7.6411 29.62 6.3252C26.8106 2.73567 21.9474 4.43328 21.8662 4.47736L21.8401 4.48203C21.306 4.37115 20.7082 4.3051 20.0363 4.29413C18.813 4.27408 17.885 4.61484 17.1809 5.14883C17.1809 5.14883 8.50543 1.57488 8.90891 9.64374C8.99475 11.3603 11.3693 22.6322 14.2015 19.2276C15.2367 17.9826 16.2369 16.93 16.2369 16.93C16.7337 17.26 17.3284 17.4283 17.9518 17.3679L18.0003 17.3268C17.9852 17.4813 17.9921 17.6325 18.0197 17.8115C17.2901 18.6267 17.5045 18.7698 16.0459 19.0701C14.57 19.3742 15.437 19.9157 16.0031 20.0572C16.6894 20.2289 18.277 20.472 19.3498 18.9702L19.307 19.1416C19.5929 19.3706 19.7936 20.631 19.76 21.7736C19.7263 22.9162 19.7039 23.7006 19.9291 24.3134C20.1544 24.9261 20.3789 26.3047 22.2963 25.8939C23.8984 25.5505 24.7287 24.6608 24.8442 23.1766C24.9261 22.1215 25.1116 22.2775 25.1233 21.3342L25.2721 20.8876C25.4437 19.4573 25.2994 18.9959 26.2864 19.2105L26.5263 19.2316C27.2528 19.2646 28.2037 19.1147 28.7617 18.8553C29.9634 18.2976 30.6761 17.3665 29.4912 17.6112H29.4914Z" fill="#336791"/>
<path d="M17.6886 10.4114C17.445 10.3775 17.2243 10.4089 17.1127 10.4933C17.0499 10.5409 17.0305 10.596 17.0253 10.6339C17.0112 10.7344 17.0816 10.8454 17.1248 10.9027C17.2472 11.0649 17.4259 11.1764 17.6029 11.2009C17.6285 11.2045 17.654 11.2062 17.6794 11.2062C17.9744 11.2062 18.2426 10.9765 18.2663 10.8069C18.2958 10.5946 17.9876 10.453 17.6886 10.4114Z" fill="white"/>
<path d="M25.7601 10.4182C25.7368 10.2517 25.4405 10.2043 25.1594 10.2434C24.8788 10.2825 24.6065 10.4092 24.6293 10.576C24.6475 10.7057 24.8817 10.9272 25.1591 10.9272C25.1824 10.9272 25.2061 10.9256 25.2299 10.9223C25.415 10.8967 25.5508 10.7791 25.6153 10.7113C25.7136 10.6081 25.7704 10.493 25.7601 10.4182Z" fill="white"/>
<path d="M30.3911 17.5477C30.2881 17.236 29.9563 17.1357 29.405 17.2496C27.7682 17.5874 27.182 17.3533 26.9895 17.2116C28.2618 15.2734 29.3084 12.9306 29.873 10.7446C30.1405 9.70913 30.2883 8.74754 30.3003 7.96379C30.3136 7.1034 30.1672 6.47127 29.865 6.08509C28.6465 4.52824 26.8584 3.69316 24.6938 3.67021C23.2058 3.6535 21.9485 4.03435 21.7048 4.14142C21.1915 4.01377 20.6319 3.9354 20.0228 3.92541C18.9056 3.90735 17.9401 4.17479 17.1406 4.7199C16.7933 4.59069 15.8958 4.28261 14.7984 4.10584C12.9009 3.80028 11.3931 4.03177 10.317 4.79407C9.03312 5.7037 8.44039 7.32967 8.55525 9.62674C8.5939 10.3996 9.0342 12.777 9.72915 15.0539C10.6439 18.0506 11.6382 19.7471 12.6844 20.096C12.8069 20.1369 12.9481 20.1655 13.1038 20.1655C13.4854 20.1655 13.9533 19.9934 14.4401 19.4082C15.2488 18.4353 16.0038 17.6201 16.2821 17.3239C16.6933 17.5447 17.1451 17.668 17.6073 17.6803C17.6081 17.6924 17.6093 17.7045 17.6104 17.7166C17.5177 17.8265 17.4416 17.9229 17.3768 18.0052C17.0566 18.4116 16.99 18.4962 15.9593 18.7085C15.6662 18.7689 14.8874 18.9294 14.8761 19.4752C14.8637 20.0716 15.7965 20.322 15.9028 20.3486C16.2731 20.4413 16.6299 20.487 16.9702 20.487C17.7978 20.487 18.526 20.215 19.1081 19.6888C19.0901 21.8148 19.1788 23.9097 19.434 24.548C19.6431 25.0705 20.1538 26.3475 21.7672 26.3474C22.0038 26.3474 22.2644 26.3199 22.5511 26.2585C24.2348 25.8974 24.9659 25.1533 25.2488 23.5127C25.4001 22.6359 25.6599 20.5421 25.782 19.4191C26.0398 19.4995 26.3718 19.5363 26.7306 19.5362C27.479 19.5362 28.3425 19.3773 28.8841 19.1259C29.4924 18.8434 30.5902 18.15 30.3911 17.5477ZM26.3815 9.95858C26.3759 10.2901 26.3303 10.5911 26.2819 10.9053C26.2299 11.2433 26.176 11.5926 26.1625 12.0167C26.1491 12.4295 26.2007 12.8586 26.2505 13.2735C26.3513 14.1117 26.4546 14.9746 26.0545 15.826C25.9923 15.7156 25.9322 15.5951 25.8772 15.4616C25.8275 15.3411 25.7195 15.1474 25.57 14.8794C24.9883 13.8361 23.626 11.3931 24.3234 10.3962C24.531 10.0994 25.0582 9.79438 26.3815 9.95858ZM24.7775 4.34163C26.717 4.38446 28.2511 5.11 29.3373 6.49798C30.1704 7.56262 29.253 12.4069 26.5973 16.586C26.5711 16.5527 26.5444 16.5191 26.5167 16.4846C26.5057 16.4707 26.4945 16.4567 26.4832 16.4425C27.1694 15.3092 27.0352 14.1878 26.9158 13.1936C26.8667 12.7856 26.8204 12.4002 26.8321 12.0383C26.8443 11.6545 26.8951 11.3255 26.9441 11.0074C27.0045 10.6152 27.0658 10.2095 27.0488 9.73123C27.0615 9.68108 27.0666 9.62179 27.06 9.55144C27.0168 9.09276 26.4931 7.7202 25.4258 6.47772C24.8421 5.79824 23.9907 5.03777 22.8282 4.52485C23.3282 4.42123 24.012 4.32459 24.7775 4.34163ZM13.925 18.9798C13.3886 19.6247 13.0182 19.5011 12.8964 19.4605C12.1027 19.1958 11.1818 17.5183 10.3699 14.8583C9.6674 12.5567 9.25682 10.2423 9.22436 9.59325C9.12175 7.54074 9.61929 6.11025 10.7032 5.34155C12.4672 4.09057 15.3674 4.83933 16.5328 5.21911C16.516 5.23561 16.4986 5.25109 16.482 5.26786C14.5697 7.19917 14.6151 10.4988 14.6198 10.7005C14.6196 10.7783 14.6261 10.8885 14.6351 11.0401C14.668 11.595 14.7292 12.628 14.5656 13.7977C14.4136 14.8847 14.7486 15.9486 15.4848 16.7167C15.561 16.7962 15.6405 16.8708 15.7227 16.9411C15.395 17.292 14.6829 18.068 13.925 18.9798ZM15.9685 16.2531C15.3752 15.6341 15.1057 14.773 15.2291 13.8905C15.4019 12.6548 15.3381 11.5786 15.3039 11.0004C15.2991 10.9195 15.2948 10.8486 15.2923 10.7927C15.5717 10.545 16.8663 9.8513 17.7895 10.0628C18.2109 10.1594 18.4676 10.4462 18.5743 10.9397C19.1267 13.4945 18.6474 14.5594 18.2623 15.415C18.183 15.5913 18.108 15.7579 18.0439 15.9304L17.9943 16.0636C17.8686 16.4006 17.7517 16.7138 17.6793 17.0113C17.0486 17.0094 16.435 16.74 15.9685 16.2531ZM16.0653 19.6986C15.8812 19.6526 15.7155 19.5727 15.6183 19.5064C15.6995 19.4682 15.844 19.4163 16.0945 19.3647C17.307 19.115 17.4942 18.9389 17.9031 18.4197C17.9969 18.3007 18.1031 18.1657 18.2503 18.0014L18.2505 18.0012C18.4697 17.7557 18.5699 17.7973 18.7518 17.8728C18.8991 17.9338 19.0427 18.1184 19.1009 18.3217C19.1284 18.4177 19.1593 18.6 19.0581 18.7417C18.2039 19.9377 16.9592 19.9223 16.0653 19.6986ZM22.4106 25.6034C20.9274 25.9212 20.4022 25.1644 20.0561 24.2992C19.8327 23.7406 19.723 21.2218 19.8009 18.4403C19.8019 18.4033 19.7966 18.3676 19.7864 18.334C19.7775 18.2691 19.7639 18.2035 19.745 18.1374C19.6291 17.7327 19.3469 17.3941 19.0083 17.2538C18.8737 17.1981 18.6268 17.0958 18.33 17.1717C18.3933 16.9109 18.5031 16.6166 18.622 16.2977L18.672 16.1636C18.7282 16.0124 18.7986 15.8558 18.8732 15.69C19.2762 14.7947 19.8282 13.5684 19.2292 10.7981C19.0048 9.76052 18.2555 9.25384 17.1197 9.37149C16.4387 9.44196 15.8158 9.71671 15.505 9.87425C15.4382 9.90811 15.3771 9.94079 15.32 9.97266C15.4067 8.92716 15.7344 6.97338 16.9601 5.73724C17.7317 4.95897 18.7595 4.57462 20.0117 4.59532C22.479 4.63573 24.0612 5.90192 24.9541 6.95704C25.7235 7.86629 26.1401 8.78215 26.3064 9.27609C25.056 9.14898 24.2055 9.39584 23.7744 10.0122C22.8365 11.3528 24.2875 13.9551 24.9849 15.2057C25.1127 15.4349 25.2231 15.633 25.2579 15.7172C25.485 16.2675 25.779 16.6349 25.9936 16.9032C26.0594 16.9854 26.1233 17.0651 26.1718 17.1347C25.7931 17.2439 25.1128 17.4961 25.1748 18.7571C25.1248 19.3899 24.7692 22.3522 24.5886 23.3989C24.3502 24.7816 23.8413 25.2966 22.4106 25.6034ZM28.6019 18.5182C28.2147 18.698 27.5666 18.8328 26.9509 18.8618C26.2709 18.8936 25.9248 18.7856 25.8433 18.7192C25.8051 17.9334 26.0976 17.8513 26.4072 17.7643C26.4558 17.7506 26.5033 17.7374 26.549 17.7213C26.5775 17.7445 26.6087 17.7675 26.6428 17.79C27.1894 18.1508 28.1643 18.1897 29.5405 17.9056C29.5455 17.9046 29.5506 17.9036 29.5556 17.9026C29.37 18.0761 29.0523 18.3091 28.6019 18.5182Z" fill="white"/>
</g>
<path d="M37.06 19.5C36.9573 19.5 36.878 19.4673 36.822 19.402C36.7753 19.3367 36.7613 19.2573 36.78 19.164L38.726 10.05C38.7447 9.94733 38.7913 9.86333 38.866 9.798C38.9407 9.73267 39.0293 9.7 39.132 9.7H42.716C43.2667 9.7 43.7567 9.76533 44.186 9.896C44.6247 10.0267 44.984 10.2227 45.264 10.484C45.544 10.7453 45.7353 11.072 45.838 11.464C45.95 11.8467 45.95 12.2947 45.838 12.808C45.614 13.844 45.1567 14.6187 44.466 15.132C43.7753 15.636 42.8607 15.888 41.722 15.888H39.482L38.782 19.164C38.7633 19.2573 38.7167 19.3367 38.642 19.402C38.5673 19.4673 38.4787 19.5 38.376 19.5H37.06ZM39.79 14.334H41.764C42.2773 14.334 42.7207 14.208 43.094 13.956C43.4767 13.6947 43.724 13.312 43.836 12.808C43.9013 12.4907 43.9153 12.22 43.878 11.996C43.8407 11.7627 43.7147 11.5807 43.5 11.45C43.2947 11.3193 42.968 11.254 42.52 11.254H40.448L39.79 14.334ZM49.9982 19.64C49.4289 19.64 48.9062 19.5653 48.4302 19.416C47.9542 19.2573 47.5575 19.0193 47.2402 18.702C46.9229 18.3847 46.6989 17.988 46.5682 17.512C46.4469 17.0267 46.4422 16.4573 46.5542 15.804C46.6195 15.4027 46.6942 15.006 46.7782 14.614C46.8715 14.222 46.9649 13.8207 47.0582 13.41C47.3662 12.1407 47.9169 11.184 48.7102 10.54C49.5035 9.88667 50.5349 9.56 51.8042 9.56C52.3829 9.56 52.9055 9.644 53.3722 9.812C53.8482 9.97067 54.2449 10.2133 54.5622 10.54C54.8795 10.8573 55.0989 11.2587 55.2202 11.744C55.3509 12.22 55.3602 12.7753 55.2482 13.41C55.1829 13.8207 55.1035 14.222 55.0102 14.614C54.9262 15.006 54.8375 15.4027 54.7442 15.804C54.4269 17.1013 53.8715 18.0673 53.0782 18.702C52.2849 19.3273 51.2582 19.64 49.9982 19.64ZM50.1242 18.03C50.7402 18.03 51.2815 17.8527 51.7482 17.498C52.2242 17.134 52.5602 16.546 52.7562 15.734C52.8589 15.3233 52.9475 14.9453 53.0222 14.6C53.0969 14.2453 53.1669 13.8673 53.2322 13.466C53.3815 12.654 53.3162 12.0707 53.0362 11.716C52.7655 11.352 52.3129 11.17 51.6782 11.17C51.0529 11.17 50.5069 11.352 50.0402 11.716C49.5829 12.0707 49.2562 12.654 49.0602 13.466C48.9575 13.8673 48.8689 14.2453 48.7942 14.6C48.7195 14.9453 48.6449 15.3233 48.5702 15.734C48.4302 16.546 48.4909 17.134 48.7522 17.498C49.0229 17.8527 49.4802 18.03 50.1242 18.03ZM59.4946 19.64C58.6266 19.64 57.9172 19.514 57.3666 19.262C56.8159 19.01 56.4146 18.6787 56.1626 18.268C55.9199 17.848 55.8359 17.4047 55.9106 16.938C55.9199 16.854 55.9526 16.784 56.0086 16.728C56.0739 16.672 56.1486 16.644 56.2326 16.644H57.5206C57.6326 16.644 57.7119 16.672 57.7586 16.728C57.8146 16.7747 57.8566 16.8353 57.8846 16.91C57.9126 17.0873 57.9872 17.2647 58.1086 17.442C58.2299 17.61 58.4119 17.75 58.6546 17.862C58.9066 17.974 59.2286 18.03 59.6206 18.03C60.2926 18.03 60.8246 17.918 61.2166 17.694C61.6086 17.47 61.8466 17.1667 61.9306 16.784C61.9866 16.5133 61.9446 16.2987 61.8046 16.14C61.6646 15.972 61.4219 15.8227 61.0766 15.692C60.7312 15.552 60.2739 15.4073 59.7046 15.258C59.0512 15.09 58.5146 14.8753 58.0946 14.614C57.6746 14.3527 57.3852 14.026 57.2266 13.634C57.0772 13.242 57.0632 12.7707 57.1846 12.22C57.3526 11.408 57.7819 10.764 58.4726 10.288C59.1726 9.80267 60.0872 9.56 61.2166 9.56C61.8046 9.56 62.3179 9.644 62.7566 9.812C63.1952 9.97067 63.5592 10.1853 63.8486 10.456C64.1379 10.7173 64.3432 11.002 64.4646 11.31C64.5859 11.6087 64.6232 11.9027 64.5766 12.192C64.5672 12.2667 64.5346 12.3367 64.4786 12.402C64.4226 12.458 64.3479 12.486 64.2546 12.486H62.9246C62.8406 12.486 62.7659 12.4673 62.7006 12.43C62.6352 12.3927 62.5886 12.3227 62.5606 12.22C62.5699 11.9307 62.4392 11.6833 62.1686 11.478C61.9072 11.2727 61.5526 11.17 61.1046 11.17C60.6006 11.17 60.1666 11.2633 59.8026 11.45C59.4479 11.6367 59.2239 11.926 59.1306 12.318C59.0839 12.5793 59.1166 12.7987 59.2286 12.976C59.3406 13.144 59.5506 13.2933 59.8586 13.424C60.1666 13.5547 60.5912 13.6947 61.1326 13.844C61.8979 14.0213 62.4999 14.2407 62.9386 14.502C63.3866 14.754 63.6899 15.0713 63.8486 15.454C64.0072 15.8367 64.0259 16.3033 63.9046 16.854C63.7179 17.7687 63.2466 18.464 62.4906 18.94C61.7346 19.4067 60.7359 19.64 59.4946 19.64ZM67.3889 19.5C67.2956 19.5 67.2209 19.4673 67.1649 19.402C67.1183 19.3367 67.1043 19.2573 67.1229 19.164L68.7749 11.422H66.1849C66.0823 11.422 66.0029 11.3893 65.9469 11.324C65.9003 11.2587 65.8863 11.1793 65.9049 11.086L66.1289 10.05C66.1476 9.94733 66.1943 9.86333 66.2689 9.798C66.3529 9.73267 66.4416 9.7 66.5349 9.7H73.6749C73.7776 9.7 73.8523 9.73267 73.8989 9.798C73.9549 9.86333 73.9736 9.94733 73.9549 10.05L73.7309 11.086C73.7123 11.1793 73.6656 11.2587 73.5909 11.324C73.5163 11.3893 73.4276 11.422 73.3249 11.422H70.7349L69.0829 19.164C69.0643 19.2573 69.0176 19.3367 68.9429 19.402C68.8683 19.4673 68.7796 19.5 68.6769 19.5H67.3889ZM77.3808 19.64C76.5221 19.64 75.8221 19.4907 75.2808 19.192C74.7394 18.8933 74.3614 18.464 74.1468 17.904C73.9414 17.3347 73.9088 16.658 74.0488 15.874C74.1234 15.4727 74.2074 15.0433 74.3008 14.586C74.4034 14.1193 74.5061 13.6807 74.6088 13.27C74.7954 12.4953 75.1128 11.8327 75.5608 11.282C76.0181 10.7313 76.5828 10.3067 77.2548 10.008C77.9268 9.70933 78.6828 9.56 79.5228 9.56C80.2041 9.56 80.7828 9.65333 81.2588 9.84C81.7348 10.0173 82.1128 10.2507 82.3928 10.54C82.6728 10.82 82.8641 11.1233 82.9668 11.45C83.0694 11.7767 83.0974 12.08 83.0508 12.36C83.0414 12.444 82.9994 12.514 82.9248 12.57C82.8594 12.626 82.7801 12.654 82.6868 12.654H81.2448C81.1608 12.654 81.0954 12.6353 81.0488 12.598C81.0114 12.5607 80.9788 12.5047 80.9508 12.43C80.9321 12.234 80.8621 12.0427 80.7408 11.856C80.6288 11.66 80.4468 11.4967 80.1948 11.366C79.9521 11.2353 79.6161 11.17 79.1868 11.17C78.5521 11.17 78.0061 11.338 77.5488 11.674C77.1008 12.01 76.7834 12.5653 76.5968 13.34C76.4941 13.7413 76.3961 14.152 76.3028 14.572C76.2188 14.9827 76.1394 15.3933 76.0648 15.804C75.9341 16.5973 76.0228 17.1667 76.3308 17.512C76.6481 17.8573 77.1241 18.03 77.7588 18.03C78.1788 18.03 78.5708 17.9553 78.9348 17.806C79.2988 17.6567 79.6068 17.4233 79.8588 17.106C80.1201 16.7887 80.3021 16.3827 80.4048 15.888L80.5028 15.454H78.7808C78.6874 15.454 78.6174 15.4213 78.5708 15.356C78.5241 15.2907 78.5101 15.2067 78.5288 15.104L78.6828 14.362C78.7014 14.2593 78.7481 14.1753 78.8228 14.11C78.9068 14.0447 78.9954 14.012 79.0888 14.012H82.4348C82.5374 14.012 82.6121 14.0447 82.6588 14.11C82.7054 14.1753 82.7194 14.2593 82.7008 14.362L82.3928 15.832C82.2341 16.616 81.9214 17.2927 81.4548 17.862C80.9881 18.4313 80.4048 18.87 79.7048 19.178C79.0141 19.486 78.2394 19.64 77.3808 19.64ZM83.8795 19.5C83.7862 19.5 83.7162 19.4673 83.6695 19.402C83.6228 19.3367 83.6088 19.2573 83.6275 19.164L85.5595 10.05C85.5782 9.94733 85.6248 9.86333 85.6995 9.798C85.7835 9.73267 85.8722 9.7 85.9655 9.7H89.5915C90.7208 9.7 91.5562 9.96133 92.0975 10.484C92.6388 11.0067 92.8022 11.7673 92.5875 12.766C92.4382 13.4567 92.1488 14.0307 91.7195 14.488C91.2902 14.9453 90.7628 15.2767 90.1375 15.482L91.4255 19.052C91.4348 19.08 91.4395 19.108 91.4395 19.136C91.4395 19.1547 91.4348 19.178 91.4255 19.206C91.4162 19.29 91.3742 19.36 91.2995 19.416C91.2248 19.472 91.1502 19.5 91.0755 19.5H89.8015C89.6428 19.5 89.5308 19.458 89.4655 19.374C89.4095 19.29 89.3628 19.206 89.3255 19.122L88.2335 15.804H86.2875L85.5735 19.164C85.5548 19.2573 85.5035 19.3367 85.4195 19.402C85.3448 19.4673 85.2562 19.5 85.1535 19.5H83.8795ZM86.6235 14.222H88.5835C89.1528 14.222 89.6055 14.096 89.9415 13.844C90.2775 13.5827 90.4922 13.2187 90.5855 12.752C90.6882 12.2853 90.6275 11.9213 90.4035 11.66C90.1888 11.3893 89.7922 11.254 89.2135 11.254H87.2395L86.6235 14.222ZM93.2574 19.5C93.1548 19.5 93.0754 19.4673 93.0194 19.402C92.9728 19.3367 92.9588 19.2573 92.9774 19.164L94.9234 10.05C94.9421 9.94733 94.9888 9.86333 95.0634 9.798C95.1381 9.73267 95.2268 9.7 95.3294 9.7H101.489C101.592 9.7 101.667 9.73267 101.713 9.798C101.76 9.86333 101.774 9.94733 101.755 10.05L101.559 10.974C101.541 11.0673 101.494 11.1467 101.419 11.212C101.345 11.2773 101.256 11.31 101.153 11.31H96.5474L96.0154 13.788H100.313C100.416 13.788 100.491 13.8207 100.537 13.886C100.584 13.942 100.598 14.0213 100.579 14.124L100.397 14.992C100.379 15.0947 100.332 15.1787 100.257 15.244C100.183 15.3 100.094 15.328 99.9914 15.328H95.6934L95.1334 17.89H99.8654C99.9681 17.89 100.043 17.9227 100.089 17.988C100.136 18.0533 100.15 18.1373 100.131 18.24L99.9354 19.164C99.9168 19.2573 99.8701 19.3367 99.7954 19.402C99.7208 19.4673 99.6321 19.5 99.5294 19.5H93.2574ZM105.271 19.64C104.403 19.64 103.693 19.514 103.143 19.262C102.592 19.01 102.191 18.6787 101.939 18.268C101.696 17.848 101.612 17.4047 101.687 16.938C101.696 16.854 101.729 16.784 101.785 16.728C101.85 16.672 101.925 16.644 102.009 16.644H103.297C103.409 16.644 103.488 16.672 103.535 16.728C103.591 16.7747 103.633 16.8353 103.661 16.91C103.689 17.0873 103.763 17.2647 103.885 17.442C104.006 17.61 104.188 17.75 104.431 17.862C104.683 17.974 105.005 18.03 105.397 18.03C106.069 18.03 106.601 17.918 106.993 17.694C107.385 17.47 107.623 17.1667 107.707 16.784C107.763 16.5133 107.721 16.2987 107.581 16.14C107.441 15.972 107.198 15.8227 106.853 15.692C106.507 15.552 106.05 15.4073 105.481 15.258C104.827 15.09 104.291 14.8753 103.871 14.614C103.451 14.3527 103.161 14.026 103.003 13.634C102.853 13.242 102.839 12.7707 102.961 12.22C103.129 11.408 103.558 10.764 104.249 10.288C104.949 9.80267 105.863 9.56 106.993 9.56C107.581 9.56 108.094 9.644 108.533 9.812C108.971 9.97067 109.335 10.1853 109.625 10.456C109.914 10.7173 110.119 11.002 110.241 11.31C110.362 11.6087 110.399 11.9027 110.353 12.192C110.343 12.2667 110.311 12.3367 110.255 12.402C110.199 12.458 110.124 12.486 110.031 12.486H108.701C108.617 12.486 108.542 12.4673 108.477 12.43C108.411 12.3927 108.365 12.3227 108.337 12.22C108.346 11.9307 108.215 11.6833 107.945 11.478C107.683 11.2727 107.329 11.17 106.881 11.17C106.377 11.17 105.943 11.2633 105.579 11.45C105.224 11.6367 105 11.926 104.907 12.318C104.86 12.5793 104.893 12.7987 105.005 12.976C105.117 13.144 105.327 13.2933 105.635 13.424C105.943 13.5547 106.367 13.6947 106.909 13.844C107.674 14.0213 108.276 14.2407 108.715 14.502C109.163 14.754 109.466 15.0713 109.625 15.454C109.783 15.8367 109.802 16.3033 109.681 16.854C109.494 17.7687 109.023 18.464 108.267 18.94C107.511 19.4067 106.512 19.64 105.271 19.64ZM117.137 20.41C117.007 20.41 116.909 20.368 116.843 20.284C116.787 20.2093 116.741 20.144 116.703 20.088L116.325 19.388C115.859 19.556 115.345 19.64 114.785 19.64C113.955 19.64 113.269 19.5047 112.727 19.234C112.186 18.954 111.808 18.5293 111.593 17.96C111.379 17.3813 111.351 16.6627 111.509 15.804C111.584 15.4027 111.663 15.006 111.747 14.614C111.831 14.222 111.92 13.8207 112.013 13.41C112.219 12.5607 112.555 11.8513 113.021 11.282C113.488 10.7127 114.053 10.2833 114.715 9.994C115.387 9.70467 116.125 9.56 116.927 9.56C117.73 9.56 118.402 9.70467 118.943 9.994C119.485 10.2833 119.867 10.7127 120.091 11.282C120.315 11.8513 120.353 12.5607 120.203 13.41C120.138 13.8207 120.059 14.222 119.965 14.614C119.881 15.006 119.788 15.4027 119.685 15.804C119.387 17.0267 118.855 17.9553 118.089 18.59L118.775 19.976C118.794 20.0133 118.799 20.06 118.789 20.116C118.78 20.2 118.738 20.27 118.663 20.326C118.589 20.382 118.514 20.41 118.439 20.41H117.137ZM115.135 18.03C115.733 18.03 116.26 17.8527 116.717 17.498C117.184 17.134 117.515 16.546 117.711 15.734C117.814 15.3233 117.903 14.9453 117.977 14.6C118.052 14.2453 118.122 13.8673 118.187 13.466C118.29 12.9247 118.285 12.486 118.173 12.15C118.061 11.8047 117.865 11.5573 117.585 11.408C117.315 11.2493 116.979 11.17 116.577 11.17C115.989 11.17 115.462 11.352 114.995 11.716C114.538 12.0707 114.207 12.654 114.001 13.466C113.908 13.8673 113.824 14.2453 113.749 14.6C113.675 14.9453 113.6 15.3233 113.525 15.734C113.432 16.2753 113.437 16.714 113.539 17.05C113.651 17.386 113.843 17.6333 114.113 17.792C114.393 17.9507 114.734 18.03 115.135 18.03ZM121.076 19.5C120.973 19.5 120.894 19.4673 120.838 19.402C120.791 19.3367 120.777 19.2573 120.796 19.164L122.742 10.036C122.761 9.94267 122.807 9.86333 122.882 9.798C122.957 9.73267 123.045 9.7 123.148 9.7H124.436C124.539 9.7 124.613 9.73267 124.66 9.798C124.716 9.86333 124.735 9.94267 124.716 10.036L123.05 17.834H127.488C127.591 17.834 127.665 17.8667 127.712 17.932C127.768 17.9973 127.787 18.0813 127.768 18.184L127.558 19.164C127.539 19.2573 127.493 19.3367 127.418 19.402C127.343 19.4673 127.255 19.5 127.152 19.5H121.076Z" fill="white" fill-opacity="0.9"/>
<defs>
<clipPath id="clip0_1059_4563">
<rect width="24" height="24" fill="white" transform="translate(7.5 3)"/>
</clipPath>
</defs>
</svg>
