<svg width="100" height="30" viewBox="0 0 100 30" fill="none" xmlns="http://www.w3.org/2000/svg">
<rect width="100" height="30" fill="#2B5B84"/>
<path fill-rule="evenodd" clip-rule="evenodd" d="M16.4488 5.375C14.9383 5.375 13.7138 6.56061 13.7138 8.02315V9.85648H18.4474V10.3657H11.61C10.0995 10.3657 8.875 11.5514 8.875 13.0139V16.9861C8.875 18.4486 10.0995 19.6342 11.61 19.6342H13.1878V17.3935C13.1878 15.931 14.4123 14.7453 15.9228 14.7453H20.972C22.2501 14.7453 23.2862 13.7422 23.2862 12.5047V8.02315C23.2862 6.56061 22.0617 5.375 20.5512 5.375H16.4488ZM15.8177 8.63426C16.3405 8.63426 16.7643 8.22385 16.7643 7.71759C16.7643 7.21133 16.3405 6.80092 15.8177 6.80092C15.2947 6.80092 14.8709 7.21133 14.8709 7.71759C14.8709 8.22385 15.2947 8.63426 15.8177 8.63426Z" fill="#327EBD"/>
<path fill-rule="evenodd" clip-rule="evenodd" d="M20.551 24.625C22.0615 24.625 23.286 23.4394 23.286 21.9769V20.1435H18.5524V19.6343H25.3899C26.9004 19.6343 28.1248 18.4486 28.1248 16.9861V13.0138C28.1248 11.5513 26.9004 10.3657 25.3899 10.3657H23.812V12.6064C23.812 14.069 22.5875 15.2546 21.077 15.2546H16.0278C14.7497 15.2546 13.7136 16.2578 13.7136 17.4953V21.9769C13.7136 23.4394 14.9381 24.625 16.4486 24.625H20.551ZM21.1822 21.3657C20.6593 21.3657 20.2355 21.7761 20.2355 22.2824C20.2355 22.7887 20.6593 23.199 21.1822 23.199C21.7051 23.199 22.1289 22.7887 22.1289 22.2824C22.1289 21.7761 21.7051 21.3657 21.1822 21.3657Z" fill="#FFDA4B"/>
<path d="M35.06 19.5C34.9573 19.5 34.878 19.4673 34.822 19.402C34.7753 19.3367 34.7613 19.2573 34.78 19.164L36.726 10.05C36.7447 9.94733 36.7913 9.86333 36.866 9.798C36.9407 9.73267 37.0293 9.7 37.132 9.7H40.716C41.2667 9.7 41.7567 9.76533 42.186 9.896C42.6247 10.0267 42.984 10.2227 43.264 10.484C43.544 10.7453 43.7353 11.072 43.838 11.464C43.95 11.8467 43.95 12.2947 43.838 12.808C43.614 13.844 43.1567 14.6187 42.466 15.132C41.7753 15.636 40.8607 15.888 39.722 15.888H37.482L36.782 19.164C36.7633 19.2573 36.7167 19.3367 36.642 19.402C36.5673 19.4673 36.4787 19.5 36.376 19.5H35.06ZM37.79 14.334H39.764C40.2773 14.334 40.7207 14.208 41.094 13.956C41.4767 13.6947 41.724 13.312 41.836 12.808C41.9013 12.4907 41.9153 12.22 41.878 11.996C41.8407 11.7627 41.7147 11.5807 41.5 11.45C41.2947 11.3193 40.968 11.254 40.52 11.254H38.448L37.79 14.334ZM46.6484 19.5C46.5551 19.5 46.4804 19.4673 46.4244 19.402C46.3777 19.3367 46.3637 19.2573 46.3824 19.164L47.0404 16L44.9824 10.148C44.9451 10.0453 44.9591 9.94733 45.0244 9.854C45.0991 9.75133 45.1971 9.7 45.3184 9.7H46.4804C46.5924 9.7 46.6764 9.728 46.7324 9.784C46.7884 9.84 46.8304 9.90067 46.8584 9.966L48.3284 14.026L51.5344 9.966C51.5717 9.90067 51.6324 9.84 51.7164 9.784C51.8004 9.728 51.8984 9.7 52.0104 9.7H53.3964C53.5457 9.7 53.6251 9.75133 53.6344 9.854C53.6531 9.95667 53.6251 10.0547 53.5504 10.148L49.0004 16L48.3144 19.164C48.2957 19.2573 48.2491 19.3367 48.1744 19.402C48.0997 19.4673 48.0111 19.5 47.9084 19.5H46.6484ZM55.6239 19.5C55.5306 19.5 55.4559 19.4673 55.3999 19.402C55.3533 19.3367 55.3393 19.2573 55.3579 19.164L57.0099 11.422H54.4199C54.3173 11.422 54.2379 11.3893 54.1819 11.324C54.1353 11.2587 54.1213 11.1793 54.1399 11.086L54.3639 10.05C54.3826 9.94733 54.4293 9.86333 54.5039 9.798C54.5879 9.73267 54.6766 9.7 54.7699 9.7H61.9099C62.0126 9.7 62.0873 9.73267 62.1339 9.798C62.1899 9.86333 62.2086 9.94733 62.1899 10.05L61.9659 11.086C61.9473 11.1793 61.9006 11.2587 61.8259 11.324C61.7513 11.3893 61.6626 11.422 61.5599 11.422H58.9699L57.3179 19.164C57.2993 19.2573 57.2526 19.3367 57.1779 19.402C57.1033 19.4673 57.0146 19.5 56.9119 19.5H55.6239ZM62.0581 19.5C61.9555 19.5 61.8761 19.472 61.8201 19.416C61.7735 19.3507 61.7595 19.2667 61.7781 19.164L63.7241 10.05C63.7428 9.94733 63.7895 9.86333 63.8641 9.798C63.9388 9.73267 64.0275 9.7 64.1301 9.7H65.3901C65.4928 9.7 65.5675 9.73267 65.6141 9.798C65.6701 9.86333 65.6888 9.94733 65.6701 10.05L64.9001 13.662H69.0301L69.8001 10.05C69.8188 9.94733 69.8655 9.86333 69.9401 9.798C70.0148 9.73267 70.1035 9.7 70.2061 9.7H71.4661C71.5688 9.7 71.6435 9.73267 71.6901 9.798C71.7461 9.86333 71.7648 9.94733 71.7461 10.05L69.8001 19.164C69.7815 19.2573 69.7348 19.3367 69.6601 19.402C69.5855 19.4673 69.4968 19.5 69.3941 19.5H68.1341C68.0315 19.5 67.9521 19.4673 67.8961 19.402C67.8495 19.3367 67.8355 19.2573 67.8541 19.164L68.6521 15.412H64.5221L63.7241 19.164C63.7055 19.2573 63.6588 19.3367 63.5841 19.402C63.5095 19.4673 63.4208 19.5 63.3181 19.5H62.0581ZM75.9533 19.64C75.384 19.64 74.8613 19.5653 74.3853 19.416C73.9093 19.2573 73.5127 19.0193 73.1953 18.702C72.878 18.3847 72.654 17.988 72.5233 17.512C72.402 17.0267 72.3973 16.4573 72.5093 15.804C72.5747 15.4027 72.6493 15.006 72.7333 14.614C72.8267 14.222 72.92 13.8207 73.0133 13.41C73.3213 12.1407 73.872 11.184 74.6653 10.54C75.4587 9.88667 76.49 9.56 77.7593 9.56C78.338 9.56 78.8607 9.644 79.3273 9.812C79.8033 9.97067 80.2 10.2133 80.5173 10.54C80.8347 10.8573 81.054 11.2587 81.1753 11.744C81.306 12.22 81.3153 12.7753 81.2033 13.41C81.138 13.8207 81.0587 14.222 80.9653 14.614C80.8813 15.006 80.7927 15.4027 80.6993 15.804C80.382 17.1013 79.8267 18.0673 79.0333 18.702C78.24 19.3273 77.2133 19.64 75.9533 19.64ZM76.0793 18.03C76.6953 18.03 77.2367 17.8527 77.7033 17.498C78.1793 17.134 78.5153 16.546 78.7113 15.734C78.814 15.3233 78.9027 14.9453 78.9773 14.6C79.052 14.2453 79.122 13.8673 79.1873 13.466C79.3367 12.654 79.2713 12.0707 78.9913 11.716C78.7207 11.352 78.268 11.17 77.6333 11.17C77.008 11.17 76.462 11.352 75.9953 11.716C75.538 12.0707 75.2113 12.654 75.0153 13.466C74.9127 13.8673 74.824 14.2453 74.7493 14.6C74.6747 14.9453 74.6 15.3233 74.5253 15.734C74.3853 16.546 74.446 17.134 74.7073 17.498C74.978 17.8527 75.4353 18.03 76.0793 18.03ZM82.2717 19.5C82.1691 19.5 82.0897 19.4673 82.0337 19.402C81.9871 19.3367 81.9731 19.2573 81.9917 19.164L83.9377 10.05C83.9564 9.94733 84.0031 9.86333 84.0777 9.798C84.1524 9.73267 84.2364 9.7 84.3297 9.7H85.3937C85.5244 9.7 85.6131 9.728 85.6597 9.784C85.7157 9.84 85.7484 9.88667 85.7577 9.924L88.4737 16.252L89.7897 10.05C89.8084 9.94733 89.8551 9.86333 89.9297 9.798C90.0137 9.73267 90.1071 9.7 90.2097 9.7H91.3857C91.4884 9.7 91.5631 9.73267 91.6097 9.798C91.6564 9.86333 91.6704 9.94733 91.6517 10.05L89.7197 19.15C89.7011 19.2527 89.6544 19.3367 89.5797 19.402C89.5051 19.4673 89.4164 19.5 89.3137 19.5H88.2497C88.1191 19.5 88.0304 19.472 87.9837 19.416C87.9371 19.36 87.9044 19.3133 87.8857 19.276L85.1557 13.088L83.8677 19.164C83.8491 19.2573 83.8024 19.3367 83.7277 19.402C83.6531 19.4673 83.5644 19.5 83.4617 19.5H82.2717Z" fill="white" fill-opacity="0.9"/>
</svg>
