<svg width="86" height="30" viewBox="0 0 86 30" fill="none" xmlns="http://www.w3.org/2000/svg">
<rect width="86" height="30" fill="#FF271A"/>
<g clip-path="url(#clip0_1059_4556)">
<path d="M31.4949 17.3392C31.4846 17.5681 31.182 17.8244 30.5597 18.1492C29.2783 18.8161 22.6431 21.5495 21.2314 22.2815C20.7266 22.6407 20.0966 22.8558 19.4177 22.8558C18.8683 22.8558 18.3523 22.7152 17.9023 22.4684L17.9186 22.477C16.8009 21.9438 9.74229 19.0912 8.47029 18.4835C7.83514 18.1835 7.51114 17.9238 7.5 17.6838V20.1095C7.5 20.3512 7.83429 20.6092 8.47029 20.9092C9.74229 21.517 16.8034 24.3695 17.9186 24.9027C18.3506 25.1401 18.8657 25.2798 19.4134 25.2798C20.0949 25.2798 20.7257 25.0638 21.2409 24.6961L21.2314 24.703C22.6431 23.9667 29.2783 21.2392 30.5597 20.5707C31.2111 20.2312 31.4991 19.9707 31.4991 19.729C31.4991 19.4872 31.4991 17.3367 31.4991 17.3367L31.4949 17.3392Z" fill="white"/>
<path d="M31.493 13.3843C31.4819 13.6131 31.1802 13.8686 30.5587 14.1934C29.2773 14.8603 22.6422 17.5937 21.2305 18.3257C20.7247 18.6866 20.0939 18.9017 19.4125 18.9017C18.8647 18.9017 18.3496 18.762 17.9013 18.5168L17.9176 18.5254C16.7999 17.988 9.74131 15.1354 8.46931 14.5277C7.83417 14.2277 7.51017 13.968 7.49902 13.728V16.1537C7.49902 16.3954 7.83331 16.6534 8.46931 16.9534C9.74131 17.5611 16.8016 20.4137 17.9176 20.9468C18.3513 21.1851 18.8673 21.3257 19.4167 21.3257C20.0965 21.3257 20.7256 21.1106 21.2407 20.7454L21.2313 20.7523C22.643 20.016 29.2782 17.2868 30.5596 16.62C31.211 16.2797 31.499 16.02 31.499 15.7766C31.499 15.5331 31.499 13.3843 31.499 13.3843H31.493Z" fill="white"/>
<path d="M31.4929 9.28207C31.5049 9.03778 31.1861 8.82436 30.5441 8.58778C29.3004 8.13093 22.6995 5.5055 21.4378 5.04264C20.9852 4.83521 20.4572 4.71436 19.9001 4.71436C19.2709 4.71436 18.6778 4.86864 18.1558 5.14121L18.1764 5.13093C16.6927 5.66407 9.67009 8.41807 8.42123 8.90664C7.79637 9.15264 7.49037 9.37978 7.50151 9.6215V12.0472C7.50151 12.2889 7.8358 12.5469 8.4718 12.8469C9.7438 13.4546 16.8041 16.3081 17.9201 16.8412C18.3521 17.0786 18.8672 17.2175 19.4149 17.2175C20.0964 17.2175 20.7272 17.0015 21.2432 16.6346L21.2338 16.6415C22.6455 15.9052 29.2807 13.1761 30.5621 12.5092C31.2135 12.1689 31.5015 11.9092 31.5015 11.6658C31.5015 11.4224 31.5015 9.2735 31.5015 9.2735H31.4938L31.4929 9.28207ZM16.0927 11.5826L21.6538 10.7289L19.9738 13.1924L16.0927 11.5826ZM28.3935 9.36436L24.7481 10.8044L21.4609 9.49893L25.1004 8.05978L28.3901 9.36007L28.3935 9.36436ZM18.7378 6.97721L18.1995 5.9855L19.8778 6.64121L21.4601 6.1235L21.0324 7.14864L22.6447 7.74864L20.5652 7.96464L20.0998 9.08836L19.3464 7.8395L16.9464 7.6235L18.7387 6.97721H18.7378ZM14.6004 8.37607C16.2427 8.37607 17.5721 8.89207 17.5721 9.52807C17.5721 10.1641 16.2358 10.6801 14.6004 10.6801C12.9649 10.6801 11.6227 10.1632 11.6227 9.52807C11.6227 8.89293 12.9538 8.37607 14.6004 8.37607Z" fill="white"/>
</g>
<path d="M37.242 19.5C37.1487 19.5 37.0787 19.4673 37.032 19.402C36.9853 19.3367 36.9713 19.2573 36.99 19.164L38.922 10.05C38.9407 9.94733 38.9873 9.86333 39.062 9.798C39.146 9.73267 39.2347 9.7 39.328 9.7H42.954C44.0833 9.7 44.9187 9.96133 45.46 10.484C46.0013 11.0067 46.1647 11.7673 45.95 12.766C45.8007 13.4567 45.5113 14.0307 45.082 14.488C44.6527 14.9453 44.1253 15.2767 43.5 15.482L44.788 19.052C44.7973 19.08 44.802 19.108 44.802 19.136C44.802 19.1547 44.7973 19.178 44.788 19.206C44.7787 19.29 44.7367 19.36 44.662 19.416C44.5873 19.472 44.5127 19.5 44.438 19.5H43.164C43.0053 19.5 42.8933 19.458 42.828 19.374C42.772 19.29 42.7253 19.206 42.688 19.122L41.596 15.804H39.65L38.936 19.164C38.9173 19.2573 38.866 19.3367 38.782 19.402C38.7073 19.4673 38.6187 19.5 38.516 19.5H37.242ZM39.986 14.222H41.946C42.5153 14.222 42.968 14.096 43.304 13.844C43.64 13.5827 43.8547 13.2187 43.948 12.752C44.0507 12.2853 43.99 11.9213 43.766 11.66C43.5513 11.3893 43.1547 11.254 42.576 11.254H40.602L39.986 14.222ZM46.6199 19.5C46.5173 19.5 46.4379 19.4673 46.3819 19.402C46.3353 19.3367 46.3213 19.2573 46.3399 19.164L48.2859 10.05C48.3046 9.94733 48.3513 9.86333 48.4259 9.798C48.5006 9.73267 48.5893 9.7 48.6919 9.7H54.8519C54.9546 9.7 55.0293 9.73267 55.0759 9.798C55.1226 9.86333 55.1366 9.94733 55.1179 10.05L54.9219 10.974C54.9033 11.0673 54.8566 11.1467 54.7819 11.212C54.7073 11.2773 54.6186 11.31 54.5159 11.31H49.9099L49.3779 13.788H53.6759C53.7786 13.788 53.8533 13.8207 53.8999 13.886C53.9466 13.942 53.9606 14.0213 53.9419 14.124L53.7599 14.992C53.7413 15.0947 53.6946 15.1787 53.6199 15.244C53.5453 15.3 53.4566 15.328 53.3539 15.328H49.0559L48.4959 17.89H53.2279C53.3306 17.89 53.4053 17.9227 53.4519 17.988C53.4986 18.0533 53.5126 18.1373 53.4939 18.24L53.2979 19.164C53.2793 19.2573 53.2326 19.3367 53.1579 19.402C53.0833 19.4673 52.9946 19.5 52.8919 19.5H46.6199ZM55.4552 19.5C55.3526 19.5 55.2732 19.4673 55.2172 19.402C55.1706 19.3367 55.1566 19.2573 55.1752 19.164L57.1212 10.05C57.1399 9.94733 57.1866 9.86333 57.2612 9.798C57.3359 9.73267 57.4246 9.7 57.5272 9.7H60.7332C61.3492 9.7 61.9046 9.784 62.3992 9.952C62.8939 10.1107 63.3046 10.3533 63.6312 10.68C63.9579 10.9973 64.1866 11.394 64.3172 11.87C64.4479 12.346 64.4572 12.892 64.3452 13.508C64.2612 13.9187 64.1866 14.2827 64.1212 14.6C64.0559 14.9173 63.9719 15.2767 63.8692 15.678C63.6639 16.546 63.3699 17.2647 62.9872 17.834C62.6139 18.394 62.1146 18.814 61.4892 19.094C60.8732 19.3647 60.0846 19.5 59.1232 19.5H55.4552ZM57.4012 17.89H59.1932C59.7159 17.89 60.1546 17.8153 60.5092 17.666C60.8732 17.5167 61.1672 17.2787 61.3912 16.952C61.6152 16.616 61.7879 16.1773 61.9092 15.636C61.9839 15.356 62.0446 15.1133 62.0912 14.908C62.1379 14.6933 62.1799 14.4833 62.2172 14.278C62.2639 14.0633 62.3106 13.8207 62.3572 13.55C62.5066 12.7847 62.4366 12.22 62.1472 11.856C61.8672 11.492 61.3259 11.31 60.5232 11.31H58.8012L57.4012 17.89ZM65.4113 19.5C65.318 19.5 65.2433 19.4673 65.1873 19.402C65.1406 19.3367 65.1266 19.2573 65.1453 19.164L67.0913 10.036C67.11 9.94267 67.1566 9.86333 67.2313 9.798C67.306 9.73267 67.3946 9.7 67.4973 9.7H68.8133C68.9066 9.7 68.9813 9.73267 69.0373 9.798C69.0933 9.86333 69.112 9.94267 69.0933 10.036L67.1333 19.164C67.1146 19.2573 67.068 19.3367 66.9933 19.402C66.9186 19.4673 66.8346 19.5 66.7413 19.5H65.4113ZM72.9269 19.64C72.0589 19.64 71.3496 19.514 70.7989 19.262C70.2482 19.01 69.8469 18.6787 69.5949 18.268C69.3522 17.848 69.2682 17.4047 69.3429 16.938C69.3522 16.854 69.3849 16.784 69.4409 16.728C69.5062 16.672 69.5809 16.644 69.6649 16.644H70.9529C71.0649 16.644 71.1442 16.672 71.1909 16.728C71.2469 16.7747 71.2889 16.8353 71.3169 16.91C71.3449 17.0873 71.4196 17.2647 71.5409 17.442C71.6622 17.61 71.8442 17.75 72.0869 17.862C72.3389 17.974 72.6609 18.03 73.0529 18.03C73.7249 18.03 74.2569 17.918 74.6489 17.694C75.0409 17.47 75.2789 17.1667 75.3629 16.784C75.4189 16.5133 75.3769 16.2987 75.2369 16.14C75.0969 15.972 74.8542 15.8227 74.5089 15.692C74.1636 15.552 73.7062 15.4073 73.1369 15.258C72.4836 15.09 71.9469 14.8753 71.5269 14.614C71.1069 14.3527 70.8176 14.026 70.6589 13.634C70.5096 13.242 70.4956 12.7707 70.6169 12.22C70.7849 11.408 71.2142 10.764 71.9049 10.288C72.6049 9.80267 73.5196 9.56 74.6489 9.56C75.2369 9.56 75.7502 9.644 76.1889 9.812C76.6276 9.97067 76.9916 10.1853 77.2809 10.456C77.5702 10.7173 77.7756 11.002 77.8969 11.31C78.0182 11.6087 78.0556 11.9027 78.0089 12.192C77.9996 12.2667 77.9669 12.3367 77.9109 12.402C77.8549 12.458 77.7802 12.486 77.6869 12.486H76.3569C76.2729 12.486 76.1982 12.4673 76.1329 12.43C76.0676 12.3927 76.0209 12.3227 75.9929 12.22C76.0022 11.9307 75.8716 11.6833 75.6009 11.478C75.3396 11.2727 74.9849 11.17 74.5369 11.17C74.0329 11.17 73.5989 11.2633 73.2349 11.45C72.8802 11.6367 72.6562 11.926 72.5629 12.318C72.5162 12.5793 72.5489 12.7987 72.6609 12.976C72.7729 13.144 72.9829 13.2933 73.2909 13.424C73.5989 13.5547 74.0236 13.6947 74.5649 13.844C75.3302 14.0213 75.9322 14.2407 76.3709 14.502C76.8189 14.754 77.1222 15.0713 77.2809 15.454C77.4396 15.8367 77.4582 16.3033 77.3369 16.854C77.1502 17.7687 76.6789 18.464 75.9229 18.94C75.1669 19.4067 74.1682 19.64 72.9269 19.64Z" fill="white" fill-opacity="0.9"/>
<defs>
<clipPath id="clip0_1059_4556">
<rect width="24" height="24" fill="white" transform="translate(7.5 3)"/>
</clipPath>
</defs>
</svg>
