<svg width="129" height="30" viewBox="0 0 129 30" fill="none" xmlns="http://www.w3.org/2000/svg">
<rect width="129" height="30" fill="#3178C6"/>
<g clip-path="url(#clip0_1059_4578)">
<path d="M26.2 4H10.8C8.97746 4 7.5 5.47746 7.5 7.3V22.7C7.5 24.5225 8.97746 26 10.8 26H26.2C28.0225 26 29.5 24.5225 29.5 22.7V7.3C29.5 5.47746 28.0225 4 26.2 4Z" fill="white"/>
<path d="M17.5117 16.203H20.2617V14.4413H12.5703V16.203H15.3203V24.0663H17.5117V16.203ZM21.1211 23.6366C21.4691 23.8171 21.8945 23.9503 22.3672 24.0405C22.8398 24.1308 23.3555 24.1737 23.8711 24.1737C24.3867 24.1737 24.8594 24.1265 25.332 24.0276C25.8047 23.9288 26.1914 23.7655 26.5352 23.555C26.8832 23.3272 27.1797 23.0393 27.3516 22.6526C27.5234 22.2659 27.6566 21.8362 27.6566 21.2776C27.6566 20.8866 27.5965 20.5472 27.4805 20.2464C27.3645 19.9456 27.1969 19.6878 26.9648 19.4729C26.7457 19.2452 26.4922 19.0433 26.1914 18.8714C25.8906 18.6995 25.5469 18.519 25.1602 18.3558C24.8766 18.2397 24.6445 18.128 24.3867 18.0163C24.1633 17.9046 23.9699 17.7929 23.8281 17.6811C23.6691 17.5651 23.5488 17.4448 23.4629 17.3202C23.377 17.1913 23.334 17.0495 23.334 16.8905C23.334 16.7444 23.3722 16.6112 23.45 16.4909C23.5278 16.3706 23.6348 16.2718 23.7723 16.1858C23.9098 16.0999 24.0816 16.0354 24.2879 15.9882C24.4898 15.9409 24.7133 15.9194 24.9754 15.9194C25.1559 15.9194 25.3449 15.9327 25.534 15.9598C25.7316 15.9869 25.9336 16.0286 26.1355 16.0844C26.3375 16.1403 26.5352 16.209 26.7371 16.295C26.9262 16.3809 27.1023 16.4797 27.2527 16.5915V14.5719C26.9262 14.4473 26.5652 14.3528 26.1785 14.2926C25.7918 14.2325 25.3621 14.2024 24.8465 14.2024C24.3309 14.2024 23.8582 14.2583 23.3855 14.3657C22.9129 14.4731 22.5262 14.645 22.1824 14.8813C21.8344 15.1133 21.5809 15.3969 21.366 15.7836C21.1641 16.1446 21.0652 16.5571 21.0652 17.0727C21.0652 17.7172 21.25 18.2758 21.6238 18.7055C21.9934 19.1782 22.5691 19.5219 23.2996 19.8657C23.5961 19.986 23.8582 20.1063 24.116 20.2223C24.3738 20.3383 24.5887 20.4586 24.7605 20.5833C24.9453 20.7079 25.0914 20.8454 25.1902 20.9915C25.2977 21.1375 25.3535 21.3094 25.3535 21.5071C25.3535 21.6446 25.32 21.7735 25.2547 21.8938C25.1894 22.0141 25.0871 22.1172 24.9496 22.2032C24.8121 22.2891 24.6445 22.3579 24.434 22.4094C24.232 22.4567 24.0043 22.4825 23.7035 22.4825C23.2309 22.4825 22.7582 22.4008 22.3285 22.2375C21.8559 22.0743 21.4262 21.8293 21.1211 21.5741V23.6366Z" fill="#3178C6"/>
</g>
<path d="M37.174 19.5C37.0807 19.5 37.006 19.4673 36.95 19.402C36.9033 19.3367 36.8893 19.2573 36.908 19.164L38.56 11.422H35.97C35.8673 11.422 35.788 11.3893 35.732 11.324C35.6853 11.2587 35.6713 11.1793 35.69 11.086L35.914 10.05C35.9327 9.94733 35.9793 9.86333 36.054 9.798C36.138 9.73267 36.2267 9.7 36.32 9.7H43.46C43.5627 9.7 43.6373 9.73267 43.684 9.798C43.74 9.86333 43.7587 9.94733 43.74 10.05L43.516 11.086C43.4973 11.1793 43.4507 11.2587 43.376 11.324C43.3013 11.3893 43.2127 11.422 43.11 11.422H40.52L38.868 19.164C38.8493 19.2573 38.8027 19.3367 38.728 19.402C38.6533 19.4673 38.5647 19.5 38.462 19.5H37.174ZM46.1562 19.5C46.0629 19.5 45.9882 19.4673 45.9322 19.402C45.8855 19.3367 45.8715 19.2573 45.8902 19.164L46.5482 16L44.4902 10.148C44.4529 10.0453 44.4669 9.94733 44.5322 9.854C44.6069 9.75133 44.7049 9.7 44.8262 9.7H45.9882C46.1002 9.7 46.1842 9.728 46.2402 9.784C46.2962 9.84 46.3382 9.90067 46.3662 9.966L47.8362 14.026L51.0422 9.966C51.0795 9.90067 51.1402 9.84 51.2242 9.784C51.3082 9.728 51.4062 9.7 51.5182 9.7H52.9042C53.0535 9.7 53.1329 9.75133 53.1422 9.854C53.1609 9.95667 53.1329 10.0547 53.0582 10.148L48.5082 16L47.8222 19.164C47.8035 19.2573 47.7569 19.3367 47.6822 19.402C47.6075 19.4673 47.5189 19.5 47.4162 19.5H46.1562ZM53.0177 19.5C52.9151 19.5 52.8357 19.4673 52.7797 19.402C52.7331 19.3367 52.7191 19.2573 52.7377 19.164L54.6837 10.05C54.7024 9.94733 54.7491 9.86333 54.8237 9.798C54.8984 9.73267 54.9871 9.7 55.0897 9.7H58.6737C59.2244 9.7 59.7144 9.76533 60.1437 9.896C60.5824 10.0267 60.9417 10.2227 61.2217 10.484C61.5017 10.7453 61.6931 11.072 61.7957 11.464C61.9077 11.8467 61.9077 12.2947 61.7957 12.808C61.5717 13.844 61.1144 14.6187 60.4237 15.132C59.7331 15.636 58.8184 15.888 57.6797 15.888H55.4397L54.7397 19.164C54.7211 19.2573 54.6744 19.3367 54.5997 19.402C54.5251 19.4673 54.4364 19.5 54.3337 19.5H53.0177ZM55.7477 14.334H57.7217C58.2351 14.334 58.6784 14.208 59.0517 13.956C59.4344 13.6947 59.6817 13.312 59.7937 12.808C59.8591 12.4907 59.8731 12.22 59.8357 11.996C59.7984 11.7627 59.6724 11.5807 59.4577 11.45C59.2524 11.3193 58.9257 11.254 58.4777 11.254H56.4057L55.7477 14.334ZM62.3999 19.5C62.2973 19.5 62.2179 19.4673 62.1619 19.402C62.1153 19.3367 62.1013 19.2573 62.1199 19.164L64.0659 10.05C64.0846 9.94733 64.1313 9.86333 64.2059 9.798C64.2806 9.73267 64.3693 9.7 64.4719 9.7H70.6319C70.7346 9.7 70.8093 9.73267 70.8559 9.798C70.9026 9.86333 70.9166 9.94733 70.8979 10.05L70.7019 10.974C70.6833 11.0673 70.6366 11.1467 70.5619 11.212C70.4873 11.2773 70.3986 11.31 70.2959 11.31H65.6899L65.1579 13.788H69.4559C69.5586 13.788 69.6333 13.8207 69.6799 13.886C69.7266 13.942 69.7406 14.0213 69.7219 14.124L69.5399 14.992C69.5213 15.0947 69.4746 15.1787 69.3999 15.244C69.3253 15.3 69.2366 15.328 69.1339 15.328H64.8359L64.2759 17.89H69.0079C69.1106 17.89 69.1853 17.9227 69.2319 17.988C69.2786 18.0533 69.2926 18.1373 69.2739 18.24L69.0779 19.164C69.0593 19.2573 69.0126 19.3367 68.9379 19.402C68.8633 19.4673 68.7746 19.5 68.6719 19.5H62.3999ZM74.4132 19.64C73.5452 19.64 72.8359 19.514 72.2852 19.262C71.7346 19.01 71.3332 18.6787 71.0812 18.268C70.8386 17.848 70.7546 17.4047 70.8292 16.938C70.8386 16.854 70.8712 16.784 70.9272 16.728C70.9926 16.672 71.0672 16.644 71.1512 16.644H72.4392C72.5512 16.644 72.6306 16.672 72.6772 16.728C72.7332 16.7747 72.7752 16.8353 72.8032 16.91C72.8312 17.0873 72.9059 17.2647 73.0272 17.442C73.1486 17.61 73.3306 17.75 73.5732 17.862C73.8252 17.974 74.1472 18.03 74.5392 18.03C75.2112 18.03 75.7432 17.918 76.1352 17.694C76.5272 17.47 76.7652 17.1667 76.8492 16.784C76.9052 16.5133 76.8632 16.2987 76.7232 16.14C76.5832 15.972 76.3406 15.8227 75.9952 15.692C75.6499 15.552 75.1926 15.4073 74.6232 15.258C73.9699 15.09 73.4332 14.8753 73.0132 14.614C72.5932 14.3527 72.3039 14.026 72.1452 13.634C71.9959 13.242 71.9819 12.7707 72.1032 12.22C72.2712 11.408 72.7006 10.764 73.3912 10.288C74.0912 9.80267 75.0059 9.56 76.1352 9.56C76.7232 9.56 77.2366 9.644 77.6752 9.812C78.1139 9.97067 78.4779 10.1853 78.7672 10.456C79.0566 10.7173 79.2619 11.002 79.3832 11.31C79.5046 11.6087 79.5419 11.9027 79.4952 12.192C79.4859 12.2667 79.4532 12.3367 79.3972 12.402C79.3412 12.458 79.2666 12.486 79.1732 12.486H77.8432C77.7592 12.486 77.6846 12.4673 77.6192 12.43C77.5539 12.3927 77.5072 12.3227 77.4792 12.22C77.4886 11.9307 77.3579 11.6833 77.0872 11.478C76.8259 11.2727 76.4712 11.17 76.0232 11.17C75.5192 11.17 75.0852 11.2633 74.7212 11.45C74.3666 11.6367 74.1426 11.926 74.0492 12.318C74.0026 12.5793 74.0352 12.7987 74.1472 12.976C74.2592 13.144 74.4692 13.2933 74.7772 13.424C75.0852 13.5547 75.5099 13.6947 76.0512 13.844C76.8166 14.0213 77.4186 14.2407 77.8572 14.502C78.3052 14.754 78.6086 15.0713 78.7672 15.454C78.9259 15.8367 78.9446 16.3033 78.8232 16.854C78.6366 17.7687 78.1652 18.464 77.4092 18.94C76.6532 19.4067 75.6546 19.64 74.4132 19.64ZM83.928 19.64C83.2933 19.64 82.7333 19.556 82.248 19.388C81.772 19.22 81.38 18.9727 81.072 18.646C80.7733 18.31 80.568 17.9087 80.456 17.442C80.344 16.9753 80.3393 16.4433 80.442 15.846C80.5073 15.4633 80.5867 15.0527 80.68 14.614C80.7827 14.1753 80.8807 13.7553 80.974 13.354C81.1793 12.57 81.4827 11.8933 81.884 11.324C82.2947 10.7547 82.8173 10.3207 83.452 10.022C84.0867 9.714 84.8427 9.56 85.72 9.56C86.3453 9.56 86.9007 9.63933 87.386 9.798C87.8713 9.95667 88.2727 10.1853 88.59 10.484C88.9167 10.7827 89.1453 11.128 89.276 11.52C89.4067 11.912 89.4253 12.3413 89.332 12.808C89.3227 12.892 89.29 12.962 89.234 13.018C89.178 13.074 89.108 13.102 89.024 13.102H87.68C87.568 13.102 87.4793 13.0787 87.414 13.032C87.358 12.976 87.33 12.8873 87.33 12.766C87.358 12.1687 87.2087 11.7533 86.882 11.52C86.5647 11.2867 86.1353 11.17 85.594 11.17C84.9687 11.17 84.4227 11.3473 83.956 11.702C83.4893 12.0473 83.158 12.6213 82.962 13.424C82.766 14.1893 82.598 14.9733 82.458 15.776C82.318 16.5787 82.388 17.1573 82.668 17.512C82.9573 17.8573 83.4147 18.03 84.04 18.03C84.5813 18.03 85.062 17.918 85.482 17.694C85.9113 17.4607 86.2613 17.0407 86.532 16.434C86.5973 16.3033 86.6627 16.2147 86.728 16.168C86.7933 16.1213 86.8773 16.098 86.98 16.098H88.338C88.422 16.098 88.4873 16.126 88.534 16.182C88.5807 16.238 88.5947 16.308 88.576 16.392C88.4547 16.84 88.268 17.2647 88.016 17.666C87.7733 18.058 87.456 18.4033 87.064 18.702C86.6813 18.9913 86.2287 19.22 85.706 19.388C85.1927 19.556 84.6 19.64 83.928 19.64ZM90.2226 19.5C90.1293 19.5 90.0593 19.4673 90.0126 19.402C89.966 19.3367 89.952 19.2573 89.9706 19.164L91.9026 10.05C91.9213 9.94733 91.968 9.86333 92.0426 9.798C92.1266 9.73267 92.2153 9.7 92.3086 9.7H95.9346C97.064 9.7 97.8993 9.96133 98.4406 10.484C98.982 11.0067 99.1453 11.7673 98.9306 12.766C98.7813 13.4567 98.492 14.0307 98.0626 14.488C97.6333 14.9453 97.106 15.2767 96.4806 15.482L97.7686 19.052C97.778 19.08 97.7826 19.108 97.7826 19.136C97.7826 19.1547 97.778 19.178 97.7686 19.206C97.7593 19.29 97.7173 19.36 97.6426 19.416C97.568 19.472 97.4933 19.5 97.4186 19.5H96.1446C95.986 19.5 95.874 19.458 95.8086 19.374C95.7526 19.29 95.706 19.206 95.6686 19.122L94.5766 15.804H92.6306L91.9166 19.164C91.898 19.2573 91.8466 19.3367 91.7626 19.402C91.688 19.4673 91.5993 19.5 91.4966 19.5H90.2226ZM92.9666 14.222H94.9266C95.496 14.222 95.9486 14.096 96.2846 13.844C96.6206 13.5827 96.8353 13.2187 96.9286 12.752C97.0313 12.2853 96.9706 11.9213 96.7466 11.66C96.532 11.3893 96.1353 11.254 95.5566 11.254H93.5826L92.9666 14.222ZM99.5866 19.5C99.4932 19.5 99.4186 19.4673 99.3626 19.402C99.3159 19.3367 99.3019 19.2573 99.3206 19.164L101.267 10.036C101.285 9.94267 101.332 9.86333 101.407 9.798C101.481 9.73267 101.57 9.7 101.673 9.7H102.989C103.082 9.7 103.157 9.73267 103.213 9.798C103.269 9.86333 103.287 9.94267 103.269 10.036L101.309 19.164C101.29 19.2573 101.243 19.3367 101.169 19.402C101.094 19.4673 101.01 19.5 100.917 19.5H99.5866ZM103.924 19.5C103.821 19.5 103.742 19.4673 103.686 19.402C103.639 19.3367 103.625 19.2573 103.644 19.164L105.59 10.05C105.609 9.94733 105.655 9.86333 105.73 9.798C105.805 9.73267 105.893 9.7 105.996 9.7H109.58C110.131 9.7 110.621 9.76533 111.05 9.896C111.489 10.0267 111.848 10.2227 112.128 10.484C112.408 10.7453 112.599 11.072 112.702 11.464C112.814 11.8467 112.814 12.2947 112.702 12.808C112.478 13.844 112.021 14.6187 111.33 15.132C110.639 15.636 109.725 15.888 108.586 15.888H106.346L105.646 19.164C105.627 19.2573 105.581 19.3367 105.506 19.402C105.431 19.4673 105.343 19.5 105.24 19.5H103.924ZM106.654 14.334H108.628C109.141 14.334 109.585 14.208 109.958 13.956C110.341 13.6947 110.588 13.312 110.7 12.808C110.765 12.4907 110.779 12.22 110.742 11.996C110.705 11.7627 110.579 11.5807 110.364 11.45C110.159 11.3193 109.832 11.254 109.384 11.254H107.312L106.654 14.334ZM115.42 19.5C115.327 19.5 115.252 19.4673 115.196 19.402C115.15 19.3367 115.136 19.2573 115.154 19.164L116.806 11.422H114.216C114.114 11.422 114.034 11.3893 113.978 11.324C113.932 11.2587 113.918 11.1793 113.936 11.086L114.16 10.05C114.179 9.94733 114.226 9.86333 114.3 9.798C114.384 9.73267 114.473 9.7 114.566 9.7H121.706C121.809 9.7 121.884 9.73267 121.93 9.798C121.986 9.86333 122.005 9.94733 121.986 10.05L121.762 11.086C121.744 11.1793 121.697 11.2587 121.622 11.324C121.548 11.3893 121.459 11.422 121.356 11.422H118.766L117.114 19.164C117.096 19.2573 117.049 19.3367 116.974 19.402C116.9 19.4673 116.811 19.5 116.708 19.5H115.42Z" fill="white" fill-opacity="0.9"/>
<defs>
<clipPath id="clip0_1059_4578">
<rect width="22" height="22" fill="white" transform="translate(7.5 4)"/>
</clipPath>
</defs>
</svg>
